<?xml version="1.0" encoding="UTF-8"?>
<svg id="Layer_2" data-name="Layer 2" xmlns="http://www.w3.org/2000/svg" viewBox="0 0 340.64 92.85">
  <defs>
    <style>
      .cls-1 {
        fill: #000000;
      }
    </style>
  </defs>
  <g id="Layer_1-2" data-name="Layer 1">
    <g>
      <g>
        <path class="cls-1" d="M51.85,90.77l.21-1.57h3.23c2.02,0,3.34-.63,3.96-1.88.63-1.25.45-2.89-.52-4.9-1.25-2.64-2.54-5.32-3.86-8.03-1.32-2.71-2.61-5.39-3.86-8.03h-30.15l-6.05,14.5c-1.04,2.5-1.13,4.52-.26,6.05.87,1.53,2.56,2.29,5.06,2.29h2.5v1.57H0v-1.57h1.25c2.02,0,3.88-.63,5.58-1.88,1.7-1.25,3.01-2.89,3.91-4.9,4.45-10.36,8.88-20.71,13.3-31.03,4.42-10.33,8.85-20.67,13.3-31.03h2.61l30.36,62.8c2.23,4.03,5.53,6.05,9.91,6.05v1.57h-28.37ZM49.76,63.75l-15.02-30.88-12.83,30.88h27.85Z"/>
        <path class="cls-1" d="M106.28,23.48v-1.56h17.11l48.3,54.45V30.26c0-2.02-.61-3.65-1.83-4.9-1.22-1.25-2.83-1.88-4.85-1.88h-1.15v-1.56h18.78v1.56h-1.15c-2.02,0-3.63.63-4.85,1.88-1.22,1.25-1.83,2.89-1.83,4.9v62.59h-2.4c-9.25-10.43-18.45-20.81-27.59-31.14-9.15-10.33-18.34-20.71-27.59-31.14v51.85c0,2.02.61,3.65,1.83,4.9,1.22,1.25,2.83,1.88,4.85,1.88h1.15v1.57h-18.78v-1.57h1.15c2.02,0,3.63-.63,4.85-1.88,1.22-1.25,1.83-2.89,1.83-4.9V30.26c0-2.02-.61-3.65-1.83-4.9-1.22-1.25-2.83-1.88-4.85-1.88h-1.15Z"/>
        <path class="cls-1" d="M260.13,90.77l.21-1.57h3.23c2.02,0,3.34-.63,3.96-1.88.63-1.25.45-2.89-.52-4.9-1.25-2.64-2.54-5.32-3.86-8.03-1.32-2.71-2.61-5.39-3.86-8.03h-30.15l-6.05,14.5c-1.04,2.5-1.13,4.52-.26,6.05.87,1.53,2.56,2.29,5.06,2.29h2.5v1.57h-22.12v-1.57h1.25c2.02,0,3.88-.63,5.58-1.88,1.7-1.25,3.01-2.89,3.91-4.9,4.45-10.36,8.88-20.71,13.3-31.03,4.42-10.33,8.85-20.67,13.3-31.03h2.61l30.36,62.8c2.22,4.03,5.53,6.05,9.91,6.05v1.57h-28.38ZM258.04,63.75l-15.02-30.88-12.83,30.88h27.85Z"/>
        <path class="cls-1" d="M340.64,89.2v1.57h-26.08v-1.57h1.15c2.02,0,3.63-.63,4.85-1.88,1.22-1.25,1.83-2.89,1.83-4.9V30.26c0-2.02-.61-3.65-1.83-4.9-1.22-1.25-2.83-1.88-4.85-1.88h-1.15v-1.56h26.08v1.56h-1.15c-2.02,0-3.63.63-4.85,1.88-1.22,1.25-1.83,2.89-1.83,4.9v52.16c0,2.02.61,3.65,1.83,4.9,1.22,1.25,2.83,1.88,4.85,1.88h1.15Z"/>
      </g>
      <path class="cls-1" d="M182.45,2.06c.66.64-3.74,5.72-4.53,6.46-16.2,15.08-36.43-10.39-51.12,1.21-1.02.81-.86,2.2-1.98,2.18.41-4.05,5.76-9.27,9.32-10.76,12.12-5.07,27.54,8.51,41.34,4.94,3.3-.85,4.08-3.2,6.96-4.03Z"/>
    </g>
  </g>
</svg>
