<?xml version="1.0" encoding="UTF-8"?>
<svg xmlns="http://www.w3.org/2000/svg" xmlns:xlink="http://www.w3.org/1999/xlink" version="1.2" >
<font id="Ammar Thin">
<font-face  font-family="Ammar" units-per-em="1024" ascent="936" descent="-280" font-style="normal" font-weight="100" font-stretch="normal" cap-height="926" x-height="468" underline-position="-125" underline-thickness="50" />
<missing-glyph  horiz-adv-x="100" d="" />
<glyph glyph-name="NULL" d="" />
<glyph glyph-name="CR" unicode="&#xd;" horiz-adv-x="256" d="" />
<glyph glyph-name="space" unicode="&#x20;" horiz-adv-x="274" d="" />
<glyph glyph-name="exclam" unicode="&#x21;" horiz-adv-x="153" d="M94 15 C94 41 54 41 54 15 C54 -11 94 -11 94 15 L94 15 Z M93 620 C94 647 86 665 73 665 C60 665 52 647 53 620 C53 467 73 110 73 110 L76 110 C76 110 93 467 93 620 L93 620 Z " />
<glyph glyph-name="quotedbl" unicode="&#x22;" horiz-adv-x="212" d="M121 660 L143 489 L150 489 L172 660 L121 660 L121 660 Z M40 660 L62 489 L69 489 L91 660 L40 660 L40 660 Z " />
<glyph glyph-name="numbersign" unicode="&#x23;" horiz-adv-x="650" d="M477 692 L446 468 L234 468 L265 692 L257 692 L226 468 L61 468 L59 452 L224 452 L191 208 L23 208 L21 192 L188 192 L162 0 L170 0 L196 192 L408 192 L382 0 L389 0 L415 192 L585 192 L588 208 L418 208 L451 452 L628 452 L630 468 L453 468 L484 692 L477 692 L477 692 Z M232 452 L444 452 L411 208 L199 208 L232 452 L232 452 Z " />
<glyph glyph-name="dollar" unicode="&#x24;" horiz-adv-x="596" d="M44 180 L44 48 L46 52 C46 51 45 49 44 48 C82 26 149 9 227 1 L227 -75 L241 -75 L241 0 C262 -2 284 -3 306 -4 L306 -75 L320 -75 L320 -5 C326 -5 332 -5 338 -5 C465 -5 550 61 550 159 C550 242 458 313 319 338 L319 658 C348 656 377 652 405 646 C436 636 463 607 476 571 C485 544 498 508 507 481 L520 481 L520 613 L519 610 C519 611 520 612 520 613 C474 640 397 659 319 665 L319 737 L305 737 L305 666 C283 667 260 667 239 665 L239 737 L225 737 L225 664 C122 649 56 584 56 493 C56 430 121 373 225 341 L225 11 C151 20 95 71 69 146 C65 157 60 172 56 183 L44 180 L44 180 Z M239 360 L239 662 C260 664 283 664 305 663 L305 345 C282 349 260 354 239 360 L239 360 Z M225 364 C131 396 72 447 72 503 C72 586 132 645 225 660 L225 364 L225 364 Z M239 337 C260 331 282 327 305 323 L305 5 C283 6 261 8 240 10 L239 337 L239 337 Z M320 321 C451 294 536 228 536 154 C536 65 457 5 339 5 C333 5 327 5 321 5 L320 321 L320 321 Z " />
<glyph glyph-name="percent" unicode="&#x25;" horiz-adv-x="890" d="M50 538 C50 647 108 719 196 719 C287 719 347 643 347 530 C347 423 289 352 201 352 C110 352 50 426 50 538 L50 538 Z M30 534 C30 421 98 345 199 345 C299 345 366 422 366 537 C366 650 299 725 199 725 C98 725 30 649 30 534 L30 534 Z M562 187 C562 296 619 369 705 369 C797 369 859 293 859 179 C859 73 799 2 710 2 C621 2 562 76 562 187 L562 187 Z M542 183 C542 70 608 -5 708 -5 C810 -5 878 71 878 186 C878 299 810 375 708 375 C608 375 542 298 542 183 L542 183 Z M203 -3 L716 717 L708 723 L194 3 L203 -3 L203 -3 Z " />
<glyph glyph-name="ampersand" unicode="&#x26;" horiz-adv-x="741" d="M268 360 L269 359 C267 358 265 357 263 356 C217 418 190 468 190 516 C190 602 248 660 334 660 C422 660 481 612 481 540 C481 454 396 381 269 359 L268 360 L268 360 Z M675 299 L521 299 L521 284 L532 284 C570 284 596 258 596 219 L596 189 C596 138 571 95 527 63 C487 95 441 142 385 208 C339 264 299 311 267 353 C269 354 271 355 273 356 L272 358 C407 382 497 455 497 542 C497 616 433 665 337 665 C240 665 175 602 175 508 C175 460 201 410 245 350 C129 308 53 233 53 158 C53 61 146 -4 285 -4 C382 -4 463 16 519 52 C606 -12 671 -12 744 1 L744 4 C678 -7 618 -5 532 62 C576 95 601 139 601 191 L601 221 C601 260 627 286 665 286 L676 286 L675 299 L675 299 Z M513 56 C460 24 385 6 295 6 C161 6 71 70 71 166 C71 238 141 309 248 349 C280 305 322 256 371 198 C426 133 473 87 515 56 L513 56 L513 56 Z " />
<glyph glyph-name="quotesingle" unicode="&#x27;" horiz-adv-x="131" d="M40 660 L62 489 L69 489 L91 660 L40 660 L40 660 Z " />
<glyph glyph-name="parenleft" unicode="&#x28;" horiz-adv-x="198" d="M185 690 C110 601 60 481 60 270 C60 59 110 -61 185 -150 L188 -148 C120 -67 75 49 75 270 C75 491 120 607 188 688 L185 690 L185 690 Z " />
<glyph glyph-name="parenright" unicode="&#x29;" horiz-adv-x="198" d="M10 -150 C85 -61 135 59 135 270 C135 481 85 601 10 690 L7 688 C75 607 120 491 120 270 C120 49 75 -67 7 -148 L10 -150 L10 -150 Z " />
<glyph glyph-name="asterisk" unicode="&#x2a;" horiz-adv-x="246" d="M257 598 C266 602 261 611 252 606 L258 596 L257 598 L257 598 Z M50 477 L50 475 C83 496 116 518 149 538 L144 419 C144 408 156 408 156 419 L151 537 L250 474 L251 476 C251 476 255 483 256 484 L151 539 L256 595 L250 605 L151 542 L156 659 C156 670 144 670 144 659 L149 541 L149 541 L49 604 C40 611 34 601 43 597 L43 595 L146 541 L43 487 C34 482 41 472 49 478 L50 477 L50 477 Z M251 477 L251 477 L251 477 L251 477 Z M251 477 C261 470 265 480 258 486 L251 477 L251 477 Z " />
<glyph glyph-name="plus" unicode="&#x2b;" horiz-adv-x="555" d="M270 450 L270 254 L75 254 L75 246 L270 246 L270 50 L280 50 L280 246 L475 246 L475 254 L280 254 L280 450 L270 450 L270 450 Z " />
<glyph glyph-name="comma" unicode="&#x2c;" horiz-adv-x="151" d="M79 33 C68 33 60 25 60 14 C60 3 75 -12 84 -1 C90 -27 81 -56 67 -64 L67 -68 C87 -58 101 -33 101 -6 C101 14 98 33 79 33 L79 33 Z " />
<glyph glyph-name="hyphen" unicode="&#x2d;" horiz-adv-x="405" d="M20 227 L385 227 L385 243 L20 243 L20 227 L20 227 Z " />
<glyph glyph-name="period" unicode="&#x2e;" horiz-adv-x="205" d="M145 15 C145 41 105 41 105 15 C105 -11 145 -11 145 15 L145 15 Z " />
<glyph glyph-name="slash" unicode="&#x2f;" horiz-adv-x="319" d="M0 -145 L9 -145 L319 710 L310 710 L0 -145 L0 -145 Z " />
<glyph glyph-name="zero" unicode="0" horiz-adv-x="687" d="M72 250 C72 401 181 501 344 501 C507 501 615 401 615 250 C615 99 507 -1 344 -1 C181 -1 72 99 72 250 L72 250 Z M50 250 C50 97 168 -5 344 -5 C520 -5 637 97 637 250 C637 403 520 505 344 505 C168 505 50 403 50 250 L50 250 Z " />
<glyph glyph-name="one" unicode="1" horiz-adv-x="280" d="M225 15 L214 15 C176 15 150 41 150 80 L150 420 C150 459 176 485 214 485 L225 485 L225 500 L55 500 L55 485 L66 485 C104 485 130 459 130 420 L130 80 C130 41 104 15 66 15 L55 15 L55 0 L225 0 L225 15 L225 15 Z " />
<glyph glyph-name="two" unicode="2" horiz-adv-x="575" d="M543 20 C543 20 549 90 549 95 L534 95 L533 84 C529 46 501 20 462 20 L62 20 C333 164 511 238 511 347 C511 442 432 505 313 505 C204 505 107 446 71 357 L74 356 C106 436 198 490 303 490 C415 490 489 430 489 340 C489 229 316 158 54 20 L54 20 C45 14 34 9 24 4 L24 0 L540 0 L543 20 L543 20 Z " />
<glyph glyph-name="three" unicode="3" horiz-adv-x="546" d="M287 204 C400 204 475 138 475 39 C475 -104 295 -204 26 -211 L26 -215 C308 -207 496 -105 496 40 C496 156 383 230 241 204 C364 249 443 317 443 380 C443 454 372 504 266 504 C193 504 91 452 11 375 L14 372 C87 443 184 490 256 490 C356 490 423 444 423 374 C423 309 341 239 215 197 C211 196 207 195 203 194 L203 191 C226 198 257 203 288 203 L287 204 L287 204 Z " />
<glyph glyph-name="four" unicode="4" horiz-adv-x="638" d="M26 4 L26 0 L445 0 L445 -150 L465 -150 L465 0 L628 0 L628 9 L465 9 L465 505 L462 505 C378 459 26 4 26 4 L26 4 Z M39 9 C86 69 357 415 451 488 C448 483 446 478 446 475 L446 8 L39 9 L39 9 Z " />
<glyph glyph-name="five" unicode="5" horiz-adv-x="529" d="M501 575 L486 575 L482 564 C469 526 435 500 396 500 L100 500 C100 423 70 243 70 243 L75 243 C75 243 75 245 76 249 C76 245 76 242 76 242 L213 242 C361 242 460 168 460 57 C460 -82 289 -176 32 -178 L32 -183 C301 -180 480 -82 480 63 C480 182 377 262 223 262 L79 262 C86 306 103 412 106 478 L471 478 C482 510 493 544 502 574 L501 575 L501 575 Z " />
<glyph glyph-name="six" unicode="6" horiz-adv-x="668" d="M612 715 C293 704 80 538 80 301 C80 117 186 -5 345 -5 C516 -5 625 83 618 215 C618 341 520 425 372 425 C151 425 60 356 144 253 L148 253 C66 353 154 420 369 420 C506 420 597 338 597 214 C604 86 504 1 347 1 C200 1 102 114 102 283 C102 291 103 301 103 308 C103 540 307 701 613 712 L612 715 L612 715 Z " />
<glyph glyph-name="seven" unicode="7" horiz-adv-x="533" d="M28 480 C28 480 22 410 22 405 L37 405 L38 416 C42 454 70 480 109 480 L511 480 L183 -140 L205 -140 C311 73 417 286 523 499 L521 501 L30 501 L28 480 L28 480 Z " />
<glyph glyph-name="eight" unicode="8" horiz-adv-x="636" d="M347 342 C472 353 555 421 555 516 L556 516 C556 605 464 665 327 665 C189 665 97 598 97 498 C97 406 182 338 309 326 C166 320 71 257 71 164 C71 63 174 -5 329 -5 C483 -5 586 66 586 172 C586 257 492 324 347 342 L347 342 Z M342 343 C334 344 326 345 318 346 C196 356 114 420 114 507 C114 600 198 662 325 662 C453 662 539 603 539 514 C539 420 461 353 342 344 L342 343 L342 343 Z M90 168 C90 260 180 322 318 326 C468 314 567 250 567 166 C567 66 472 0 330 0 C186 0 90 67 90 168 L90 168 Z " />
<glyph glyph-name="nine" unicode="9" horiz-adv-x="668" d="M56 -215 C375 -204 588 -38 588 199 C588 383 482 505 323 505 C152 505 43 417 50 285 C50 159 148 75 296 75 C517 75 608 144 524 247 L520 247 C602 147 514 80 299 80 C162 80 71 162 71 286 C64 414 164 499 321 499 C468 499 566 386 566 217 C566 209 565 199 565 192 C565 -40 361 -201 55 -212 L56 -215 L56 -215 Z " />
<glyph glyph-name="colon" unicode="&#x3a;" horiz-adv-x="205" d="M145 372 C145 398 105 398 105 372 C105 346 145 346 145 372 L145 372 Z M145 15 C145 41 105 41 105 15 C105 -11 145 -11 145 15 L145 15 Z " />
<glyph glyph-name="semicolon" unicode="&#x3b;" horiz-adv-x="151" d="M99 366 C99 392 59 392 59 366 C59 340 99 340 99 366 L99 366 Z M79 33 C68 33 60 25 60 14 C60 3 75 -12 84 -1 C90 -27 81 -56 67 -64 L67 -68 C87 -58 101 -33 101 -6 C101 14 98 33 79 33 L79 33 Z " />
<glyph glyph-name="less" unicode="&#x3c;" horiz-adv-x="629" d="M554 500 L42 281 C41 281 41 280 40 280 L40 270 L42 269 L554 50 L554 60 L49 275 L554 490 L554 500 L554 500 Z " />
<glyph glyph-name="equal" unicode="&#x3d;" horiz-adv-x="620" d="M73 204 L73 196 L550 196 L550 204 L73 204 L73 204 Z M73 304 L73 296 L550 296 L550 304 L73 304 L73 304 Z " />
<glyph glyph-name="greater" unicode="&#x3e;" horiz-adv-x="626" d="M75 50 C245 125 416 199 585 275 L585 277 C582 277 578 282 575 282 L74 501 L74 491 L568 276 L74 61 L75 50 L75 50 Z " />
<glyph glyph-name="question" unicode="&#x3f;" horiz-adv-x="462" d="M191 15 C191 41 151 41 151 15 C151 -11 191 -11 191 15 L191 15 Z M158 665 C90 665 45 637 45 596 C45 594 50 593 57 593 C89 593 132 649 164 649 C319 649 422 573 422 460 C422 425 387 363 205 363 L170 363 C167 363 165 362 165 360 L170 104 L172 104 L177 348 L212 348 C393 348 427 418 427 458 C427 582 319 665 158 665 L158 665 Z " />
<glyph glyph-name="at" unicode="&#x40;" horiz-adv-x="1266" d="M1191 0 C1124 -145 901 -241 635 -241 C297 -241 71 -41 71 259 C71 559 296 759 633 759 C971 759 1196 593 1196 343 C1196 138 1109 2 978 2 C828 2 748 81 778 200 L848 480 L829 480 L801 369 C794 442 732 490 641 490 C461 490 341 374 341 201 C341 91 423 17 547 17 C640 17 718 73 753 161 C748 60 833 -5 975 -5 C1117 -5 1211 134 1211 343 C1211 596 980 764 633 764 C286 764 55 562 55 259 C55 -44 287 -246 635 -246 C904 -246 1129 -148 1198 0 L1191 0 L1191 0 Z M798 356 L759 200 C733 97 653 28 558 28 C441 28 363 99 363 205 C363 372 474 484 640 484 C735 484 798 432 799 356 L798 356 L798 356 Z " />
<glyph glyph-name="A" unicode="A" horiz-adv-x="693" d="M499 0 L688 0 L688 15 C646 15 615 34 596 76 L350 674 L345 674 L107 79 C91 40 55 14 17 14 L6 14 L6 -1 L193 -1 L193 14 L169 14 C121 14 102 46 121 94 L121 94 L178 238 L506 238 C527 185 550 131 570 79 C586 40 571 14 532 14 L499 14 L499 0 L499 0 Z M504 243 L180 243 L340 646 L504 243 L504 243 Z " />
<glyph glyph-name="B" unicode="B" horiz-adv-x="631" d="M377 353 C359 355 340 356 320 356 L156 355 L156 654 L408 654 C505 654 570 598 570 515 C570 423 493 360 376 354 L377 353 L377 353 Z M370 350 C502 336 586 274 586 187 C586 78 518 6 416 6 L156 6 L156 349 L358 349 C362 349 366 349 370 349 L370 350 L370 350 Z M58 645 L69 645 C107 645 133 619 133 580 L133 80 C133 41 107 15 69 15 L58 15 L58 0 L418 0 C533 0 610 75 610 187 C610 272 528 334 399 351 C516 363 592 425 592 515 C592 602 518 660 408 660 L58 660 L58 645 L58 645 Z " />
<glyph glyph-name="C" unicode="C" horiz-adv-x="823" d="M763 471 L763 601 L762 599 C762 600 763 601 763 602 C696 640 576 666 461 666 C227 666 71 532 71 331 C71 130 227 -4 461 -4 C576 -4 696 22 763 60 L756 180 C747 178 738 169 746 178 C744 177 742 176 740 175 C739 167 738 158 736 152 C710 77 640 21 558 8 C526 4 493 2 460 2 C240 2 94 134 94 331 C94 528 240 660 460 660 C502 660 545 657 586 651 L586 651 C651 641 711 585 736 512 L749 473 L763 471 L763 471 Z M740 176 C732 171 726 169 743 185 C742 182 741 179 740 176 L740 176 Z " />
<glyph glyph-name="D" unicode="D" horiz-adv-x="763" d="M59 645 L70 645 C108 645 134 619 134 580 L134 80 C134 41 108 15 70 15 L59 15 L59 0 L417 0 C595 0 713 132 713 330 C713 528 569 660 352 660 L59 660 L59 645 L59 645 Z M157 6 L157 654 L352 654 C555 654 691 524 691 330 C691 136 581 6 417 6 L157 6 L157 6 Z " />
<glyph glyph-name="E" unicode="E" horiz-adv-x="619" d="M439 264 L439 430 L427 430 L423 419 C411 381 370 355 319 355 L137 355 L137 654 L342 654 C402 654 455 614 475 554 L486 519 L497 519 L497 660 L40 660 L40 645 L51 645 C89 645 115 619 115 580 L115 80 C115 41 89 15 51 15 L40 15 L40 0 L505 0 L506 3 L505 3 C512 44 522 100 529 141 L518 141 L501 106 C471 46 411 6 351 6 L137 6 L137 349 L319 349 C370 349 411 320 423 277 L427 264 L439 264 L439 264 Z " />
<glyph glyph-name="F" unicode="F" horiz-adv-x="534" d="M40 645 L51 645 C89 645 115 619 115 580 L115 80 C115 41 89 15 51 15 L40 15 L40 0 L222 0 L222 15 L202 15 C163 15 137 41 137 80 L137 344 L309 344 C360 344 401 315 413 272 L417 259 L429 259 L429 425 L417 425 L413 414 C401 376 360 350 309 350 L137 350 L137 654 L372 654 C432 654 485 614 505 554 L516 519 L527 519 L527 660 L40 660 L40 645 L40 645 Z " />
<glyph glyph-name="G" unicode="G" horiz-adv-x="918" d="M743 471 L743 601 L742 599 C742 600 743 601 743 602 C676 640 559 666 449 666 C222 666 71 532 71 331 C71 130 222 -4 449 -4 C562 -4 681 22 748 60 L748 231 C748 270 774 296 812 296 L823 296 L823 311 L653 311 L653 296 L664 296 C702 296 728 270 728 231 L728 56 C661 23 552 2 449 2 C237 2 95 134 95 331 C95 528 237 660 449 660 C488 660 528 657 566 651 L566 651 C632 641 693 585 718 511 L731 472 L743 471 L743 471 Z " />
<glyph glyph-name="H" unicode="H" horiz-adv-x="857" d="M817 15 L806 15 C768 15 742 41 742 80 L742 580 C742 619 768 645 806 645 L817 645 L817 660 L645 660 L645 645 L656 645 C694 645 720 619 720 580 L720 350 L137 350 L137 580 C137 619 163 645 201 645 L212 645 L212 660 L40 660 L40 645 L51 645 C89 645 115 619 115 580 L115 80 C115 41 89 15 51 15 L40 15 L40 0 L212 0 L212 15 L201 15 C163 15 137 41 137 80 L137 344 L720 344 L720 80 C720 41 694 15 656 15 L645 15 L645 0 L817 0 L817 15 L817 15 Z " />
<glyph glyph-name="I" unicode="I" horiz-adv-x="252" d="M212 15 L201 15 C163 15 137 41 137 80 L137 580 C137 619 163 645 201 645 L212 645 L212 660 L40 660 L40 645 L51 645 C89 645 115 619 115 580 L115 80 C115 41 89 15 51 15 L40 15 L40 0 L212 0 L212 15 L212 15 Z " />
<glyph glyph-name="J" unicode="J" horiz-adv-x="431" d="M391 660 L219 660 L219 645 L230 645 C268 645 294 619 294 580 L294 200 C294 52 248 -6 128 -6 C71 -6 27 16 19 50 C17 61 -2 62 0 50 C9 14 58 -10 122 -10 C262 -10 316 54 316 219 L316 580 C316 619 342 645 380 645 L391 645 L391 660 L391 660 Z " />
<glyph glyph-name="K" unicode="K" horiz-adv-x="724" d="M675 660 L537 660 L537 645 L545 645 C570 645 554 623 506 589 L157 355 L157 580 C157 619 183 645 221 645 L232 645 L232 660 L59 660 L59 645 L70 645 C108 645 134 619 134 580 L134 80 C134 41 108 15 70 15 L59 15 L59 0 L232 0 L232 15 L221 15 C183 15 157 41 157 80 L157 355 L161 350 L162 351 C183 336 262 278 373 198 C574 52 666 -5 702 -5 L714 -5 L714 -1 C685 -1 603 55 390 210 C279 290 200 348 179 363 L505 582 C562 620 624 645 661 645 L673 645 L675 660 L675 660 Z " />
<glyph glyph-name="L" unicode="L" horiz-adv-x="619" d="M513 156 L487 96 C464 42 414 6 360 6 L137 6 L137 580 C137 619 163 645 201 645 L212 645 L212 660 L40 660 L40 645 L51 645 C89 645 115 619 115 580 L115 80 C115 41 89 15 51 15 L40 15 L40 0 L504 0 L505 3 C513 46 523 104 531 148 C525 151 513 156 513 156 L513 156 Z " />
<glyph glyph-name="M" unicode="M" horiz-adv-x="890" d="M708 0 L879 0 L879 15 L868 15 C832 15 806 38 801 73 C794 242 786 412 779 580 C777 619 801 645 838 645 L849 645 L849 660 L755 660 L464 19 L461 25 L158 660 L65 660 L65 645 L76 645 C114 645 138 620 138 582 L119 81 C118 42 91 16 53 16 L42 16 L42 1 L233 1 L233 16 L204 16 C156 16 125 48 127 96 L127 96 L147 634 C249 421 351 208 454 -4 L459 -4 L757 645 L781 72 C779 38 755 16 720 16 L709 16 L708 0 L708 0 Z " />
<glyph glyph-name="N" unicode="N" horiz-adv-x="788" d="M45 645 L56 645 C94 645 120 619 120 580 L120 80 C120 41 94 15 56 15 L45 15 L45 0 L202 0 L202 15 L191 15 C153 15 127 41 127 80 L127 641 C307 426 486 210 667 -4 L673 -4 L673 580 C673 619 699 645 737 645 L748 645 L748 660 L591 660 L591 645 L602 645 C640 645 666 619 666 580 L666 31 L140 660 L45 660 L45 645 L45 645 Z M127 651 L127 651 L127 651 Z " />
<glyph glyph-name="O" unicode="O" horiz-adv-x="856" d="M95 330 C95 508 212 659 439 659 C665 659 781 508 781 330 C781 152 665 1 439 1 C212 1 95 152 95 330 L95 330 Z M71 330 C71 149 196 -5 439 -5 C681 -5 806 149 806 330 C806 511 681 665 439 665 C196 665 71 511 71 330 L71 330 Z " />
<glyph glyph-name="P" unicode="P" horiz-adv-x="648" d="M232 15 L221 15 C183 15 157 41 157 80 L157 300 L375 300 C527 300 628 371 628 478 C628 587 549 660 430 660 L59 660 L59 645 L70 645 C108 645 134 619 134 580 L134 80 C134 41 108 15 70 15 L59 15 L59 0 L232 0 L232 15 L232 15 Z M157 306 L157 654 L430 654 C535 654 605 584 605 478 C605 374 513 305 375 305 C375 305 222 306 157 306 L157 306 Z " />
<glyph glyph-name="Q" unicode="Q" horiz-adv-x="856" d="M942 -50 L940 -49 C910 -84 834 -108 749 -108 C603 -108 505 -67 441 -5 C682 -4 806 150 806 330 C806 511 681 665 439 665 C196 665 71 511 71 330 C71 150 194 -3 433 -6 C506 -77 608 -124 747 -124 C827 -124 905 -95 942 -51 L942 -50 L942 -50 Z M95 329 C95 507 212 658 439 658 C665 658 781 507 781 329 C781 151 665 0 439 0 C212 0 95 151 95 329 L95 329 Z " />
<glyph glyph-name="R" unicode="R" horiz-adv-x="714" d="M59 645 L70 645 C108 645 134 619 134 580 L134 80 C134 41 108 15 70 15 L59 15 L59 0 L232 0 L232 15 L221 15 C183 15 157 41 157 80 L157 319 L347 319 C368 299 452 219 569 106 C675 4 680 0 702 0 L714 0 L714 4 C697 4 701 5 600 102 C481 217 396 299 375 319 C509 324 596 391 596 490 C596 592 522 660 411 660 L60 660 L59 645 L59 645 Z M360 324 L158 325 L158 654 L411 654 C508 654 573 588 573 490 C573 390 488 324 360 324 L360 324 Z " />
<glyph glyph-name="S" unicode="S" horiz-adv-x="596" d="M521 480 L521 612 L520 609 C520 610 521 611 521 612 C466 644 367 665 274 665 C144 665 57 595 57 491 C57 414 153 346 298 321 C441 297 536 228 536 150 C536 61 457 1 339 1 C294 1 249 4 207 10 C148 23 94 75 71 143 C67 154 62 169 58 180 L45 180 L45 48 L47 52 C47 51 46 49 45 48 C100 16 218 -5 340 -5 C467 -5 552 61 552 159 C552 243 458 315 316 339 C171 364 74 428 74 500 C74 596 154 660 274 660 C318 660 364 655 406 646 C437 636 464 607 477 571 C486 544 499 508 508 481 L521 480 L521 480 Z " />
<glyph glyph-name="T" unicode="T" horiz-adv-x="716" d="M272 0 L444 0 L444 15 L433 15 C395 15 369 41 369 80 L369 654 L542 654 C590 654 636 622 655 574 L683 504 L695 504 C691 550 686 611 682 657 L681 657 L681 660 L35 660 L35 657 L34 657 C30 611 25 550 21 504 L33 504 L61 574 C80 622 126 654 174 654 L347 654 L347 80 C347 41 321 15 283 15 L272 15 L272 0 L272 0 Z " />
<glyph glyph-name="U" unicode="U" horiz-adv-x="813" d="M769 660 L587 660 L587 645 L602 645 C647 645 677 615 677 570 L677 177 C677 73 603 3 413 3 C221 3 146 82 146 201 L147 580 L147 580 C147 619 173 645 211 645 L222 645 L222 660 L49 660 L49 645 L60 645 C98 645 124 619 124 580 L124 205 C124 79 204 -5 410 -5 C607 -5 684 67 684 175 L684 570 C684 615 713 645 756 645 L769 645 L769 660 L769 660 Z " />
<glyph glyph-name="V" unicode="V" horiz-adv-x="777" d="M236 660 L59 660 L59 645 C96 645 124 626 144 585 L406 -16 L412 -16 L635 585 C651 621 684 645 720 645 L731 645 L731 660 L535 660 L535 645 L554 645 C611 645 635 607 614 550 L614 550 L416 17 L168 583 C152 621 167 646 205 646 L233 646 L236 660 L236 660 Z " />
<glyph glyph-name="W" unicode="W" horiz-adv-x="1143" d="M1082 660 L900 660 L900 645 L935 645 C974 645 991 619 977 580 L977 580 L770 -15 L776 -15 L985 582 C999 620 1033 645 1071 645 L1082 645 L1082 660 L1082 660 Z M180 660 L12 660 L12 645 C48 645 74 629 92 592 L316 -14 L321 -14 L535 634 L771 -14 L783 21 L547 671 L541 671 L327 19 L118 588 C109 623 125 646 162 646 L181 646 L180 660 L180 660 Z " />
<glyph glyph-name="X" unicode="X" horiz-adv-x="736" d="M222 660 L54 660 L54 645 C89 645 122 625 156 585 L363 326 L179 77 C150 39 106 14 69 14 L58 14 L58 -1 L243 -1 L243 14 L224 14 C178 14 168 44 198 89 L367 321 C431 240 496 159 560 79 C591 40 586 14 547 14 L524 14 L524 -1 L692 -1 L692 14 C657 14 624 34 590 74 L382 335 C447 417 511 499 576 580 C607 619 653 645 691 645 L702 645 L702 660 L518 660 L518 645 L551 645 C590 645 595 619 565 580 L565 580 L378 340 C314 420 250 500 187 580 C156 619 161 645 200 645 L223 645 L222 660 L222 660 Z " />
<glyph glyph-name="Y" unicode="Y" horiz-adv-x="732" d="M291 0 L463 0 L463 15 L452 15 C414 15 388 41 388 80 L388 253 L593 580 C620 624 656 645 699 645 L699 660 L526 660 L526 645 L542 645 C591 645 605 614 578 566 C513 462 448 357 383 253 L386 258 L183 588 C165 623 176 646 212 646 L228 646 L228 661 L65 661 L65 646 C101 646 133 624 160 581 L160 581 L366 246 L366 81 C366 42 340 16 302 16 L291 16 L291 0 L291 0 Z " />
<glyph glyph-name="Z" unicode="Z" horiz-adv-x="689" d="M628 156 L602 96 C579 42 529 6 475 6 L92 6 L626 660 L137 660 C125 623 114 572 104 534 L116 534 L143 574 C174 622 228 654 276 654 L596 654 L63 0 L620 0 L621 3 C629 46 639 104 647 148 C641 151 629 156 629 156 L628 156 L628 156 Z " />
<glyph glyph-name="bracketleft" unicode="&#x5b;" horiz-adv-x="214" d="M99 656 L204 656 L204 660 L83 660 L83 -120 L204 -120 L204 -116 L99 -116 L99 656 L99 656 Z " />
<glyph glyph-name="backslash" unicode="&#x5c;" horiz-adv-x="204" d="M197 -145 L204 -145 L-53 710 L-60 710 L197 -145 L197 -145 Z " />
<glyph glyph-name="bracketright" unicode="&#x5d;" horiz-adv-x="195" d="M110 656 L110 -116 L5 -116 L5 -120 L125 -120 L125 660 L5 660 L5 656 L110 656 L110 656 Z " />
<glyph glyph-name="asciicircum" unicode="&#x5e;" horiz-adv-x="460" d="M237 739 C236 741 233 745 230 745 C224 745 138 587 95 536 L97 534 C146 592 209 690 230 723 C262 667 364 535 364 535 L366 537 C366 537 271 669 237 740 L237 739 L237 739 Z " />
<glyph glyph-name="underscore" unicode="&#x5f;" horiz-adv-x="672" d="M5 -50 L5 -61 L667 -61 L667 -50 L5 -50 L5 -50 Z " />
<glyph glyph-name="grave" unicode="&#x60;" horiz-adv-x="460" d="M149 721 C149 718 167 695 195 663 C227 623 305 532 305 532 L307 533 C307 533 237 630 205 671 C180 706 162 729 160 729 C157 729 149 723 149 721 L149 721 Z " />
<glyph glyph-name="a" unicode="a" horiz-adv-x="565" d="M543 34 C523 14 504 0 488 0 C458 0 450 22 450 54 L450 363 C450 448 390 505 299 505 C173 505 83 469 72 414 L92 414 C102 466 183 500 294 500 C375 500 429 447 429 367 L429 246 C397 245 297 240 242 227 C118 196 35 146 35 101 C35 38 94 -4 182 -4 C283 -4 379 31 429 84 L429 54 C429 17 439 -8 475 -8 C498 -8 521 8 546 33 L543 34 L543 34 Z M429 243 L429 89 C383 41 291 10 193 10 C111 10 56 49 56 108 C56 148 130 193 242 221 C300 235 398 241 429 243 L429 243 Z " />
<glyph glyph-name="b" unicode="b" horiz-adv-x="696" d="M352 -5 C525 -5 641 95 641 246 C641 401 529 505 361 505 C287 505 195 483 132 449 L132 720 L128 720 L37 695 L37 686 L48 683 C102 672 112 659 112 605 L112 0 L114 0 C116 12 122 20 130 20 C198 20 273 -5 353 -5 L352 -5 L352 -5 Z M353 1 C221 1 133 46 133 113 L133 445 C191 476 276 496 347 496 C511 496 621 392 621 237 C621 95 514 1 353 1 L353 1 Z " />
<glyph glyph-name="c" unicode="c" horiz-adv-x="551" d="M498 24 L497 26 C483 15 401 7 291 7 C159 7 71 103 71 246 C71 398 185 499 356 499 C427 499 477 461 482 403 C484 391 501 389 501 402 C496 464 439 505 359 505 C174 505 50 398 50 238 C50 92 140 -5 274 -5 C388 -5 477 7 498 24 L498 24 Z " />
<glyph glyph-name="d" unicode="d" horiz-adv-x="684" d="M479 686 L490 683 C544 672 554 659 554 605 L554 412 C522 464 429 505 318 505 C161 505 56 394 56 228 C56 88 158 -5 310 -5 C413 -5 510 23 555 65 L555 0 L559 0 L650 25 L650 34 L639 37 C585 48 575 61 575 115 L575 720 L571 720 L480 695 L479 686 L479 686 Z M555 69 C516 32 423 7 321 7 C175 7 77 99 77 236 C77 394 173 500 317 500 C433 500 529 455 555 401 L555 69 L555 69 Z " />
<glyph glyph-name="e" unicode="e" horiz-adv-x="557" d="M489 345 L489 346 L488 331 L507 331 C507 435 428 505 309 505 C154 505 50 398 50 238 C50 92 141 -5 277 -5 C392 -5 483 7 504 24 L503 26 C489 15 406 7 294 7 C160 7 71 103 71 246 C71 277 75 305 82 331 L488 331 L488 338 L489 345 C488 341 484 338 479 338 L83 335 C113 436 196 499 308 499 C417 499 489 438 489 347 C489 346 489 345 489 344 L489 345 L489 345 Z " />
<glyph glyph-name="f" unicode="f" horiz-adv-x="461" d="M268 15 L257 15 C219 15 193 41 193 80 L193 492 L393 492 L393 500 L193 500 L193 533 C193 643 304 716 352 716 C400 716 434 694 437 660 C437 649 456 648 456 660 C453 696 413 720 357 720 C247 720 174 647 174 537 C173 537 173 500 173 500 L45 500 L45 492 L173 492 L173 80 C173 41 147 15 109 15 L98 15 L98 0 L268 0 L268 15 L268 15 Z " />
<glyph glyph-name="g" unicode="g" horiz-adv-x="558" d="M558 500 L405 491 C375 500 340 505 302 505 C166 505 76 444 76 352 C76 272 144 215 251 202 L220 202 C122 202 56 170 56 123 C56 78 107 46 187 38 C92 24 31 -29 31 -100 L44 -97 C44 -26 104 26 197 38 C226 36 273 40 326 40 C444 40 523 -3 523 -68 C523 -166 398 -231 210 -231 C110 -231 44 -178 44 -98 L31 -100 C31 -182 102 -236 208 -236 C405 -236 537 -165 537 -58 C537 12 455 59 332 59 C302 59 225 56 225 56 C131 56 69 86 69 130 C69 171 129 199 220 199 L301 199 C437 199 527 260 527 352 C527 412 488 459 423 484 L557 488 L558 500 L558 500 Z M301 202 C177 202 94 262 94 351 C94 440 177 500 301 500 C340 500 375 494 404 483 L404 482 L406 482 C471 458 510 411 510 350 C510 261 427 201 302 201 L301 202 L301 202 Z " />
<glyph glyph-name="h" unicode="h" horiz-adv-x="709" d="M499 0 L669 0 L669 15 L658 15 C620 15 594 41 594 80 L594 336 C594 437 547 505 425 505 C341 505 227 474 140 429 L140 720 L136 720 L45 695 L45 686 L56 683 C110 672 120 659 120 605 L120 80 C120 41 94 15 56 15 L45 15 L45 0 L215 0 L215 15 L204 15 C166 15 140 41 140 80 L140 427 C214 466 322 492 410 492 C528 492 574 428 574 333 L574 80 C574 41 548 15 510 15 L499 15 L499 0 L499 0 Z " />
<glyph glyph-name="i" unicode="i" horiz-adv-x="260" d="M149 590 C149 616 109 616 109 590 C109 564 149 564 149 590 L149 590 Z M215 15 L204 15 C166 15 140 41 140 80 L140 500 L136 500 L45 475 L45 466 L56 463 C110 452 120 439 120 385 L120 80 C120 41 94 15 56 15 L45 15 L45 0 L215 0 L215 15 L215 15 Z " />
<glyph glyph-name="j" unicode="j" horiz-adv-x="279" d="M168 590 C168 616 128 616 128 590 C128 564 168 564 168 590 L168 590 Z M64 466 L75 463 C129 452 139 439 139 385 L139 12 C139 -103 99 -150 -23 -226 L-21 -229 C114 -145 159 -95 159 18 L159 500 L155 500 L64 475 L64 466 L64 466 Z " />
<glyph glyph-name="k" unicode="k" horiz-adv-x="653" d="M61 686 L72 683 C126 672 136 659 136 605 L136 80 C136 41 110 15 72 15 L61 15 L61 0 L231 0 L231 15 L220 15 C182 15 156 41 156 80 L156 275 L158 272 L159 273 L443 80 C500 41 521 15 494 15 L486 15 L486 0 L639 0 L639 15 L628 15 C591 15 530 40 474 78 L176 283 C254 329 332 375 411 420 C478 459 547 485 585 485 L596 485 L596 500 L463 500 L463 485 L470 485 C495 485 468 459 402 420 L156 275 L156 720 L152 720 L61 695 L61 686 L61 686 Z " />
<glyph glyph-name="l" unicode="l" horiz-adv-x="260" d="M215 15 L204 15 C166 15 140 41 140 80 L140 720 L136 720 L45 695 L45 686 L56 683 C110 672 120 659 120 605 L120 80 C120 41 94 15 56 15 L45 15 L45 0 L215 0 L215 15 L215 15 Z " />
<glyph glyph-name="m" unicode="m" horiz-adv-x="1183" d="M973 0 L1143 0 L1143 15 L1132 15 C1094 15 1068 41 1068 80 L1068 336 C1068 437 991 505 890 505 C811 505 698 466 589 408 C563 468 504 505 432 505 C335 505 227 474 140 429 L140 500 L136 500 L45 475 L45 466 L56 463 C110 452 120 439 120 385 L120 80 C120 41 94 15 56 15 L45 15 L45 0 L215 0 L215 15 L204 15 C166 15 140 41 140 80 L140 385 L140 427 C216 466 317 493 416 493 C512 493 584 429 584 333 L584 80 C584 41 558 15 520 15 L509 15 L509 0 L679 0 L679 15 L668 15 C630 15 604 41 604 80 L604 336 C604 362 599 385 590 406 C688 458 794 493 875 493 C974 493 1048 429 1048 334 L1048 81 C1048 42 1022 16 984 16 L973 16 L973 0 L973 0 Z " />
<glyph glyph-name="n" unicode="n" horiz-adv-x="709" d="M499 0 L669 0 L669 15 L658 15 C620 15 594 41 594 80 L594 336 C594 437 547 505 425 505 C341 505 227 474 140 429 L140 500 L136 500 L45 475 L45 466 L56 463 C110 452 120 439 120 385 L120 80 C120 41 94 15 56 15 L45 15 L45 0 L215 0 L215 15 L204 15 C166 15 140 41 140 80 L140 427 C214 466 322 492 410 492 C528 492 574 428 574 333 L574 80 C574 41 548 15 510 15 L499 15 L499 0 L499 0 Z " />
<glyph glyph-name="o" unicode="o" horiz-adv-x="677" d="M72 250 C72 401 179 501 339 501 C499 501 605 401 605 250 C605 99 499 -1 339 -1 C179 -1 72 99 72 250 L72 250 Z M50 250 C50 97 166 -5 339 -5 C512 -5 627 97 627 250 C627 403 512 505 339 505 C166 505 50 403 50 250 L50 250 Z " />
<glyph glyph-name="p" unicode="p" horiz-adv-x="722" d="M215 -215 L204 -215 C166 -215 140 -189 140 -150 L140 87 C173 31 257 -5 368 -5 C547 -5 667 98 667 252 C667 404 561 505 403 505 C294 505 189 467 139 410 L139 500 L135 500 L44 475 L44 466 L55 463 C109 452 119 439 119 385 L119 -150 C119 -189 93 -215 55 -215 L44 -215 L44 -230 L214 -230 L215 -215 L215 -215 Z M139 135 L139 407 C184 458 282 492 386 492 C543 492 647 390 647 236 C647 95 535 1 367 1 C237 1 146 55 139 135 L139 135 Z " />
<glyph glyph-name="q" unicode="q" horiz-adv-x="711" d="M402 502 C385 504 367 505 348 505 C367 505 385 504 402 502 L402 502 Z M666 -215 L655 -215 C617 -215 591 -189 591 -150 L591 500 L589 500 C587 488 581 480 574 480 C506 480 429 505 347 505 C183 505 73 394 73 228 C73 88 173 -5 324 -5 C428 -5 526 24 571 66 L571 -150 C571 -189 545 -215 507 -215 L496 -215 L496 -230 L666 -230 L666 -215 L666 -215 Z M571 70 C532 33 438 7 335 7 C190 7 94 99 94 236 C94 394 195 499 347 499 C481 499 571 454 571 387 L571 70 L571 70 Z " />
<glyph glyph-name="r" unicode="r" horiz-adv-x="501" d="M45 466 L56 463 C110 452 120 439 120 385 L120 80 C120 41 94 15 56 15 L45 15 L45 0 L215 0 L215 15 L204 15 C166 15 140 41 140 80 L140 410 C180 459 262 491 346 491 C387 491 441 461 482 461 C488 461 492 465 492 471 C492 492 456 506 362 506 C274 506 186 469 140 413 L140 501 L136 501 L45 476 L45 466 L45 466 Z " />
<glyph glyph-name="s" unicode="s" horiz-adv-x="520" d="M445 377 L445 459 L444 456 C444 457 445 458 445 459 C397 487 318 505 248 505 C142 505 72 457 72 385 C72 327 155 270 280 243 C384 220 453 171 453 120 C453 48 389 0 293 0 C256 0 219 2 185 6 L185 6 C138 12 92 50 71 101 C68 109 63 119 60 127 L49 127 L49 35 L51 39 C51 38 50 36 49 35 C92 10 189 -6 292 -6 C399 -6 470 47 470 127 C470 181 400 233 294 256 C170 283 88 337 88 391 C88 456 152 500 248 500 C278 500 311 496 343 488 L343 488 C379 479 412 447 424 406 C427 397 430 385 433 376 L445 377 L445 377 Z " />
<glyph glyph-name="t" unicode="t" horiz-adv-x="447" d="M416 500 L156 500 L156 640 L153 640 L140 523 C135 508 89 497 25 494 L25 492 L136 492 L136 110 C136 20 163 -5 259 -5 C344 -5 391 15 427 45 L425 46 C395 21 351 4 268 4 C181 4 156 26 156 106 L156 492 L416 492 L416 500 L416 500 Z " />
<glyph glyph-name="u" unicode="u" horiz-adv-x="682" d="M15 485 L26 485 C64 485 90 459 90 420 L90 156 C90 59 160 -5 295 -5 C420 -5 499 24 544 66 L544 0 L548 0 L639 25 L639 34 L628 37 C574 48 564 61 564 115 L564 500 L469 500 L469 485 L480 485 C518 485 544 459 544 420 L544 70 C506 33 433 8 310 8 C178 8 110 68 110 159 L110 500 L15 500 L15 485 L15 485 Z " />
<glyph glyph-name="v" unicode="v" horiz-adv-x="666" d="M202 500 L35 500 L35 485 L47 485 C82 485 116 463 134 429 L323 -10 L326 -10 L521 429 C540 463 575 485 610 485 L621 485 L621 500 L471 500 L471 485 L481 485 C516 485 528 459 511 420 L333 12 C276 148 218 284 161 420 C144 459 157 485 192 485 L202 485 L202 500 L202 500 Z " />
<glyph glyph-name="w" unicode="w" horiz-adv-x="967" d="M934 500 L754 500 L754 485 L787 485 C826 485 841 459 824 420 L824 420 L637 -10 L640 -10 C704 133 767 277 831 420 C848 459 885 485 923 485 L934 485 L934 500 L934 500 Z M534 500 L368 500 L368 485 C402 485 427 468 447 430 L498 313 L497 313 L323 -10 L326 -10 L499 310 L637 -10 L646 11 C588 147 530 284 473 420 C456 459 471 485 510 485 L534 485 L534 500 L534 500 Z M216 500 L49 500 L49 485 C86 485 113 468 133 430 L323 -10 L334 11 L159 423 C144 460 159 485 197 485 L216 485 L216 500 L216 500 Z " />
<glyph glyph-name="x" unicode="x" horiz-adv-x="674" d="M525 0 L659 0 L659 15 C626 15 588 38 547 80 L547 80 L362 270 L494 420 C528 459 577 485 615 485 L626 485 L626 500 L456 500 L456 485 L478 485 C514 485 520 462 493 427 L359 272 L209 425 C177 461 179 484 216 484 L227 484 L227 499 L68 499 L68 484 C108 484 149 462 191 419 L191 419 L347 259 L346 259 L193 79 C160 40 112 14 73 14 L53 14 L53 -1 L253 -1 L253 14 L211 14 C172 14 168 40 201 79 L201 79 L350 256 L529 73 C561 38 564 15 535 15 L526 15 L525 0 L525 0 Z " />
<glyph glyph-name="y" unicode="y" horiz-adv-x="607" d="M202 500 L35 500 L35 485 L47 485 C82 485 116 463 134 429 L322 -6 C317 -14 303 -40 293 -70 C246 -176 210 -217 164 -217 C164 -217 116 -193 95 -193 C89 -193 85 -197 85 -202 C85 -219 112 -230 152 -230 C206 -230 247 -186 298 -72 C310 -38 326 -10 326 -10 L521 429 C540 463 575 485 610 485 L621 485 L621 500 L471 500 L471 485 L481 485 C516 485 528 459 511 420 L333 12 C276 148 218 284 161 420 C144 459 157 485 192 485 L202 485 L202 500 L202 500 Z " />
<glyph glyph-name="z" unicode="z" horiz-adv-x="580" d="M533 155 L507 95 C484 41 434 6 381 5 L93 4 L530 500 L71 500 L70 498 L70 498 C63 470 53 433 45 405 L57 405 L68 419 C104 465 161 494 209 495 L503 496 L65 0 L524 0 L525 2 L525 2 C533 45 543 103 551 147 C545 150 533 155 533 155 L533 155 Z " />
<glyph glyph-name="braceleft" unicode="&#x7b;" horiz-adv-x="300" d="M285 -120 L285 -117 L249 -117 C160 -117 101 -55 101 39 L102 192 C102 239 68 270 16 270 C68 270 102 302 102 349 L102 501 C102 595 161 657 249 657 L285 657 L285 660 L245 660 C150 660 86 596 86 501 L86 338 C86 294 53 272 5 272 L5 268 C53 268 86 246 86 203 L86 39 C86 -56 150 -120 245 -120 L285 -120 L285 -120 Z " />
<glyph glyph-name="bar" unicode="&#x7c;" horiz-adv-x="136" d="M60 770 L60 -234 L76 -234 L76 770 L60 770 L60 770 Z " />
<glyph glyph-name="braceright" unicode="&#x7d;" horiz-adv-x="300" d="M5 660 L5 657 L41 657 C130 657 189 595 189 501 L188 348 C188 301 222 270 274 270 C222 270 188 238 188 191 L188 39 C188 -55 129 -117 41 -117 L5 -117 L5 -120 L45 -120 C140 -120 204 -56 204 39 L204 202 C204 246 237 268 285 268 L285 272 C237 272 204 294 204 337 L204 501 C204 596 140 660 45 660 L5 660 L5 660 Z " />
<glyph glyph-name="asciitilde" unicode="&#x7e;" horiz-adv-x="460" d="M20 310 C20 353 49 382 92 382 C173 382 282 319 363 319 C412 319 444 349 444 393 L441 393 C441 356 411 332 367 332 C286 332 177 395 96 395 C48 395 16 361 16 310 L20 310 L20 310 Z " />
<glyph glyph-name="nbspace" unicode="&#xa0;" horiz-adv-x="326" d="" />
<glyph glyph-name="exclamdown" unicode="&#xa1;" horiz-adv-x="153" d="M59 485 C59 459 99 459 99 485 C99 511 59 511 59 485 L59 485 Z M60 -120 C59 -147 67 -165 80 -165 C93 -165 101 -147 100 -120 C100 186 80 390 80 390 L77 390 C77 390 60 186 60 -120 L60 -120 Z " />
<glyph glyph-name="cent" unicode="&#xa2;" horiz-adv-x="551" d="M337 575 L337 504 C164 496 50 391 50 237 C50 91 140 -6 274 -6 C296 -6 317 -6 337 -5 L337 -76 L351 -76 L351 -4 C427 0 482 10 498 23 L497 25 C486 16 430 9 351 7 L351 498 C425 499 477 462 482 402 C484 390 501 388 501 401 C496 466 436 505 352 504 L352 574 L337 575 L337 575 Z M338 6 C323 6 308 6 292 6 C160 6 72 102 72 245 C72 391 178 490 338 497 L338 6 L338 6 Z " />
<glyph glyph-name="guillemotleft" unicode="&#xab;" horiz-adv-x="615" d="M305 255 C349 274 434 325 570 461 L567 464 C430 327 345 277 298 259 C279 270 266 274 264 267 C271 265 279 261 289 255 C262 247 250 250 250 250 L250 248 C250 248 267 246 266 243 C266 243 276 243 297 251 C387 195 568 35 568 35 L570 38 C570 38 389 201 305 254 L305 255 L305 255 Z M250 250 L250 248 C242 268 248 273 264 268 C263 265 264 261 266 255 C266 255 261 250 250 250 L250 250 Z M75 254 C119 273 204 324 340 460 L337 463 C200 326 115 276 68 258 C49 269 36 273 34 266 C41 264 49 260 59 254 C32 246 20 249 20 249 L20 247 C20 247 37 245 36 242 C36 242 46 242 67 250 C157 194 338 34 338 34 L340 37 C340 37 159 200 75 253 L75 254 L75 254 Z M20 249 L20 247 C12 267 18 272 34 267 C33 264 34 260 36 254 C36 254 31 249 20 249 L20 249 Z " />
<glyph glyph-name="acute" unicode="&#xb4;" horiz-adv-x="460" d="M152 532 C152 532 228 623 259 663 C286 697 304 720 304 721 C304 723 296 729 293 729 C292 729 274 706 249 671 C218 631 150 533 150 533 L152 532 L152 532 Z " />
<glyph glyph-name="guillemotright" unicode="&#xbb;" horiz-adv-x="615" d="M47 36 C47 36 228 196 318 252 C354 238 342 246 364 249 L364 251 C353 251 348 256 348 256 C350 262 351 266 350 269 C366 274 372 269 364 249 L364 251 C364 251 352 248 325 256 C335 262 343 266 350 268 C348 275 335 271 316 260 C269 278 184 328 47 465 L44 462 C180 326 265 275 309 256 C225 203 44 40 44 40 L47 36 L47 36 Z M276 37 C276 37 457 197 547 253 C583 239 571 247 593 250 L593 252 C582 252 577 257 577 257 C579 263 580 267 579 270 C595 275 601 270 593 250 L593 252 C593 252 581 249 554 257 C564 263 572 267 579 269 C577 276 564 272 545 261 C498 279 413 329 276 466 L273 463 C409 327 494 276 538 257 C454 204 273 41 273 41 L276 37 L276 37 Z " />
<glyph glyph-name="onequarter" unicode="&#xbc;" horiz-adv-x="828" d="M463 58 L664 58 L664 6 L681 6 L681 58 L763 58 L763 66 L681 66 L681 310 L679 310 L678 312 C634 288 459 63 459 63 L460 62 L460 61 L462 61 L463 61 L463 58 L463 58 Z M205 631 C205 632 205 633 205 634 L206 634 L205 631 L205 631 Z M243 674 L197 674 L197 666 L196 666 L196 670 L150 670 L150 664 C168 664 179 660 185 647 L185 456 C185 434 170 424 148 424 L148 418 L185 418 L185 416 L202 416 L202 418 L241 418 L241 427 C219 427 204 437 204 460 L203 458 L202 458 L202 634 L205 634 C206 656 221 665 243 665 L243 674 L243 674 Z M124 -8 L712 662 L704 670 L116 0 L124 -8 L124 -8 Z M466 62 L466 62 L466 62 Z M469 67 C496 102 619 258 669 300 C666 295 663 290 663 287 L663 67 L469 67 L469 67 Z " />
<glyph glyph-name="onehalf" unicode="&#xbd;" horiz-adv-x="828" d="M205 631 C205 632 205 633 205 634 L206 634 L205 631 L205 631 Z M243 674 L197 674 L197 666 L196 666 L196 670 L150 670 L150 664 C168 664 179 660 185 647 L185 456 C185 434 170 424 148 424 L148 418 L185 418 L185 416 L202 416 L202 418 L241 418 L241 427 C219 427 204 437 204 460 L203 458 L202 458 L202 634 L205 634 C206 656 221 665 243 665 L243 674 L243 674 Z M124 -8 L712 662 L704 670 L116 0 L124 -8 L124 -8 Z M734 66 C734 43 720 29 699 29 L697 28 L509 28 C637 95 719 132 719 183 C719 230 679 262 619 262 C563 262 515 233 497 189 L499 188 C514 225 559 250 611 250 C665 250 701 221 701 178 C701 122 611 88 475 15 L475 11 L473 9 C477 11 481 13 485 15 C482 12 479 10 476 10 L732 10 L733 19 L735 19 C736 33 738 51 739 65 L734 66 L734 66 Z " />
<glyph glyph-name="threequarters" unicode="&#xbe;" horiz-adv-x="828" d="M464 53 L665 53 L665 1 L682 1 L682 53 L764 53 L764 61 L682 61 L682 305 L680 305 L679 307 C635 283 460 58 460 58 L461 57 L461 56 L463 56 L464 56 L464 53 L464 53 Z M99 340 C241 344 336 391 336 457 C336 503 295 534 233 534 C231 534 227 533 222 532 C278 554 314 585 314 612 C314 647 278 670 224 670 C187 670 135 644 95 606 L97 604 C131 637 179 659 217 659 C265 659 298 638 298 607 C298 577 256 544 192 525 L192 523 C191 523 190 523 189 523 L189 520 C199 523 216 526 231 526 C284 526 320 499 320 458 C320 394 233 349 102 346 L102 343 L99 340 L99 340 Z M125 -8 L713 662 L705 670 L117 0 L125 -8 L125 -8 Z M468 57 L468 57 L468 57 Z M471 62 C498 97 621 253 671 295 C668 290 665 285 665 282 L665 62 L471 62 L471 62 Z " />
<glyph glyph-name="questiondown" unicode="&#xbf;" horiz-adv-x="462" d="M271 485 C271 459 311 459 311 485 C311 511 271 511 271 485 L271 485 Z M304 -165 C372 -165 417 -137 417 -96 C417 -94 412 -93 405 -93 C373 -93 330 -149 298 -149 C143 -149 40 -73 40 40 C40 75 75 137 257 137 L292 137 C295 137 297 138 297 140 L292 396 L290 396 L285 152 L250 152 C69 152 35 82 35 42 C35 -82 143 -165 304 -165 L304 -165 Z " />
<glyph glyph-name="Agrave" unicode="&#xc0;" horiz-adv-x="693" d="M499 0 L688 0 L688 15 C646 15 615 34 596 76 L350 674 L345 674 L107 79 C91 40 55 14 17 14 L6 14 L6 -1 L193 -1 L193 14 L169 14 C121 14 102 46 121 94 L121 94 L178 238 L506 238 C527 185 550 131 570 79 C586 40 571 14 532 14 L499 14 L499 0 L499 0 Z M266 880 C266 877 284 854 312 822 C344 782 422 691 422 691 L424 692 C424 692 354 789 322 830 C297 865 279 888 277 888 C274 888 266 882 266 880 L266 880 Z M504 243 L180 243 L340 646 L504 243 L504 243 Z " />
<glyph glyph-name="Aacute" unicode="&#xc1;" horiz-adv-x="693" d="M284 692 C284 692 360 783 391 823 C418 857 436 880 436 881 C436 883 428 889 425 889 C424 889 406 866 381 831 C350 791 282 693 282 693 L284 692 L284 692 Z M499 0 L688 0 L688 15 C646 15 615 34 596 76 L350 674 L345 674 L107 79 C91 40 55 14 17 14 L6 14 L6 -1 L193 -1 L193 14 L169 14 C121 14 102 46 121 94 L121 94 L178 238 L506 238 C527 185 550 131 570 79 C586 40 571 14 532 14 L499 14 L499 0 L499 0 Z M504 243 L180 243 L340 646 L504 243 L504 243 Z " />
<glyph glyph-name="Acircumflex" unicode="&#xc2;" horiz-adv-x="693" d="M499 0 L688 0 L688 15 C646 15 615 34 596 76 L350 674 L345 674 L107 79 C91 40 55 14 17 14 L6 14 L6 -1 L193 -1 L193 14 L169 14 C121 14 102 46 121 94 L121 94 L178 238 L506 238 C527 185 550 131 570 79 C586 40 571 14 532 14 L499 14 L499 0 L499 0 Z M354 898 C350 905 344 905 341 898 C341 898 251 742 212 695 L214 693 C263 751 326 849 347 882 C379 826 481 694 481 694 L483 696 C483 696 388 828 354 899 L354 898 L354 898 Z M504 244 L180 244 L340 647 L504 244 L504 244 Z " />
<glyph glyph-name="Atilde" unicode="&#xc3;" horiz-adv-x="693" d="M137 755 C137 798 166 827 209 827 C291 827 399 764 481 764 C530 764 562 794 562 838 L558 838 C558 801 529 777 485 777 C403 777 295 840 213 840 C165 840 133 806 133 755 L137 755 L137 755 Z M499 0 L688 0 L688 15 C646 15 615 34 596 76 L350 674 L345 674 L107 79 C91 40 55 14 17 14 L6 14 L6 -1 L193 -1 L193 14 L169 14 C121 14 102 46 121 94 L121 94 L178 238 L506 238 C527 185 550 131 570 79 C586 40 571 14 532 14 L499 14 L499 0 L499 0 Z M504 243 L180 243 L340 646 L504 243 L504 243 Z " />
<glyph glyph-name="Adieresis" unicode="&#xc4;" horiz-adv-x="693" d="M453 750 C453 776 413 776 413 750 C413 724 453 724 453 750 L453 750 Z M282 750 C282 776 242 776 242 750 C242 724 282 724 282 750 L282 750 Z M499 0 L688 0 L688 15 C646 15 615 34 596 76 L350 674 L345 674 L107 79 C91 40 55 14 17 14 L6 14 L6 -1 L193 -1 L193 14 L169 14 C121 14 102 46 121 94 L121 94 L178 238 L506 238 C527 185 550 131 570 79 C586 40 571 14 532 14 L499 14 L499 0 L499 0 Z M504 243 L180 243 L340 646 L504 243 L504 243 Z " />
<glyph glyph-name="Aring" unicode="&#xc5;" horiz-adv-x="693" d="M260 788 C260 841 295 876 348 876 C400 876 435 841 435 788 C435 740 395 699 348 699 C300 699 260 740 260 788 L260 788 Z M254 788 C254 738 297 695 348 695 C398 695 441 738 441 788 C441 843 404 880 348 880 C292 880 254 843 254 788 L254 788 Z M499 0 L688 0 L688 15 C646 15 615 34 596 76 L350 674 L345 674 L107 79 C91 40 55 14 17 14 L6 14 L6 -1 L193 -1 L193 14 L169 14 C121 14 102 46 121 94 L121 94 L178 238 L506 238 C527 185 550 131 570 79 C586 40 571 14 532 14 L499 14 L499 0 L499 0 Z M504 243 L180 243 L340 646 L504 243 L504 243 Z " />
<glyph glyph-name="Ccedilla" unicode="&#xc7;" horiz-adv-x="823" d="M763 471 L763 601 L762 599 C762 600 763 601 763 602 C696 640 576 666 461 666 C227 666 71 532 71 331 C71 131 226 -3 459 -4 C455 -10 432 -44 400 -93 L401 -94 C426 -85 469 -79 508 -79 C572 -79 614 -101 614 -134 C614 -181 570 -213 504 -213 C446 -213 393 -205 371 -192 L370 -195 C395 -209 450 -219 508 -219 C579 -219 626 -185 626 -134 C626 -99 580 -75 512 -75 C471 -75 429 -81 404 -90 C438 -40 461 -10 466 -4 C580 -3 698 23 764 61 L757 181 C748 179 739 170 747 179 C745 178 743 177 741 176 C740 168 739 159 737 153 C711 78 641 22 559 9 C527 5 494 3 461 3 C241 3 95 135 95 332 C95 529 241 661 461 661 C503 661 546 658 587 652 L587 652 C652 642 712 586 737 513 L750 474 L763 471 L763 471 Z M741 177 C733 172 727 170 744 186 C743 183 742 180 741 177 L741 177 Z " />
<glyph glyph-name="Egrave" unicode="&#xc8;" horiz-adv-x="619" d="M207 881 C207 878 225 855 253 823 C285 783 363 692 363 692 L365 693 C365 693 295 790 263 831 C238 866 220 889 218 889 C215 889 207 883 207 881 L207 881 Z M439 264 L439 430 L427 430 L423 419 C411 381 370 355 319 355 L137 355 L137 654 L342 654 C402 654 455 614 475 554 L486 519 L497 519 L497 660 L40 660 L40 645 L51 645 C89 645 115 619 115 580 L115 80 C115 41 89 15 51 15 L40 15 L40 0 L505 0 L506 3 L505 3 C512 44 522 100 529 141 L518 141 L501 106 C471 46 411 6 351 6 L137 6 L137 349 L319 349 C370 349 411 320 423 277 L427 264 L439 264 L439 264 Z " />
<glyph glyph-name="Eacute" unicode="&#xc9;" horiz-adv-x="619" d="M272 692 C272 692 348 783 379 823 C406 857 424 880 424 881 C424 883 416 889 413 889 C412 889 394 866 369 831 C338 791 270 693 270 693 L272 692 L272 692 Z M439 264 L439 430 L427 430 L423 419 C411 381 370 355 319 355 L137 355 L137 654 L342 654 C402 654 455 614 475 554 L486 519 L497 519 L497 660 L40 660 L40 645 L51 645 C89 645 115 619 115 580 L115 80 C115 41 89 15 51 15 L40 15 L40 0 L505 0 L506 3 L505 3 C512 44 522 100 529 141 L518 141 L501 106 C471 46 411 6 351 6 L137 6 L137 349 L319 349 C370 349 411 320 423 277 L427 264 L439 264 L439 264 Z " />
<glyph glyph-name="Ecircumflex" unicode="&#xca;" horiz-adv-x="619" d="M311 899 C307 906 301 906 298 899 C298 899 208 743 169 696 L171 694 C220 752 283 850 304 883 C336 827 438 695 438 695 L440 697 C440 697 345 829 311 900 L311 899 L311 899 Z M439 265 L439 431 L427 431 L423 420 C411 382 370 356 319 356 L137 356 L137 655 L342 655 C402 655 455 615 475 555 L486 520 L497 520 L497 661 L40 661 L40 646 L51 646 C89 646 115 620 115 581 L115 81 C115 42 89 16 51 16 L40 16 L40 1 L505 1 L506 4 L505 4 C512 45 522 101 529 142 L518 142 L501 107 C471 47 411 7 351 7 L137 7 L137 350 L319 350 C370 350 411 321 423 278 L427 265 L439 265 L439 265 Z " />
<glyph glyph-name="Edieresis" unicode="&#xcb;" horiz-adv-x="619" d="M410 750 C410 776 370 776 370 750 C370 724 410 724 410 750 L410 750 Z M239 750 C239 776 199 776 199 750 C199 724 239 724 239 750 L239 750 Z M439 264 L439 430 L427 430 L423 419 C411 381 370 355 319 355 L137 355 L137 654 L342 654 C402 654 455 614 475 554 L486 519 L497 519 L497 660 L40 660 L40 645 L51 645 C89 645 115 619 115 580 L115 80 C115 41 89 15 51 15 L40 15 L40 0 L505 0 L506 3 L505 3 C512 44 522 100 529 141 L518 141 L501 106 C471 46 411 6 351 6 L137 6 L137 349 L319 349 C370 349 411 320 423 277 L427 264 L439 264 L439 264 Z " />
<glyph glyph-name="Igrave" unicode="&#xcc;" horiz-adv-x="252" d="M44 881 C44 878 62 855 90 823 C122 783 200 692 200 692 L203 693 C203 693 133 790 101 831 C76 866 58 889 56 889 C52 889 44 883 44 881 L44 881 Z M212 15 L201 15 C163 15 137 41 137 80 L137 580 C137 619 163 645 201 645 L212 645 L212 660 L40 660 L40 645 L51 645 C89 645 115 619 115 580 L115 80 C115 41 89 15 51 15 L40 15 L40 0 L212 0 L212 15 L212 15 Z " />
<glyph glyph-name="Iacute" unicode="&#xcd;" horiz-adv-x="252" d="M63 692 C63 692 139 783 170 823 C197 857 215 880 215 881 C215 883 207 889 203 889 C202 889 184 866 159 831 C128 791 60 693 60 693 L63 692 L63 692 Z M212 15 L201 15 C163 15 137 41 137 80 L137 580 C137 619 163 645 201 645 L212 645 L212 660 L40 660 L40 645 L51 645 C89 645 115 619 115 580 L115 80 C115 41 89 15 51 15 L40 15 L40 0 L212 0 L212 15 L212 15 Z " />
<glyph glyph-name="Icircumflex" unicode="&#xce;" horiz-adv-x="252" d="M132 899 C131 901 128 905 126 905 C120 905 35 748 -10 696 L-7 694 C40 750 105 850 126 882 C158 826 260 694 260 694 L263 696 C263 696 167 830 133 899 L132 899 L132 899 Z M213 15 L202 15 C164 15 138 41 138 80 L138 580 C138 619 164 645 202 645 L213 645 L213 660 L41 660 L41 645 L52 645 C90 645 116 619 116 580 L116 80 C116 41 90 15 52 15 L41 15 L41 0 L213 0 L213 15 L213 15 Z " />
<glyph glyph-name="Idieresis" unicode="&#xcf;" horiz-adv-x="252" d="M231 750 C231 776 191 776 191 750 C191 724 231 724 231 750 L231 750 Z M61 750 C61 776 21 776 21 750 C21 724 61 724 61 750 L61 750 Z M212 15 L201 15 C163 15 137 41 137 80 L137 580 C137 619 163 645 201 645 L212 645 L212 660 L40 660 L40 645 L51 645 C89 645 115 619 115 580 L115 80 C115 41 89 15 51 15 L40 15 L40 0 L212 0 L212 15 L212 15 Z " />
<glyph glyph-name="Ntilde" unicode="&#xd1;" horiz-adv-x="788" d="M186 755 C186 798 215 827 258 827 C340 827 448 764 530 764 C579 764 611 794 611 838 L607 838 C607 801 578 777 534 777 C452 777 344 840 262 840 C214 840 182 806 182 755 L186 755 L186 755 Z M45 645 L56 645 C94 645 120 619 120 580 L120 80 C120 41 94 15 56 15 L45 15 L45 0 L202 0 L202 15 L191 15 C153 15 127 41 127 80 L127 641 C307 426 486 210 667 -4 L673 -4 L673 580 C673 619 699 645 737 645 L748 645 L748 660 L591 660 L591 645 L602 645 C640 645 666 619 666 580 L666 31 L140 660 L45 660 L45 645 L45 645 Z M127 651 L127 651 L127 651 Z " />
<glyph glyph-name="Ograve" unicode="&#xd2;" horiz-adv-x="856" d="M95 330 C95 508 212 659 439 659 C665 659 781 508 781 330 C781 152 665 1 439 1 C212 1 95 152 95 330 L95 330 Z M71 330 C71 149 196 -5 439 -5 C681 -5 806 149 806 330 C806 511 681 665 439 665 C196 665 71 511 71 330 L71 330 Z M357 881 C357 878 375 855 403 823 C435 783 513 692 513 692 L515 693 C515 693 445 790 413 831 C388 866 370 889 368 889 C365 889 357 883 357 881 L357 881 Z " />
<glyph glyph-name="Oacute" unicode="&#xd3;" horiz-adv-x="856" d="M413 692 C413 692 489 783 520 823 C547 857 565 880 565 881 C565 883 557 889 554 889 C553 889 535 866 510 831 C479 791 411 693 411 693 L413 692 L413 692 Z M95 330 C95 508 212 659 439 659 C665 659 781 508 781 330 C781 152 665 1 439 1 C212 1 95 152 95 330 L95 330 Z M71 330 C71 149 196 -5 439 -5 C681 -5 806 149 806 330 C806 511 681 665 439 665 C196 665 71 511 71 330 L71 330 Z " />
<glyph glyph-name="Ocircumflex" unicode="&#xd4;" horiz-adv-x="856" d="M95 330 C95 508 212 659 439 659 C665 659 781 508 781 330 C781 152 665 1 439 1 C212 1 95 152 95 330 L95 330 Z M71 330 C71 149 196 -5 439 -5 C681 -5 806 149 806 330 C806 511 681 665 439 665 C196 665 71 511 71 330 L71 330 Z M445 899 C441 906 435 906 432 899 C432 899 342 743 303 696 L305 694 C354 752 417 850 438 883 C470 827 572 695 572 695 L574 697 C574 697 479 829 445 900 L445 899 L445 899 Z " />
<glyph glyph-name="Otilde" unicode="&#xd5;" horiz-adv-x="856" d="M228 755 C228 798 257 827 300 827 C382 827 490 764 572 764 C621 764 653 794 653 838 L649 838 C649 801 620 777 576 777 C494 777 386 840 304 840 C256 840 224 806 224 755 L228 755 L228 755 Z M95 330 C95 508 212 659 439 659 C665 659 781 508 781 330 C781 152 665 1 439 1 C212 1 95 152 95 330 L95 330 Z M71 330 C71 149 196 -5 439 -5 C681 -5 806 149 806 330 C806 511 681 665 439 665 C196 665 71 511 71 330 L71 330 Z " />
<glyph glyph-name="Odieresis" unicode="&#xd6;" horiz-adv-x="856" d="M544 750 C544 776 504 776 504 750 C504 724 544 724 544 750 L544 750 Z M373 750 C373 776 333 776 333 750 C333 724 373 724 373 750 L373 750 Z M95 330 C95 508 212 659 439 659 C665 659 781 508 781 330 C781 152 665 1 439 1 C212 1 95 152 95 330 L95 330 Z M71 330 C71 149 196 -5 439 -5 C681 -5 806 149 806 330 C806 511 681 665 439 665 C196 665 71 511 71 330 L71 330 Z " />
<glyph glyph-name="Oslash" unicode="&#xd8;" horiz-adv-x="856" d="M74 -9 L176 84 C237 29 325 -5 439 -5 C681 -5 806 149 806 330 C806 423 773 509 709 570 L809 661 L803 669 L701 576 C640 631 552 665 438 665 C195 665 70 511 70 330 C70 237 103 151 168 90 L68 -1 L74 -9 L74 -9 Z M690 566 L180 101 C124 161 95 242 95 330 C95 508 212 659 439 659 C549 659 633 623 690 566 L690 566 Z M697 559 C753 499 781 418 781 330 C781 152 665 1 439 1 C329 1 245 37 187 94 L697 559 L697 559 Z " />
<glyph glyph-name="Ugrave" unicode="&#xd9;" horiz-adv-x="789" d="M322 881 C322 878 340 855 368 823 C400 783 478 692 478 692 L481 693 C481 693 411 790 379 831 C354 866 336 889 334 889 C330 889 322 883 322 881 L322 881 Z M769 660 L587 660 L587 645 L602 645 C647 645 677 615 677 570 L677 177 C677 73 603 3 413 3 C221 3 146 82 146 201 L147 580 L147 580 C147 619 173 645 211 645 L222 645 L222 660 L49 660 L49 645 L60 645 C98 645 124 619 124 580 L124 205 C124 79 204 -5 410 -5 C607 -5 684 67 684 175 L684 570 C684 615 713 645 756 645 L769 645 L769 660 L769 660 Z " />
<glyph glyph-name="Uacute" unicode="&#xda;" horiz-adv-x="789" d="M402 692 C402 692 478 783 509 823 C536 857 554 880 554 881 C554 883 546 889 542 889 C541 889 523 866 498 831 C467 791 399 693 399 693 L402 692 L402 692 Z M769 660 L587 660 L587 645 L602 645 C647 645 677 615 677 570 L677 177 C677 73 603 3 413 3 C221 3 146 82 146 201 L147 580 L147 580 C147 619 173 645 211 645 L222 645 L222 660 L49 660 L49 645 L60 645 C98 645 124 619 124 580 L124 205 C124 79 204 -5 410 -5 C607 -5 684 67 684 175 L684 570 C684 615 713 645 756 645 L769 645 L769 660 L769 660 Z " />
<glyph glyph-name="Ucircumflex" unicode="&#xdb;" horiz-adv-x="789" d="M410 899 C409 901 406 905 404 905 C398 905 313 748 268 696 L271 694 C318 750 383 850 404 882 C436 826 538 694 538 694 L541 696 C541 696 445 830 411 899 L410 899 L410 899 Z M770 660 L588 660 L588 645 L603 645 C648 645 678 615 678 570 L678 177 C678 73 604 3 414 3 C222 3 147 82 147 201 L148 580 L148 580 C148 619 174 645 212 645 L223 645 L223 660 L50 660 L50 645 L61 645 C99 645 125 619 125 580 L125 205 C125 79 205 -5 411 -5 C608 -5 685 67 685 175 L685 570 C685 615 714 645 757 645 L770 645 L770 660 L770 660 Z " />
<glyph glyph-name="Udieresis" unicode="&#xdc;" horiz-adv-x="789" d="M509 750 C509 776 469 776 469 750 C469 724 509 724 509 750 L509 750 Z M339 750 C339 776 299 776 299 750 C299 724 339 724 339 750 L339 750 Z M769 660 L587 660 L587 645 L602 645 C647 645 677 615 677 570 L677 177 C677 73 603 3 413 3 C221 3 146 82 146 201 L147 580 L147 580 C147 619 173 645 211 645 L222 645 L222 660 L49 660 L49 645 L60 645 C98 645 124 619 124 580 L124 205 C124 79 204 -5 410 -5 C607 -5 684 67 684 175 L684 570 C684 615 713 645 756 645 L769 645 L769 660 L769 660 Z " />
<glyph glyph-name="Yacute" unicode="&#xdd;" horiz-adv-x="665" d="M342 692 C342 692 418 783 449 823 C476 857 494 880 494 881 C494 883 486 889 482 889 C481 889 463 866 438 831 C407 791 339 693 339 693 L342 692 L342 692 Z M258 0 L430 0 L430 15 L419 15 C381 15 355 41 355 80 L355 253 L560 580 C587 624 623 645 666 645 L666 660 L493 660 L493 645 L509 645 C558 645 572 614 545 566 C480 462 415 357 350 253 L353 258 L150 588 C132 623 143 646 179 646 L195 646 L195 661 L32 661 L32 646 C68 646 100 624 127 581 L127 581 L333 246 L333 81 C333 42 307 16 269 16 L258 16 L258 0 L258 0 Z " />
<glyph glyph-name="agrave" unicode="&#xe0;" horiz-adv-x="565" d="M543 34 C523 14 504 0 488 0 C458 0 450 22 450 54 L450 363 C450 448 390 505 299 505 C173 505 83 469 72 414 L92 414 C102 466 183 500 294 500 C375 500 429 447 429 367 L429 246 C397 245 297 240 242 227 C118 196 35 146 35 101 C35 38 94 -4 182 -4 C283 -4 379 31 429 84 L429 54 C429 17 439 -8 475 -8 C498 -8 521 8 546 33 L543 34 L543 34 Z M179 723 C179 720 197 697 225 665 C257 625 335 534 335 534 L338 535 C338 535 268 632 236 673 C211 708 193 731 191 731 C187 731 179 725 179 723 L179 723 Z M429 243 L429 89 C383 41 291 10 193 10 C111 10 56 49 56 108 C56 148 130 193 242 221 C300 235 398 241 429 243 L429 243 Z " />
<glyph glyph-name="aacute" unicode="&#xe1;" horiz-adv-x="565" d="M229 532 C229 532 305 623 336 663 C363 697 381 720 381 721 C381 723 373 729 369 729 C368 729 350 706 325 671 C294 631 226 533 226 533 L229 532 L229 532 Z M543 34 C523 14 504 0 488 0 C458 0 450 22 450 54 L450 363 C450 448 390 505 299 505 C173 505 83 469 72 414 L92 414 C102 466 183 500 294 500 C375 500 429 447 429 367 L429 246 C397 245 297 240 242 227 C118 196 35 146 35 101 C35 38 94 -4 182 -4 C283 -4 379 31 429 84 L429 54 C429 17 439 -8 475 -8 C498 -8 521 8 546 33 L543 34 L543 34 Z M429 243 L429 89 C383 41 291 10 193 10 C111 10 56 49 56 108 C56 148 130 193 242 221 C300 235 398 241 429 243 L429 243 Z " />
<glyph glyph-name="acircumflex" unicode="&#xe2;" horiz-adv-x="565" d="M543 34 C523 14 504 0 488 0 C458 0 450 22 450 54 L450 363 C450 448 390 505 299 505 C173 505 83 469 72 414 L92 414 C102 466 183 500 294 500 C375 500 429 447 429 367 L429 246 C397 245 297 240 242 227 C118 196 35 146 35 101 C35 38 94 -4 182 -4 C283 -4 379 31 429 84 L429 54 C429 17 439 -8 475 -8 C498 -8 521 8 546 33 L543 34 L543 34 Z M267 741 C266 743 263 747 261 747 C255 747 170 590 125 538 L128 536 C175 592 240 692 261 724 C293 668 395 536 395 536 L398 538 C398 538 302 672 268 741 L267 741 L267 741 Z M430 243 L430 89 C384 41 292 10 194 10 C112 10 57 49 57 108 C57 148 131 193 243 221 C301 235 399 241 430 243 L430 243 Z " />
<glyph glyph-name="atilde" unicode="&#xe3;" horiz-adv-x="565" d="M50 595 C50 638 79 667 123 667 C204 667 313 604 394 604 C443 604 475 634 475 678 L472 678 C472 641 442 617 398 617 C317 617 208 680 127 680 C79 680 47 646 47 595 L50 595 L50 595 Z M543 34 C523 14 504 0 488 0 C458 0 450 22 450 54 L450 363 C450 448 390 505 299 505 C173 505 83 469 72 414 L92 414 C102 466 183 500 294 500 C375 500 429 447 429 367 L429 246 C397 245 297 240 242 227 C118 196 35 146 35 101 C35 38 94 -4 182 -4 C283 -4 379 31 429 84 L429 54 C429 17 439 -8 475 -8 C498 -8 521 8 546 33 L543 34 L543 34 Z M429 243 L429 89 C383 41 291 10 193 10 C111 10 56 49 56 108 C56 148 130 193 242 221 C300 235 398 241 429 243 L429 243 Z " />
<glyph glyph-name="adieresis" unicode="&#xe4;" horiz-adv-x="565" d="M366 590 C366 616 326 616 326 590 C326 564 366 564 366 590 L366 590 Z M196 590 C196 616 156 616 156 590 C156 564 196 564 196 590 L196 590 Z M543 34 C523 14 504 0 488 0 C458 0 450 22 450 54 L450 363 C450 448 390 505 299 505 C173 505 83 469 72 414 L92 414 C102 466 183 500 294 500 C375 500 429 447 429 367 L429 246 C397 245 297 240 242 227 C118 196 35 146 35 101 C35 38 94 -4 182 -4 C283 -4 379 31 429 84 L429 54 C429 17 439 -8 475 -8 C498 -8 521 8 546 33 L543 34 L543 34 Z M429 243 L429 89 C383 41 291 10 193 10 C111 10 56 49 56 108 C56 148 130 193 242 221 C300 235 398 241 429 243 L429 243 Z " />
<glyph glyph-name="aring" unicode="&#xe5;" horiz-adv-x="565" d="M173 628 C173 681 208 716 261 716 C314 716 349 681 349 628 C349 580 309 539 261 539 C213 539 173 580 173 628 L173 628 Z M167 628 C167 578 210 535 261 535 C312 535 355 578 355 628 C355 683 317 720 261 720 C205 720 167 683 167 628 L167 628 Z M543 34 C523 14 504 0 488 0 C458 0 450 22 450 54 L450 363 C450 448 390 505 299 505 C173 505 83 469 72 414 L92 414 C102 466 183 500 294 500 C375 500 429 447 429 367 L429 246 C397 245 297 240 242 227 C118 196 35 146 35 101 C35 38 94 -4 182 -4 C283 -4 379 31 429 84 L429 54 C429 17 439 -8 475 -8 C498 -8 521 8 546 33 L543 34 L543 34 Z M429 243 L429 89 C383 41 291 10 193 10 C111 10 56 49 56 108 C56 148 130 193 242 221 C300 235 398 241 429 243 L429 243 Z " />
<glyph glyph-name="ccedilla" unicode="&#xe7;" horiz-adv-x="551" d="M217 -91 C250 -41 273 -11 278 -5 C390 -5 477 7 498 24 L497 26 C483 15 401 7 291 7 C159 7 71 103 71 246 C71 398 185 499 356 499 C427 499 477 461 482 403 C484 391 501 389 501 402 C496 464 439 505 359 505 C174 505 50 398 50 238 C50 93 139 -4 272 -5 C268 -11 245 -45 213 -94 L214 -95 C239 -86 282 -80 321 -80 C385 -80 427 -102 427 -135 C427 -182 383 -214 317 -214 C259 -214 206 -206 184 -193 L183 -196 C208 -210 263 -220 321 -220 C392 -220 439 -186 439 -135 C439 -100 393 -76 325 -76 C284 -76 242 -82 217 -91 L217 -91 Z " />
<glyph glyph-name="egrave" unicode="&#xe8;" horiz-adv-x="557" d="M489 345 L489 346 L488 331 L507 331 C507 435 428 505 309 505 C154 505 50 398 50 238 C50 92 141 -5 277 -5 C392 -5 483 7 504 24 L503 26 C489 15 406 7 294 7 C160 7 71 103 71 246 C71 277 75 305 82 331 L488 331 L488 338 L489 345 C488 341 484 338 479 338 L83 335 C113 436 196 499 308 499 C417 499 489 438 489 347 C489 346 489 345 489 344 L489 345 L489 345 Z M227 720 C227 717 245 694 273 662 C305 622 383 531 383 531 L386 532 C386 532 316 629 284 670 C259 705 241 728 239 728 C235 728 227 722 227 720 L227 720 Z " />
<glyph glyph-name="eacute" unicode="&#xe9;" horiz-adv-x="557" d="M277 532 C277 532 353 623 384 663 C411 697 429 720 429 721 C429 723 421 729 417 729 C416 729 398 706 373 671 C342 631 274 533 274 533 L277 532 L277 532 Z M489 345 L489 346 L488 331 L507 331 C507 435 428 505 309 505 C154 505 50 398 50 238 C50 92 141 -5 277 -5 C392 -5 483 7 504 24 L503 26 C489 15 406 7 294 7 C160 7 71 103 71 246 C71 277 75 305 82 331 L488 331 L488 338 L489 345 C488 341 484 338 479 338 L83 335 C113 436 196 499 308 499 C417 499 489 438 489 347 C489 346 489 345 489 344 L489 345 L489 345 Z " />
<glyph glyph-name="ecircumflex" unicode="&#xea;" horiz-adv-x="557" d="M489 345 L489 346 L488 331 L507 331 C507 435 428 505 309 505 C154 505 50 398 50 238 C50 92 141 -5 277 -5 C392 -5 483 7 504 24 L503 26 C489 15 406 7 294 7 C160 7 71 103 71 246 C71 277 75 305 82 331 L488 331 L488 338 L489 345 C488 341 484 338 479 338 L83 335 C113 436 196 499 308 499 C417 499 489 438 489 347 C489 346 489 345 489 344 L489 345 L489 345 Z M315 738 C314 740 311 744 309 744 C303 744 218 587 173 535 L176 533 C223 589 288 689 309 721 C341 665 443 533 443 533 L446 535 C446 535 350 669 316 738 L315 738 L315 738 Z " />
<glyph glyph-name="edieresis" unicode="&#xeb;" horiz-adv-x="557" d="M414 590 C414 616 374 616 374 590 C374 564 414 564 414 590 L414 590 Z M244 590 C244 616 204 616 204 590 C204 564 244 564 244 590 L244 590 Z M489 345 L489 346 L488 331 L507 331 C507 435 428 505 309 505 C154 505 50 398 50 238 C50 92 141 -5 277 -5 C392 -5 483 7 504 24 L503 26 C489 15 406 7 294 7 C160 7 71 103 71 246 C71 277 75 305 82 331 L488 331 L488 338 L489 345 C488 341 484 338 479 338 L83 335 C113 436 196 499 308 499 C417 499 489 438 489 347 C489 346 489 345 489 344 L489 345 L489 345 Z " />
<glyph glyph-name="igrave" unicode="&#xec;" horiz-adv-x="260" d="M48 721 C48 718 66 695 94 663 C126 623 204 532 204 532 L207 533 C207 533 137 630 105 671 C80 706 62 729 60 729 C56 729 48 723 48 721 L48 721 Z M215 15 L204 15 C166 15 140 41 140 80 L140 500 L136 500 L45 475 L45 466 L56 463 C110 452 120 439 120 385 L120 80 C120 41 94 15 56 15 L45 15 L45 0 L215 0 L215 15 L215 15 Z " />
<glyph glyph-name="iacute" unicode="&#xed;" horiz-adv-x="260" d="M52 532 C52 532 128 623 159 663 C186 697 204 720 204 721 C204 723 196 729 192 729 C191 729 173 706 148 671 C117 631 49 533 49 533 L52 532 L52 532 Z M215 15 L204 15 C166 15 140 41 140 80 L140 500 L136 500 L45 475 L45 466 L56 463 C110 452 120 439 120 385 L120 80 C120 41 94 15 56 15 L45 15 L45 0 L215 0 L215 15 L215 15 Z " />
<glyph glyph-name="icircumflex" unicode="&#xee;" horiz-adv-x="260" d="M136 739 C135 741 132 745 130 745 C124 745 39 588 -6 536 L-3 534 C44 590 109 690 130 722 C162 666 264 534 264 534 L267 536 C267 536 171 670 137 739 L136 739 L136 739 Z M216 15 L205 15 C167 15 141 41 141 80 L141 500 L137 500 L46 475 L46 466 L57 463 C111 452 121 439 121 385 L121 80 C121 41 95 15 57 15 L46 15 L46 0 L216 0 L216 15 L216 15 Z " />
<glyph glyph-name="idieresis" unicode="&#xef;" horiz-adv-x="260" d="M235 590 C235 616 195 616 195 590 C195 564 235 564 235 590 L235 590 Z M65 590 C65 616 25 616 25 590 C25 564 65 564 65 590 L65 590 Z M215 15 L204 15 C166 15 140 41 140 80 L140 500 L136 500 L45 475 L45 466 L56 463 C110 452 120 439 120 385 L120 80 C120 41 94 15 56 15 L45 15 L45 0 L215 0 L215 15 L215 15 Z " />
<glyph glyph-name="ntilde" unicode="&#xf1;" horiz-adv-x="709" d="M146 595 C146 638 175 667 219 667 C300 667 409 604 490 604 C539 604 571 634 571 678 L568 678 C568 641 538 617 494 617 C413 617 304 680 223 680 C175 680 143 646 143 595 L146 595 L146 595 Z M499 0 L669 0 L669 15 L658 15 C620 15 594 41 594 80 L594 336 C594 437 547 505 425 505 C341 505 227 474 140 429 L140 500 L136 500 L45 475 L45 466 L56 463 C110 452 120 439 120 385 L120 80 C120 41 94 15 56 15 L45 15 L45 0 L215 0 L215 15 L204 15 C166 15 140 41 140 80 L140 427 C214 466 322 492 410 492 C528 492 574 428 574 333 L574 80 C574 41 548 15 510 15 L499 15 L499 0 L499 0 Z " />
<glyph glyph-name="ograve" unicode="&#xf2;" horiz-adv-x="677" d="M72 250 C72 401 179 501 339 501 C499 501 605 401 605 250 C605 99 499 -1 339 -1 C179 -1 72 99 72 250 L72 250 Z M50 250 C50 97 166 -5 339 -5 C512 -5 627 97 627 250 C627 403 512 505 339 505 C166 505 50 403 50 250 L50 250 Z M257 721 C257 718 275 695 303 663 C335 623 413 532 413 532 L415 533 C415 533 345 630 313 671 C288 706 270 729 268 729 C265 729 257 723 257 721 L257 721 Z " />
<glyph glyph-name="oacute" unicode="&#xf3;" horiz-adv-x="677" d="M306 532 C306 532 382 623 413 663 C440 697 458 720 458 721 C458 723 450 729 447 729 C446 729 428 706 403 671 C372 631 304 533 304 533 L306 532 L306 532 Z M72 250 C72 401 179 501 339 501 C499 501 605 401 605 250 C605 99 499 -1 339 -1 C179 -1 72 99 72 250 L72 250 Z M50 250 C50 97 166 -5 339 -5 C512 -5 627 97 627 250 C627 403 512 505 339 505 C166 505 50 403 50 250 L50 250 Z " />
<glyph glyph-name="ocircumflex" unicode="&#xf4;" horiz-adv-x="677" d="M72 250 C72 401 179 501 339 501 C499 501 605 401 605 250 C605 99 499 -1 339 -1 C179 -1 72 99 72 250 L72 250 Z M50 250 C50 97 166 -5 339 -5 C512 -5 627 97 627 250 C627 403 512 505 339 505 C166 505 50 403 50 250 L50 250 Z M345 739 C341 746 335 746 332 739 C332 739 242 583 203 536 L205 534 C254 592 317 690 338 723 C370 667 472 535 472 535 L474 537 C474 537 379 669 345 740 L345 739 L345 739 Z " />
<glyph glyph-name="otilde" unicode="&#xf5;" horiz-adv-x="677" d="M128 595 C128 638 157 667 200 667 C282 667 390 604 472 604 C521 604 553 634 553 678 L549 678 C549 641 520 617 476 617 C394 617 286 680 204 680 C156 680 124 646 124 595 L128 595 L128 595 Z M72 250 C72 401 179 501 339 501 C499 501 605 401 605 250 C605 99 499 -1 339 -1 C179 -1 72 99 72 250 L72 250 Z M50 250 C50 97 166 -5 339 -5 C512 -5 627 97 627 250 C627 403 512 505 339 505 C166 505 50 403 50 250 L50 250 Z " />
<glyph glyph-name="odieresis" unicode="&#xf6;" horiz-adv-x="677" d="M444 590 C444 616 404 616 404 590 C404 564 444 564 444 590 L444 590 Z M273 590 C273 616 233 616 233 590 C233 564 273 564 273 590 L273 590 Z M72 250 C72 401 179 501 339 501 C499 501 605 401 605 250 C605 99 499 -1 339 -1 C179 -1 72 99 72 250 L72 250 Z M50 250 C50 97 166 -5 339 -5 C512 -5 627 97 627 250 C627 403 512 505 339 505 C166 505 50 403 50 250 L50 250 Z " />
<glyph glyph-name="oslash" unicode="&#xf8;" horiz-adv-x="677" d="M52 -7 L132 63 C183 19 254 -6 339 -6 C512 -6 627 96 627 249 C627 324 599 387 550 432 L629 502 L625 506 L546 436 C496 479 425 504 340 504 C167 504 51 402 51 249 C51 174 79 111 128 66 L49 -4 L52 -7 L52 -7 Z M537 427 L138 75 C96 118 72 178 72 249 C72 400 179 500 339 500 C421 500 489 474 536 428 L537 427 L537 427 Z M540 424 C582 381 606 321 606 250 C606 99 500 -1 340 -1 C258 -1 190 26 143 72 L540 424 L540 424 Z " />
<glyph glyph-name="ugrave" unicode="&#xf9;" horiz-adv-x="674" d="M245 721 C245 718 263 695 291 663 C323 623 401 532 401 532 L404 533 C404 533 334 630 302 671 C277 706 259 729 257 729 C253 729 245 723 245 721 L245 721 Z M15 485 L26 485 C64 485 90 459 90 420 L90 156 C90 59 160 -5 295 -5 C420 -5 499 24 544 66 L544 0 L548 0 L639 25 L639 34 L628 37 C574 48 564 61 564 115 L564 500 L469 500 L469 485 L480 485 C518 485 544 459 544 420 L544 70 C506 33 433 8 310 8 C178 8 110 68 110 159 L110 500 L15 500 L15 485 L15 485 Z " />
<glyph glyph-name="uacute" unicode="&#xfa;" horiz-adv-x="674" d="M295 532 C295 532 371 623 402 663 C429 697 447 720 447 721 C447 723 439 729 435 729 C434 729 416 706 391 671 C360 631 292 533 292 533 L295 532 L295 532 Z M15 485 L26 485 C64 485 90 459 90 420 L90 156 C90 59 160 -5 295 -5 C420 -5 499 24 544 66 L544 0 L548 0 L639 25 L639 34 L628 37 C574 48 564 61 564 115 L564 500 L469 500 L469 485 L480 485 C518 485 544 459 544 420 L544 70 C506 33 433 8 310 8 C178 8 110 68 110 159 L110 500 L15 500 L15 485 L15 485 Z " />
<glyph glyph-name="ucircumflex" unicode="&#xfb;" horiz-adv-x="674" d="M333 739 C332 741 329 745 327 745 C321 745 236 588 191 536 L194 534 C241 590 306 690 327 722 C359 666 461 534 461 534 L464 536 C464 536 368 670 334 739 L333 739 L333 739 Z M16 485 L27 485 C65 485 91 459 91 420 L91 156 C91 59 161 -5 296 -5 C421 -5 500 24 545 66 L545 0 L549 0 L640 25 L640 34 L629 37 C575 48 565 61 565 115 L565 500 L470 500 L470 485 L481 485 C519 485 545 459 545 420 L545 70 C507 33 434 8 311 8 C179 8 111 68 111 159 L111 500 L16 500 L16 485 L16 485 Z " />
<glyph glyph-name="udieresis" unicode="&#xfc;" horiz-adv-x="674" d="M432 590 C432 616 392 616 392 590 C392 564 432 564 432 590 L432 590 Z M262 590 C262 616 222 616 222 590 C222 564 262 564 262 590 L262 590 Z M15 485 L26 485 C64 485 90 459 90 420 L90 156 C90 59 160 -5 295 -5 C420 -5 499 24 544 66 L544 0 L548 0 L639 25 L639 34 L628 37 C574 48 564 61 564 115 L564 500 L469 500 L469 485 L480 485 C518 485 544 459 544 420 L544 70 C506 33 433 8 310 8 C178 8 110 68 110 159 L110 500 L15 500 L15 485 L15 485 Z " />
<glyph glyph-name="ydieresis" unicode="&#xff;" horiz-adv-x="543" d="M410 590 C410 616 370 616 370 590 C370 564 410 564 410 590 L410 590 Z M240 590 C240 616 200 616 200 590 C200 564 240 564 240 590 L240 590 Z M178 500 L11 500 L11 485 L23 485 C58 485 92 463 110 429 L298 -6 C293 -14 279 -40 269 -70 C222 -176 186 -217 140 -217 C140 -217 92 -193 71 -193 C65 -193 61 -197 61 -202 C61 -219 88 -230 128 -230 C182 -230 223 -186 274 -72 C286 -38 302 -10 302 -10 L497 429 C516 463 551 485 586 485 L597 485 L597 500 L447 500 L447 485 L457 485 C492 485 504 459 487 420 L309 12 C252 148 194 284 137 420 C120 459 133 485 168 485 L178 485 L178 500 L178 500 Z " />
<glyph glyph-name="Amacron" unicode="&#x100;" horiz-adv-x="693" d="M149 774 L546 774 L546 785 L149 785 L149 774 L149 774 Z M499 0 L688 0 L688 15 C646 15 615 34 596 76 L350 674 L345 674 L107 79 C91 40 55 14 17 14 L6 14 L6 -1 L193 -1 L193 14 L169 14 C121 14 102 46 121 94 L121 94 L178 238 L506 238 C527 185 550 131 570 79 C586 40 571 14 532 14 L499 14 L499 0 L499 0 Z M504 243 L180 243 L340 646 L504 243 L504 243 Z " />
<glyph glyph-name="amacron" unicode="&#x101;" horiz-adv-x="565" d="M63 614 L459 614 L459 625 L63 625 L63 614 L63 614 Z M543 34 C523 14 504 0 488 0 C458 0 450 22 450 54 L450 363 C450 448 390 505 299 505 C173 505 83 469 72 414 L92 414 C102 466 183 500 294 500 C375 500 429 447 429 367 L429 246 C397 245 297 240 242 227 C118 196 35 146 35 101 C35 38 94 -4 182 -4 C283 -4 379 31 429 84 L429 54 C429 17 439 -8 475 -8 C498 -8 521 8 546 33 L543 34 L543 34 Z M429 243 L429 89 C383 41 291 10 193 10 C111 10 56 49 56 108 C56 148 130 193 242 221 C300 235 398 241 429 243 L429 243 Z " />
<glyph glyph-name="Abreve" unicode="&#x102;" horiz-adv-x="693" d="M191 872 C195 819 258 783 348 783 C438 783 500 819 504 872 L500 872 C497 826 436 796 348 796 C259 796 198 826 195 872 L191 872 L191 872 Z M499 0 L688 0 L688 15 C646 15 615 34 596 76 L350 674 L345 674 L107 79 C91 40 55 14 17 14 L6 14 L6 -1 L193 -1 L193 14 L169 14 C121 14 102 46 121 94 L121 94 L178 238 L506 238 C527 185 550 131 570 79 C586 40 571 14 532 14 L499 14 L499 0 L499 0 Z M504 243 L180 243 L340 646 L504 243 L504 243 Z " />
<glyph glyph-name="abreve" unicode="&#x103;" horiz-adv-x="565" d="M104 682 C108 629 171 593 261 593 C351 593 414 629 418 682 L414 682 C411 636 350 606 261 606 C172 606 111 636 108 682 L104 682 L104 682 Z M543 34 C523 14 504 0 488 0 C458 0 450 22 450 54 L450 363 C450 448 390 505 299 505 C173 505 83 469 72 414 L92 414 C102 466 183 500 294 500 C375 500 429 447 429 367 L429 246 C397 245 297 240 242 227 C118 196 35 146 35 101 C35 38 94 -4 182 -4 C283 -4 379 31 429 84 L429 54 C429 17 439 -8 475 -8 C498 -8 521 8 546 33 L543 34 L543 34 Z M429 243 L429 89 C383 41 291 10 193 10 C111 10 56 49 56 108 C56 148 130 193 242 221 C300 235 398 241 429 243 L429 243 Z " />
<glyph glyph-name="Aogonek" unicode="&#x104;" horiz-adv-x="693" d="M499 0 L594 0 C552 -21 474 -94 474 -157 C474 -201 509 -231 561 -231 C590 -231 621 -217 638 -197 L637 -195 C621 -214 593 -226 565 -226 C518 -226 486 -198 486 -155 C486 -88 568 -13 603 0 L688 0 L688 15 C646 15 615 34 596 76 L350 674 L345 674 L107 79 C91 40 55 14 17 14 L6 14 L6 -1 L193 -1 L193 14 L169 14 C121 14 102 46 121 94 L121 94 L178 238 L506 238 C527 185 550 131 570 79 C586 40 571 14 532 14 L499 14 L499 0 L499 0 Z M504 243 L180 243 L340 646 L504 243 L504 243 Z " />
<glyph glyph-name="aogonek" unicode="&#x105;" horiz-adv-x="565" d="M508 6 C517 14 525 20 532 25 C523 17 515 11 507 7 L508 6 L508 6 Z M494 2 C460 -6 449 23 449 55 L449 364 C449 449 389 506 298 506 C172 506 82 470 71 415 L91 415 C101 467 182 501 293 501 C374 501 428 448 428 368 L428 247 C396 246 296 241 241 228 C117 197 34 147 34 102 C34 39 93 -3 181 -3 C282 -3 378 32 428 85 L428 55 C428 16 442 -14 484 -6 C449 -40 416 -88 416 -133 C416 -190 451 -228 503 -228 C532 -228 563 -214 580 -194 L579 -192 C563 -211 535 -223 507 -223 C460 -223 428 -186 428 -131 C428 -85 461 -36 494 -3 C510 3 527 16 545 34 L545 38 C544 38 542 38 541 37 C528 32 511 20 493 4 L494 2 L494 2 Z M427 244 L427 90 C381 42 289 11 191 11 C109 11 54 50 54 109 C54 149 128 194 240 222 C298 236 396 242 427 244 L427 244 Z " />
<glyph glyph-name="Cacute" unicode="&#x106;" horiz-adv-x="823" d="M413 692 C413 692 489 783 520 823 C547 857 565 880 565 881 C565 883 557 889 553 889 C552 889 534 866 509 831 C478 791 410 693 410 693 L413 692 L413 692 Z M763 471 L763 601 L762 599 C762 600 763 601 763 602 C696 640 576 666 461 666 C227 666 71 532 71 331 C71 130 227 -4 461 -4 C576 -4 696 22 763 60 L756 180 C747 178 738 169 746 178 C744 177 742 176 740 175 C739 167 738 158 736 152 C710 77 640 21 558 8 C526 4 493 2 460 2 C240 2 94 134 94 331 C94 528 240 660 460 660 C502 660 545 657 586 651 L586 651 C651 641 711 585 736 512 L749 473 L763 471 L763 471 Z M740 176 C732 171 726 169 743 185 C742 182 741 179 740 176 L740 176 Z " />
<glyph glyph-name="cacute" unicode="&#x107;" horiz-adv-x="551" d="M281 532 C281 532 357 623 388 663 C415 697 433 720 433 721 C433 723 425 729 421 729 C420 729 402 706 377 671 C346 631 278 533 278 533 L281 532 L281 532 Z M498 24 L497 26 C483 15 401 7 291 7 C159 7 71 103 71 246 C71 398 185 499 356 499 C427 499 477 461 482 403 C484 391 501 389 501 402 C496 464 439 505 359 505 C174 505 50 398 50 238 C50 92 140 -5 274 -5 C388 -5 477 7 498 24 L498 24 Z " />
<glyph glyph-name="Ccircumflex" unicode="&#x108;" horiz-adv-x="823" d="M467 899 C466 901 463 905 461 905 C455 905 370 748 325 696 L328 694 C375 750 440 850 461 882 C493 826 595 694 595 694 L598 696 C598 696 502 830 468 899 L467 899 L467 899 Z M764 471 L764 601 L763 599 C763 600 764 601 764 602 C697 640 577 666 462 666 C228 666 72 532 72 331 C72 130 228 -4 462 -4 C577 -4 697 22 764 60 L757 180 C748 178 739 169 747 178 C745 177 743 176 741 175 C740 167 739 158 737 152 C711 77 641 21 559 8 C527 4 494 2 461 2 C241 2 95 134 95 331 C95 528 241 660 461 660 C503 660 546 657 587 651 L587 651 C652 641 712 585 737 512 L750 473 L764 471 L764 471 Z M741 176 C733 171 727 169 744 185 C743 182 742 179 741 176 L741 176 Z " />
<glyph glyph-name="Cdot" unicode="&#x10a;" horiz-adv-x="823" d="M481 750 C481 776 441 776 441 750 C441 724 481 724 481 750 L481 750 Z M763 471 L763 601 L762 599 C762 600 763 601 763 602 C696 640 576 666 461 666 C227 666 71 532 71 331 C71 130 227 -4 461 -4 C576 -4 696 22 763 60 L756 180 C747 178 738 169 746 178 C744 177 742 176 740 175 C739 167 738 158 736 152 C710 77 640 21 558 8 C526 4 493 2 460 2 C240 2 94 134 94 331 C94 528 240 660 460 660 C502 660 545 657 586 651 L586 651 C651 641 711 585 736 512 L749 473 L763 471 L763 471 Z M740 176 C732 171 726 169 743 185 C742 182 741 179 740 176 L740 176 Z " />
<glyph glyph-name="cdot" unicode="&#x10b;" horiz-adv-x="551" d="M379 590 C379 616 339 616 339 590 C339 564 379 564 379 590 L379 590 Z M498 24 L497 26 C483 15 401 7 291 7 C159 7 71 103 71 246 C71 398 185 499 356 499 C427 499 477 461 482 403 C484 391 501 389 501 402 C496 464 439 505 359 505 C174 505 50 398 50 238 C50 92 140 -5 274 -5 C388 -5 477 7 498 24 L498 24 Z " />
<glyph glyph-name="Ccaron" unicode="&#x10c;" horiz-adv-x="823" d="M594 926 C594 926 492 794 460 738 C439 770 374 870 327 926 L324 924 C365 876 454 721 454 721 C458 714 463 714 467 721 C501 790 597 924 597 924 L594 926 L594 926 Z M763 471 L763 601 L762 599 C762 600 763 601 763 602 C696 640 576 666 461 666 C227 666 71 532 71 331 C71 130 227 -4 461 -4 C576 -4 696 22 763 60 L756 180 C747 178 738 169 746 178 C744 177 742 176 740 175 C739 167 738 158 736 152 C710 77 640 21 558 8 C526 4 493 2 460 2 C240 2 94 134 94 331 C94 528 240 660 460 660 C502 660 545 657 586 651 L586 651 C651 641 711 585 736 512 L749 473 L763 471 L763 471 Z M740 176 C732 171 726 169 743 185 C742 182 741 179 740 176 L740 176 Z " />
<glyph glyph-name="ccaron" unicode="&#x10d;" horiz-adv-x="551" d="M492 766 C492 766 390 634 358 578 C337 610 272 710 225 766 L222 764 C263 716 352 561 352 561 C356 554 361 554 365 561 C399 630 495 764 495 764 L492 766 L492 766 Z M498 24 L497 26 C483 15 401 7 291 7 C159 7 71 103 71 246 C71 398 185 499 356 499 C427 499 477 461 482 403 C484 391 501 389 501 402 C496 464 439 505 359 505 C174 505 50 398 50 238 C50 92 140 -5 274 -5 C388 -5 477 7 498 24 L498 24 Z " />
<glyph glyph-name="Dcaron" unicode="&#x10e;" horiz-adv-x="763" d="M546 926 C546 926 444 794 412 738 C391 771 328 869 279 927 L277 925 C316 878 406 722 406 722 C410 715 416 715 420 722 C454 793 549 925 549 925 L546 926 L546 926 Z M60 646 L71 646 C109 646 135 620 135 581 L135 81 C135 42 109 16 71 16 L60 16 L60 1 L418 1 C596 1 714 133 714 331 C714 529 570 661 353 661 L60 661 L60 646 L60 646 Z M158 7 L158 655 L353 655 C556 655 692 525 692 331 C692 137 582 7 418 7 L158 7 L158 7 Z " />
<glyph glyph-name="dcaron" unicode="&#x10f;" horiz-adv-x="684" d="M717 754 C713 754 691 693 677 648 L623 487 L626 486 L689 644 C713 702 729 747 729 749 C729 753 721 754 717 754 L717 754 Z M479 686 L490 683 C544 672 554 659 554 605 L554 412 C522 464 429 505 318 505 C161 505 56 394 56 228 C56 88 158 -5 310 -5 C413 -5 510 23 555 65 L555 0 L559 0 L650 25 L650 34 L639 37 C585 48 575 61 575 115 L575 720 L571 720 L480 695 L479 686 L479 686 Z M555 69 C516 32 423 7 321 7 C175 7 77 99 77 236 C77 394 173 500 317 500 C433 500 529 455 555 401 L555 69 L555 69 Z " />
<glyph glyph-name="Emacron" unicode="&#x112;" horiz-adv-x="619" d="M106 774 L503 774 L503 785 L106 785 L106 774 L106 774 Z M439 264 L439 430 L427 430 L423 419 C411 381 370 355 319 355 L137 355 L137 654 L342 654 C402 654 455 614 475 554 L486 519 L497 519 L497 660 L40 660 L40 645 L51 645 C89 645 115 619 115 580 L115 80 C115 41 89 15 51 15 L40 15 L40 0 L505 0 L506 3 L505 3 C512 44 522 100 529 141 L518 141 L501 106 C471 46 411 6 351 6 L137 6 L137 349 L319 349 C370 349 411 320 423 277 L427 264 L439 264 L439 264 Z " />
<glyph glyph-name="emacron" unicode="&#x113;" horiz-adv-x="557" d="M111 614 L507 614 L507 625 L111 625 L111 614 L111 614 Z M489 345 L489 346 L488 331 L507 331 C507 435 428 505 309 505 C154 505 50 398 50 238 C50 92 141 -5 277 -5 C392 -5 483 7 504 24 L503 26 C489 15 406 7 294 7 C160 7 71 103 71 246 C71 277 75 305 82 331 L488 331 L488 338 L489 345 C488 341 484 338 479 338 L83 335 C113 436 196 499 308 499 C417 499 489 438 489 347 C489 346 489 345 489 344 L489 345 L489 345 Z " />
<glyph glyph-name="Ebreve" unicode="&#x114;" horiz-adv-x="619" d="M148 872 C152 819 215 783 305 783 C395 783 457 819 461 872 L457 872 C454 826 393 796 305 796 C216 796 155 826 152 872 L148 872 L148 872 Z M439 264 L439 430 L427 430 L423 419 C411 381 370 355 319 355 L137 355 L137 654 L342 654 C402 654 455 614 475 554 L486 519 L497 519 L497 660 L40 660 L40 645 L51 645 C89 645 115 619 115 580 L115 80 C115 41 89 15 51 15 L40 15 L40 0 L505 0 L506 3 L505 3 C512 44 522 100 529 141 L518 141 L501 106 C471 46 411 6 351 6 L137 6 L137 349 L319 349 C370 349 411 320 423 277 L427 264 L439 264 L439 264 Z " />
<glyph glyph-name="ebreve" unicode="&#x115;" horiz-adv-x="557" d="M152 712 C156 659 219 623 309 623 C399 623 462 659 466 712 L462 712 C459 666 398 636 309 636 C220 636 159 666 156 712 L152 712 L152 712 Z M489 345 L489 346 L488 331 L507 331 C507 435 428 505 309 505 C154 505 50 398 50 238 C50 92 141 -5 277 -5 C392 -5 483 7 504 24 L503 26 C489 15 406 7 294 7 C160 7 71 103 71 246 C71 277 75 305 82 331 L488 331 L488 338 L489 345 C488 341 484 338 479 338 L83 335 C113 436 196 499 308 499 C417 499 489 438 489 347 C489 346 489 345 489 344 L489 345 L489 345 Z " />
<glyph glyph-name="Edot" unicode="&#x116;" horiz-adv-x="619" d="M325 750 C325 776 285 776 285 750 C285 724 325 724 325 750 L325 750 Z M439 264 L439 430 L427 430 L423 419 C411 381 370 355 319 355 L137 355 L137 654 L342 654 C402 654 455 614 475 554 L486 519 L497 519 L497 660 L40 660 L40 645 L51 645 C89 645 115 619 115 580 L115 80 C115 41 89 15 51 15 L40 15 L40 0 L505 0 L506 3 L505 3 C512 44 522 100 529 141 L518 141 L501 106 C471 46 411 6 351 6 L137 6 L137 349 L319 349 C370 349 411 320 423 277 L427 264 L439 264 L439 264 Z " />
<glyph glyph-name="edot" unicode="&#x117;" horiz-adv-x="557" d="M329 590 C329 616 289 616 289 590 C289 564 329 564 329 590 L329 590 Z M489 345 L489 346 L488 331 L507 331 C507 435 428 505 309 505 C154 505 50 398 50 238 C50 92 141 -5 277 -5 C392 -5 483 7 504 24 L503 26 C489 15 406 7 294 7 C160 7 71 103 71 246 C71 277 75 305 82 331 L488 331 L488 338 L489 345 C488 341 484 338 479 338 L83 335 C113 436 196 499 308 499 C417 499 489 438 489 347 C489 346 489 345 489 344 L489 345 L489 345 Z " />
<glyph glyph-name="Eogonek" unicode="&#x118;" horiz-adv-x="619" d="M439 264 L439 430 L427 430 L423 419 C411 381 370 355 319 355 L137 355 L137 654 L342 654 C402 654 455 614 475 554 L486 519 L497 519 L497 660 L40 660 L40 645 L51 645 C89 645 115 619 115 580 L115 80 C115 41 89 15 51 15 L40 15 L40 0 L495 0 C453 -21 375 -94 375 -157 C375 -201 410 -231 462 -231 C491 -231 522 -217 539 -197 L538 -195 C522 -214 494 -226 466 -226 C419 -226 387 -198 387 -155 C387 -88 469 -13 504 0 L505 0 L506 3 L505 3 C512 44 522 100 529 141 L518 141 L501 106 C471 46 411 6 351 6 L137 6 L137 349 L319 349 C370 349 411 320 423 277 L427 264 L439 264 L439 264 Z " />
<glyph glyph-name="eogonek" unicode="&#x119;" horiz-adv-x="557" d="M489 345 L489 346 L488 331 L507 331 C507 435 428 505 309 505 C154 505 50 398 50 238 C50 92 141 -5 277 -5 C283 -5 289 -5 295 -5 C252 -27 177 -98 177 -160 C177 -203 212 -231 264 -231 C293 -231 324 -217 341 -197 L340 -195 C324 -214 296 -226 268 -226 C221 -226 189 -199 189 -158 C189 -92 271 -18 306 -5 C306 -4 469 -3 503 24 L502 26 C488 15 405 7 293 7 C159 7 70 103 70 246 C70 277 74 305 81 331 L487 331 L487 338 L488 345 C487 341 483 338 478 338 L82 335 C112 436 195 499 307 499 C416 499 488 438 488 347 C488 346 488 345 488 344 L489 345 L489 345 Z " />
<glyph glyph-name="Ecaron" unicode="&#x11a;" horiz-adv-x="619" d="M438 926 C438 926 336 794 304 738 C283 771 220 869 171 927 L169 925 C208 878 298 722 298 722 C302 715 308 715 312 722 C346 793 441 925 441 925 L438 926 L438 926 Z M440 265 L440 431 L428 431 L424 420 C412 382 371 356 320 356 L138 356 L138 655 L343 655 C403 655 456 615 476 555 L487 520 L498 520 L498 661 L41 661 L41 646 L52 646 C90 646 116 620 116 581 L116 81 C116 42 90 16 52 16 L41 16 L41 1 L506 1 L507 4 L506 4 C513 45 523 101 530 142 L519 142 L502 107 C472 47 412 7 352 7 L138 7 L138 350 L320 350 C371 350 412 321 424 278 L428 265 L440 265 L440 265 Z " />
<glyph glyph-name="ecaron" unicode="&#x11b;" horiz-adv-x="557" d="M442 766 C442 766 340 634 308 578 C287 610 222 710 175 766 L172 764 C213 716 302 561 302 561 C306 554 311 554 315 561 C349 630 445 764 445 764 L442 766 L442 766 Z M489 345 L489 346 L488 331 L507 331 C507 435 428 505 309 505 C154 505 50 398 50 238 C50 92 141 -5 277 -5 C392 -5 483 7 504 24 L503 26 C489 15 406 7 294 7 C160 7 71 103 71 246 C71 277 75 305 82 331 L488 331 L488 338 L489 345 C488 341 484 338 479 338 L83 335 C113 436 196 499 308 499 C417 499 489 438 489 347 C489 346 489 345 489 344 L489 345 L489 345 Z " />
<glyph glyph-name="Gcircumflex" unicode="&#x11c;" horiz-adv-x="918" d="M455 899 C454 901 451 905 449 905 C443 905 358 748 313 696 L316 694 C363 750 428 850 449 882 C481 826 583 694 583 694 L586 696 C586 696 490 830 456 899 L455 899 L455 899 Z M744 471 L744 601 L743 599 C743 600 744 601 744 602 C677 640 560 666 450 666 C223 666 72 532 72 331 C72 130 223 -4 450 -4 C563 -4 682 22 749 60 L749 231 C749 270 775 296 813 296 L824 296 L824 311 L654 311 L654 296 L665 296 C703 296 729 270 729 231 L729 56 C662 23 553 2 450 2 C238 2 96 134 96 331 C96 528 238 660 450 660 C489 660 529 657 567 651 L567 651 C633 641 694 585 719 511 L732 472 L744 471 L744 471 Z " />
<glyph glyph-name="Gbreve" unicode="&#x11e;" horiz-adv-x="918" d="M292 872 C296 819 359 783 449 783 C539 783 602 819 606 872 L602 872 C599 826 538 796 449 796 C360 796 299 826 296 872 L292 872 L292 872 Z M743 471 L743 601 L742 599 C742 600 743 601 743 602 C676 640 559 666 449 666 C222 666 71 532 71 331 C71 130 222 -4 449 -4 C562 -4 681 22 748 60 L748 231 C748 270 774 296 812 296 L823 296 L823 311 L653 311 L653 296 L664 296 C702 296 728 270 728 231 L728 56 C661 23 552 2 449 2 C237 2 95 134 95 331 C95 528 237 660 449 660 C488 660 528 657 566 651 L566 651 C632 641 693 585 718 511 L731 472 L743 471 L743 471 Z " />
<glyph glyph-name="gbreve" unicode="&#x11f;" horiz-adv-x="558" d="M145 712 C149 659 212 623 302 623 C392 623 455 659 459 712 L455 712 C452 666 391 636 302 636 C213 636 152 666 149 712 L145 712 L145 712 Z M558 500 L405 491 C375 500 340 505 302 505 C166 505 76 444 76 352 C76 272 144 215 251 202 L220 202 C122 202 56 170 56 123 C56 78 107 46 187 38 C92 24 31 -29 31 -100 L44 -97 C44 -26 104 26 197 38 C226 36 273 40 326 40 C444 40 523 -3 523 -68 C523 -166 398 -231 210 -231 C110 -231 44 -178 44 -98 L31 -100 C31 -182 102 -236 208 -236 C405 -236 537 -165 537 -58 C537 12 455 59 332 59 C302 59 225 56 225 56 C131 56 69 86 69 130 C69 171 129 199 220 199 L301 199 C437 199 527 260 527 352 C527 412 488 459 423 484 L557 488 L558 500 L558 500 Z M301 202 C177 202 94 262 94 351 C94 440 177 500 301 500 C340 500 375 494 404 483 L404 482 L406 482 C471 458 510 411 510 350 C510 261 427 201 302 201 L301 202 L301 202 Z " />
<glyph glyph-name="Gdot" unicode="&#x120;" horiz-adv-x="918" d="M469 750 C469 776 429 776 429 750 C429 724 469 724 469 750 L469 750 Z M743 471 L743 601 L742 599 C742 600 743 601 743 602 C676 640 559 666 449 666 C222 666 71 532 71 331 C71 130 222 -4 449 -4 C562 -4 681 22 748 60 L748 231 C748 270 774 296 812 296 L823 296 L823 311 L653 311 L653 296 L664 296 C702 296 728 270 728 231 L728 56 C661 23 552 2 449 2 C237 2 95 134 95 331 C95 528 237 660 449 660 C488 660 528 657 566 651 L566 651 C632 641 693 585 718 511 L731 472 L743 471 L743 471 Z " />
<glyph glyph-name="gdot" unicode="&#x121;" horiz-adv-x="558" d="M322 590 C322 616 282 616 282 590 C282 564 322 564 322 590 L322 590 Z M558 500 L405 491 C375 500 340 505 302 505 C166 505 76 444 76 352 C76 272 144 215 251 202 L220 202 C122 202 56 170 56 123 C56 78 107 46 187 38 C92 24 31 -29 31 -100 L44 -97 C44 -26 104 26 197 38 C226 36 273 40 326 40 C444 40 523 -3 523 -68 C523 -166 398 -231 210 -231 C110 -231 44 -178 44 -98 L31 -100 C31 -182 102 -236 208 -236 C405 -236 537 -165 537 -58 C537 12 455 59 332 59 C302 59 225 56 225 56 C131 56 69 86 69 130 C69 171 129 199 220 199 L301 199 C437 199 527 260 527 352 C527 412 488 459 423 484 L557 488 L558 500 L558 500 Z M301 202 C177 202 94 262 94 351 C94 440 177 500 301 500 C340 500 375 494 404 483 L404 482 L406 482 C471 458 510 411 510 350 C510 261 427 201 302 201 L301 202 L301 202 Z " />
<glyph glyph-name="Hcircumflex" unicode="&#x124;" horiz-adv-x="857" d="M435 899 C431 906 425 906 422 899 C422 899 332 743 293 696 L295 694 C344 752 407 850 428 883 C460 827 562 695 562 695 L564 697 C564 697 469 829 435 900 L435 899 L435 899 Z M817 16 L806 16 C768 16 742 42 742 81 L742 581 C742 620 768 646 806 646 L817 646 L817 661 L645 661 L645 646 L656 646 C694 646 720 620 720 581 L720 351 L137 351 L137 581 C137 620 163 646 201 646 L212 646 L212 661 L40 661 L40 646 L51 646 C89 646 115 620 115 581 L115 81 C115 42 89 16 51 16 L40 16 L40 1 L212 1 L212 16 L201 16 C163 16 137 42 137 81 L137 345 L720 345 L720 81 C720 42 694 16 656 16 L645 16 L645 1 L817 1 L817 16 L817 16 Z " />
<glyph glyph-name="Itilde" unicode="&#x128;" horiz-adv-x="252" d="M-85 755 C-85 798 -56 827 -12 827 C69 827 178 764 259 764 C308 764 340 794 340 838 L337 838 C337 801 307 777 263 777 C182 777 73 840 -8 840 C-56 840 -88 806 -88 755 L-85 755 L-85 755 Z M212 15 L201 15 C163 15 137 41 137 80 L137 580 C137 619 163 645 201 645 L212 645 L212 660 L40 660 L40 645 L51 645 C89 645 115 619 115 580 L115 80 C115 41 89 15 51 15 L40 15 L40 0 L212 0 L212 15 L212 15 Z " />
<glyph glyph-name="itilde" unicode="&#x129;" horiz-adv-x="260" d="M-81 595 C-81 638 -52 667 -8 667 C73 667 182 604 263 604 C312 604 344 634 344 678 L341 678 C341 641 311 617 267 617 C186 617 77 680 -4 680 C-52 680 -84 646 -84 595 L-81 595 L-81 595 Z M215 15 L204 15 C166 15 140 41 140 80 L140 500 L136 500 L45 475 L45 466 L56 463 C110 452 120 439 120 385 L120 80 C120 41 94 15 56 15 L45 15 L45 0 L215 0 L215 15 L215 15 Z " />
<glyph glyph-name="Imacron" unicode="&#x12a;" horiz-adv-x="252" d="M-72 774 L324 774 L324 785 L-72 785 L-72 774 L-72 774 Z M212 15 L201 15 C163 15 137 41 137 80 L137 580 C137 619 163 645 201 645 L212 645 L212 660 L40 660 L40 645 L51 645 C89 645 115 619 115 580 L115 80 C115 41 89 15 51 15 L40 15 L40 0 L212 0 L212 15 L212 15 Z " />
<glyph glyph-name="imacron" unicode="&#x12b;" horiz-adv-x="260" d="M-68 614 L328 614 L328 625 L-68 625 L-68 614 L-68 614 Z M215 15 L204 15 C166 15 140 41 140 80 L140 500 L136 500 L45 475 L45 466 L56 463 C110 452 120 439 120 385 L120 80 C120 41 94 15 56 15 L45 15 L45 0 L215 0 L215 15 L215 15 Z " />
<glyph glyph-name="Ibreve" unicode="&#x12c;" horiz-adv-x="252" d="M-31 872 C-27 819 36 783 126 783 C216 783 279 819 283 872 L279 872 C276 826 215 796 126 796 C37 796 -24 826 -27 872 L-31 872 L-31 872 Z M212 15 L201 15 C163 15 137 41 137 80 L137 580 C137 619 163 645 201 645 L212 645 L212 660 L40 660 L40 645 L51 645 C89 645 115 619 115 580 L115 80 C115 41 89 15 51 15 L40 15 L40 0 L212 0 L212 15 L212 15 Z " />
<glyph glyph-name="ibreve" unicode="&#x12d;" horiz-adv-x="260" d="M-27 712 C-23 659 40 623 130 623 C220 623 283 659 287 712 L283 712 C280 666 219 636 130 636 C41 636 -20 666 -23 712 L-27 712 L-27 712 Z M215 15 L204 15 C166 15 140 41 140 80 L140 500 L136 500 L45 475 L45 466 L56 463 C110 452 120 439 120 385 L120 80 C120 41 94 15 56 15 L45 15 L45 0 L215 0 L215 15 L215 15 Z " />
<glyph glyph-name="Idot" unicode="&#x130;" horiz-adv-x="252" d="M146 750 C146 776 106 776 106 750 C106 724 146 724 146 750 L146 750 Z M212 15 L201 15 C163 15 137 41 137 80 L137 580 C137 619 163 645 201 645 L212 645 L212 660 L40 660 L40 645 L51 645 C89 645 115 619 115 580 L115 80 C115 41 89 15 51 15 L40 15 L40 0 L212 0 L212 15 L212 15 Z " />
<glyph glyph-name="dotlessi" unicode="&#x131;" horiz-adv-x="260" d="M215 15 L204 15 C166 15 140 41 140 80 L140 500 L136 500 L45 475 L45 466 L56 463 C110 452 120 439 120 385 L120 80 C120 41 94 15 56 15 L45 15 L45 0 L215 0 L215 15 L215 15 Z " />
<glyph glyph-name="Jcircumflex" unicode="&#x134;" horiz-adv-x="431" d="M311 899 C310 901 307 905 305 905 C299 905 214 748 169 696 L172 694 C219 750 284 850 305 882 C337 826 439 694 439 694 L442 696 C442 696 346 830 312 899 L311 899 L311 899 Z M392 660 L220 660 L220 645 L231 645 C269 645 295 619 295 580 L295 200 C295 52 249 -6 129 -6 C72 -6 28 16 20 50 C18 61 -1 62 1 50 C10 14 59 -10 123 -10 C263 -10 317 54 317 219 L317 580 C317 619 343 645 381 645 L392 645 L392 660 L392 660 Z " />
<glyph glyph-name="Lacute" unicode="&#x139;" horiz-adv-x="619" d="M100 692 C100 692 176 783 207 823 C234 857 252 880 252 881 C252 883 244 889 240 889 C239 889 221 866 196 831 C165 791 97 693 97 693 L100 692 L100 692 Z M513 156 L487 96 C464 42 414 6 360 6 L137 6 L137 580 C137 619 163 645 201 645 L212 645 L212 660 L40 660 L40 645 L51 645 C89 645 115 619 115 580 L115 80 C115 41 89 15 51 15 L40 15 L40 0 L504 0 L505 3 C513 46 523 104 531 148 C525 151 513 156 513 156 L513 156 Z " />
<glyph glyph-name="Lcaron" unicode="&#x13d;" horiz-adv-x="619" d="M354 694 C350 694 328 633 314 588 L260 427 L263 426 L326 584 C350 642 366 687 366 689 C366 693 358 694 354 694 L354 694 Z M513 156 L487 96 C464 42 414 6 360 6 L137 6 L137 580 C137 619 163 645 201 645 L212 645 L212 660 L40 660 L40 645 L51 645 C89 645 115 619 115 580 L115 80 C115 41 89 15 51 15 L40 15 L40 0 L504 0 L505 3 C513 46 523 104 531 148 C525 151 513 156 513 156 L513 156 Z " />
<glyph glyph-name="lcaron" unicode="&#x13e;" horiz-adv-x="260" d="M283 724 C279 724 257 663 243 618 L189 457 L192 456 L255 614 C279 672 295 717 295 719 C295 723 287 724 283 724 L283 724 Z M215 15 L204 15 C166 15 140 41 140 80 L140 720 L136 720 L45 695 L45 686 L56 683 C110 672 120 659 120 605 L120 80 C120 41 94 15 56 15 L45 15 L45 0 L215 0 L215 15 L215 15 Z " />
<glyph glyph-name="Lslash" unicode="&#x141;" horiz-adv-x="619" d="M40 0 L504 0 L505 3 C513 46 523 104 531 148 C525 151 513 156 513 156 L487 96 C464 42 414 6 360 6 L137 6 L137 306 L320 377 L320 383 L137 312 L137 580 C137 619 163 645 201 645 L212 645 L212 660 L40 660 L40 645 L51 645 C89 645 115 619 115 580 L115 303 L64 283 L64 277 L115 297 L115 80 C115 41 89 15 51 15 L40 15 L40 0 L40 0 Z " />
<glyph glyph-name="lslash" unicode="&#x142;" horiz-adv-x="260" d="M45 0 L215 0 L215 15 L204 15 C166 15 140 41 140 80 L140 362 L240 407 L240 413 L140 368 L140 720 L136 720 L45 695 L45 686 L56 683 C110 672 120 659 120 605 L120 358 L20 313 L20 307 L120 352 L120 80 C120 41 94 15 56 15 L45 15 L45 0 L45 0 Z " />
<glyph glyph-name="Nacute" unicode="&#x143;" horiz-adv-x="788" d="M364 692 C364 692 440 783 471 823 C498 857 516 880 516 881 C516 883 508 889 505 889 C504 889 486 866 461 831 C430 791 362 693 362 693 L364 692 L364 692 Z M45 645 L56 645 C94 645 120 619 120 580 L120 80 C120 41 94 15 56 15 L45 15 L45 0 L202 0 L202 15 L191 15 C153 15 127 41 127 80 L127 641 C307 426 486 210 667 -4 L673 -4 L673 580 C673 619 699 645 737 645 L748 645 L748 660 L591 660 L591 645 L602 645 C640 645 666 619 666 580 L666 31 L140 660 L45 660 L45 645 L45 645 Z M127 651 L127 651 L127 651 Z " />
<glyph glyph-name="nacute" unicode="&#x144;" horiz-adv-x="709" d="M279 532 C279 532 355 623 386 663 C413 697 431 720 431 721 C431 723 423 729 419 729 C418 729 400 706 375 671 C344 631 276 533 276 533 L279 532 L279 532 Z M499 0 L669 0 L669 15 L658 15 C620 15 594 41 594 80 L594 336 C594 437 547 505 425 505 C341 505 227 474 140 429 L140 500 L136 500 L45 475 L45 466 L56 463 C110 452 120 439 120 385 L120 80 C120 41 94 15 56 15 L45 15 L45 0 L215 0 L215 15 L204 15 C166 15 140 41 140 80 L140 427 C214 466 322 492 410 492 C528 492 574 428 574 333 L574 80 C574 41 548 15 510 15 L499 15 L499 0 L499 0 Z " />
<glyph glyph-name="Ncaron" unicode="&#x147;" horiz-adv-x="788" d="M530 926 C530 926 428 794 396 738 C375 771 312 869 263 927 L261 925 C300 878 390 722 390 722 C394 715 400 715 404 722 C438 793 533 925 533 925 L530 926 L530 926 Z M46 646 L57 646 C95 646 121 620 121 581 L121 81 C121 42 95 16 57 16 L46 16 L46 1 L203 1 L203 16 L192 16 C154 16 128 42 128 81 L128 642 C308 427 487 211 668 -3 L674 -3 L674 581 C674 620 700 646 738 646 L749 646 L749 661 L592 661 L592 646 L603 646 C641 646 667 620 667 581 L667 32 L141 661 L46 661 L46 646 L46 646 Z M128 652 L128 652 L128 652 Z " />
<glyph glyph-name="ncaron" unicode="&#x148;" horiz-adv-x="709" d="M490 766 C490 766 388 634 356 578 C335 610 270 710 223 766 L220 764 C261 716 350 561 350 561 C354 554 359 554 363 561 C397 630 493 764 493 764 L490 766 L490 766 Z M499 0 L669 0 L669 15 L658 15 C620 15 594 41 594 80 L594 336 C594 437 547 505 425 505 C341 505 227 474 140 429 L140 500 L136 500 L45 475 L45 466 L56 463 C110 452 120 439 120 385 L120 80 C120 41 94 15 56 15 L45 15 L45 0 L215 0 L215 15 L204 15 C166 15 140 41 140 80 L140 427 C214 466 322 492 410 492 C528 492 574 428 574 333 L574 80 C574 41 548 15 510 15 L499 15 L499 0 L499 0 Z " />
<glyph glyph-name="Omacron" unicode="&#x14c;" horiz-adv-x="856" d="M240 774 L637 774 L637 785 L240 785 L240 774 L240 774 Z M95 330 C95 508 212 659 439 659 C665 659 781 508 781 330 C781 152 665 1 439 1 C212 1 95 152 95 330 L95 330 Z M71 330 C71 149 196 -5 439 -5 C681 -5 806 149 806 330 C806 511 681 665 439 665 C196 665 71 511 71 330 L71 330 Z " />
<glyph glyph-name="omacron" unicode="&#x14d;" horiz-adv-x="677" d="M140 614 L537 614 L537 625 L140 625 L140 614 L140 614 Z M72 250 C72 401 179 501 339 501 C499 501 605 401 605 250 C605 99 499 -1 339 -1 C179 -1 72 99 72 250 L72 250 Z M50 250 C50 97 166 -5 339 -5 C512 -5 627 97 627 250 C627 403 512 505 339 505 C166 505 50 403 50 250 L50 250 Z " />
<glyph glyph-name="Obreve" unicode="&#x14e;" horiz-adv-x="856" d="M282 872 C286 819 349 783 439 783 C529 783 591 819 595 872 L591 872 C588 826 527 796 439 796 C350 796 289 826 286 872 L282 872 L282 872 Z M95 330 C95 508 212 659 439 659 C665 659 781 508 781 330 C781 152 665 1 439 1 C212 1 95 152 95 330 L95 330 Z M71 330 C71 149 196 -5 439 -5 C681 -5 806 149 806 330 C806 511 681 665 439 665 C196 665 71 511 71 330 L71 330 Z " />
<glyph glyph-name="obreve" unicode="&#x14f;" horiz-adv-x="677" d="M182 712 C186 659 249 623 339 623 C429 623 491 659 495 712 L491 712 C488 666 427 636 339 636 C250 636 189 666 186 712 L182 712 L182 712 Z M72 250 C72 401 179 501 339 501 C499 501 605 401 605 250 C605 99 499 -1 339 -1 C179 -1 72 99 72 250 L72 250 Z M50 250 C50 97 166 -5 339 -5 C512 -5 627 97 627 250 C627 403 512 505 339 505 C166 505 50 403 50 250 L50 250 Z " />
<glyph glyph-name="Racute" unicode="&#x154;" horiz-adv-x="714" d="M286 692 C286 692 362 783 393 823 C420 857 438 880 438 881 C438 883 430 889 427 889 C426 889 408 866 383 831 C352 791 284 693 284 693 L286 692 L286 692 Z M59 645 L70 645 C108 645 134 619 134 580 L134 80 C134 41 108 15 70 15 L59 15 L59 0 L232 0 L232 15 L221 15 C183 15 157 41 157 80 L157 319 L347 319 C368 299 452 219 569 106 C675 4 680 0 702 0 L714 0 L714 4 C697 4 701 5 600 102 C481 217 396 299 375 319 C509 324 596 391 596 490 C596 592 522 660 411 660 L60 660 L59 645 L59 645 Z M360 324 L158 325 L158 654 L411 654 C508 654 573 588 573 490 C573 390 488 324 360 324 L360 324 Z " />
<glyph glyph-name="Rcaron" unicode="&#x158;" horiz-adv-x="714" d="M498 926 C498 926 396 794 364 738 C343 771 280 869 231 927 L229 925 C268 878 358 722 358 722 C362 715 368 715 372 722 C406 793 501 925 501 925 L498 926 L498 926 Z M60 646 L71 646 C109 646 135 620 135 581 L135 81 C135 42 109 16 71 16 L60 16 L60 1 L233 1 L233 16 L222 16 C184 16 158 42 158 81 L158 320 L348 320 C369 300 453 220 570 107 C676 5 681 1 703 1 L715 1 L715 5 C698 5 702 6 601 103 C482 218 397 300 376 320 C510 325 597 392 597 491 C597 593 523 661 412 661 L61 661 L60 646 L60 646 Z M361 325 L159 326 L159 655 L412 655 C509 655 574 589 574 491 C574 391 489 325 361 325 L361 325 Z " />
<glyph glyph-name="rcaron" unicode="&#x159;" horiz-adv-x="501" d="M374 766 C374 766 272 634 240 578 C219 611 156 709 107 767 L105 765 C144 718 234 562 234 562 C238 555 244 555 248 562 C282 633 377 765 377 765 L374 766 L374 766 Z M46 467 L57 464 C111 453 121 440 121 386 L121 81 C121 42 95 16 57 16 L46 16 L46 1 L216 1 L216 16 L205 16 C167 16 141 42 141 81 L141 411 C181 460 263 492 347 492 C388 492 442 462 483 462 C489 462 493 466 493 472 C493 493 457 507 363 507 C275 507 187 470 141 414 L141 502 L137 502 L46 477 L46 467 L46 467 Z " />
<glyph glyph-name="Sacute" unicode="&#x15a;" horiz-adv-x="596" d="M225 692 C225 692 301 783 332 823 C359 857 377 880 377 881 C377 883 369 889 365 889 C364 889 346 866 321 831 C290 791 222 693 222 693 L225 692 L225 692 Z M521 480 L521 612 L520 609 C520 610 521 611 521 612 C466 644 367 665 274 665 C144 665 57 595 57 491 C57 414 153 346 298 321 C441 297 536 228 536 150 C536 61 457 1 339 1 C294 1 249 4 207 10 C148 23 94 75 71 143 C67 154 62 169 58 180 L45 180 L45 48 L47 52 C47 51 46 49 45 48 C100 16 218 -5 340 -5 C467 -5 552 61 552 159 C552 243 458 315 316 339 C171 364 74 428 74 500 C74 596 154 660 274 660 C318 660 364 655 406 646 C437 636 464 607 477 571 C486 544 499 508 508 481 L521 480 L521 480 Z " />
<glyph glyph-name="sacute" unicode="&#x15b;" horiz-adv-x="520" d="M170 532 C170 532 246 623 277 663 C304 697 322 720 322 721 C322 723 314 729 310 729 C309 729 291 706 266 671 C235 631 167 533 167 533 L170 532 L170 532 Z M445 377 L445 459 L444 456 C444 457 445 458 445 459 C397 487 318 505 248 505 C142 505 72 457 72 385 C72 327 155 270 280 243 C384 220 453 171 453 120 C453 48 389 0 293 0 C256 0 219 2 185 6 L185 6 C138 12 92 50 71 101 C68 109 63 119 60 127 L49 127 L49 35 L51 39 C51 38 50 36 49 35 C92 10 189 -6 292 -6 C399 -6 470 47 470 127 C470 181 400 233 294 256 C170 283 88 337 88 391 C88 456 152 500 248 500 C278 500 311 496 343 488 L343 488 C379 479 412 447 424 406 C427 397 430 385 433 376 L445 377 L445 377 Z " />
<glyph glyph-name="Scircumflex" unicode="&#x15c;" horiz-adv-x="596" d="M279 899 C278 901 275 905 273 905 C267 905 182 748 137 696 L140 694 C187 750 252 850 273 882 C305 826 407 694 407 694 L410 696 C410 696 314 830 280 899 L279 899 L279 899 Z M522 480 L522 612 L521 609 C521 610 522 611 522 612 C467 644 368 665 275 665 C145 665 58 595 58 491 C58 414 154 346 299 321 C442 297 537 228 537 150 C537 61 458 1 340 1 C295 1 250 4 208 10 C149 23 95 75 72 143 C68 154 63 169 59 180 L46 180 L46 48 L48 52 C48 51 47 49 46 48 C101 16 219 -5 341 -5 C468 -5 553 61 553 159 C553 243 459 315 317 339 C172 364 75 428 75 500 C75 596 155 660 275 660 C319 660 365 655 407 646 C438 636 465 607 478 571 C487 544 500 508 509 481 L522 480 L522 480 Z " />
<glyph glyph-name="Scedilla" unicode="&#x15e;" horiz-adv-x="596" d="M521 480 L521 612 L520 609 C520 610 521 611 521 612 C466 644 367 665 274 665 C144 665 57 595 57 491 C57 414 153 346 298 321 C441 297 536 228 536 150 C536 61 457 1 339 1 C294 1 249 4 207 10 C148 23 94 75 71 143 C67 154 62 169 58 180 L45 180 L45 48 L47 52 C47 51 46 49 45 48 C100 16 217 -5 338 -5 C334 -11 311 -45 279 -94 L280 -95 C305 -86 348 -80 387 -80 C451 -80 493 -102 493 -135 C493 -182 449 -214 383 -214 C325 -214 272 -206 250 -193 L249 -196 C274 -210 329 -220 387 -220 C458 -220 505 -186 505 -135 C505 -100 459 -76 391 -76 C350 -76 308 -82 283 -91 C317 -41 340 -11 344 -5 C469 -4 552 62 552 159 C552 243 458 315 316 339 C171 364 74 428 74 500 C74 596 154 660 274 660 C318 660 364 655 406 646 C437 636 464 607 477 571 C486 544 499 508 508 481 L521 480 L521 480 Z " />
<glyph glyph-name="scedilla" unicode="&#x15f;" horiz-adv-x="520" d="M445 377 L445 459 L444 456 C444 457 445 458 445 459 C397 487 318 505 248 505 C142 505 72 457 72 385 C72 327 155 270 280 243 C384 220 453 171 453 120 C453 48 389 0 293 0 C256 0 219 2 185 6 L185 6 C138 12 92 50 71 101 C68 109 63 119 60 127 L49 127 L49 35 L51 39 C51 38 50 36 49 35 C92 10 188 -6 290 -6 C286 -12 263 -46 231 -95 L232 -96 C257 -87 300 -81 339 -81 C403 -81 445 -103 445 -136 C445 -183 401 -215 335 -215 C277 -215 224 -207 202 -194 L201 -197 C226 -211 281 -221 339 -221 C410 -221 457 -187 457 -136 C457 -101 411 -77 343 -77 C302 -77 260 -83 235 -92 C269 -42 292 -12 296 -6 C401 -5 470 48 470 127 C470 181 400 233 294 256 C170 283 88 337 88 391 C88 456 152 500 248 500 C278 500 311 496 343 488 L343 488 C379 479 412 447 424 406 C427 397 430 385 433 376 L445 377 L445 377 Z " />
<glyph glyph-name="Scaron" unicode="&#x160;" horiz-adv-x="596" d="M406 926 C406 926 304 794 272 738 C251 770 186 870 139 926 L136 924 C177 876 266 721 266 721 C270 714 275 714 279 721 C313 790 409 924 409 924 L406 926 L406 926 Z M521 480 L521 612 L520 609 C520 610 521 611 521 612 C466 644 367 665 274 665 C144 665 57 595 57 491 C57 414 153 346 298 321 C441 297 536 228 536 150 C536 61 457 1 339 1 C294 1 249 4 207 10 C148 23 94 75 71 143 C67 154 62 169 58 180 L45 180 L45 48 L47 52 C47 51 46 49 45 48 C100 16 218 -5 340 -5 C467 -5 552 61 552 159 C552 243 458 315 316 339 C171 364 74 428 74 500 C74 596 154 660 274 660 C318 660 364 655 406 646 C437 636 464 607 477 571 C486 544 499 508 508 481 L521 480 L521 480 Z " />
<glyph glyph-name="scaron" unicode="&#x161;" horiz-adv-x="520" d="M381 766 C381 766 279 634 247 578 C226 610 161 710 114 766 L111 764 C152 716 241 561 241 561 C245 554 250 554 254 561 C288 630 384 764 384 764 L381 766 L381 766 Z M445 377 L445 459 L444 456 C444 457 445 458 445 459 C397 487 318 505 248 505 C142 505 72 457 72 385 C72 327 155 270 280 243 C384 220 453 171 453 120 C453 48 389 0 293 0 C256 0 219 2 185 6 L185 6 C138 12 92 50 71 101 C68 109 63 119 60 127 L49 127 L49 35 L51 39 C51 38 50 36 49 35 C92 10 189 -6 292 -6 C399 -6 470 47 470 127 C470 181 400 233 294 256 C170 283 88 337 88 391 C88 456 152 500 248 500 C278 500 311 496 343 488 L343 488 C379 479 412 447 424 406 C427 397 430 385 433 376 L445 377 L445 377 Z " />
<glyph glyph-name="Tcaron" unicode="&#x164;" horiz-adv-x="716" d="M491 926 C491 926 389 794 357 738 C336 770 271 870 224 926 L221 924 C262 876 351 721 351 721 C355 714 360 714 364 721 C398 790 494 924 494 924 L491 926 L491 926 Z M272 0 L444 0 L444 15 L433 15 C395 15 369 41 369 80 L369 654 L542 654 C590 654 636 622 655 574 L683 504 L695 504 C691 550 686 611 682 657 L681 657 L681 660 L35 660 L35 657 L34 657 C30 611 25 550 21 504 L33 504 L61 574 C80 622 126 654 174 654 L347 654 L347 80 C347 41 321 15 283 15 L272 15 L272 0 L272 0 Z " />
<glyph glyph-name="tcaron" unicode="&#x165;" horiz-adv-x="447" d="M416 500 L156 500 L156 640 L153 640 L140 523 C135 508 89 497 25 494 L25 492 L136 492 L136 110 C136 20 163 -5 259 -5 C344 -5 391 15 427 45 L425 46 C395 21 351 4 268 4 C181 4 156 26 156 106 L156 492 L416 492 L416 500 L416 500 Z M559 724 C555 724 533 663 519 618 L465 457 L468 456 L531 614 C555 672 571 717 571 719 C571 723 563 724 559 724 L559 724 Z " />
<glyph glyph-name="Utilde" unicode="&#x168;" horiz-adv-x="789" d="M193 755 C193 798 222 827 266 827 C347 827 456 764 537 764 C586 764 618 794 618 838 L615 838 C615 801 585 777 541 777 C460 777 351 840 270 840 C222 840 190 806 190 755 L193 755 L193 755 Z M769 660 L587 660 L587 645 L602 645 C647 645 677 615 677 570 L677 177 C677 73 603 3 413 3 C221 3 146 82 146 201 L147 580 L147 580 C147 619 173 645 211 645 L222 645 L222 660 L49 660 L49 645 L60 645 C98 645 124 619 124 580 L124 205 C124 79 204 -5 410 -5 C607 -5 684 67 684 175 L684 570 C684 615 713 645 756 645 L769 645 L769 660 L769 660 Z " />
<glyph glyph-name="utilde" unicode="&#x169;" horiz-adv-x="674" d="M116 595 C116 638 145 667 189 667 C270 667 379 604 460 604 C509 604 541 634 541 678 L538 678 C538 641 508 617 464 617 C383 617 274 680 193 680 C145 680 113 646 113 595 L116 595 L116 595 Z M15 485 L26 485 C64 485 90 459 90 420 L90 156 C90 59 160 -5 295 -5 C420 -5 499 24 544 66 L544 0 L548 0 L639 25 L639 34 L628 37 C574 48 564 61 564 115 L564 500 L469 500 L469 485 L480 485 C518 485 544 459 544 420 L544 70 C506 33 433 8 310 8 C178 8 110 68 110 159 L110 500 L15 500 L15 485 L15 485 Z " />
<glyph glyph-name="Umacron" unicode="&#x16a;" horiz-adv-x="789" d="M206 774 L602 774 L602 785 L206 785 L206 774 L206 774 Z M769 660 L587 660 L587 645 L602 645 C647 645 677 615 677 570 L677 177 C677 73 603 3 413 3 C221 3 146 82 146 201 L147 580 L147 580 C147 619 173 645 211 645 L222 645 L222 660 L49 660 L49 645 L60 645 C98 645 124 619 124 580 L124 205 C124 79 204 -5 410 -5 C607 -5 684 67 684 175 L684 570 C684 615 713 645 756 645 L769 645 L769 660 L769 660 Z " />
<glyph glyph-name="umacron" unicode="&#x16b;" horiz-adv-x="674" d="M129 614 L525 614 L525 625 L129 625 L129 614 L129 614 Z M15 485 L26 485 C64 485 90 459 90 420 L90 156 C90 59 160 -5 295 -5 C420 -5 499 24 544 66 L544 0 L548 0 L639 25 L639 34 L628 37 C574 48 564 61 564 115 L564 500 L469 500 L469 485 L480 485 C518 485 544 459 544 420 L544 70 C506 33 433 8 310 8 C178 8 110 68 110 159 L110 500 L15 500 L15 485 L15 485 Z " />
<glyph glyph-name="Ubreve" unicode="&#x16c;" horiz-adv-x="789" d="M247 872 C251 819 314 783 404 783 C494 783 557 819 561 872 L557 872 C554 826 493 796 404 796 C315 796 254 826 251 872 L247 872 L247 872 Z M769 660 L587 660 L587 645 L602 645 C647 645 677 615 677 570 L677 177 C677 73 603 3 413 3 C221 3 146 82 146 201 L147 580 L147 580 C147 619 173 645 211 645 L222 645 L222 660 L49 660 L49 645 L60 645 C98 645 124 619 124 580 L124 205 C124 79 204 -5 410 -5 C607 -5 684 67 684 175 L684 570 C684 615 713 645 756 645 L769 645 L769 660 L769 660 Z " />
<glyph glyph-name="ubreve" unicode="&#x16d;" horiz-adv-x="674" d="M170 712 C174 659 237 623 327 623 C417 623 480 659 484 712 L480 712 C477 666 416 636 327 636 C238 636 177 666 174 712 L170 712 L170 712 Z M15 485 L26 485 C64 485 90 459 90 420 L90 156 C90 59 160 -5 295 -5 C420 -5 499 24 544 66 L544 0 L548 0 L639 25 L639 34 L628 37 C574 48 564 61 564 115 L564 500 L469 500 L469 485 L480 485 C518 485 544 459 544 420 L544 70 C506 33 433 8 310 8 C178 8 110 68 110 159 L110 500 L15 500 L15 485 L15 485 Z " />
<glyph glyph-name="Uring" unicode="&#x16e;" horiz-adv-x="789" d="M316 788 C316 841 351 876 404 876 C457 876 492 841 492 788 C492 740 452 699 404 699 C356 699 316 740 316 788 L316 788 Z M310 788 C310 738 353 695 404 695 C455 695 498 738 498 788 C498 843 460 880 404 880 C348 880 310 843 310 788 L310 788 Z M769 660 L587 660 L587 645 L602 645 C647 645 677 615 677 570 L677 177 C677 73 603 3 413 3 C221 3 146 82 146 201 L147 580 L147 580 C147 619 173 645 211 645 L222 645 L222 660 L49 660 L49 645 L60 645 C98 645 124 619 124 580 L124 205 C124 79 204 -5 410 -5 C607 -5 684 67 684 175 L684 570 C684 615 713 645 756 645 L769 645 L769 660 L769 660 Z " />
<glyph glyph-name="uring" unicode="&#x16f;" horiz-adv-x="674" d="M239 628 C239 681 274 716 327 716 C380 716 415 681 415 628 C415 580 375 539 327 539 C279 539 239 580 239 628 L239 628 Z M233 628 C233 578 276 535 327 535 C378 535 421 578 421 628 C421 683 383 720 327 720 C271 720 233 683 233 628 L233 628 Z M15 485 L26 485 C64 485 90 459 90 420 L90 156 C90 59 160 -5 295 -5 C420 -5 499 24 544 66 L544 0 L548 0 L639 25 L639 34 L628 37 C574 48 564 61 564 115 L564 500 L469 500 L469 485 L480 485 C518 485 544 459 544 420 L544 70 C506 33 433 8 310 8 C178 8 110 68 110 159 L110 500 L15 500 L15 485 L15 485 Z " />
<glyph glyph-name="Wcircumflex" unicode="&#x174;" horiz-adv-x="1076" d="M1071 660 L889 660 L889 645 L924 645 C963 645 980 619 966 580 L966 580 L759 -15 L765 -15 L974 582 C988 620 1022 645 1060 645 L1071 645 L1071 660 L1071 660 Z M538 899 C537 901 534 905 532 905 C526 905 441 748 396 696 L399 694 C446 750 511 850 532 882 C564 826 666 694 666 694 L669 696 C669 696 573 830 539 899 L538 899 L538 899 Z M170 660 L2 660 L2 645 C38 645 64 629 82 592 L306 -14 L311 -14 L525 634 L761 -14 L773 21 L537 671 L531 671 L317 19 L108 588 C99 623 115 646 152 646 L171 646 L170 660 L170 660 Z " />
<glyph glyph-name="Ycircumflex" unicode="&#x176;" horiz-adv-x="665" d="M258 0 L430 0 L430 15 L419 15 C381 15 355 41 355 80 L355 253 L560 580 C587 624 623 645 666 645 L666 660 L493 660 L493 645 L509 645 C558 645 572 614 545 566 C480 462 415 357 350 253 L353 258 L150 588 C132 623 143 646 179 646 L195 646 L195 661 L32 661 L32 646 C68 646 100 624 127 581 L127 581 L333 246 L333 81 C333 42 307 16 269 16 L258 16 L258 0 L258 0 Z M350 900 C349 902 346 906 344 906 C338 906 253 749 208 697 L211 695 C258 751 323 851 344 883 C376 827 478 695 478 695 L481 697 C481 697 385 831 351 900 L350 900 L350 900 Z " />
<glyph glyph-name="Ydieresis" unicode="&#x178;" horiz-adv-x="665" d="M449 750 C449 776 409 776 409 750 C409 724 449 724 449 750 L449 750 Z M279 750 C279 776 239 776 239 750 C239 724 279 724 279 750 L279 750 Z M258 0 L430 0 L430 15 L419 15 C381 15 355 41 355 80 L355 253 L560 580 C587 624 623 645 666 645 L666 660 L493 660 L493 645 L509 645 C558 645 572 614 545 566 C480 462 415 357 350 253 L353 258 L150 588 C132 623 143 646 179 646 L195 646 L195 661 L32 661 L32 646 C68 646 100 624 127 581 L127 581 L333 246 L333 81 C333 42 307 16 269 16 L258 16 L258 0 L258 0 Z " />
<glyph glyph-name="Zacute" unicode="&#x179;" horiz-adv-x="689" d="M381 692 C381 692 457 783 488 823 C515 857 533 880 533 881 C533 883 525 889 521 889 C520 889 502 866 477 831 C446 791 378 693 378 693 L381 692 L381 692 Z M628 156 L602 96 C579 42 529 6 475 6 L92 6 L626 660 L137 660 C125 623 114 572 104 534 L116 534 L143 574 C174 622 228 654 276 654 L596 654 L63 0 L620 0 L621 3 C629 46 639 104 647 148 C641 151 629 156 629 156 L628 156 L628 156 Z " />
<glyph glyph-name="zacute" unicode="&#x17a;" horiz-adv-x="580" d="M224 532 C224 532 300 623 331 663 C358 697 376 720 376 721 C376 723 368 729 364 729 C363 729 345 706 320 671 C289 631 221 533 221 533 L224 532 L224 532 Z M533 155 L507 95 C484 41 434 6 381 5 L93 4 L530 500 L71 500 L70 498 L70 498 C63 470 53 433 45 405 L57 405 L68 419 C104 465 161 494 209 495 L503 496 L65 0 L524 0 L525 2 L525 2 C533 45 543 103 551 147 C545 150 533 155 533 155 L533 155 Z " />
<glyph glyph-name="Zdot" unicode="&#x17b;" horiz-adv-x="689" d="M403 750 C403 776 363 776 363 750 C363 724 403 724 403 750 L403 750 Z M628 156 L602 96 C579 42 529 6 475 6 L92 6 L626 660 L137 660 C125 623 114 572 104 534 L116 534 L143 574 C174 622 228 654 276 654 L596 654 L63 0 L620 0 L621 3 C629 46 639 104 647 148 C641 151 629 156 629 156 L628 156 L628 156 Z " />
<glyph glyph-name="zdot" unicode="&#x17c;" horiz-adv-x="580" d="M322 590 C322 616 282 616 282 590 C282 564 322 564 322 590 L322 590 Z M533 155 L507 95 C484 41 434 6 381 5 L93 4 L530 500 L71 500 L70 498 L70 498 C63 470 53 433 45 405 L57 405 L68 419 C104 465 161 494 209 495 L503 496 L65 0 L524 0 L525 2 L525 2 C533 45 543 103 551 147 C545 150 533 155 533 155 L533 155 Z " />
<glyph glyph-name="Zcaron" unicode="&#x17d;" horiz-adv-x="689" d="M516 926 C516 926 414 794 382 738 C361 770 296 870 249 926 L246 924 C287 876 376 721 376 721 C380 714 385 714 389 721 C423 790 519 924 519 924 L516 926 L516 926 Z M628 156 L602 96 C579 42 529 6 475 6 L92 6 L626 660 L137 660 C125 623 114 572 104 534 L116 534 L143 574 C174 622 228 654 276 654 L596 654 L63 0 L620 0 L621 3 C629 46 639 104 647 148 C641 151 629 156 629 156 L628 156 L628 156 Z " />
<glyph glyph-name="zcaron" unicode="&#x17e;" horiz-adv-x="580" d="M435 766 C435 766 333 634 301 578 C280 610 215 710 168 766 L165 764 C206 716 295 561 295 561 C299 554 304 554 308 561 C342 630 438 764 438 764 L435 766 L435 766 Z M533 155 L507 95 C484 41 434 6 381 5 L93 4 L530 500 L71 500 L70 498 L70 498 C63 470 53 433 45 405 L57 405 L68 419 C104 465 161 494 209 495 L503 496 L65 0 L524 0 L525 2 L525 2 C533 45 543 103 551 147 C545 150 533 155 533 155 L533 155 Z " />
<glyph glyph-name="oogonek" unicode="&#x1eb;" horiz-adv-x="767" d="M812 -50 L810 -49 C780 -85 717 -109 652 -109 C545 -109 461 -67 397 -5 C609 -4 717 126 717 278 C717 430 608 559 395 559 C182 559 72 430 72 278 C72 127 180 -2 390 -4 C461 -74 548 -121 650 -121 C711 -121 776 -92 812 -49 L812 -50 L812 -50 Z M94 278 C94 427 196 554 395 554 C593 554 695 427 695 278 C695 128 593 1 395 1 C196 1 94 128 94 278 L94 278 Z " />
<glyph glyph-name="Adotabove" unicode="&#x226;" horiz-adv-x="693" d="M368 750 C368 776 328 776 328 750 C328 724 368 724 368 750 L368 750 Z M499 0 L688 0 L688 15 C646 15 615 34 596 76 L350 674 L345 674 L107 79 C91 40 55 14 17 14 L6 14 L6 -1 L193 -1 L193 14 L169 14 C121 14 102 46 121 94 L121 94 L178 238 L506 238 C527 185 550 131 570 79 C586 40 571 14 532 14 L499 14 L499 0 L499 0 Z M504 243 L180 243 L340 646 L504 243 L504 243 Z " />
<glyph glyph-name="G_sc" unicode="&#x262;" horiz-adv-x="830" d="M655 365 L655 495 L654 493 C654 494 655 495 655 496 C590 534 488 559 400 559 C203 559 72 447 72 278 C72 109 203 -4 400 -4 C489 -4 593 22 660 60 L660 181 C660 220 686 246 724 246 L735 246 L735 261 L567 261 L567 246 L578 246 C616 246 642 220 642 181 L642 56 C577 23 483 1 401 1 C217 1 95 112 95 278 C95 444 217 554 401 554 C428 554 456 552 484 547 C547 533 604 478 629 406 C633 394 639 378 643 366 L655 365 L655 365 Z " />
<glyph glyph-name="I_sc" unicode="&#x26a;" horiz-adv-x="251" d="M211 15 L200 15 C162 15 136 41 136 80 L136 473 C136 512 162 538 200 538 L211 538 L211 553 L41 553 L41 538 L52 538 C90 538 116 512 116 473 L116 80 C116 41 90 15 52 15 L41 15 L41 0 L211 0 L211 15 L211 15 Z " />
<glyph glyph-name="N_sc" unicode="&#x274;" horiz-adv-x="699" d="M46 538 L57 538 C95 538 121 512 121 473 L121 80 C121 41 95 15 57 15 L46 15 L46 0 L202 0 L202 15 L191 15 C153 15 127 41 127 80 L127 536 C278 356 429 176 579 -4 L584 -4 L584 473 C584 512 610 538 648 538 L659 538 L659 553 L503 553 L503 538 L514 538 C552 538 578 512 578 473 L578 29 L138 553 L46 553 L46 538 L46 538 Z " />
<glyph glyph-name="R_sc" unicode="&#x280;" horiz-adv-x="642" d="M60 538 L71 538 C109 538 135 512 135 473 L135 80 C135 41 109 15 71 15 L60 15 L60 0 L230 0 L230 15 L219 15 C181 15 155 41 155 80 L155 267 L279 267 C301 250 376 190 480 106 C607 4 613 0 631 0 L642 0 L642 4 C625 4 627 5 506 102 C399 187 322 250 301 267 C422 271 502 328 502 412 C502 497 429 553 320 553 L58 553 L60 538 L60 538 Z M287 272 L153 272 L153 548 L320 548 C417 548 481 494 481 412 C481 328 403 272 287 272 L287 272 Z " />
<glyph glyph-name="Y_sc" unicode="&#x28f;" horiz-adv-x="574" d="M193 553 L33 553 L33 538 C69 538 100 516 127 473 L127 473 L289 205 L289 80 C289 41 263 15 225 15 L214 15 L214 0 L384 0 L384 15 L373 15 C335 15 309 41 309 80 L309 213 C309 213 456 451 470 473 C497 517 532 538 575 538 L575 553 L403 553 L403 538 L419 538 C470 538 482 504 451 453 L451 453 L305 215 C254 301 202 387 151 473 C128 512 138 538 177 538 L193 538 L193 553 L193 553 Z " />
<glyph glyph-name="B_sc" unicode="&#x299;" horiz-adv-x="540" d="M315 297 C299 298 283 299 266 299 L155 298 L155 548 L322 548 C419 548 483 501 483 431 C483 356 417 304 315 296 L315 297 L315 297 Z M303 292 C422 282 499 230 499 157 C499 65 431 4 328 4 L155 4 L155 292 L289 292 C294 292 299 292 304 292 L303 292 L303 292 Z M61 537 L72 537 C110 537 136 511 136 472 L136 79 C136 40 110 14 72 14 L61 14 L61 -1 L331 -1 C445 -1 521 62 521 157 C521 229 448 280 333 294 C437 305 504 356 504 429 C504 502 432 551 323 551 L61 551 L61 537 L61 537 Z " />
<glyph glyph-name="H_sc" unicode="&#x29c;" horiz-adv-x="769" d="M729 15 L718 15 C680 15 654 41 654 80 L654 473 C654 512 680 538 718 538 L729 538 L729 553 L559 553 L559 538 L570 538 C608 538 634 512 634 473 L634 295 L136 295 L136 473 C136 512 162 538 200 538 L211 538 L211 553 L41 553 L41 538 L52 538 C90 538 116 512 116 473 L116 80 C116 41 90 15 52 15 L41 15 L41 0 L211 0 L211 15 L200 15 C162 15 136 41 136 80 L136 290 L634 290 L634 80 C634 41 608 15 570 15 L559 15 L559 0 L729 0 L729 15 L729 15 Z " />
<glyph glyph-name="L_sc" unicode="&#x29f;" horiz-adv-x="552" d="M446 155 L420 95 C398 41 348 5 294 5 L136 5 L136 473 C136 512 162 538 200 538 L211 538 L211 553 L41 553 L41 538 L52 538 C90 538 116 512 116 473 L116 80 C116 41 90 15 52 15 L41 15 L41 0 L438 0 L439 3 L438 3 C446 46 456 103 464 147 C458 150 446 155 446 155 L446 155 Z " />
<glyph glyph-name="circumflex" unicode="&#x2c6;" horiz-adv-x="460" d="M237 739 C236 741 233 745 230 745 C224 745 138 587 95 536 L97 534 C146 592 209 690 230 723 C262 667 364 535 364 535 L366 537 C366 537 271 669 237 740 L237 739 L237 739 Z " />
<glyph glyph-name="caron" unicode="&#x2c7;" horiz-adv-x="460" d="M364 766 C364 766 262 634 230 578 C209 611 146 709 97 767 L95 765 C134 718 224 562 224 562 C228 555 234 555 237 562 C271 633 366 765 366 765 L364 766 L364 766 Z " />
<glyph glyph-name="firsttonechinese" unicode="&#x2c9;" horiz-adv-x="460" d="M32 614 L429 614 L429 625 L32 625 L32 614 L32 614 Z " />
<glyph glyph-name="breve" unicode="&#x2d8;" horiz-adv-x="460" d="M74 712 C78 659 140 623 230 623 C320 623 383 659 387 712 L384 712 C381 666 319 636 230 636 C141 636 80 666 77 712 L74 712 L74 712 Z " />
<glyph glyph-name="dotaccent" unicode="&#x2d9;" horiz-adv-x="460" d="M250 590 C250 616 210 616 210 590 C210 564 250 564 250 590 L250 590 Z " />
<glyph glyph-name="ring" unicode="&#x2da;" horiz-adv-x="460" d="M142 628 C142 681 177 716 230 716 C283 716 318 681 318 628 C318 580 278 539 230 539 C182 539 142 580 142 628 L142 628 Z M137 628 C137 578 180 535 230 535 C281 535 324 578 324 628 C324 683 286 720 230 720 C174 720 137 683 137 628 L137 628 Z " />
<glyph glyph-name="A_sc" unicode="&#x1d00;" horiz-adv-x="601" d="M410 0 L596 0 L596 15 C555 15 525 33 506 73 L304 565 L299 565 L103 70 C86 36 52 14 16 14 L5 14 L5 -1 L191 -1 L191 14 L167 14 C122 14 102 43 116 87 L160 200 L432 200 L485 71 C495 37 479 15 443 15 L410 15 L410 0 L410 0 Z M431 205 L163 205 L295 541 L431 205 L431 205 Z " />
<glyph glyph-name="C_sc" unicode="&#x1d04;" horiz-adv-x="735" d="M675 365 L675 495 L674 493 C674 494 675 495 675 496 C610 534 504 559 412 559 C208 559 72 447 72 278 C72 109 208 -4 412 -4 C503 -4 608 22 675 60 L668 180 C659 178 650 169 658 178 C656 177 654 176 652 175 C651 167 650 158 648 152 C620 70 542 10 452 3 L452 3 C240 -14 93 101 93 279 C93 445 220 555 411 555 C440 555 470 553 500 548 C565 536 624 480 649 407 C653 395 658 379 662 367 L675 365 L675 365 Z M653 176 C645 171 639 169 656 185 C655 182 654 179 653 176 L653 176 Z " />
<glyph glyph-name="D_sc" unicode="&#x1d05;" horiz-adv-x="673" d="M60 538 L71 538 C109 538 135 512 135 473 L135 80 C135 41 109 15 71 15 L60 15 L60 0 L338 0 C509 0 623 111 623 277 C623 443 491 553 292 553 L60 553 L60 538 L60 538 Z M155 5 L155 548 L292 548 C479 548 603 440 603 277 C603 114 497 5 338 5 L155 5 L155 5 Z " />
<glyph glyph-name="E_sc" unicode="&#x1d07;" horiz-adv-x="552" d="M372 208 L372 373 L360 373 L356 362 C344 324 303 298 252 298 L136 298 L136 548 L274 548 C334 548 387 508 407 448 L418 413 L429 413 L429 553 L41 553 L41 538 L52 538 C90 538 116 512 116 473 L116 80 C116 41 90 15 52 15 L41 15 L41 0 L438 0 L439 3 L438 3 C445 44 455 99 462 140 L451 140 L434 105 C404 45 344 5 284 5 L136 5 L136 293 L252 293 C303 293 344 264 356 221 L360 208 L372 208 L372 208 Z " />
<glyph glyph-name="J_sc" unicode="&#x1d0a;" horiz-adv-x="347" d="M307 553 L137 553 L137 538 L148 538 C186 538 212 512 212 473 L212 168 C212 43 179 -6 94 -6 C56 -6 25 16 17 50 C15 60 -2 60 0 49 C9 13 45 -11 89 -11 C192 -11 232 44 232 184 L232 472 C232 511 258 537 296 537 L307 537 L307 553 L307 553 Z " />
<glyph glyph-name="K_sc" unicode="&#x1d0b;" horiz-adv-x="632" d="M230 553 L60 553 L60 538 L71 538 C109 538 135 512 135 473 L135 80 C135 41 109 15 71 15 L60 15 L60 0 L230 0 L230 15 L219 15 C181 15 155 41 155 80 L155 298 L158 294 L159 295 C173 284 221 248 287 199 C483 52 574 -5 611 -5 L622 -5 L622 -1 C591 -1 511 55 304 210 C237 260 189 295 175 305 C255 361 335 417 415 473 C471 512 534 538 572 538 L583 538 L583 553 L448 553 L448 538 L456 538 C483 538 463 512 407 473 L154 298 L154 473 C154 512 180 538 218 538 L229 538 L230 553 L230 553 Z " />
<glyph glyph-name="M_sc" unicode="&#x1d0d;" horiz-adv-x="799" d="M759 554 L676 554 L676 553 L667 553 L419 18 L416 23 L156 553 L66 553 L66 538 L77 538 C115 538 139 512 137 473 L137 473 L119 72 C114 37 88 14 53 14 L42 14 L42 -1 L232 -1 L232 14 L203 14 C158 14 128 43 127 87 L147 528 C234 350 322 173 409 -5 L414 -5 L669 539 L692 76 C693 39 669 14 632 14 L621 14 L621 -1 L790 -1 L790 14 L779 14 C741 14 714 40 712 79 L712 79 L690 480 C691 515 713 538 749 538 L760 538 L759 554 L759 554 Z " />
<glyph glyph-name="O_sc" unicode="&#x1d0f;" horiz-adv-x="767" d="M94 277 C94 426 196 553 395 553 C593 553 695 426 695 277 C695 127 593 0 395 0 C196 0 94 127 94 277 L94 277 Z M72 277 C72 125 182 -5 395 -5 C608 -5 717 125 717 277 C717 429 608 558 395 558 C182 558 72 429 72 277 L72 277 Z " />
<glyph glyph-name="P_sc" unicode="&#x1d18;" horiz-adv-x="558" d="M230 15 L219 15 C181 15 155 41 155 80 L155 252 L302 252 C444 252 538 311 538 400 C538 492 458 553 339 553 L60 553 L60 538 L71 538 C109 538 135 512 135 473 L135 80 C135 41 109 15 71 15 L60 15 L60 0 L230 0 L230 15 L230 15 Z M155 257 L155 548 L339 548 C446 548 517 489 517 400 C517 314 431 257 302 257 L155 257 L155 257 Z " />
<glyph glyph-name="T_sc" unicode="&#x1d1b;" horiz-adv-x="628" d="M229 0 L399 0 L399 15 L388 15 C350 15 324 41 324 80 L324 548 L453 548 C501 548 547 516 566 468 L594 398 L606 398 C602 444 597 505 593 551 L593 553 L35 553 L35 551 C31 505 26 444 22 398 L34 398 L62 468 C81 516 127 548 175 548 L304 548 L304 80 C304 41 278 15 240 15 L229 15 L229 0 L229 0 Z " />
<glyph glyph-name="U_sc" unicode="&#x1d1c;" horiz-adv-x="701" d="M681 553 L500 553 L500 538 L515 538 C560 538 590 508 590 463 L590 147 C590 60 528 2 368 2 C207 2 145 68 145 166 L145 473 C145 512 171 538 209 538 L220 538 L220 553 L50 553 L50 538 L61 538 C99 538 125 512 125 473 L125 170 C125 65 192 -5 365 -5 C531 -5 596 55 596 145 L596 463 C596 508 625 538 668 538 L681 538 L681 553 L681 553 Z " />
<glyph glyph-name="V_sc" unicode="&#x1d20;" horiz-adv-x="607" d="M607 553 L411 553 L411 538 L431 538 C488 538 512 500 491 443 L491 443 L326 -15 L331 -15 L508 473 C522 512 557 538 595 538 L607 538 L607 553 L607 553 Z M199 553 L24 553 L24 538 C63 538 93 517 112 473 L326 -15 L335 10 C268 164 200 319 134 473 C117 512 132 538 171 538 L199 538 L199 553 L199 553 Z " />
<glyph glyph-name="W_sc" unicode="&#x1d21;" horiz-adv-x="896" d="M891 553 L710 553 L710 538 L745 538 C784 538 801 512 788 473 L788 473 L635 14 L444 563 L439 563 L259 -15 L264 -15 L434 531 L625 -15 L630 -15 L796 477 C810 514 844 538 881 538 L892 538 L891 553 L891 553 Z M168 553 L1 553 L1 538 C38 538 65 520 82 480 L260 -16 L268 11 L104 477 C93 513 110 537 147 537 L167 537 L168 553 L168 553 Z " />
<glyph glyph-name="Z_sc" unicode="&#x1d22;" horiz-adv-x="599" d="M541 155 L515 95 C493 41 443 5 389 5 L89 5 L536 553 L138 553 L137 551 L137 551 C127 514 114 465 104 428 L116 428 L143 468 C175 516 229 548 277 548 L509 548 L62 0 L533 0 L534 3 L533 3 C541 46 551 103 559 147 C553 150 541 155 541 155 L541 155 Z " />
<glyph glyph-name="Wgrave" unicode="&#x1e80;" horiz-adv-x="1076" d="M1071 660 L889 660 L889 645 L924 645 C963 645 980 619 966 580 L966 580 L759 -15 L765 -15 L974 582 C988 620 1022 645 1060 645 L1071 645 L1071 660 L1071 660 Z M450 881 C450 878 468 855 496 823 C528 783 606 692 606 692 L609 693 C609 693 539 790 507 831 C482 866 464 889 462 889 C458 889 450 883 450 881 L450 881 Z M169 660 L1 660 L1 645 C37 645 63 629 81 592 L305 -14 L310 -14 L524 634 L760 -14 L772 21 L536 671 L530 671 L316 19 L107 588 C98 623 114 646 151 646 L170 646 L169 660 L169 660 Z " />
<glyph glyph-name="Wacute" unicode="&#x1e82;" horiz-adv-x="1076" d="M469 692 C469 692 545 783 576 823 C603 857 621 880 621 881 C621 883 613 889 609 889 C608 889 590 866 565 831 C534 791 466 693 466 693 L469 692 L469 692 Z M1071 660 L889 660 L889 645 L924 645 C963 645 980 619 966 580 L966 580 L759 -15 L765 -15 L974 582 C988 620 1022 645 1060 645 L1071 645 L1071 660 L1071 660 Z M169 660 L1 660 L1 645 C37 645 63 629 81 592 L305 -14 L310 -14 L524 634 L760 -14 L772 21 L536 671 L530 671 L316 19 L107 588 C98 623 114 646 151 646 L170 646 L169 660 L169 660 Z " />
<glyph glyph-name="Wdieresis" unicode="&#x1e84;" horiz-adv-x="1076" d="M637 750 C637 776 597 776 597 750 C597 724 637 724 637 750 L637 750 Z M467 750 C467 776 427 776 427 750 C427 724 467 724 467 750 L467 750 Z M1071 660 L889 660 L889 645 L924 645 C963 645 980 619 966 580 L966 580 L759 -15 L765 -15 L974 582 C988 620 1022 645 1060 645 L1071 645 L1071 660 L1071 660 Z M169 660 L1 660 L1 645 C37 645 63 629 81 592 L305 -14 L310 -14 L524 634 L760 -14 L772 21 L536 671 L530 671 L316 19 L107 588 C98 623 114 646 151 646 L170 646 L169 660 L169 660 Z " />
<glyph glyph-name="Etilde" unicode="&#x1ebc;" horiz-adv-x="619" d="M94 755 C94 798 123 827 166 827 C248 827 356 764 438 764 C487 764 519 794 519 838 L515 838 C515 801 486 777 442 777 C360 777 252 840 170 840 C122 840 90 806 90 755 L94 755 L94 755 Z M439 264 L439 430 L427 430 L423 419 C411 381 370 355 319 355 L137 355 L137 654 L342 654 C402 654 455 614 475 554 L486 519 L497 519 L497 660 L40 660 L40 645 L51 645 C89 645 115 619 115 580 L115 80 C115 41 89 15 51 15 L40 15 L40 0 L505 0 L506 3 L505 3 C512 44 522 100 529 141 L518 141 L501 106 C471 46 411 6 351 6 L137 6 L137 349 L319 349 C370 349 411 320 423 277 L427 264 L439 264 L439 264 Z " />
<glyph glyph-name="Ygrave" unicode="&#x1ef2;" horiz-adv-x="665" d="M258 0 L430 0 L430 15 L419 15 C381 15 355 41 355 80 L355 253 L560 580 C587 624 623 645 666 645 L666 660 L493 660 L493 645 L509 645 C558 645 572 614 545 566 C480 462 415 357 350 253 L353 258 L150 588 C132 623 143 646 179 646 L195 646 L195 661 L32 661 L32 646 C68 646 100 624 127 581 L127 581 L333 246 L333 81 C333 42 307 16 269 16 L258 16 L258 0 L258 0 Z M262 882 C262 879 280 856 308 824 C340 784 418 693 418 693 L421 694 C421 694 351 791 319 832 C294 867 276 890 274 890 C270 890 262 884 262 882 L262 882 Z " />
<glyph glyph-name="quoteleft" unicode="&#x2018;" horiz-adv-x="151" d="M79 565 C107 565 101 610 73 602 C69 627 77 654 93 661 L91 665 C71 655 57 630 57 603 C57 583 60 564 79 564 L79 565 L79 565 Z " />
<glyph glyph-name="quoteright" unicode="&#x2019;" horiz-adv-x="151" d="M79 665 C51 665 57 620 85 628 C89 603 81 576 65 569 L67 565 C87 575 101 600 101 627 C101 647 98 666 79 666 L79 665 L79 665 Z " />
<glyph glyph-name="quotedblleft" unicode="&#x201c;" horiz-adv-x="206" d="M134 565 C162 565 156 610 128 602 C124 627 132 654 148 661 L146 665 C126 655 112 630 112 603 C112 583 115 564 134 564 L134 565 L134 565 Z M79 564 C107 564 101 609 73 601 C69 626 77 653 93 660 L91 664 C71 654 57 629 57 602 C57 582 60 563 79 563 L79 564 L79 564 Z " />
<glyph glyph-name="quotedblright" unicode="&#x201d;" horiz-adv-x="206" d="M134 665 C106 665 112 620 140 628 C144 603 136 576 120 569 L122 565 C142 575 156 600 156 627 C156 647 153 666 134 666 L134 665 L134 665 Z M79 666 C51 666 57 621 85 629 C89 604 81 577 65 570 L67 566 C87 576 101 601 101 628 C101 648 98 667 79 667 L79 666 L79 666 Z " />
<glyph glyph-name="ellipsis" unicode="&#x2026;" horiz-adv-x="420" d="M370 20 C370 46 330 46 330 20 C330 -6 370 -6 370 20 L370 20 Z M230 20 C230 46 190 46 190 20 C190 -6 230 -6 230 20 L230 20 Z M90 20 C90 46 50 46 50 20 C50 -6 90 -6 90 20 L90 20 Z " />
<glyph glyph-name="perthousand" unicode="&#x2030;" horiz-adv-x="1278" d="M950 187 C950 296 1008 369 1096 369 C1187 369 1247 293 1247 179 C1247 73 1189 2 1101 2 C1010 2 950 76 950 187 L950 187 Z M930 183 C930 70 998 -5 1099 -5 C1199 -5 1266 71 1266 186 C1266 299 1199 375 1099 375 C998 375 930 298 930 183 L930 183 Z M50 538 C50 647 108 719 196 719 C287 719 347 643 347 530 C347 423 289 352 201 352 C110 352 50 426 50 538 L50 538 Z M30 534 C30 421 98 345 199 345 C299 345 366 422 366 537 C366 650 299 725 199 725 C98 725 30 649 30 534 L30 534 Z M562 187 C562 296 619 369 705 369 C797 369 859 293 859 179 C859 73 799 2 710 2 C621 2 562 76 562 187 L562 187 Z M542 183 C542 70 608 -5 708 -5 C810 -5 878 71 878 186 C878 299 810 375 708 375 C608 375 542 298 542 183 L542 183 Z M203 -3 L716 717 L708 723 L194 3 L203 -3 L203 -3 Z " />
<glyph glyph-name="guilsinglleft" unicode="&#x2039;" horiz-adv-x="386" d="M44 250 L340 461 L337 464 L20 251 L20 249 L338 37 L341 39 L44 250 L44 250 Z " />
<glyph glyph-name="guilsinglright" unicode="&#x203a;" horiz-adv-x="386" d="M48 37 L366 249 L366 251 L49 464 L46 461 L342 250 L45 39 L48 37 L48 37 Z " />
<glyph glyph-name="fraction" unicode="&#x2044;" horiz-adv-x="551" d="M34 -3 L548 717 L539 723 L26 3 L34 -3 L34 -3 Z " />
<glyph glyph-name="Euro" unicode="&#x20ac;" horiz-adv-x="852" d="M779 189 C775 178 770 162 766 151 C740 76 670 20 588 7 C556 3 523 1 490 1 C285 1 144 116 126 291 L548 291 L550 305 L125 305 C124 321 124 338 125 354 L550 354 L552 368 L126 368 C144 543 285 658 490 658 C532 658 575 655 616 649 L616 649 C681 639 741 583 766 510 L779 471 L792 471 L792 601 L791 599 C791 600 792 601 792 602 C725 640 605 666 490 666 C271 666 121 549 102 370 L52 370 L50 356 L101 356 C100 340 100 323 101 307 L50 307 L48 293 L102 293 C121 114 271 -3 490 -3 C605 -3 725 23 792 61 L790 64 L790 64 L791 61 L791 191 L779 189 L779 189 Z " />
<glyph glyph-name="F_sc" unicode="&#xa730;" horiz-adv-x="467" d="M41 538 L52 538 C90 538 116 512 116 473 L116 80 C116 41 90 15 52 15 L41 15 L41 0 L221 0 L221 15 L201 15 C162 15 136 41 136 80 L136 288 L242 288 C293 288 334 259 346 216 L350 203 L362 203 L362 368 L350 368 L346 357 C334 319 293 293 242 293 L136 293 L136 548 L304 548 C364 548 417 508 437 448 L448 413 L459 413 L459 553 L41 553 L41 538 L41 538 Z " />
<glyph glyph-name="S_sc" unicode="&#xa731;" horiz-adv-x="507" d="M432 374 L432 505 L431 502 C430 503 432 504 432 505 C377 537 298 558 234 558 C128 558 58 500 58 412 C58 348 135 291 250 269 C369 247 448 189 448 125 C448 50 384 0 287 0 C282 0 225 1 225 4 C158 11 96 67 70 142 C66 153 61 169 57 180 L44 180 L44 48 L46 52 C46 51 45 49 44 48 C99 16 196 -5 287 -5 C392 -5 462 50 462 133 C462 201 383 262 265 284 C149 306 71 360 71 420 C71 500 136 553 233 553 C236 553 302 548 301 545 C339 537 374 506 387 466 C396 438 409 402 418 374 L432 374 L432 374 Z " />
<glyph glyph-name="X_sc" unicode="&#xf078;" horiz-adv-x="624" d="M220 553 L54 553 L54 538 C88 538 119 520 152 483 L319 273 C273 208 227 143 180 79 C152 40 108 14 70 14 L59 14 L59 -1 L241 -1 L241 14 L222 14 C177 14 166 43 194 87 L323 269 C373 206 425 142 474 79 C505 40 500 14 461 14 L438 14 L438 -1 L604 -1 L604 14 C570 14 539 32 506 69 L335 285 C386 347 436 410 487 472 C518 511 565 537 603 537 L614 537 L614 552 L433 552 L433 537 L466 537 C505 537 510 511 479 472 L479 472 L332 288 C284 349 234 411 187 472 C156 511 161 537 200 537 L223 537 L220 553 L220 553 Z " />
</font>
</svg>
