<?xml version="1.0" encoding="UTF-8"?>
<svg xmlns="http://www.w3.org/2000/svg" xmlns:xlink="http://www.w3.org/1999/xlink" version="1.2" >
<font id="Ammar Light">
<font-face  font-family="Ammar" units-per-em="1024" ascent="936" descent="-280" font-style="normal" font-weight="300" font-stretch="normal" cap-height="927" x-height="468" underline-position="-125" underline-thickness="50" />
<missing-glyph  horiz-adv-x="100" d="" />
<glyph glyph-name="NULL" d="" />
<glyph glyph-name="CR" unicode="&#xd;" horiz-adv-x="256" d="" />
<glyph glyph-name="space" unicode="&#x20;" horiz-adv-x="274" d="" />
<glyph glyph-name="exclam" unicode="&#x21;" horiz-adv-x="184" d="M96 -5 C118 -5 132 9 132 31 C132 53 118 67 96 67 C74 67 60 53 60 31 C60 9 74 -5 96 -5 L96 -5 Z M124 620 C125 647 113 665 93 665 C73 665 60 647 62 620 C62 477 93 142 93 142 L99 142 C99 142 124 477 124 620 L124 620 Z " />
<glyph glyph-name="quotedbl" unicode="&#x22;" horiz-adv-x="238" d="M134 660 L162 471 L170 471 L198 660 L134 660 L134 660 Z M40 660 L67 471 L76 471 L104 660 L40 660 L40 660 Z " />
<glyph glyph-name="numbersign" unicode="&#x23;" horiz-adv-x="660" d="M478 681 L449 479 L244 479 L273 681 L253 681 L224 479 L64 479 L58 441 L219 441 L187 219 L25 219 L19 181 L182 181 L156 0 L176 0 L202 181 L407 181 L381 0 L400 0 L426 181 L590 181 L595 219 L431 219 L463 441 L635 441 L640 479 L468 479 L497 681 L478 681 L478 681 Z M239 441 L444 441 L412 219 L207 219 L239 441 L239 441 Z " />
<glyph glyph-name="dollar" unicode="&#x24;" horiz-adv-x="601" d="M43 188 L43 46 C81 24 152 7 233 0 L233 -74 L249 -74 L249 -1 C270 -3 291 -4 313 -4 L313 -74 L329 -74 L329 -4 C465 -4 556 65 556 169 C556 255 465 329 329 353 L329 650 C335 649 396 641 396 639 C432 631 464 600 478 561 C487 535 500 499 509 473 L522 473 L522 615 C478 641 405 659 330 664 L330 736 L314 736 L314 665 C292 666 270 666 250 664 L250 736 L234 736 L234 662 C123 646 52 577 52 481 C52 412 123 351 234 320 L234 15 C227 16 220 17 213 18 C150 29 93 82 69 153 C65 164 60 179 56 190 L43 188 L43 188 Z M249 373 L249 652 C270 654 292 654 314 653 L314 358 C291 362 270 367 250 373 L249 373 L249 373 Z M234 378 C145 409 91 456 91 505 C91 581 146 635 234 649 L234 378 L234 378 Z M250 317 C270 312 293 308 314 303 L314 10 C292 10 271 11 250 13 L250 317 L250 317 Z M330 299 C445 269 518 211 518 146 C518 64 442 9 330 9 L330 299 L330 299 Z " />
<glyph glyph-name="percent" unicode="&#x25;" horiz-adv-x="894" d="M79 542 C79 643 125 710 195 710 C274 710 326 635 326 522 C326 426 278 362 206 362 C130 362 79 434 79 542 L79 542 Z M30 533 C30 420 99 345 202 345 C305 345 373 423 373 539 C373 651 305 725 202 725 C99 725 30 648 30 533 L30 533 Z M581 191 C581 292 628 360 698 360 C780 360 835 284 835 171 C835 75 785 11 709 11 C632 11 581 83 581 191 L581 191 Z M532 181 C532 69 601 -5 705 -5 C811 -5 882 72 882 188 C882 300 811 375 705 375 C601 375 532 297 532 181 L532 181 Z M213 -8 L726 712 L705 728 L191 8 L213 -8 L213 -8 Z " />
<glyph glyph-name="ampersand" unicode="&#x26;" horiz-adv-x="753" d="M676 300 L515 300 L515 285 L526 285 C564 285 590 259 590 220 L590 190 C590 147 570 110 535 81 C496 114 451 160 398 223 C354 276 315 321 284 361 C414 386 500 458 500 543 C500 616 433 664 333 664 C233 664 166 600 166 503 C166 456 191 408 234 350 C122 306 50 231 50 156 C50 60 142 -4 280 -4 C376 -4 456 15 512 49 C602 -14 673 -13 754 1 L754 9 C692 -2 635 1 547 73 C583 105 603 145 603 191 L603 221 C603 260 629 286 667 286 L678 286 L676 300 L676 300 Z M208 528 C208 604 258 655 333 655 C412 655 464 610 464 542 C464 460 391 391 281 369 C234 431 207 481 207 528 L208 528 L208 528 Z M501 58 C452 32 386 17 308 17 C182 17 98 80 98 174 C98 241 154 305 241 342 C273 299 315 250 364 192 C415 131 460 88 501 57 L501 58 L501 58 Z " />
<glyph glyph-name="quotesingle" unicode="&#x27;" horiz-adv-x="144" d="M40 660 L67 471 L76 471 L104 660 L40 660 L40 660 Z " />
<glyph glyph-name="parenleft" unicode="&#x28;" horiz-adv-x="236" d="M219 690 C124 576 60 450 60 270 C60 90 124 -36 219 -150 L226 -145 C150 -54 99 64 99 270 C99 476 150 594 226 685 L219 690 L219 690 Z " />
<glyph glyph-name="parenright" unicode="&#x29;" horiz-adv-x="236" d="M10 -150 C105 -36 169 90 169 270 C169 450 105 576 10 690 L3 685 C79 594 130 476 130 270 C130 64 79 -54 3 -145 L10 -150 L10 -150 Z " />
<glyph glyph-name="asterisk" unicode="&#x2a;" horiz-adv-x="268" d="M261 585 L261 585 C282 595 269 624 247 611 C247 611 159 546 151 540 L165 659 C167 684 133 684 135 659 L149 542 L54 612 C33 626 18 595 39 584 L39 585 L149 538 L39 491 C17 480 32 450 53 464 L53 465 L148 535 L134 419 C132 394 166 394 164 419 L150 537 L245 466 L244 465 C265 451 281 480 260 491 L261 492 L153 539 L261 585 L261 585 Z " />
<glyph glyph-name="plus" unicode="&#x2b;" horiz-adv-x="555" d="M263 450 L263 261 L75 261 L75 239 L263 239 L263 50 L287 50 L287 239 L475 239 L475 261 L287 261 L287 450 L263 450 L263 450 Z " />
<glyph glyph-name="comma" unicode="&#x2c;" horiz-adv-x="188" d="M123 57 L123 57 C117 64 108 68 97 68 C75 68 61 54 61 32 C61 10 75 -4 97 -4 C100 -4 104 -1 108 4 C117 -36 100 -76 75 -89 L75 -97 C114 -78 140 -36 140 9 C140 29 134 48 125 58 L123 57 L123 57 Z " />
<glyph glyph-name="hyphen" unicode="&#x2d;" horiz-adv-x="405" d="M20 216 L385 216 L385 254 L20 254 L20 216 L20 216 Z " />
<glyph glyph-name="period" unicode="&#x2e;" horiz-adv-x="221" d="M125 -5 C147 -5 161 9 161 31 C161 53 147 67 125 67 C103 67 89 53 89 31 C89 9 103 -5 125 -5 L125 -5 Z " />
<glyph glyph-name="slash" unicode="&#x2f;" horiz-adv-x="332" d="M0 -145 L22 -145 L332 710 L310 710 L0 -145 L0 -145 Z " />
<glyph glyph-name="zero" unicode="0" horiz-adv-x="695" d="M106 250 C106 396 203 494 348 494 C493 494 590 396 590 250 C590 104 493 6 348 6 C203 6 106 104 106 250 L106 250 Z M50 250 C50 97 169 -5 348 -5 C526 -5 645 97 645 250 C645 403 526 505 348 505 C169 505 50 403 50 250 L50 250 Z " />
<glyph glyph-name="one" unicode="1" horiz-adv-x="310" d="M255 15 L244 15 C206 15 180 41 180 80 L180 420 C180 459 206 485 244 485 L255 485 L255 500 L55 500 L55 485 L66 485 C104 485 130 459 130 420 L130 80 C130 41 104 15 66 15 L55 15 L55 0 L255 0 L255 15 L255 15 Z " />
<glyph glyph-name="two" unicode="2" horiz-adv-x="578" d="M546 50 C548 75 550 103 552 125 L537 125 L536 114 C532 76 504 50 465 50 L120 50 C364 177 521 250 521 349 C521 443 440 505 319 505 C206 505 108 446 72 358 L79 354 C107 422 193 468 294 468 C397 468 466 414 466 332 C466 219 290 152 26 11 L26 0 L542 0 L545 25 L546 25 C546 27 548 50 548 50 L546 50 L546 50 Z " />
<glyph glyph-name="three" unicode="3" horiz-adv-x="554" d="M275 191 C381 191 451 130 451 38 C451 -101 281 -198 26 -205 L26 -215 C313 -207 504 -105 504 41 C504 142 419 210 292 210 C290 210 288 210 285 210 C392 257 459 320 459 379 C459 455 385 505 275 505 C197 505 91 453 11 376 L16 371 C78 430 171 470 250 470 C345 470 408 427 408 362 C408 301 339 237 233 197 C223 194 213 190 202 186 L202 178 C223 184 251 190 275 190 L275 191 L275 191 Z " />
<glyph glyph-name="four" unicode="4" horiz-adv-x="637" d="M17 10 L17 0 L414 0 L414 -150 L464 -150 L464 0 L627 0 L627 22 L464 22 L464 505 L456 505 C365 455 17 10 17 10 L17 10 Z M49 22 C110 99 317 359 422 456 C417 447 414 438 414 432 L414 21 L49 22 L49 22 Z " />
<glyph glyph-name="five" unicode="5" horiz-adv-x="537" d="M505 575 L490 575 L486 564 C473 526 439 500 400 500 L98 500 C98 416 68 221 68 221 L81 221 C81 221 82 225 83 233 C82 226 81 221 80 221 L200 221 C342 221 436 154 436 54 C436 -79 274 -169 30 -171 L30 -182 C304 -179 486 -78 486 71 C486 190 382 270 225 270 L88 270 C95 317 105 389 110 447 L464 447 C479 494 491 533 505 575 L505 575 Z " />
<glyph glyph-name="six" unicode="6" horiz-adv-x="667" d="M603 715 C284 704 71 537 71 299 C71 117 179 -5 341 -5 C514 -5 624 83 617 216 C617 343 518 427 370 427 C204 427 109 354 134 245 L146 245 C123 346 209 414 361 414 C483 414 564 334 564 213 C570 91 484 9 347 9 C215 9 127 106 127 252 C127 271 130 297 130 316 C130 541 320 697 604 707 L603 715 L603 715 Z " />
<glyph glyph-name="seven" unicode="7" horiz-adv-x="535" d="M34 374 L35 385 C39 423 67 449 106 449 L495 449 L175 -140 L230 -140 C328 72 428 283 525 496 L521 501 L30 501 L28 476 C28 475 28 474 28 473 L26 451 C24 426 21 398 19 376 L34 374 L34 374 Z " />
<glyph glyph-name="eight" unicode="8" horiz-adv-x="636" d="M370 348 C481 369 553 433 553 516 L554 516 C554 605 461 664 322 664 C183 664 90 596 90 494 C90 412 169 341 290 312 C153 304 63 246 63 162 C63 61 167 -6 324 -6 C481 -6 585 66 585 173 C585 244 501 311 370 347 L370 348 L370 348 Z M363 349 C349 353 334 356 319 359 C207 381 132 443 132 514 C132 597 207 653 320 653 C436 653 513 595 513 508 C513 429 454 367 363 349 L363 349 Z M111 170 C111 249 185 303 299 311 C302 310 305 309 308 308 C446 281 538 220 538 156 C538 65 454 5 327 5 C197 5 110 71 110 170 L111 170 L111 170 Z " />
<glyph glyph-name="nine" unicode="9" horiz-adv-x="667" d="M64 -215 C383 -204 596 -37 596 201 C596 383 488 505 326 505 C153 505 43 417 50 284 C50 157 149 73 297 73 C463 73 558 146 533 255 L521 255 C544 154 458 86 306 86 C184 86 103 166 103 287 C97 409 183 491 320 491 C452 491 540 394 540 248 C540 229 537 203 537 184 C537 -41 347 -197 63 -207 L64 -215 L64 -215 Z " />
<glyph glyph-name="colon" unicode="&#x3a;" horiz-adv-x="221" d="M125 364 C147 364 161 378 161 400 C161 422 147 436 125 436 C103 436 89 422 89 400 C89 378 103 364 125 364 L125 364 Z M125 -5 C147 -5 161 9 161 31 C161 53 147 67 125 67 C103 67 89 53 89 31 C89 9 103 -5 125 -5 L125 -5 Z " />
<glyph glyph-name="semicolon" unicode="&#x3b;" horiz-adv-x="188" d="M96 364 C118 364 132 378 132 400 C132 422 118 436 96 436 C74 436 60 422 60 400 C60 378 74 364 96 364 L96 364 Z M123 57 L123 57 C117 64 108 68 97 68 C75 68 61 54 61 32 C61 10 75 -4 97 -4 C100 -4 104 -1 108 4 C117 -36 100 -76 75 -89 L75 -97 C114 -78 140 -36 140 9 C140 29 134 48 125 58 L123 57 L123 57 Z " />
<glyph glyph-name="less" unicode="&#x3c;" horiz-adv-x="632" d="M557 500 L46 290 C44 290 42 288 40 288 L40 262 L46 260 L557 50 L557 75 L66 275 L557 475 L557 500 L557 500 Z " />
<glyph glyph-name="equal" unicode="&#x3d;" horiz-adv-x="624" d="M78 211 L78 189 L554 189 L554 211 L78 211 L78 211 Z M78 311 L78 289 L554 289 L554 311 L78 311 L78 311 Z " />
<glyph glyph-name="greater" unicode="&#x3e;" horiz-adv-x="626" d="M75 50 C245 121 415 193 586 264 L586 286 C583 286 579 290 576 290 L75 500 L75 475 L557 275 L75 75 L75 50 L75 50 Z " />
<glyph glyph-name="question" unicode="&#x3f;" horiz-adv-x="463" d="M169 -5 C191 -5 205 9 205 31 C205 53 191 67 169 67 C147 67 133 53 133 31 C133 9 147 -5 169 -5 L169 -5 Z M181 329 L216 329 C394 329 428 403 428 444 C428 577 318 665 154 665 C86 665 41 638 41 598 C41 590 52 585 69 585 C99 585 140 626 170 626 C318 626 417 556 417 450 C417 420 382 368 199 368 L164 368 C158 368 154 365 154 360 L166 147 L172 147 L181 329 L181 329 Z " />
<glyph glyph-name="at" unicode="&#x40;" horiz-adv-x="1284" d="M1189 0 C1122 -143 907 -239 650 -239 C316 -239 94 -40 94 259 C94 558 313 757 642 757 C971 757 1190 591 1190 343 C1190 140 1106 4 981 4 C852 4 786 82 815 200 L885 480 L838 480 L814 385 C800 449 737 490 648 490 C459 490 333 373 333 197 C333 87 417 13 544 13 C640 13 721 61 761 138 C766 45 844 -13 972 -13 C1126 -13 1229 129 1229 343 C1229 599 994 770 642 770 C290 770 55 566 55 259 C55 -48 293 -252 650 -252 C912 -252 1134 -151 1205 0 L1189 0 L1189 0 Z M807 356 L768 200 C744 105 665 41 570 41 C461 41 388 107 388 207 C388 368 492 476 648 476 C743 476 807 428 808 356 L807 356 L807 356 Z " />
<glyph glyph-name="A" unicode="A" horiz-adv-x="728" d="M3 0 L201 0 L201 15 L177 15 C132 15 112 43 126 86 L187 237 L499 237 L568 80 C585 41 570 15 531 15 L500 15 L500 0 L724 0 L724 15 C681 15 648 36 629 80 L629 80 L365 675 L351 675 L105 77 C88 40 53 15 15 15 L4 15 L3 0 L3 0 Z M494 250 L193 250 L338 608 L494 250 L494 250 Z " />
<glyph glyph-name="B" unicode="B" horiz-adv-x="657" d="M387 357 C373 358 358 358 343 358 L236 356 L182 356 L182 646 L414 646 C503 646 563 592 563 511 C563 423 493 363 386 357 L387 357 L387 357 Z M50 645 L61 645 C99 645 125 619 125 580 L125 80 C125 41 99 15 61 15 L50 15 L50 0 L422 0 C550 0 636 76 636 189 C636 272 556 333 429 352 C544 367 617 427 617 511 C617 600 535 660 413 660 L50 660 L50 645 L50 645 Z M181 347 L326 347 C477 347 577 284 577 189 C577 84 513 14 416 14 L181 14 L181 347 L181 347 Z " />
<glyph glyph-name="C" unicode="C" horiz-adv-x="815" d="M755 465 L755 603 L752 597 C752 599 754 601 755 603 C691 640 569 665 452 665 C218 665 62 531 62 330 C62 129 218 -5 452 -5 C569 -5 691 20 755 57 L748 185 C739 183 730 174 738 183 C736 182 734 181 732 180 C731 172 730 163 728 157 C703 84 634 29 553 15 C520 11 486 9 452 9 C255 9 123 137 123 330 C123 523 255 651 452 651 C464 651 580 646 579 641 C644 631 704 576 729 503 C733 492 738 476 742 465 L755 465 L755 465 Z M733 180 C725 175 719 173 736 189 C735 186 734 183 733 180 L733 180 Z " />
<glyph glyph-name="D" unicode="D" horiz-adv-x="788" d="M51 645 L62 645 C100 645 126 619 126 580 L126 80 C126 41 100 15 62 15 L51 15 L51 0 L426 0 C613 0 738 132 738 330 C738 528 589 660 365 660 L51 660 L51 645 L51 645 Z M182 14 L182 646 L365 646 C556 646 683 520 683 330 C683 140 580 14 426 14 L182 14 L182 14 Z " />
<glyph glyph-name="E" unicode="E" horiz-adv-x="653" d="M473 260 L473 434 L461 434 L457 423 C445 385 404 359 353 359 L171 359 L171 646 L380 646 C440 646 493 606 513 546 L524 511 L535 511 L535 660 L40 660 L40 645 L51 645 C89 645 115 619 115 580 L115 80 C115 41 89 15 51 15 L40 15 L40 0 L541 0 L542 7 L541 7 C549 50 559 106 567 149 L556 149 L539 114 C508 54 448 14 388 14 L171 14 L171 345 L353 345 C404 345 445 316 457 273 L461 260 L473 260 L473 260 Z " />
<glyph glyph-name="F" unicode="F" horiz-adv-x="568" d="M40 645 L51 645 C89 645 115 619 115 580 L115 80 C115 41 89 15 51 15 L40 15 L40 0 L256 0 L256 15 L236 15 C197 15 171 41 171 80 L171 340 L343 340 C394 340 435 311 447 268 L451 255 L463 255 L463 429 L451 429 L447 418 C435 380 394 354 343 354 L171 354 L171 646 L410 646 C470 646 523 606 543 546 L554 511 L565 511 L565 660 L40 660 L40 645 L40 645 Z " />
<glyph glyph-name="G" unicode="G" horiz-adv-x="911" d="M735 465 L735 603 L732 597 C732 599 734 601 735 603 C671 640 553 665 441 665 C214 665 62 531 62 330 C62 129 214 -5 441 -5 C557 -5 677 20 741 57 L741 230 C741 269 767 295 805 295 L816 295 L816 310 L616 310 L616 295 L627 295 C665 295 691 269 691 230 L691 50 C626 25 532 9 441 9 C250 9 123 137 123 330 C123 523 250 651 441 651 C451 651 558 646 557 642 C622 632 683 577 708 503 C712 492 717 476 721 465 L735 465 L735 465 Z " />
<glyph glyph-name="H" unicode="H" horiz-adv-x="865" d="M825 15 L814 15 C776 15 750 41 750 80 L750 580 C750 619 776 645 814 645 L825 645 L825 660 L620 660 L620 645 L631 645 C669 645 695 619 695 580 L695 354 L171 354 L171 580 C171 619 197 645 235 645 L246 645 L246 660 L40 660 L40 645 L51 645 C89 645 115 619 115 580 L115 80 C115 41 89 15 51 15 L40 15 L40 0 L246 0 L246 15 L235 15 C197 15 171 41 171 80 L171 340 L695 340 L695 80 C695 41 669 15 631 15 L620 15 L620 0 L825 0 L825 15 L825 15 Z " />
<glyph glyph-name="I" unicode="I" horiz-adv-x="286" d="M246 15 L235 15 C197 15 171 41 171 80 L171 580 C171 619 197 645 235 645 L246 645 L246 660 L40 660 L40 645 L51 645 C89 645 115 619 115 580 L115 80 C115 41 89 15 51 15 L40 15 L40 0 L246 0 L246 15 L246 15 Z " />
<glyph glyph-name="J" unicode="J" horiz-adv-x="456" d="M416 660 L210 660 L210 645 L221 645 C259 645 285 619 285 580 L285 200 C285 57 246 1 146 1 C94 1 54 21 47 50 C44 63 34 72 22 72 C6 72 -3 63 0 50 C9 14 62 -10 132 -10 C282 -10 341 62 341 247 L341 580 C341 619 367 645 405 645 L416 645 L416 660 L416 660 Z " />
<glyph glyph-name="K" unicode="K" horiz-adv-x="745" d="M257 660 L51 660 L51 645 L62 645 C100 645 126 619 126 580 L126 80 C126 41 100 15 62 15 L51 15 L51 0 L257 0 L257 15 L246 15 C208 15 182 41 182 80 L182 355 L191 344 L193 346 C220 323 294 261 395 178 C554 46 643 -5 713 -5 L735 -5 L735 6 C695 6 620 60 440 210 C339 293 265 355 238 378 L526 584 C580 621 640 646 677 646 L688 646 L688 661 L534 661 L534 646 L542 646 C569 646 551 620 497 581 L183 356 L183 581 C183 620 209 646 247 646 L258 646 L257 660 L257 660 Z " />
<glyph glyph-name="L" unicode="L" horiz-adv-x="653" d="M567 156 C561 159 549 164 549 164 L523 104 C501 50 451 14 397 14 L171 14 L171 580 C171 619 197 645 235 645 L246 645 L246 660 L40 660 L40 645 L51 645 C89 645 115 619 115 580 L115 80 C115 41 89 15 51 15 L40 15 L40 0 L540 0 C547 48 559 109 567 157 L567 156 L567 156 Z " />
<glyph glyph-name="M" unicode="M" horiz-adv-x="923" d="M708 0 L912 0 L912 15 L901 15 C865 15 839 38 834 73 C827 242 819 412 812 580 C810 619 834 645 871 645 L882 645 L882 660 L758 660 L481 56 C380 257 281 459 181 660 L63 660 L63 645 L74 645 C112 645 136 620 136 582 L117 81 C116 42 89 16 51 16 L40 16 L40 1 L241 1 L241 16 L212 16 C164 16 133 48 135 96 L135 96 L154 593 C254 394 354 194 455 -4 L468 -4 L761 623 L782 79 C782 41 758 16 720 16 L709 16 L708 0 L708 0 Z " />
<glyph glyph-name="N" unicode="N" horiz-adv-x="799" d="M43 645 L54 645 C92 645 118 619 118 580 L118 80 C118 41 92 15 54 15 L43 15 L43 0 L210 0 L210 15 L199 15 C161 15 135 41 135 80 L135 613 C313 405 492 198 669 -11 L683 -11 L683 580 C683 619 709 645 747 645 L758 645 L758 660 L591 660 L591 645 L602 645 C640 645 666 619 666 580 L666 77 L167 660 L42 660 L43 645 L43 645 Z " />
<glyph glyph-name="O" unicode="O" horiz-adv-x="856" d="M123 330 C123 503 229 651 434 651 C639 651 745 503 745 330 C745 157 639 9 434 9 C229 9 123 157 123 330 L123 330 Z M62 330 C62 149 188 -5 434 -5 C680 -5 806 149 806 330 C806 511 680 665 434 665 C188 665 62 511 62 330 L62 330 Z " />
<glyph glyph-name="P" unicode="P" horiz-adv-x="666" d="M257 15 L246 15 C208 15 182 41 182 80 L182 298 L380 298 C540 298 646 370 646 478 C646 587 559 660 429 660 L51 660 L51 645 L62 645 C100 645 126 619 126 580 L126 80 C126 41 100 15 62 15 L51 15 L51 0 L257 0 L257 15 L257 15 Z M182 312 L182 646 L429 646 C524 646 588 579 588 478 C588 378 505 311 380 311 C380 311 241 312 182 312 L182 312 Z " />
<glyph glyph-name="Q" unicode="Q" horiz-adv-x="856" d="M943 -51 L938 -47 C915 -74 839 -92 746 -92 C595 -92 497 -57 440 -5 C683 -3 807 150 807 330 C807 511 681 665 435 665 C189 665 63 511 63 330 C63 152 184 0 421 -6 C498 -80 603 -129 741 -129 C824 -129 905 -98 944 -52 L943 -51 L943 -51 Z M124 329 C124 502 230 650 435 650 C640 650 746 502 746 329 C746 156 640 8 435 8 C230 8 124 156 124 329 L124 329 Z " />
<glyph glyph-name="R" unicode="R" horiz-adv-x="737" d="M51 645 L62 645 C100 645 126 619 126 580 L126 80 C126 41 100 15 62 15 L51 15 L51 0 L257 0 L257 15 L246 15 C208 15 182 41 182 80 L182 317 L353 317 C381 288 455 210 554 106 C651 4 658 0 715 0 L736 0 L736 11 C708 11 710 11 630 95 C522 208 443 292 416 320 C540 334 619 399 619 491 C619 593 536 661 412 661 L49 661 L51 645 L51 645 Z M366 331 L180 332 L180 647 L412 647 C501 647 561 585 561 491 C561 395 483 331 366 331 L366 331 Z " />
<glyph glyph-name="S" unicode="S" horiz-adv-x="601" d="M522 472 L522 614 C469 645 374 665 284 665 C144 665 51 591 51 481 C51 402 144 333 284 308 C424 283 517 219 517 146 C517 64 441 9 328 9 C289 9 250 12 213 17 C150 28 93 81 69 152 C65 163 60 178 56 189 L43 189 L43 47 C96 16 210 -4 328 -4 C465 -4 556 65 556 169 C556 255 465 329 328 353 C185 378 90 439 90 504 C90 593 166 652 281 652 C319 652 359 647 397 639 L397 639 C433 631 465 600 479 561 C488 535 501 499 510 473 L522 472 L522 472 Z " />
<glyph glyph-name="T" unicode="T" horiz-adv-x="716" d="M255 0 L461 0 L461 15 L450 15 C412 15 386 41 386 80 L386 646 L552 646 C600 646 646 614 665 566 L693 496 L705 496 C701 545 697 611 690 659 L28 659 L27 652 L26 652 C22 605 16 542 12 495 L24 495 L52 565 C72 613 118 645 166 645 L330 645 L330 79 C330 40 304 14 266 14 L255 14 L255 0 L255 0 Z " />
<glyph glyph-name="U" unicode="U" horiz-adv-x="808" d="M764 660 L572 660 L572 645 L587 645 C632 645 662 615 662 570 L662 188 C662 84 592 14 411 14 C239 14 172 89 172 202 L172 580 C172 619 198 645 236 645 L247 645 L247 660 L41 660 L41 645 L52 645 C90 645 116 619 116 580 L116 212 C116 82 196 -5 403 -5 C602 -5 679 70 679 182 L679 570 C679 615 708 645 751 645 L764 645 L764 660 L764 660 Z " />
<glyph glyph-name="V" unicode="V" horiz-adv-x="808" d="M763 660 L557 660 L557 645 L576 645 C633 645 656 607 634 550 L634 550 L416 -15 L430 -15 C508 183 585 382 663 580 C678 619 714 645 752 645 L763 645 L763 660 L763 660 Z M264 660 L50 660 L50 645 C90 645 120 624 140 580 L416 -15 L444 58 L199 586 C185 622 199 645 236 645 L264 645 L264 660 L264 660 Z " />
<glyph glyph-name="W" unicode="W" horiz-adv-x="1185" d="M1124 660 L932 660 L932 645 L967 645 C1003 645 1020 623 1012 589 L797 -15 L811 -15 L1027 586 C1042 622 1075 645 1111 645 L1123 645 L1124 660 L1124 660 Z M796 -15 L826 70 L584 670 L570 670 L332 -15 L346 -15 L553 580 L796 -15 L796 -15 Z M216 660 L11 660 L11 645 C48 645 75 628 93 590 L332 -15 L359 65 L155 587 C144 622 160 645 197 645 L216 645 L216 660 L216 660 Z " />
<glyph glyph-name="X" unicode="X" horiz-adv-x="755" d="M505 0 L711 0 L711 15 C676 15 644 34 611 73 L399 344 L580 581 C610 620 655 646 693 646 L705 646 L705 661 L504 661 L504 646 L538 646 C574 646 582 623 559 588 L388 357 C330 431 271 506 214 580 C183 619 189 645 228 645 L251 645 L251 660 L44 660 L44 645 C79 645 111 626 144 586 L352 321 L163 72 C133 37 91 14 55 14 L43 14 L43 -1 L242 -1 L242 14 L223 14 C175 14 167 46 203 94 L203 94 L361 307 C421 231 481 155 540 79 C571 40 565 14 526 14 L503 14 L505 0 L505 0 Z " />
<glyph glyph-name="Y" unicode="Y" horiz-adv-x="765" d="M258 660 L56 660 L56 645 C90 645 119 627 146 590 L360 258 L361 73 C358 38 333 15 297 15 L286 15 L286 0 L491 0 L491 15 L480 15 C442 15 416 41 416 80 L416 275 L622 580 C651 624 688 645 731 645 L731 660 L549 660 L549 645 L564 645 C615 645 626 611 592 560 L592 560 L411 289 L215 589 C196 623 207 645 243 645 L258 645 L258 660 L258 660 Z " />
<glyph glyph-name="Z" unicode="Z" horiz-adv-x="688" d="M639 156 C633 159 621 164 621 164 L595 104 C573 50 523 14 469 14 L126 14 L625 660 L120 660 L118 653 L117 653 C107 615 93 564 83 526 L95 526 L122 566 C154 614 208 646 256 646 L551 646 L52 0 L612 0 C619 48 631 109 639 157 L639 156 L639 156 Z " />
<glyph glyph-name="bracketleft" unicode="&#x5b;" horiz-adv-x="231" d="M116 649 L221 649 L221 660 L77 660 L77 -120 L221 -120 L221 -109 L116 -109 L116 649 L116 649 Z " />
<glyph glyph-name="backslash" unicode="&#x5c;" horiz-adv-x="224" d="M207 -145 L224 -145 L-43 710 L-60 710 L207 -145 L207 -145 Z " />
<glyph glyph-name="bracketright" unicode="&#x5d;" horiz-adv-x="219" d="M110 649 L110 -109 L5 -109 L5 -120 L149 -120 L149 660 L5 660 L5 649 L110 649 L110 649 Z " />
<glyph glyph-name="asciicircum" unicode="&#x5e;" horiz-adv-x="460" d="M246 731 C243 735 236 745 230 745 C223 745 217 735 214 731 C214 731 128 579 93 538 L98 533 C157 604 206 665 230 695 C268 647 363 533 363 533 L368 538 C368 538 279 663 246 731 L246 731 Z " />
<glyph glyph-name="underscore" unicode="&#x5f;" horiz-adv-x="672" d="M5 -50 L5 -78 L667 -78 L667 -50 L5 -50 L5 -50 Z " />
<glyph glyph-name="grave" unicode="&#x60;" horiz-adv-x="460" d="M148 715 C148 710 165 689 191 660 C223 620 304 531 304 531 L309 535 C309 535 248 639 216 680 C195 713 180 735 176 735 C168 735 148 721 148 715 L148 715 Z " />
<glyph glyph-name="a" unicode="a" horiz-adv-x="580" d="M558 37 C544 23 529 14 506 14 C476 14 467 38 467 73 L467 359 C467 447 403 505 307 505 C174 505 78 465 66 406 L116 406 C126 458 198 492 295 492 C366 492 414 444 414 371 L414 253 C374 251 297 246 250 235 C122 203 36 150 36 103 C36 39 97 -4 189 -4 C277 -4 362 24 415 69 C415 22 427 -10 473 -10 C513 -10 540 6 564 30 L558 37 L558 37 Z M415 241 L415 78 C371 46 297 26 217 26 C138 26 86 62 86 115 C86 152 151 193 249 217 C302 230 377 237 415 240 L415 241 L415 241 Z " />
<glyph glyph-name="b" unicode="b" horiz-adv-x="697" d="M350 -5 C525 -5 642 96 642 248 C642 402 535 505 374 505 C300 505 213 485 155 454 L155 720 L145 720 L30 687 L30 678 L41 675 C95 664 105 651 105 597 L105 0 L111 0 C116 14 132 24 151 24 C212 24 277 -5 349 -5 L350 -5 L350 -5 Z M349 9 C232 9 154 59 154 133 L154 445 C197 468 269 483 335 483 C487 483 588 380 588 225 C588 95 492 9 349 9 L349 9 Z " />
<glyph glyph-name="c" unicode="c" horiz-adv-x="572" d="M520 41 L516 47 C500 34 425 25 327 25 C193 25 103 117 103 254 C103 396 205 491 358 491 C424 491 470 456 475 404 C476 389 486 379 500 379 C513 379 522 388 522 401 C517 463 453 505 363 505 C175 505 50 397 50 235 C50 91 144 -5 285 -5 C393 -5 487 13 520 41 L520 41 Z " />
<glyph glyph-name="d" unicode="d" horiz-adv-x="692" d="M457 678 L468 675 C522 664 532 651 532 597 L532 429 C494 473 415 506 323 506 C162 506 55 394 55 226 C55 88 155 -4 304 -4 C397 -4 486 21 532 60 L532 0 L542 0 L657 33 L657 42 L646 45 C592 56 582 69 582 123 L582 720 L572 720 L457 687 L457 678 L457 678 Z M532 67 C503 42 423 25 330 25 C196 25 106 112 106 243 C106 391 192 490 320 490 C419 490 502 452 531 405 L532 67 L532 67 Z " />
<glyph glyph-name="e" unicode="e" horiz-adv-x="578" d="M482 363 L482 364 L481 324 L528 324 C528 433 444 505 319 505 C158 505 50 397 50 235 C50 91 145 -5 288 -5 C398 -5 493 13 526 41 L522 47 C506 34 429 25 330 25 C172 25 71 154 110 324 L480 324 L480 342 L481 363 C480 352 473 344 462 342 L112 334 C138 431 213 492 315 492 C415 492 481 442 481 367 C481 366 481 365 481 364 L482 363 L482 363 Z " />
<glyph glyph-name="f" unicode="f" horiz-adv-x="505" d="M291 15 L280 15 C242 15 216 41 216 80 L216 481 L416 481 L416 500 L216 500 L216 533 C216 638 324 709 370 709 C417 709 450 689 453 660 C455 633 500 630 500 660 C497 696 450 720 384 720 C255 720 169 650 169 544 C167 544 166 500 166 500 L45 500 L45 481 L166 481 L166 80 C166 41 140 15 102 15 L91 15 L91 0 L291 0 L291 15 L291 15 Z " />
<glyph glyph-name="g" unicode="g" horiz-adv-x="563" d="M563 500 L413 485 C379 498 339 505 293 505 C158 505 68 443 68 350 C68 277 124 223 214 203 C116 203 51 168 51 112 C51 67 97 34 171 23 C83 8 26 -43 26 -111 C26 -188 98 -239 207 -239 C408 -239 542 -163 542 -50 C542 21 460 69 336 69 C303 69 224 66 224 66 C140 66 84 92 84 131 C84 169 135 194 212 194 L293 194 C428 194 518 256 518 349 C518 398 493 439 449 466 L563 471 L563 500 L563 500 Z M294 205 C187 205 116 263 116 349 C116 435 187 493 294 493 C401 493 472 435 472 349 C472 263 401 205 294 205 L294 205 Z M195 20 C227 18 271 22 324 22 C434 22 508 -17 508 -75 C508 -166 391 -226 215 -226 C123 -226 61 -178 61 -106 C61 -39 114 10 196 21 L195 20 L195 20 Z " />
<glyph glyph-name="h" unicode="h" horiz-adv-x="717" d="M477 0 L677 0 L677 15 L666 15 C628 15 602 41 602 80 L602 336 C602 437 557 505 440 505 C362 505 255 476 170 432 L170 720 L160 720 L45 687 L45 678 L56 675 C110 664 120 651 120 597 L120 80 C120 41 94 15 56 15 L45 15 L45 0 L245 0 L245 15 L234 15 C196 15 170 41 170 80 L170 426 C225 453 316 471 401 471 C510 471 552 415 552 331 L552 80 C552 41 526 15 488 15 L477 15 L477 0 L477 0 Z " />
<glyph glyph-name="i" unicode="i" horiz-adv-x="290" d="M176 603 C176 647 109 648 109 603 C109 559 176 560 176 603 L176 603 Z M245 15 L234 15 C196 15 170 41 170 80 L170 500 L160 500 L45 467 L45 458 L56 455 C110 444 120 431 120 377 L120 80 C120 41 94 15 56 15 L45 15 L45 0 L245 0 L245 15 L245 15 Z " />
<glyph glyph-name="j" unicode="j" horiz-adv-x="309" d="M195 603 C195 647 128 648 128 603 C128 559 195 560 195 603 L195 603 Z M64 458 L75 455 C129 444 139 431 139 377 L139 8 C139 -103 99 -149 -23 -225 L-18 -232 C138 -135 190 -82 190 22 C189 24 189 487 189 487 L189 500 L179 500 L64 467 L64 458 L64 458 Z " />
<glyph glyph-name="k" unicode="k" horiz-adv-x="672" d="M608 500 L460 500 L460 485 L468 485 C494 485 470 459 408 420 L179 275 L179 720 L169 720 L54 687 L54 678 L65 675 C119 664 129 651 129 597 L129 80 C129 41 103 15 65 15 L54 15 L54 0 L254 0 L254 15 L243 15 C205 15 179 41 179 80 L179 275 L184 268 L186 269 L436 80 C487 41 503 15 475 15 L467 15 L467 0 L661 0 L661 15 L650 15 C612 15 553 41 503 80 L228 295 L440 427 C499 462 560 485 596 485 L607 485 L608 500 L608 500 Z " />
<glyph glyph-name="l" unicode="l" horiz-adv-x="290" d="M245 15 L234 15 C196 15 170 41 170 80 L170 720 L160 720 L45 687 L45 678 L56 675 C110 664 120 651 120 597 L120 80 C120 41 94 15 56 15 L45 15 L45 0 L245 0 L245 15 L245 15 Z " />
<glyph glyph-name="m" unicode="m" horiz-adv-x="1169" d="M929 0 L1129 0 L1129 15 L1118 15 C1080 15 1054 41 1054 80 L1054 336 C1054 437 981 505 884 505 C812 505 703 468 597 412 C571 470 515 506 446 506 C356 506 255 477 170 433 L170 501 L160 501 L45 468 L45 459 L56 456 C110 445 120 432 120 378 L120 81 C120 42 94 16 56 16 L45 16 L45 1 L245 1 L245 16 L234 16 C196 16 170 42 170 81 L170 427 C229 456 314 476 407 476 C495 476 562 418 562 332 L562 81 C562 42 536 16 498 16 L487 16 L487 1 L687 1 L687 16 L676 16 C638 16 612 42 612 81 L612 337 C612 362 608 385 600 405 C676 445 767 471 845 471 C936 471 1004 415 1004 331 L1004 80 C1004 41 978 15 940 15 L929 15 L929 0 L929 0 Z " />
<glyph glyph-name="n" unicode="n" horiz-adv-x="717" d="M477 0 L677 0 L677 15 L666 15 C628 15 602 41 602 80 L602 336 C602 437 557 505 440 505 C362 505 255 476 170 432 L170 500 L160 500 L45 467 L45 458 L56 455 C110 444 120 431 120 377 L120 80 C120 41 94 15 56 15 L45 15 L45 0 L245 0 L245 15 L234 15 C196 15 170 41 170 80 L170 426 C225 453 316 471 401 471 C510 471 552 415 552 331 L552 80 C552 41 526 15 488 15 L477 15 L477 0 L477 0 Z " />
<glyph glyph-name="o" unicode="o" horiz-adv-x="685" d="M106 250 C106 396 201 494 343 494 C485 494 580 396 580 250 C580 104 485 6 343 6 C201 6 106 104 106 250 L106 250 Z M50 250 C50 97 167 -5 343 -5 C518 -5 635 97 635 250 C635 403 518 505 343 505 C167 505 50 403 50 250 L50 250 Z " />
<glyph glyph-name="p" unicode="p" horiz-adv-x="730" d="M245 -215 L234 -215 C196 -215 170 -189 170 -150 L170 56 C211 18 282 -5 370 -5 C552 -5 674 100 674 258 C674 406 572 505 419 505 C318 505 219 470 169 416 L169 500 L159 500 L44 467 L44 458 L55 455 C109 444 119 431 119 377 L119 -150 C119 -189 93 -215 55 -215 L44 -215 L44 -230 L244 -230 L245 -215 L245 -215 Z M169 135 L169 408 C207 446 290 471 380 471 C526 471 624 370 624 219 C624 93 522 9 370 9 C256 9 176 59 169 135 L169 135 Z " />
<glyph glyph-name="q" unicode="q" horiz-adv-x="711" d="M369 504 C360 505 351 505 342 505 C351 505 360 505 369 504 L369 504 Z M666 -215 L655 -215 C617 -215 591 -189 591 -150 L591 500 L585 500 C580 486 566 476 549 476 C487 476 418 505 342 505 C176 505 65 393 65 225 C65 87 162 -5 307 -5 C402 -5 494 22 541 62 L541 -150 C541 -189 515 -215 477 -215 L466 -215 L466 -230 L666 -230 L666 -215 L666 -215 Z M541 71 C511 44 430 26 335 26 C204 26 117 113 117 244 C117 392 207 491 342 491 C461 491 541 441 541 367 L541 71 L541 71 Z " />
<glyph glyph-name="r" unicode="r" horiz-adv-x="511" d="M45 458 L56 455 C110 444 120 431 120 377 L120 80 C120 41 94 15 56 15 L45 15 L45 0 L245 0 L245 15 L234 15 C196 15 170 41 170 80 L170 411 C203 445 269 468 339 468 C380 468 436 446 477 446 C491 446 501 456 501 470 C501 491 467 505 379 505 C298 505 216 470 170 418 L170 500 L160 500 L45 467 L45 458 L45 458 Z " />
<glyph glyph-name="s" unicode="s" horiz-adv-x="519" d="M446 370 L446 461 L442 453 C442 455 445 458 446 461 C400 487 325 505 257 505 C142 505 65 454 65 378 C65 319 146 261 268 232 C363 210 427 164 427 118 C427 51 368 6 279 6 C270 6 186 9 186 13 C138 20 91 58 70 109 C67 117 62 127 59 135 L48 135 L48 34 C89 11 180 -5 276 -5 C392 -5 469 51 469 136 C469 192 403 245 304 268 C184 296 104 347 104 395 C104 454 165 494 257 494 C284 494 314 490 343 482 C380 473 412 439 425 398 C428 390 431 378 434 370 L446 370 L446 370 Z " />
<glyph glyph-name="t" unicode="t" horiz-adv-x="447" d="M416 500 L179 500 L179 640 L171 640 L133 496 L153 572 C141 526 90 493 25 488 L25 482 L129 482 L129 112 C129 22 157 -4 255 -4 C344 -4 392 16 427 45 L424 49 C402 30 364 18 280 18 C200 18 178 37 178 103 C178 217 179 482 179 482 L416 482 L416 500 L416 500 Z " />
<glyph glyph-name="u" unicode="u" horiz-adv-x="690" d="M15 485 L26 485 C64 485 90 459 90 420 L90 156 C90 59 157 -5 286 -5 C402 -5 477 22 522 62 L522 0 L532 0 L647 33 L647 42 L636 45 C582 56 572 69 572 123 L572 500 L447 500 L447 485 L458 485 C496 485 522 459 522 420 L522 70 C494 45 433 28 325 28 C203 28 140 81 140 161 L140 500 L15 500 L15 485 L15 485 Z " />
<glyph glyph-name="v" unicode="v" horiz-adv-x="695" d="M651 500 L491 500 L491 485 L501 485 C534 485 547 462 534 427 L360 43 L188 425 C173 461 185 485 219 485 L229 485 L229 500 L29 500 L29 485 L40 485 C78 485 116 459 134 420 L134 420 L336 -10 L344 -10 L550 429 C569 463 604 485 640 485 L651 485 L651 500 L651 500 Z " />
<glyph glyph-name="w" unicode="w" horiz-adv-x="1031" d="M242 500 L42 500 L42 485 C81 485 112 464 132 420 L132 420 L334 -10 L342 -10 L526 322 L682 -10 L690 -10 L896 429 C915 463 950 485 986 485 L997 485 L997 500 L807 500 L807 485 L840 485 C877 485 892 462 879 427 L705 43 L533 424 C518 461 533 485 571 485 L594 485 L594 500 L394 500 L394 485 C430 485 459 463 479 420 L479 420 C492 391 506 362 519 333 L360 41 C303 167 244 294 187 420 C169 459 183 485 222 485 L240 485 L242 500 L242 500 Z " />
<glyph glyph-name="x" unicode="x" horiz-adv-x="675" d="M40 0 L252 0 L252 15 L210 15 C173 15 167 38 194 73 L339 243 L490 80 C526 41 529 15 498 15 L489 15 L489 0 L661 0 L661 15 C628 15 594 35 556 75 L368 278 L506 428 C541 463 586 486 622 486 L633 486 L633 501 L452 501 L452 486 L474 486 C511 486 516 463 486 427 L361 287 L237 422 C201 461 203 487 242 487 L253 487 L253 502 L56 502 L56 487 C95 487 132 467 171 426 L330 254 C280 196 230 138 180 81 C146 42 98 16 59 16 L39 16 L40 0 L40 0 Z " />
<glyph glyph-name="y" unicode="y" horiz-adv-x="636" d="M651 500 L491 500 L491 485 L501 485 C534 485 547 462 534 427 L360 43 L188 425 C173 461 185 485 219 485 L229 485 L229 500 L29 500 L29 485 L40 485 C78 485 116 459 134 420 L134 420 L332 -2 C325 -13 311 -38 301 -66 C257 -160 222 -196 175 -196 C172 -196 70 -145 70 -193 C70 -215 100 -229 144 -229 C213 -229 260 -185 314 -71 C326 -37 343 -9 343 -9 L549 430 C568 464 603 486 639 486 L650 486 L651 500 L651 500 Z " />
<glyph glyph-name="z" unicode="z" horiz-adv-x="580" d="M527 161 L501 101 C479 47 429 11 375 11 L124 11 L530 500 L71 500 C61 470 52 429 43 398 L55 398 L66 412 C102 458 159 487 207 488 L463 489 L56 0 L518 0 L519 6 L518 6 C526 50 537 109 545 153 C539 156 527 161 527 161 L527 161 Z " />
<glyph glyph-name="braceleft" unicode="&#x7b;" horiz-adv-x="306" d="M291 -120 L291 -112 L262 -112 C180 -112 125 -50 125 44 L125 175 C125 228 91 264 39 270 C91 276 125 313 125 366 L125 496 C125 590 180 652 262 652 L291 652 L291 660 L251 660 C152 660 86 594 86 496 L86 338 C86 296 53 274 5 274 L5 266 C53 266 86 245 86 203 L86 44 C86 -54 152 -120 251 -120 L291 -120 L291 -120 Z " />
<glyph glyph-name="bar" unicode="&#x7c;" horiz-adv-x="159" d="M60 770 L60 -234 L99 -234 L99 770 L60 770 L60 770 Z " />
<glyph glyph-name="braceright" unicode="&#x7d;" horiz-adv-x="306" d="M5 660 L5 652 L34 652 C116 652 171 590 171 496 L171 365 C171 312 205 276 257 270 C205 264 171 227 171 174 L171 44 C171 -50 116 -112 34 -112 L5 -112 L5 -120 L45 -120 C144 -120 210 -54 210 44 L210 202 C210 244 243 266 291 266 L291 274 C243 274 210 295 210 337 L210 496 C210 594 144 660 45 660 L5 660 L5 660 Z " />
<glyph glyph-name="asciitilde" unicode="&#x7e;" horiz-adv-x="460" d="M21 310 C21 350 49 377 90 377 C170 377 277 314 357 314 C412 314 448 352 448 408 L440 408 C440 371 411 347 368 347 C288 347 181 410 101 410 C48 410 13 370 13 310 L21 310 L21 310 Z " />
<glyph glyph-name="nbspace" unicode="&#xa0;" horiz-adv-x="326" d="" />
<glyph glyph-name="exclamdown" unicode="&#xa1;" horiz-adv-x="184" d="M88 505 C66 505 52 491 52 469 C52 447 66 433 88 433 C110 433 124 447 124 469 C124 491 110 505 88 505 L88 505 Z M60 -120 C59 -147 71 -165 91 -165 C111 -165 124 -147 122 -120 C122 167 91 358 91 358 L85 358 C85 358 60 167 60 -120 L60 -120 Z " />
<glyph glyph-name="cent" unicode="&#xa2;" horiz-adv-x="572" d="M340 575 L340 504 C165 496 50 390 50 235 C50 91 144 -5 285 -5 C304 -5 322 -4 340 -3 L340 -75 L356 -75 L356 -2 C433 4 495 20 520 42 L516 48 C502 36 440 28 356 26 L356 492 C423 492 470 458 475 405 C476 390 486 380 500 380 C513 380 522 389 522 402 C517 466 450 507 357 506 L357 576 L340 575 L340 575 Z M341 26 C337 26 333 26 329 26 C195 26 105 118 105 255 C105 391 199 484 342 491 L341 26 L341 26 Z " />
<glyph glyph-name="guillemotleft" unicode="&#xab;" horiz-adv-x="617" d="M324 254 C366 279 447 336 570 459 L565 464 C438 337 355 286 306 266 C292 275 285 276 289 265 C289 265 286 263 280 260 C281 259 282 258 283 257 C259 250 248 253 248 253 L248 247 C248 247 292 243 289 236 C289 236 294 238 305 244 C398 184 565 37 565 37 L571 42 C571 42 399 200 323 255 L324 254 L324 254 Z M248 254 L248 248 C237 275 252 275 280 260 C273 257 262 254 248 254 L248 254 Z M94 255 C136 280 217 337 340 460 L335 465 C208 338 125 287 76 267 C62 276 55 277 59 266 C59 266 56 264 50 261 C51 260 52 259 53 258 C29 251 18 254 18 254 L18 248 C18 248 62 244 59 237 C59 237 64 239 75 245 C168 185 335 38 335 38 L341 43 C341 43 169 201 93 256 L94 255 L94 255 Z M18 255 L18 249 C7 276 22 276 50 261 C43 258 32 255 18 255 L18 255 Z " />
<glyph glyph-name="acute" unicode="&#xb4;" horiz-adv-x="460" d="M154 531 C154 531 233 620 264 660 C289 689 305 711 305 715 C305 721 285 735 277 735 C274 735 259 713 238 680 C207 640 148 535 148 535 L154 531 L154 531 Z " />
<glyph glyph-name="guillemotright" unicode="&#xbb;" horiz-adv-x="617" d="M51 36 C51 36 218 183 311 243 C322 237 327 235 327 235 C324 242 368 246 368 246 L368 252 C354 252 343 255 336 258 C364 273 379 273 368 246 L368 252 C368 252 357 249 333 256 C334 257 335 258 336 259 C330 262 327 264 327 264 C331 275 324 274 310 265 C261 285 178 336 51 463 L46 458 C169 335 250 278 292 253 C216 198 44 40 44 40 L51 36 L51 36 Z M279 35 C279 35 446 182 539 242 C550 236 555 234 555 234 C552 241 596 245 596 245 L596 251 C582 251 571 254 564 257 C592 272 607 272 596 245 L596 251 C596 251 585 248 561 255 C562 256 563 257 564 258 C558 261 555 263 555 263 C559 274 552 273 538 264 C489 284 406 335 279 462 L274 457 C397 334 478 277 520 252 C444 197 272 39 272 39 L279 35 L279 35 Z " />
<glyph glyph-name="onequarter" unicode="&#xbc;" horiz-adv-x="828" d="M240 631 C240 632 240 633 240 634 L241 634 L240 631 L240 631 Z M278 674 L219 674 L219 666 L218 666 L218 670 L160 670 L160 664 C177 664 188 660 195 648 L195 455 C195 433 180 423 158 423 L158 417 L195 417 L195 415 L237 415 L237 417 L277 417 L277 426 C255 426 240 436 240 459 L239 457 L237 457 L237 633 L241 633 C242 655 257 664 279 664 L278 674 L278 674 Z M132 -14 L720 656 L699 674 L110 4 L132 -14 L132 -14 Z M477 59 L477 59 L477 59 Z M464 68 L465 67 L465 59 L473 59 L473 58 L648 58 L648 6 L691 6 L691 58 L773 58 L773 77 L691 77 L691 297 L691 297 L690 299 L690 309 L685 309 L684 310 C680 308 636 285 462 67 L464 68 L464 68 Z M489 76 C521 116 597 210 649 262 C647 257 646 252 646 248 L646 75 L489 76 L489 76 Z " />
<glyph glyph-name="onehalf" unicode="&#xbd;" horiz-adv-x="828" d="M706 53 L569 53 C671 106 735 141 735 184 C735 230 694 261 632 261 C574 261 523 232 506 188 L512 185 C523 212 563 230 612 230 C658 230 689 206 689 171 C689 115 607 85 484 19 L484 10 L483 8 C484 9 485 10 486 11 L741 11 L745 54 L744 54 C745 68 746 82 747 94 L741 94 C741 71 727 57 706 57 C705 56 704 56 704 54 L706 53 L706 53 Z M238 632 C238 633 238 634 238 635 L239 635 L238 632 L238 632 Z M276 675 L217 675 L217 667 L216 667 L216 671 L158 671 L158 665 C175 665 186 661 193 649 L193 456 C193 434 178 424 156 424 L156 418 L193 418 L193 416 L235 416 L235 418 L275 418 L275 427 C253 427 238 437 238 460 L237 458 L235 458 L235 634 L239 634 C240 656 255 665 277 665 L276 675 L276 675 Z M130 -13 L718 657 L697 675 L108 5 L130 -13 L130 -13 Z M490 13 C493 15 496 17 499 19 C496 17 493 15 490 14 L490 13 L490 13 Z " />
<glyph glyph-name="threequarters" unicode="&#xbe;" horiz-adv-x="828" d="M109 340 C255 344 353 391 353 457 C353 498 319 527 265 533 C310 556 337 584 337 609 C337 646 299 671 242 671 C199 671 145 646 105 608 L109 604 C133 627 178 643 221 643 C265 643 295 625 295 598 C295 567 257 535 201 518 L201 513 C200 513 199 513 198 513 L198 506 C249 521 309 503 309 457 C309 397 230 355 111 352 L111 343 L109 340 L109 340 Z M130 -13 L718 657 L697 675 L108 5 L130 -13 L130 -13 Z M473 58 L473 58 L473 58 Z M460 67 L461 66 L461 58 L469 58 L469 57 L644 57 L644 5 L687 5 L687 57 L769 57 L769 76 L687 76 L687 296 L687 296 L686 298 L686 308 L681 308 L680 309 C676 307 632 284 458 66 L460 67 L460 67 Z M485 75 C517 115 593 209 645 261 C643 256 642 251 642 247 L642 74 L485 75 L485 75 Z " />
<glyph glyph-name="questiondown" unicode="&#xbf;" horiz-adv-x="463" d="M294 505 C272 505 258 491 258 469 C258 447 272 433 294 433 C316 433 330 447 330 469 C330 491 316 505 294 505 L294 505 Z M282 171 L247 171 C69 171 35 97 35 56 C35 -77 145 -165 309 -165 C377 -165 422 -138 422 -98 C422 -90 411 -85 394 -85 C364 -85 323 -126 293 -126 C145 -126 46 -56 46 50 C46 80 81 132 264 132 L299 132 C305 132 309 135 309 140 L297 353 L291 353 L282 171 L282 171 Z " />
<glyph glyph-name="Agrave" unicode="&#xc0;" horiz-adv-x="728" d="M3 0 L201 0 L201 15 L177 15 C132 15 112 43 126 86 L187 237 L499 237 L568 80 C585 41 570 15 531 15 L500 15 L500 0 L724 0 L724 15 C681 15 648 36 629 80 L629 80 L365 675 L351 675 L105 77 C88 40 53 15 15 15 L4 15 L3 0 L3 0 Z M276 875 C276 870 293 849 319 820 C351 780 432 691 432 691 L437 695 C437 695 376 799 344 840 C323 873 308 895 304 895 C296 895 276 881 276 875 L276 875 Z M494 250 L193 250 L338 608 L494 250 L494 250 Z " />
<glyph glyph-name="Aacute" unicode="&#xc1;" horiz-adv-x="728" d="M294 691 C294 691 373 780 404 820 C429 850 446 872 446 875 C446 881 426 895 417 895 C415 895 400 873 379 840 C348 800 289 695 289 695 L294 691 L294 691 Z M3 0 L201 0 L201 15 L177 15 C132 15 112 43 126 86 L187 237 L499 237 L568 80 C585 41 570 15 531 15 L500 15 L500 0 L724 0 L724 15 C681 15 648 36 629 80 L629 80 L365 675 L351 675 L105 77 C88 40 53 15 15 15 L4 15 L3 0 L3 0 Z M494 250 L193 250 L338 608 L494 250 L494 250 Z " />
<glyph glyph-name="Acircumflex" unicode="&#xc2;" horiz-adv-x="728" d="M3 0 L201 0 L201 15 L177 15 C132 15 112 43 126 86 L187 237 L499 237 L568 80 C585 41 570 15 531 15 L500 15 L500 0 L724 0 L724 15 C681 15 648 36 629 80 L629 80 L365 675 L351 675 L105 77 C88 40 53 15 15 15 L4 15 L3 0 L3 0 Z M374 891 C371 895 365 905 358 905 C351 905 345 895 342 891 C342 891 256 739 221 698 L226 693 C285 764 334 825 358 855 C396 807 490 693 490 693 L495 698 C495 698 408 821 374 891 L374 891 Z M494 250 L193 250 L338 608 L494 250 L494 250 Z " />
<glyph glyph-name="Atilde" unicode="&#xc3;" horiz-adv-x="728" d="M148 755 C148 795 176 822 217 822 C297 822 403 759 483 759 C538 759 575 797 575 853 L566 853 C566 816 537 792 494 792 C414 792 308 855 228 855 C175 855 139 815 139 755 L148 755 L148 755 Z M3 0 L201 0 L201 15 L177 15 C132 15 112 43 126 86 L187 237 L499 237 L568 80 C585 41 570 15 531 15 L500 15 L500 0 L724 0 L724 15 C681 15 648 36 629 80 L629 80 L365 675 L351 675 L105 77 C88 40 53 15 15 15 L4 15 L3 0 L3 0 Z M494 250 L193 250 L338 608 L494 250 L494 250 Z " />
<glyph glyph-name="Adieresis" unicode="&#xc4;" horiz-adv-x="728" d="M481 761 C481 800 420 801 420 761 C420 720 481 721 481 761 L481 761 Z M294 761 C294 801 233 800 233 761 C233 721 294 720 294 761 L294 761 Z M3 0 L201 0 L201 15 L177 15 C132 15 112 43 126 86 L187 237 L499 237 L568 80 C585 41 570 15 531 15 L500 15 L500 0 L724 0 L724 15 C681 15 648 36 629 80 L629 80 L365 675 L351 675 L105 77 C88 40 53 15 15 15 L4 15 L3 0 L3 0 Z M494 250 L193 250 L338 608 L494 250 L494 250 Z " />
<glyph glyph-name="Aring" unicode="&#xc5;" horiz-adv-x="728" d="M277 788 C277 837 309 869 357 869 C405 869 437 837 437 788 C437 744 400 706 357 706 C314 706 277 744 277 788 L277 788 Z M263 788 C263 738 306 695 357 695 C408 695 451 738 451 788 C451 843 413 880 357 880 C301 880 263 843 263 788 L263 788 Z M3 0 L201 0 L201 15 L177 15 C132 15 112 43 126 86 L187 237 L499 237 L568 80 C585 41 570 15 531 15 L500 15 L500 0 L724 0 L724 15 C681 15 648 36 629 80 L629 80 L365 675 L351 675 L105 77 C88 40 53 15 15 15 L4 15 L3 0 L3 0 Z M494 250 L193 250 L338 608 L494 250 L494 250 Z " />
<glyph glyph-name="Ccedilla" unicode="&#xc7;" horiz-adv-x="815" d="M755 465 L755 603 L752 597 C752 599 754 601 755 603 C691 640 569 665 452 665 C218 665 62 531 62 330 C62 131 216 -2 447 -4 C442 -12 420 -45 390 -92 L393 -94 C417 -85 457 -79 493 -79 C552 -79 592 -101 592 -134 C592 -176 548 -204 483 -204 C425 -204 377 -198 363 -190 L359 -195 C383 -209 437 -219 493 -219 C571 -219 623 -185 623 -134 C623 -95 575 -69 504 -69 C467 -69 425 -75 399 -85 C433 -35 457 -10 464 -3 C578 -2 694 23 756 59 L749 187 C740 185 731 176 739 185 C737 184 735 183 733 182 C732 174 731 165 729 159 C704 86 635 31 554 17 C521 13 487 11 453 11 C256 11 124 139 124 332 C124 525 256 653 453 653 C465 653 581 648 580 643 C645 633 705 578 730 505 C734 494 739 478 743 467 L755 465 L755 465 Z M734 182 C726 177 720 175 737 191 C736 188 735 185 734 182 L734 182 Z " />
<glyph glyph-name="Egrave" unicode="&#xc8;" horiz-adv-x="653" d="M224 875 C224 870 241 849 267 820 C299 780 380 691 380 691 L386 695 C386 695 325 799 293 840 C272 873 257 895 253 895 C244 895 224 881 224 875 L224 875 Z M473 260 L473 434 L461 434 L457 423 C445 385 404 359 353 359 L171 359 L171 646 L380 646 C440 646 493 606 513 546 L524 511 L535 511 L535 660 L40 660 L40 645 L51 645 C89 645 115 619 115 580 L115 80 C115 41 89 15 51 15 L40 15 L40 0 L541 0 L542 7 L541 7 C549 50 559 106 567 149 L556 149 L539 114 C508 54 448 14 388 14 L171 14 L171 345 L353 345 C404 345 445 316 457 273 L461 260 L473 260 L473 260 Z " />
<glyph glyph-name="Eacute" unicode="&#xc9;" horiz-adv-x="653" d="M291 691 C291 691 370 780 401 820 C426 849 442 871 442 875 C442 881 422 895 414 895 C411 895 396 873 375 840 C344 800 285 695 285 695 L291 691 L291 691 Z M473 260 L473 434 L461 434 L457 423 C445 385 404 359 353 359 L171 359 L171 646 L380 646 C440 646 493 606 513 546 L524 511 L535 511 L535 660 L40 660 L40 645 L51 645 C89 645 115 619 115 580 L115 80 C115 41 89 15 51 15 L40 15 L40 0 L541 0 L542 7 L541 7 C549 50 559 106 567 149 L556 149 L539 114 C508 54 448 14 388 14 L171 14 L171 345 L353 345 C404 345 445 316 457 273 L461 260 L473 260 L473 260 Z " />
<glyph glyph-name="Ecircumflex" unicode="&#xca;" horiz-adv-x="653" d="M338 891 C335 895 329 905 323 905 C317 905 310 895 307 891 C307 891 221 741 185 698 L190 693 C249 764 298 825 322 855 C360 808 455 693 455 693 L460 698 C460 698 371 823 338 891 L338 891 Z M473 260 L473 434 L461 434 L457 423 C445 385 404 359 353 359 L171 359 L171 646 L380 646 C440 646 493 606 513 546 L524 511 L535 511 L535 660 L40 660 L40 645 L51 645 C89 645 115 619 115 580 L115 80 C115 41 89 15 51 15 L40 15 L40 0 L541 0 L542 7 L541 7 C549 50 559 106 567 149 L556 149 L539 114 C508 54 448 14 388 14 L171 14 L171 345 L353 345 C404 345 445 316 457 273 L461 260 L473 260 L473 260 Z " />
<glyph glyph-name="Edieresis" unicode="&#xcb;" horiz-adv-x="653" d="M446 761 C446 801 385 800 385 761 C385 721 446 720 446 761 L446 761 Z M260 761 C260 800 199 801 199 761 C199 720 260 721 260 761 L260 761 Z M473 260 L473 434 L461 434 L457 423 C445 385 404 359 353 359 L171 359 L171 646 L380 646 C440 646 493 606 513 546 L524 511 L535 511 L535 660 L40 660 L40 645 L51 645 C89 645 115 619 115 580 L115 80 C115 41 89 15 51 15 L40 15 L40 0 L541 0 L542 7 L541 7 C549 50 559 106 567 149 L556 149 L539 114 C508 54 448 14 388 14 L171 14 L171 345 L353 345 C404 345 445 316 457 273 L461 260 L473 260 L473 260 Z " />
<glyph glyph-name="Igrave" unicode="&#xcc;" horiz-adv-x="286" d="M61 875 C61 870 78 849 104 820 C136 780 217 691 217 691 L222 695 C222 695 161 799 129 840 C108 873 93 895 89 895 C81 895 61 881 61 875 L61 875 Z M246 15 L235 15 C197 15 171 41 171 80 L171 580 C171 619 197 645 235 645 L246 645 L246 660 L40 660 L40 645 L51 645 C89 645 115 619 115 580 L115 80 C115 41 89 15 51 15 L40 15 L40 0 L246 0 L246 15 L246 15 Z " />
<glyph glyph-name="Iacute" unicode="&#xcd;" horiz-adv-x="286" d="M80 691 C80 691 159 780 190 820 C215 850 232 872 232 875 C232 881 212 895 203 895 C201 895 186 873 165 840 C134 800 75 695 75 695 L80 691 L80 691 Z M246 15 L235 15 C197 15 171 41 171 80 L171 580 C171 619 197 645 235 645 L246 645 L246 660 L40 660 L40 645 L51 645 C89 645 115 619 115 580 L115 80 C115 41 89 15 51 15 L40 15 L40 0 L246 0 L246 15 L246 15 Z " />
<glyph glyph-name="Icircumflex" unicode="&#xce;" horiz-adv-x="286" d="M159 891 C156 895 150 905 143 905 C136 905 130 895 127 891 C127 891 41 739 6 698 L11 693 C70 764 119 825 143 855 C181 807 275 693 275 693 L280 698 C280 698 193 821 159 891 L159 891 Z M246 15 L235 15 C197 15 171 41 171 80 L171 580 C171 619 197 645 235 645 L246 645 L246 660 L40 660 L40 645 L51 645 C89 645 115 619 115 580 L115 80 C115 41 89 15 51 15 L40 15 L40 0 L246 0 L246 15 L246 15 Z " />
<glyph glyph-name="Idieresis" unicode="&#xcf;" horiz-adv-x="286" d="M267 761 C267 800 206 801 206 761 C206 720 267 721 267 761 L267 761 Z M80 761 C80 801 19 800 19 761 C19 721 80 720 80 761 L80 761 Z M246 15 L235 15 C197 15 171 41 171 80 L171 580 C171 619 197 645 235 645 L246 645 L246 660 L40 660 L40 645 L51 645 C89 645 115 619 115 580 L115 80 C115 41 89 15 51 15 L40 15 L40 0 L246 0 L246 15 L246 15 Z " />
<glyph glyph-name="Ntilde" unicode="&#xd1;" horiz-adv-x="799" d="M192 755 C192 795 220 822 261 822 C341 822 447 759 527 759 C582 759 619 797 619 853 L610 853 C610 816 581 792 538 792 C458 792 352 855 272 855 C219 855 183 815 183 755 L192 755 L192 755 Z M43 645 L54 645 C92 645 118 619 118 580 L118 80 C118 41 92 15 54 15 L43 15 L43 0 L210 0 L210 15 L199 15 C161 15 135 41 135 80 L135 613 C313 405 492 198 669 -11 L683 -11 L683 580 C683 619 709 645 747 645 L758 645 L758 660 L591 660 L591 645 L602 645 C640 645 666 619 666 580 L666 77 L167 660 L42 660 L43 645 L43 645 Z " />
<glyph glyph-name="Ograve" unicode="&#xd2;" horiz-adv-x="856" d="M123 330 C123 503 229 651 434 651 C639 651 745 503 745 330 C745 157 639 9 434 9 C229 9 123 157 123 330 L123 330 Z M62 330 C62 149 188 -5 434 -5 C680 -5 806 149 806 330 C806 511 680 665 434 665 C188 665 62 511 62 330 L62 330 Z M352 875 C352 870 369 849 395 820 C427 780 508 691 508 691 L513 695 C513 695 452 799 420 840 C399 873 384 895 380 895 C372 895 352 881 352 875 L352 875 Z " />
<glyph glyph-name="Oacute" unicode="&#xd3;" horiz-adv-x="856" d="M409 691 C409 691 488 780 519 820 C544 850 561 872 561 875 C561 881 541 895 532 895 C530 895 515 873 494 840 C463 800 404 695 404 695 L409 691 L409 691 Z M123 330 C123 503 229 651 434 651 C639 651 745 503 745 330 C745 157 639 9 434 9 C229 9 123 157 123 330 L123 330 Z M62 330 C62 149 188 -5 434 -5 C680 -5 806 149 806 330 C806 511 680 665 434 665 C188 665 62 511 62 330 L62 330 Z " />
<glyph glyph-name="Ocircumflex" unicode="&#xd4;" horiz-adv-x="856" d="M123 330 C123 503 229 651 434 651 C639 651 745 503 745 330 C745 157 639 9 434 9 C229 9 123 157 123 330 L123 330 Z M62 330 C62 149 188 -5 434 -5 C680 -5 806 149 806 330 C806 511 680 665 434 665 C188 665 62 511 62 330 L62 330 Z M450 891 C447 895 441 905 434 905 C427 905 421 895 418 891 C418 891 332 739 297 698 L302 693 C361 764 410 825 434 855 C472 807 566 693 566 693 L571 698 C571 698 484 821 450 891 L450 891 Z " />
<glyph glyph-name="Otilde" unicode="&#xd5;" horiz-adv-x="856" d="M225 755 C225 795 253 822 294 822 C374 822 480 759 560 759 C615 759 652 797 652 853 L643 853 C643 816 614 792 571 792 C491 792 385 855 305 855 C252 855 216 815 216 755 L225 755 L225 755 Z M123 330 C123 503 229 651 434 651 C639 651 745 503 745 330 C745 157 639 9 434 9 C229 9 123 157 123 330 L123 330 Z M62 330 C62 149 188 -5 434 -5 C680 -5 806 149 806 330 C806 511 680 665 434 665 C188 665 62 511 62 330 L62 330 Z " />
<glyph glyph-name="Odieresis" unicode="&#xd6;" horiz-adv-x="856" d="M558 761 C558 800 497 801 497 761 C497 720 558 721 558 761 L558 761 Z M371 761 C371 801 310 800 310 761 C310 721 371 720 371 761 L371 761 Z M123 330 C123 503 229 651 434 651 C639 651 745 503 745 330 C745 157 639 9 434 9 C229 9 123 157 123 330 L123 330 Z M62 330 C62 149 188 -5 434 -5 C680 -5 806 149 806 330 C806 511 680 665 434 665 C188 665 62 511 62 330 L62 330 Z " />
<glyph glyph-name="Oslash" unicode="&#xd8;" horiz-adv-x="856" d="M70 -14 L173 79 C235 27 322 -5 434 -5 C680 -5 806 149 806 330 C806 420 775 504 713 565 L814 656 L798 674 L695 581 C633 633 546 665 434 665 C188 665 62 511 62 330 C62 240 93 156 155 95 L54 4 L70 -14 L70 -14 Z M666 555 L186 123 C144 179 123 252 123 330 C123 503 229 651 434 651 C536 651 614 614 666 555 L666 555 Z M681 536 C723 480 744 407 744 329 C744 156 638 8 433 8 C331 8 253 45 201 104 L681 536 L681 536 Z " />
<glyph glyph-name="Ugrave" unicode="&#xd9;" horiz-adv-x="784" d="M315 875 C315 870 332 849 358 820 C390 780 471 691 471 691 L477 695 C477 695 416 799 384 840 C363 873 348 895 344 895 C335 895 315 881 315 875 L315 875 Z M764 660 L572 660 L572 645 L587 645 C632 645 662 615 662 570 L662 188 C662 84 592 14 411 14 C239 14 172 89 172 202 L172 580 C172 619 198 645 236 645 L247 645 L247 660 L41 660 L41 645 L52 645 C90 645 116 619 116 580 L116 212 C116 82 196 -5 403 -5 C602 -5 679 70 679 182 L679 570 C679 615 708 645 751 645 L764 645 L764 660 L764 660 Z " />
<glyph glyph-name="Uacute" unicode="&#xda;" horiz-adv-x="784" d="M396 691 C396 691 475 780 506 820 C531 849 547 871 547 875 C547 881 527 895 519 895 C516 895 501 873 480 840 C449 800 390 695 390 695 L396 691 L396 691 Z M764 660 L572 660 L572 645 L587 645 C632 645 662 615 662 570 L662 188 C662 84 592 14 411 14 C239 14 172 89 172 202 L172 580 C172 619 198 645 236 645 L247 645 L247 660 L41 660 L41 645 L52 645 C90 645 116 619 116 580 L116 212 C116 82 196 -5 403 -5 C602 -5 679 70 679 182 L679 570 C679 615 708 645 751 645 L764 645 L764 660 L764 660 Z " />
<glyph glyph-name="Ucircumflex" unicode="&#xdb;" horiz-adv-x="784" d="M413 891 C410 895 404 905 398 905 C392 905 385 895 382 891 C382 891 296 741 260 698 L265 693 C324 764 373 825 397 855 C435 808 530 693 530 693 L535 698 C535 698 446 823 413 891 L413 891 Z M764 660 L572 660 L572 645 L587 645 C632 645 662 615 662 570 L662 188 C662 84 592 14 411 14 C239 14 172 89 172 202 L172 580 C172 619 198 645 236 645 L247 645 L247 660 L41 660 L41 645 L52 645 C90 645 116 619 116 580 L116 212 C116 82 196 -5 403 -5 C602 -5 679 70 679 182 L679 570 C679 615 708 645 751 645 L764 645 L764 660 L764 660 Z " />
<glyph glyph-name="Udieresis" unicode="&#xdc;" horiz-adv-x="784" d="M521 761 C521 801 460 800 460 761 C460 721 521 720 521 761 L521 761 Z M335 761 C335 800 274 801 274 761 C274 720 335 721 335 761 L335 761 Z M764 660 L572 660 L572 645 L587 645 C632 645 662 615 662 570 L662 188 C662 84 592 14 411 14 C239 14 172 89 172 202 L172 580 C172 619 198 645 236 645 L247 645 L247 660 L41 660 L41 645 L52 645 C90 645 116 619 116 580 L116 212 C116 82 196 -5 403 -5 C602 -5 679 70 679 182 L679 570 C679 615 708 645 751 645 L764 645 L764 660 L764 660 Z " />
<glyph glyph-name="Yacute" unicode="&#xdd;" horiz-adv-x="698" d="M354 691 C354 691 433 780 464 820 C489 850 506 872 506 875 C506 881 486 895 477 895 C475 895 460 873 439 840 C408 800 349 695 349 695 L354 691 L354 691 Z M225 660 L23 660 L23 645 C57 645 86 627 113 590 L327 258 L328 73 C325 38 300 15 264 15 L253 15 L253 0 L458 0 L458 15 L447 15 C409 15 383 41 383 80 L383 275 L589 580 C618 624 655 645 698 645 L698 660 L516 660 L516 645 L531 645 C582 645 593 611 559 560 L559 560 L378 289 L182 589 C163 623 174 645 210 645 L225 645 L225 660 L225 660 Z " />
<glyph glyph-name="agrave" unicode="&#xe0;" horiz-adv-x="580" d="M558 37 C544 23 529 14 506 14 C476 14 467 38 467 73 L467 359 C467 447 403 505 307 505 C174 505 78 465 66 406 L116 406 C126 458 198 492 295 492 C366 492 414 444 414 371 L414 253 C374 251 297 246 250 235 C122 203 36 150 36 103 C36 39 97 -4 189 -4 C277 -4 362 24 415 69 C415 22 427 -10 473 -10 C513 -10 540 6 564 30 L558 37 L558 37 Z M185 715 C185 710 202 689 228 660 C260 620 341 531 341 531 L347 535 C347 535 286 639 254 680 C233 713 218 735 214 735 C205 735 185 721 185 715 L185 715 Z M415 241 L415 78 C371 46 297 26 217 26 C138 26 86 62 86 115 C86 152 151 193 249 217 C302 230 377 237 415 240 L415 241 L415 241 Z " />
<glyph glyph-name="aacute" unicode="&#xe1;" horiz-adv-x="580" d="M235 531 C235 531 314 620 345 660 C370 689 386 711 386 715 C386 721 366 735 358 735 C355 735 340 713 319 680 C288 640 229 535 229 535 L235 531 L235 531 Z M558 37 C544 23 529 14 506 14 C476 14 467 38 467 73 L467 359 C467 447 403 505 307 505 C174 505 78 465 66 406 L116 406 C126 458 198 492 295 492 C366 492 414 444 414 371 L414 253 C374 251 297 246 250 235 C122 203 36 150 36 103 C36 39 97 -4 189 -4 C277 -4 362 24 415 69 C415 22 427 -10 473 -10 C513 -10 540 6 564 30 L558 37 L558 37 Z M415 241 L415 78 C371 46 297 26 217 26 C138 26 86 62 86 115 C86 152 151 193 249 217 C302 230 377 237 415 240 L415 241 L415 241 Z " />
<glyph glyph-name="acircumflex" unicode="&#xe2;" horiz-adv-x="580" d="M558 37 C544 23 529 14 506 14 C476 14 467 38 467 73 L467 359 C467 447 403 505 307 505 C174 505 78 465 66 406 L116 406 C126 458 198 492 295 492 C366 492 414 444 414 371 L414 253 C374 251 297 246 250 235 C122 203 36 150 36 103 C36 39 97 -4 189 -4 C277 -4 362 24 415 69 C415 22 427 -10 473 -10 C513 -10 540 6 564 30 L558 37 L558 37 Z M283 731 C280 735 274 745 268 745 C262 745 255 735 252 731 C252 731 166 581 130 538 L135 533 C194 604 243 665 267 695 C305 648 400 533 400 533 L405 538 C405 538 316 663 283 731 L283 731 Z M415 241 L415 78 C371 46 297 26 217 26 C138 26 86 62 86 115 C86 152 151 193 249 217 C302 230 377 237 415 240 L415 241 L415 241 Z " />
<glyph glyph-name="atilde" unicode="&#xe3;" horiz-adv-x="580" d="M57 595 C57 635 85 662 126 662 C206 662 313 599 393 599 C448 599 484 637 484 693 L476 693 C476 656 447 632 404 632 C324 632 217 695 137 695 C84 695 49 655 49 595 L57 595 L57 595 Z M558 37 C544 23 529 14 506 14 C476 14 467 38 467 73 L467 359 C467 447 403 505 307 505 C174 505 78 465 66 406 L116 406 C126 458 198 492 295 492 C366 492 414 444 414 371 L414 253 C374 251 297 246 250 235 C122 203 36 150 36 103 C36 39 97 -4 189 -4 C277 -4 362 24 415 69 C415 22 427 -10 473 -10 C513 -10 540 6 564 30 L558 37 L558 37 Z M415 241 L415 78 C371 46 297 26 217 26 C138 26 86 62 86 115 C86 152 151 193 249 217 C302 230 377 237 415 240 L415 241 L415 241 Z " />
<glyph glyph-name="adieresis" unicode="&#xe4;" horiz-adv-x="580" d="M390 601 C390 641 329 640 329 601 C329 561 390 560 390 601 L390 601 Z M204 601 C204 640 143 641 143 601 C143 560 204 561 204 601 L204 601 Z M558 37 C544 23 529 14 506 14 C476 14 467 38 467 73 L467 359 C467 447 403 505 307 505 C174 505 78 465 66 406 L116 406 C126 458 198 492 295 492 C366 492 414 444 414 371 L414 253 C374 251 297 246 250 235 C122 203 36 150 36 103 C36 39 97 -4 189 -4 C277 -4 362 24 415 69 C415 22 427 -10 473 -10 C513 -10 540 6 564 30 L558 37 L558 37 Z M415 241 L415 78 C371 46 297 26 217 26 C138 26 86 62 86 115 C86 152 151 193 249 217 C302 230 377 237 415 240 L415 241 L415 241 Z " />
<glyph glyph-name="aring" unicode="&#xe5;" horiz-adv-x="580" d="M186 628 C186 677 218 709 267 709 C315 709 347 677 347 628 C347 584 310 546 267 546 C223 546 186 584 186 628 L186 628 Z M172 628 C172 578 216 535 267 535 C318 535 361 578 361 628 C361 683 323 720 267 720 C210 720 172 683 172 628 L172 628 Z M558 37 C544 23 529 14 506 14 C476 14 467 38 467 73 L467 359 C467 447 403 505 307 505 C174 505 78 465 66 406 L116 406 C126 458 198 492 295 492 C366 492 414 444 414 371 L414 253 C374 251 297 246 250 235 C122 203 36 150 36 103 C36 39 97 -4 189 -4 C277 -4 362 24 415 69 C415 22 427 -10 473 -10 C513 -10 540 6 564 30 L558 37 L558 37 Z M415 241 L415 78 C371 46 297 26 217 26 C138 26 86 62 86 115 C86 152 151 193 249 217 C302 230 377 237 415 240 L415 241 L415 241 Z " />
<glyph glyph-name="ccedilla" unicode="&#xe7;" horiz-adv-x="572" d="M231 -86 C265 -36 289 -11 296 -4 C399 -3 488 15 520 42 L516 48 C500 35 425 26 327 26 C193 26 103 118 103 255 C103 397 205 492 358 492 C424 492 470 457 475 405 C476 390 486 380 500 380 C513 380 522 389 522 402 C517 464 453 506 363 506 C175 506 50 398 50 236 C50 94 142 -1 280 -3 C275 -11 253 -44 223 -91 L226 -93 C250 -84 290 -78 326 -78 C385 -78 425 -100 425 -133 C425 -175 381 -203 316 -203 C258 -203 210 -197 196 -189 L192 -194 C216 -208 270 -218 326 -218 C404 -218 456 -184 456 -133 C456 -94 408 -68 337 -68 C300 -68 258 -74 232 -84 L231 -86 L231 -86 Z " />
<glyph glyph-name="egrave" unicode="&#xe8;" horiz-adv-x="578" d="M482 363 L482 364 L481 324 L528 324 C528 433 444 505 319 505 C158 505 50 397 50 235 C50 91 145 -5 288 -5 C398 -5 493 13 526 41 L522 47 C506 34 429 25 330 25 C172 25 71 154 110 324 L480 324 L480 342 L481 363 C480 352 473 344 462 342 L112 334 C138 431 213 492 315 492 C415 492 481 442 481 367 C481 366 481 365 481 364 L482 363 L482 363 Z M236 716 C236 711 253 690 279 661 C311 621 392 532 392 532 L397 536 C397 536 336 640 304 681 C283 714 268 736 264 736 C256 736 236 722 236 716 L236 716 Z " />
<glyph glyph-name="eacute" unicode="&#xe9;" horiz-adv-x="578" d="M287 531 C287 531 366 620 397 660 C422 690 439 712 439 715 C439 721 419 735 410 735 C408 735 393 713 372 680 C341 640 282 535 282 535 L287 531 L287 531 Z M482 363 L482 364 L481 324 L528 324 C528 433 444 505 319 505 C158 505 50 397 50 235 C50 91 145 -5 288 -5 C398 -5 493 13 526 41 L522 47 C506 34 429 25 330 25 C172 25 71 154 110 324 L480 324 L480 342 L481 363 C480 352 473 344 462 342 L112 334 C138 431 213 492 315 492 C415 492 481 442 481 367 C481 366 481 365 481 364 L482 363 L482 363 Z " />
<glyph glyph-name="ecircumflex" unicode="&#xea;" horiz-adv-x="578" d="M482 363 L482 364 L481 324 L528 324 C528 433 444 505 319 505 C158 505 50 397 50 235 C50 91 145 -5 288 -5 C398 -5 493 13 526 41 L522 47 C506 34 429 25 330 25 C172 25 71 154 110 324 L480 324 L480 342 L481 363 C480 352 473 344 462 342 L112 334 C138 431 213 492 315 492 C415 492 481 442 481 367 C481 366 481 365 481 364 L482 363 L482 363 Z M334 732 C331 736 325 746 318 746 C311 746 305 736 302 732 C302 732 216 580 181 539 L186 534 C245 605 294 666 318 696 C356 648 450 534 450 534 L455 539 C455 539 368 662 334 732 L334 732 Z " />
<glyph glyph-name="edieresis" unicode="&#xeb;" horiz-adv-x="578" d="M443 601 C443 640 382 641 382 601 C382 560 443 561 443 601 L443 601 Z M256 601 C256 641 195 640 195 601 C195 561 256 560 256 601 L256 601 Z M482 363 L482 364 L481 324 L528 324 C528 433 444 505 319 505 C158 505 50 397 50 235 C50 91 145 -5 288 -5 C398 -5 493 13 526 41 L522 47 C506 34 429 25 330 25 C172 25 71 154 110 324 L480 324 L480 342 L481 363 C480 352 473 344 462 342 L112 334 C138 431 213 492 315 492 C415 492 481 442 481 367 C481 366 481 365 481 364 L482 363 L482 363 Z " />
<glyph glyph-name="igrave" unicode="&#xec;" horiz-adv-x="290" d="M63 715 C63 710 80 689 106 660 C138 620 219 531 219 531 L224 535 C224 535 163 639 131 680 C110 713 95 735 91 735 C83 735 63 721 63 715 L63 715 Z M245 15 L234 15 C196 15 170 41 170 80 L170 500 L160 500 L45 467 L45 458 L56 455 C110 444 120 431 120 377 L120 80 C120 41 94 15 56 15 L45 15 L45 0 L245 0 L245 15 L245 15 Z " />
<glyph glyph-name="iacute" unicode="&#xed;" horiz-adv-x="290" d="M67 531 C67 531 146 620 177 660 C202 690 219 712 219 715 C219 721 199 735 190 735 C188 735 173 713 152 680 C121 640 62 535 62 535 L67 531 L67 531 Z M245 15 L234 15 C196 15 170 41 170 80 L170 500 L160 500 L45 467 L45 458 L56 455 C110 444 120 431 120 377 L120 80 C120 41 94 15 56 15 L45 15 L45 0 L245 0 L245 15 L245 15 Z " />
<glyph glyph-name="icircumflex" unicode="&#xee;" horiz-adv-x="290" d="M161 731 C158 735 152 745 145 745 C138 745 132 735 129 731 C129 731 43 579 8 538 L13 533 C72 604 121 665 145 695 C183 647 277 533 277 533 L282 538 C282 538 195 661 161 731 L161 731 Z M245 15 L234 15 C196 15 170 41 170 80 L170 500 L160 500 L45 467 L45 458 L56 455 C110 444 120 431 120 377 L120 80 C120 41 94 15 56 15 L45 15 L45 0 L245 0 L245 15 L245 15 Z " />
<glyph glyph-name="idieresis" unicode="&#xef;" horiz-adv-x="290" d="M269 601 C269 640 208 641 208 601 C208 560 269 561 269 601 L269 601 Z M82 601 C82 641 21 640 21 601 C21 561 82 560 82 601 L82 601 Z M245 15 L234 15 C196 15 170 41 170 80 L170 500 L160 500 L45 467 L45 458 L56 455 C110 444 120 431 120 377 L120 80 C120 41 94 15 56 15 L45 15 L45 0 L245 0 L245 15 L245 15 Z " />
<glyph glyph-name="ntilde" unicode="&#xf1;" horiz-adv-x="717" d="M152 595 C152 635 180 662 221 662 C301 662 407 599 487 599 C542 599 579 637 579 693 L570 693 C570 656 541 632 498 632 C418 632 312 695 232 695 C179 695 143 655 143 595 L152 595 L152 595 Z M477 0 L677 0 L677 15 L666 15 C628 15 602 41 602 80 L602 336 C602 437 557 505 440 505 C362 505 255 476 170 432 L170 500 L160 500 L45 467 L45 458 L56 455 C110 444 120 431 120 377 L120 80 C120 41 94 15 56 15 L45 15 L45 0 L245 0 L245 15 L234 15 C196 15 170 41 170 80 L170 426 C225 453 316 471 401 471 C510 471 552 415 552 331 L552 80 C552 41 526 15 488 15 L477 15 L477 0 L477 0 Z " />
<glyph glyph-name="ograve" unicode="&#xf2;" horiz-adv-x="685" d="M106 250 C106 396 201 494 343 494 C485 494 580 396 580 250 C580 104 485 6 343 6 C201 6 106 104 106 250 L106 250 Z M50 250 C50 97 167 -5 343 -5 C518 -5 635 97 635 250 C635 403 518 505 343 505 C167 505 50 403 50 250 L50 250 Z M260 715 C260 710 277 689 303 660 C335 620 416 531 416 531 L422 535 C422 535 361 639 329 680 C308 713 293 735 289 735 C280 735 260 721 260 715 L260 715 Z " />
<glyph glyph-name="oacute" unicode="&#xf3;" horiz-adv-x="685" d="M311 531 C311 531 390 620 421 660 C446 689 462 711 462 715 C462 721 442 735 434 735 C431 735 416 713 395 680 C364 640 305 535 305 535 L311 531 L311 531 Z M106 250 C106 396 201 494 343 494 C485 494 580 396 580 250 C580 104 485 6 343 6 C201 6 106 104 106 250 L106 250 Z M50 250 C50 97 167 -5 343 -5 C518 -5 635 97 635 250 C635 403 518 505 343 505 C167 505 50 403 50 250 L50 250 Z " />
<glyph glyph-name="ocircumflex" unicode="&#xf4;" horiz-adv-x="685" d="M106 250 C106 396 201 494 343 494 C485 494 580 396 580 250 C580 104 485 6 343 6 C201 6 106 104 106 250 L106 250 Z M50 250 C50 97 167 -5 343 -5 C518 -5 635 97 635 250 C635 403 518 505 343 505 C167 505 50 403 50 250 L50 250 Z M358 731 C355 735 349 745 343 745 C337 745 330 735 327 731 C327 731 241 581 205 538 L210 533 C269 604 318 665 342 695 C380 648 475 533 475 533 L480 538 C480 538 391 663 358 731 L358 731 Z " />
<glyph glyph-name="otilde" unicode="&#xf5;" horiz-adv-x="685" d="M133 595 C133 635 161 662 202 662 C282 662 389 599 469 599 C524 599 560 637 560 693 L552 693 C552 656 523 632 480 632 C400 632 293 695 213 695 C160 695 125 655 125 595 L133 595 L133 595 Z M106 250 C106 396 201 494 343 494 C485 494 580 396 580 250 C580 104 485 6 343 6 C201 6 106 104 106 250 L106 250 Z M50 250 C50 97 167 -5 343 -5 C518 -5 635 97 635 250 C635 403 518 505 343 505 C167 505 50 403 50 250 L50 250 Z " />
<glyph glyph-name="odieresis" unicode="&#xf6;" horiz-adv-x="685" d="M466 601 C466 641 405 640 405 601 C405 561 466 560 466 601 L466 601 Z M280 601 C280 640 219 641 219 601 C219 560 280 561 280 601 L280 601 Z M106 250 C106 396 201 494 343 494 C485 494 580 396 580 250 C580 104 485 6 343 6 C201 6 106 104 106 250 L106 250 Z M50 250 C50 97 167 -5 343 -5 C518 -5 635 97 635 250 C635 403 518 505 343 505 C167 505 50 403 50 250 L50 250 Z " />
<glyph glyph-name="oslash" unicode="&#xf8;" horiz-adv-x="685" d="M55 -11 L137 60 C188 19 259 -5 344 -5 C519 -5 636 97 636 250 C636 324 609 386 561 430 L641 499 L631 511 L550 440 C499 481 428 505 344 505 C168 505 51 403 51 250 C51 176 78 114 126 70 L46 1 L55 -11 L55 -11 Z M524 418 L154 95 C124 136 107 189 107 250 C107 396 202 494 344 494 C420 494 482 466 524 418 L524 418 Z M534 406 C564 365 581 312 581 250 C581 104 486 6 344 6 C268 6 205 34 163 83 L534 406 L534 406 Z " />
<glyph glyph-name="ugrave" unicode="&#xf9;" horiz-adv-x="682" d="M249 715 C249 710 266 689 292 660 C324 620 405 531 405 531 L410 535 C410 535 349 639 317 680 C296 713 281 735 277 735 C269 735 249 721 249 715 L249 715 Z M15 485 L26 485 C64 485 90 459 90 420 L90 156 C90 59 157 -5 286 -5 C402 -5 477 22 522 62 L522 0 L532 0 L647 33 L647 42 L636 45 C582 56 572 69 572 123 L572 500 L447 500 L447 485 L458 485 C496 485 522 459 522 420 L522 70 C494 45 433 28 325 28 C203 28 140 81 140 161 L140 500 L15 500 L15 485 L15 485 Z " />
<glyph glyph-name="uacute" unicode="&#xfa;" horiz-adv-x="682" d="M299 531 C299 531 378 620 409 660 C434 690 451 712 451 715 C451 721 431 735 422 735 C420 735 405 713 384 680 C353 640 294 535 294 535 L299 531 L299 531 Z M15 485 L26 485 C64 485 90 459 90 420 L90 156 C90 59 157 -5 286 -5 C402 -5 477 22 522 62 L522 0 L532 0 L647 33 L647 42 L636 45 C582 56 572 69 572 123 L572 500 L447 500 L447 485 L458 485 C496 485 522 459 522 420 L522 70 C494 45 433 28 325 28 C203 28 140 81 140 161 L140 500 L15 500 L15 485 L15 485 Z " />
<glyph glyph-name="ucircumflex" unicode="&#xfb;" horiz-adv-x="682" d="M347 731 C344 735 338 745 331 745 C324 745 318 735 315 731 C315 731 229 579 194 538 L199 533 C258 604 307 665 331 695 C369 647 463 533 463 533 L468 538 C468 538 381 661 347 731 L347 731 Z M15 485 L26 485 C64 485 90 459 90 420 L90 156 C90 59 157 -5 286 -5 C402 -5 477 22 522 62 L522 0 L532 0 L647 33 L647 42 L636 45 C582 56 572 69 572 123 L572 500 L447 500 L447 485 L458 485 C496 485 522 459 522 420 L522 70 C494 45 433 28 325 28 C203 28 140 81 140 161 L140 500 L15 500 L15 485 L15 485 Z " />
<glyph glyph-name="udieresis" unicode="&#xfc;" horiz-adv-x="682" d="M455 601 C455 640 394 641 394 601 C394 560 455 561 455 601 L455 601 Z M268 601 C268 641 207 640 207 601 C207 561 268 560 268 601 L268 601 Z M15 485 L26 485 C64 485 90 459 90 420 L90 156 C90 59 157 -5 286 -5 C402 -5 477 22 522 62 L522 0 L532 0 L647 33 L647 42 L636 45 C582 56 572 69 572 123 L572 500 L447 500 L447 485 L458 485 C496 485 522 459 522 420 L522 70 C494 45 433 28 325 28 C203 28 140 81 140 161 L140 500 L15 500 L15 485 L15 485 Z " />
<glyph glyph-name="ydieresis" unicode="&#xff;" horiz-adv-x="572" d="M439 601 C439 641 378 640 378 601 C378 561 439 560 439 601 L439 601 Z M253 601 C253 640 192 641 192 601 C192 560 253 561 253 601 L253 601 Z M627 500 L467 500 L467 485 L477 485 C510 485 523 462 510 427 L336 43 L164 425 C149 461 161 485 195 485 L205 485 L205 500 L5 500 L5 485 L16 485 C54 485 92 459 110 420 L110 420 L308 -2 C301 -13 287 -38 277 -66 C233 -160 198 -196 151 -196 C148 -196 46 -145 46 -193 C46 -215 76 -229 120 -229 C189 -229 236 -185 290 -71 C302 -37 319 -9 319 -9 L525 430 C544 464 579 486 615 486 L626 486 L627 500 L627 500 Z " />
<glyph glyph-name="Amacron" unicode="&#x100;" horiz-adv-x="728" d="M159 770 L555 770 L555 798 L159 798 L159 770 L159 770 Z M3 0 L201 0 L201 15 L177 15 C132 15 112 43 126 86 L187 237 L499 237 L568 80 C585 41 570 15 531 15 L500 15 L500 0 L724 0 L724 15 C681 15 648 36 629 80 L629 80 L365 675 L351 675 L105 77 C88 40 53 15 15 15 L4 15 L3 0 L3 0 Z M494 250 L193 250 L338 608 L494 250 L494 250 Z " />
<glyph glyph-name="amacron" unicode="&#x101;" horiz-adv-x="580" d="M68 610 L465 610 L465 638 L68 638 L68 610 L68 610 Z M558 37 C544 23 529 14 506 14 C476 14 467 38 467 73 L467 359 C467 447 403 505 307 505 C174 505 78 465 66 406 L116 406 C126 458 198 492 295 492 C366 492 414 444 414 371 L414 253 C374 251 297 246 250 235 C122 203 36 150 36 103 C36 39 97 -4 189 -4 C277 -4 362 24 415 69 C415 22 427 -10 473 -10 C513 -10 540 6 564 30 L558 37 L558 37 Z M415 241 L415 78 C371 46 297 26 217 26 C138 26 86 62 86 115 C86 152 151 193 249 217 C302 230 377 237 415 240 L415 241 L415 241 Z " />
<glyph glyph-name="Abreve" unicode="&#x102;" horiz-adv-x="728" d="M193 872 C204 810 270 768 357 768 C445 768 511 809 522 871 L513 873 C505 830 443 801 357 801 C271 801 209 830 201 873 L193 872 L193 872 Z M3 0 L201 0 L201 15 L177 15 C132 15 112 43 126 86 L187 237 L499 237 L568 80 C585 41 570 15 531 15 L500 15 L500 0 L724 0 L724 15 C681 15 648 36 629 80 L629 80 L365 675 L351 675 L105 77 C88 40 53 15 15 15 L4 15 L3 0 L3 0 Z M494 250 L193 250 L338 608 L494 250 L494 250 Z " />
<glyph glyph-name="abreve" unicode="&#x103;" horiz-adv-x="580" d="M102 682 C113 620 179 578 267 578 C355 578 420 619 431 681 L422 683 C414 640 352 611 267 611 C181 611 119 640 111 683 L102 682 L102 682 Z M558 37 C544 23 529 14 506 14 C476 14 467 38 467 73 L467 359 C467 447 403 505 307 505 C174 505 78 465 66 406 L116 406 C126 458 198 492 295 492 C366 492 414 444 414 371 L414 253 C374 251 297 246 250 235 C122 203 36 150 36 103 C36 39 97 -4 189 -4 C277 -4 362 24 415 69 C415 22 427 -10 473 -10 C513 -10 540 6 564 30 L558 37 L558 37 Z M415 241 L415 78 C371 46 297 26 217 26 C138 26 86 62 86 115 C86 152 151 193 249 217 C302 230 377 237 415 240 L415 241 L415 241 Z " />
<glyph glyph-name="Aogonek" unicode="&#x104;" horiz-adv-x="728" d="M3 0 L201 0 L201 15 L177 15 C132 15 112 43 126 86 L187 237 L499 237 L568 80 C585 41 570 15 531 15 L500 15 L500 0 L581 0 C533 -29 460 -97 460 -156 C460 -202 501 -233 563 -233 C595 -233 627 -220 644 -200 L640 -195 C628 -209 602 -219 574 -219 C524 -219 491 -192 491 -151 C491 -85 569 -12 603 0 L724 0 L724 15 C681 15 648 36 629 80 L629 80 L365 675 L351 675 L105 77 C88 40 53 15 15 15 L4 15 L3 0 L3 0 Z M494 250 L193 250 L338 608 L494 250 L494 250 Z " />
<glyph glyph-name="aogonek" unicode="&#x105;" horiz-adv-x="580" d="M520 15 C480 8 467 32 467 73 L467 359 C467 447 403 505 307 505 C174 505 78 465 66 406 L116 406 C126 458 198 492 295 492 C366 492 414 444 414 371 L414 253 C374 251 297 246 250 235 C122 203 36 150 36 103 C36 39 97 -4 189 -4 C277 -4 362 24 415 69 C415 14 435 -16 493 -7 C456 -42 421 -90 421 -134 C421 -192 462 -231 524 -231 C556 -231 588 -218 605 -198 L601 -193 C589 -207 563 -217 535 -217 C485 -217 452 -181 452 -128 C452 -80 486 -30 519 1 C536 8 550 19 563 32 L563 43 C552 39 537 30 521 18 L520 15 L520 15 Z M415 244 L415 81 C371 49 297 29 217 29 C138 29 86 65 86 118 C86 155 151 196 249 220 C302 233 377 240 415 243 L415 244 L415 244 Z " />
<glyph glyph-name="Cacute" unicode="&#x106;" horiz-adv-x="815" d="M404 691 C404 691 483 780 514 820 C539 850 556 872 556 875 C556 881 536 895 527 895 C525 895 510 873 489 840 C458 800 399 695 399 695 L404 691 L404 691 Z M755 465 L755 603 L752 597 C752 599 754 601 755 603 C691 640 569 665 452 665 C218 665 62 531 62 330 C62 129 218 -5 452 -5 C569 -5 691 20 755 57 L748 185 C739 183 730 174 738 183 C736 182 734 181 732 180 C731 172 730 163 728 157 C703 84 634 29 553 15 C520 11 486 9 452 9 C255 9 123 137 123 330 C123 523 255 651 452 651 C464 651 580 646 579 641 C644 631 704 576 729 503 C733 492 738 476 742 465 L755 465 L755 465 Z M733 180 C725 175 719 173 736 189 C735 186 734 183 733 180 L733 180 Z " />
<glyph glyph-name="cacute" unicode="&#x107;" horiz-adv-x="572" d="M285 531 C285 531 364 620 395 660 C420 690 437 712 437 715 C437 721 417 735 408 735 C406 735 391 713 370 680 C339 640 280 535 280 535 L285 531 L285 531 Z M520 41 L516 47 C500 34 425 25 327 25 C193 25 103 117 103 254 C103 396 205 491 358 491 C424 491 470 456 475 404 C476 389 486 379 500 379 C513 379 522 388 522 401 C517 463 453 505 363 505 C175 505 50 397 50 235 C50 91 144 -5 285 -5 C393 -5 487 13 520 41 L520 41 Z " />
<glyph glyph-name="Ccircumflex" unicode="&#x108;" horiz-adv-x="815" d="M468 891 C465 895 459 905 452 905 C445 905 439 895 436 891 C436 891 350 739 315 698 L320 693 C379 764 428 825 452 855 C490 807 584 693 584 693 L589 698 C589 698 502 821 468 891 L468 891 Z M755 465 L755 603 L752 597 C752 599 754 601 755 603 C691 640 569 665 452 665 C218 665 62 531 62 330 C62 129 218 -5 452 -5 C569 -5 691 20 755 57 L748 185 C739 183 730 174 738 183 C736 182 734 181 732 180 C731 172 730 163 728 157 C703 84 634 29 553 15 C520 11 486 9 452 9 C255 9 123 137 123 330 C123 523 255 651 452 651 C464 651 580 646 579 641 C644 631 704 576 729 503 C733 492 738 476 742 465 L755 465 L755 465 Z M733 180 C725 175 719 173 736 189 C735 186 734 183 733 180 L733 180 Z " />
<glyph glyph-name="Cdot" unicode="&#x10a;" horiz-adv-x="815" d="M483 761 C483 800 421 800 421 761 C421 720 483 720 483 761 L483 761 Z M755 465 L755 603 L752 597 C752 599 754 601 755 603 C691 640 569 665 452 665 C218 665 62 531 62 330 C62 129 218 -5 452 -5 C569 -5 691 20 755 57 L748 185 C739 183 730 174 738 183 C736 182 734 181 732 180 C731 172 730 163 728 157 C703 84 634 29 553 15 C520 11 486 9 452 9 C255 9 123 137 123 330 C123 523 255 651 452 651 C464 651 580 646 579 641 C644 631 704 576 729 503 C733 492 738 476 742 465 L755 465 L755 465 Z M733 180 C725 175 719 173 736 189 C735 186 734 183 733 180 L733 180 Z " />
<glyph glyph-name="cdot" unicode="&#x10b;" horiz-adv-x="572" d="M394 601 C394 640 332 640 332 601 C332 560 394 560 394 601 L394 601 Z M520 41 L516 47 C500 34 425 25 327 25 C193 25 103 117 103 254 C103 396 205 491 358 491 C424 491 470 456 475 404 C476 389 486 379 500 379 C513 379 522 388 522 401 C517 463 453 505 363 505 C175 505 50 397 50 235 C50 91 144 -5 285 -5 C393 -5 487 13 520 41 L520 41 Z " />
<glyph glyph-name="Ccaron" unicode="&#x10c;" horiz-adv-x="815" d="M584 927 C584 927 490 813 452 765 C428 795 379 856 320 927 L315 922 C350 881 436 729 436 729 C439 725 445 715 452 715 C459 715 465 725 468 729 C502 799 589 922 589 922 L584 927 L584 927 Z M755 465 L755 603 L752 597 C752 599 754 601 755 603 C691 640 569 665 452 665 C218 665 62 531 62 330 C62 129 218 -5 452 -5 C569 -5 691 20 755 57 L748 185 C739 183 730 174 738 183 C736 182 734 181 732 180 C731 172 730 163 728 157 C703 84 634 29 553 15 C520 11 486 9 452 9 C255 9 123 137 123 330 C123 523 255 651 452 651 C464 651 580 646 579 641 C644 631 704 576 729 503 C733 492 738 476 742 465 L755 465 L755 465 Z M733 180 C725 175 719 173 736 189 C735 186 734 183 733 180 L733 180 Z " />
<glyph glyph-name="ccaron" unicode="&#x10d;" horiz-adv-x="572" d="M495 767 C495 767 401 653 363 605 C339 635 290 696 231 767 L226 762 C261 721 347 569 347 569 C350 565 356 555 363 555 C370 555 376 565 379 569 C413 639 500 762 500 762 L495 767 L495 767 Z M520 41 L516 47 C500 34 425 25 327 25 C193 25 103 117 103 254 C103 396 205 491 358 491 C424 491 470 456 475 404 C476 389 486 379 500 379 C513 379 522 388 522 401 C517 463 453 505 363 505 C175 505 50 397 50 235 C50 91 144 -5 285 -5 C393 -5 487 13 520 41 L520 41 Z " />
<glyph glyph-name="Dcaron" unicode="&#x10e;" horiz-adv-x="788" d="M537 927 C537 927 442 812 404 765 C380 795 331 856 272 927 L267 922 C303 879 389 729 389 729 C392 725 399 715 405 715 C411 715 417 725 420 729 C453 797 542 922 542 922 L537 927 L537 927 Z M51 645 L62 645 C100 645 126 619 126 580 L126 80 C126 41 100 15 62 15 L51 15 L51 0 L426 0 C613 0 738 132 738 330 C738 528 589 660 365 660 L51 660 L51 645 L51 645 Z M182 14 L182 646 L365 646 C556 646 683 520 683 330 C683 140 580 14 426 14 L182 14 L182 14 Z " />
<glyph glyph-name="dcaron" unicode="&#x10f;" horiz-adv-x="692" d="M725 753 C715 753 693 691 680 646 L630 484 L637 481 L711 634 C739 690 757 737 757 741 C757 750 735 753 725 753 L725 753 Z M457 678 L468 675 C522 664 532 651 532 597 L532 429 C494 473 415 506 323 506 C162 506 55 394 55 226 C55 88 155 -4 304 -4 C397 -4 486 21 532 60 L532 0 L542 0 L657 33 L657 42 L646 45 C592 56 582 69 582 123 L582 720 L572 720 L457 687 L457 678 L457 678 Z M532 67 C503 42 423 25 330 25 C196 25 106 112 106 243 C106 391 192 490 320 490 C419 490 502 452 531 405 L532 67 L532 67 Z " />
<glyph glyph-name="Emacron" unicode="&#x112;" horiz-adv-x="653" d="M124 770 L521 770 L521 798 L124 798 L124 770 L124 770 Z M473 260 L473 434 L461 434 L457 423 C445 385 404 359 353 359 L171 359 L171 646 L380 646 C440 646 493 606 513 546 L524 511 L535 511 L535 660 L40 660 L40 645 L51 645 C89 645 115 619 115 580 L115 80 C115 41 89 15 51 15 L40 15 L40 0 L541 0 L542 7 L541 7 C549 50 559 106 567 149 L556 149 L539 114 C508 54 448 14 388 14 L171 14 L171 345 L353 345 C404 345 445 316 457 273 L461 260 L473 260 L473 260 Z " />
<glyph glyph-name="emacron" unicode="&#x113;" horiz-adv-x="578" d="M121 610 L517 610 L517 638 L121 638 L121 610 L121 610 Z M482 363 L482 364 L481 324 L528 324 C528 433 444 505 319 505 C158 505 50 397 50 235 C50 91 145 -5 288 -5 C398 -5 493 13 526 41 L522 47 C506 34 429 25 330 25 C172 25 71 154 110 324 L480 324 L480 342 L481 363 C480 352 473 344 462 342 L112 334 C138 431 213 492 315 492 C415 492 481 442 481 367 C481 366 481 365 481 364 L482 363 L482 363 Z " />
<glyph glyph-name="Ebreve" unicode="&#x114;" horiz-adv-x="653" d="M158 872 C169 810 235 768 323 768 C411 768 476 809 487 871 L478 873 C470 830 408 801 323 801 C237 801 175 830 167 873 L158 872 L158 872 Z M473 260 L473 434 L461 434 L457 423 C445 385 404 359 353 359 L171 359 L171 646 L380 646 C440 646 493 606 513 546 L524 511 L535 511 L535 660 L40 660 L40 645 L51 645 C89 645 115 619 115 580 L115 80 C115 41 89 15 51 15 L40 15 L40 0 L541 0 L542 7 L541 7 C549 50 559 106 567 149 L556 149 L539 114 C508 54 448 14 388 14 L171 14 L171 345 L353 345 C404 345 445 316 457 273 L461 260 L473 260 L473 260 Z " />
<glyph glyph-name="ebreve" unicode="&#x115;" horiz-adv-x="578" d="M155 712 C166 650 232 608 319 608 C407 608 473 649 484 711 L475 713 C467 670 405 641 319 641 C233 641 171 670 163 713 L155 712 L155 712 Z M482 363 L482 364 L481 324 L528 324 C528 433 444 505 319 505 C158 505 50 397 50 235 C50 91 145 -5 288 -5 C398 -5 493 13 526 41 L522 47 C506 34 429 25 330 25 C172 25 71 154 110 324 L480 324 L480 342 L481 363 C480 352 473 344 462 342 L112 334 C138 431 213 492 315 492 C415 492 481 442 481 367 C481 366 481 365 481 364 L482 363 L482 363 Z " />
<glyph glyph-name="Edot" unicode="&#x116;" horiz-adv-x="653" d="M353 761 C353 801 292 800 292 761 C292 721 353 720 353 761 L353 761 Z M473 260 L473 434 L461 434 L457 423 C445 385 404 359 353 359 L171 359 L171 646 L380 646 C440 646 493 606 513 546 L524 511 L535 511 L535 660 L40 660 L40 645 L51 645 C89 645 115 619 115 580 L115 80 C115 41 89 15 51 15 L40 15 L40 0 L541 0 L542 7 L541 7 C549 50 559 106 567 149 L556 149 L539 114 C508 54 448 14 388 14 L171 14 L171 345 L353 345 C404 345 445 316 457 273 L461 260 L473 260 L473 260 Z " />
<glyph glyph-name="edot" unicode="&#x117;" horiz-adv-x="578" d="M350 601 C350 640 288 640 288 601 C288 560 350 560 350 601 L350 601 Z M482 363 L482 364 L481 324 L528 324 C528 433 444 505 319 505 C158 505 50 397 50 235 C50 91 145 -5 288 -5 C398 -5 493 13 526 41 L522 47 C506 34 429 25 330 25 C172 25 71 154 110 324 L480 324 L480 342 L481 363 C480 352 473 344 462 342 L112 334 C138 431 213 492 315 492 C415 492 481 442 481 367 C481 366 481 365 481 364 L482 363 L482 363 Z " />
<glyph glyph-name="Eogonek" unicode="&#x118;" horiz-adv-x="653" d="M473 260 L473 434 L461 434 L457 423 C445 385 404 359 353 359 L171 359 L171 646 L380 646 C440 646 493 606 513 546 L524 511 L535 511 L535 660 L40 660 L40 645 L51 645 C89 645 115 619 115 580 L115 80 C115 41 89 15 51 15 L40 15 L40 0 L517 0 C469 -29 396 -97 396 -156 C396 -202 437 -233 499 -233 C531 -233 563 -220 580 -200 L576 -195 C564 -209 538 -219 510 -219 C460 -219 427 -192 427 -151 C427 -85 505 -12 539 0 L541 0 L542 7 L541 7 C549 50 559 106 567 149 L556 149 L539 114 C508 54 448 14 388 14 L171 14 L171 345 L353 345 C404 345 445 316 457 273 L461 260 L473 260 L473 260 Z " />
<glyph glyph-name="eogonek" unicode="&#x119;" horiz-adv-x="578" d="M482 364 L481 342 C481 349 481 357 481 364 L482 364 L482 364 Z M462 341 L112 333 C138 430 213 491 315 491 C415 491 481 441 481 366 C481 353 474 344 462 342 L462 341 L462 341 Z M110 324 L527 324 C527 433 443 505 318 505 C157 505 49 397 49 235 C49 91 144 -5 287 -5 C303 -5 318 -5 333 -4 C285 -34 215 -101 215 -158 C215 -204 256 -234 318 -234 C350 -234 382 -221 399 -201 L395 -196 C383 -210 357 -220 329 -220 C279 -220 246 -193 246 -153 C246 -88 322 -17 357 -4 C436 2 500 18 526 40 L522 46 C506 33 429 24 330 24 C172 24 71 153 110 323 L110 324 L110 324 Z " />
<glyph glyph-name="Ecaron" unicode="&#x11a;" horiz-adv-x="653" d="M455 927 C455 927 360 812 322 765 C298 795 249 856 190 927 L185 922 C221 879 307 729 307 729 C310 725 317 715 323 715 C329 715 335 725 338 729 C371 797 460 922 460 922 L455 927 L455 927 Z M473 260 L473 434 L461 434 L457 423 C445 385 404 359 353 359 L171 359 L171 646 L380 646 C440 646 493 606 513 546 L524 511 L535 511 L535 660 L40 660 L40 645 L51 645 C89 645 115 619 115 580 L115 80 C115 41 89 15 51 15 L40 15 L40 0 L541 0 L542 7 L541 7 C549 50 559 106 567 149 L556 149 L539 114 C508 54 448 14 388 14 L171 14 L171 345 L353 345 C404 345 445 316 457 273 L461 260 L473 260 L473 260 Z " />
<glyph glyph-name="ecaron" unicode="&#x11b;" horiz-adv-x="578" d="M451 767 C451 767 357 653 319 605 C295 635 246 696 187 767 L182 762 C217 721 303 569 303 569 C306 565 312 555 319 555 C326 555 332 565 335 569 C369 639 456 762 456 762 L451 767 L451 767 Z M482 363 L482 364 L481 324 L528 324 C528 433 444 505 319 505 C158 505 50 397 50 235 C50 91 145 -5 288 -5 C398 -5 493 13 526 41 L522 47 C506 34 429 25 330 25 C172 25 71 154 110 324 L480 324 L480 342 L481 363 C480 352 473 344 462 342 L112 334 C138 431 213 492 315 492 C415 492 481 442 481 367 C481 366 481 365 481 364 L482 363 L482 363 Z " />
<glyph glyph-name="Gcircumflex" unicode="&#x11c;" horiz-adv-x="911" d="M457 891 C454 895 448 905 441 905 C434 905 428 895 425 891 C425 891 339 739 304 698 L309 693 C368 764 417 825 441 855 C479 807 573 693 573 693 L578 698 C578 698 491 821 457 891 L457 891 Z M735 465 L735 603 L732 597 C732 599 734 601 735 603 C671 640 553 665 441 665 C214 665 62 531 62 330 C62 129 214 -5 441 -5 C557 -5 677 20 741 57 L741 230 C741 269 767 295 805 295 L816 295 L816 310 L616 310 L616 295 L627 295 C665 295 691 269 691 230 L691 50 C626 25 532 9 441 9 C250 9 123 137 123 330 C123 523 250 651 441 651 C451 651 558 646 557 642 C622 632 683 577 708 503 C712 492 717 476 721 465 L735 465 L735 465 Z " />
<glyph glyph-name="Gbreve" unicode="&#x11e;" horiz-adv-x="911" d="M277 872 C288 810 354 768 441 768 C529 768 595 809 606 871 L597 873 C589 830 527 801 441 801 C355 801 293 830 285 873 L277 872 L277 872 Z M735 465 L735 603 L732 597 C732 599 734 601 735 603 C671 640 553 665 441 665 C214 665 62 531 62 330 C62 129 214 -5 441 -5 C557 -5 677 20 741 57 L741 230 C741 269 767 295 805 295 L816 295 L816 310 L616 310 L616 295 L627 295 C665 295 691 269 691 230 L691 50 C626 25 532 9 441 9 C250 9 123 137 123 330 C123 523 250 651 441 651 C451 651 558 646 557 642 C622 632 683 577 708 503 C712 492 717 476 721 465 L735 465 L735 465 Z " />
<glyph glyph-name="gbreve" unicode="&#x11f;" horiz-adv-x="563" d="M130 712 C141 650 207 608 294 608 C382 608 448 649 459 711 L450 713 C442 670 380 641 294 641 C208 641 146 670 138 713 L130 712 L130 712 Z M563 500 L413 485 C379 498 339 505 293 505 C158 505 68 443 68 350 C68 277 124 223 214 203 C116 203 51 168 51 112 C51 67 97 34 171 23 C83 8 26 -43 26 -111 C26 -188 98 -239 207 -239 C408 -239 542 -163 542 -50 C542 21 460 69 336 69 C303 69 224 66 224 66 C140 66 84 92 84 131 C84 169 135 194 212 194 L293 194 C428 194 518 256 518 349 C518 398 493 439 449 466 L563 471 L563 500 L563 500 Z M294 205 C187 205 116 263 116 349 C116 435 187 493 294 493 C401 493 472 435 472 349 C472 263 401 205 294 205 L294 205 Z M195 20 C227 18 271 22 324 22 C434 22 508 -17 508 -75 C508 -166 391 -226 215 -226 C123 -226 61 -178 61 -106 C61 -39 114 10 196 21 L195 20 L195 20 Z " />
<glyph glyph-name="Gdot" unicode="&#x120;" horiz-adv-x="911" d="M472 761 C472 800 410 800 410 761 C410 720 472 720 472 761 L472 761 Z M735 465 L735 603 L732 597 C732 599 734 601 735 603 C671 640 553 665 441 665 C214 665 62 531 62 330 C62 129 214 -5 441 -5 C557 -5 677 20 741 57 L741 230 C741 269 767 295 805 295 L816 295 L816 310 L616 310 L616 295 L627 295 C665 295 691 269 691 230 L691 50 C626 25 532 9 441 9 C250 9 123 137 123 330 C123 523 250 651 441 651 C451 651 558 646 557 642 C622 632 683 577 708 503 C712 492 717 476 721 465 L735 465 L735 465 Z " />
<glyph glyph-name="gdot" unicode="&#x121;" horiz-adv-x="563" d="M325 601 C325 640 263 640 263 601 C263 560 325 560 325 601 L325 601 Z M563 500 L413 485 C379 498 339 505 293 505 C158 505 68 443 68 350 C68 277 124 223 214 203 C116 203 51 168 51 112 C51 67 97 34 171 23 C83 8 26 -43 26 -111 C26 -188 98 -239 207 -239 C408 -239 542 -163 542 -50 C542 21 460 69 336 69 C303 69 224 66 224 66 C140 66 84 92 84 131 C84 169 135 194 212 194 L293 194 C428 194 518 256 518 349 C518 398 493 439 449 466 L563 471 L563 500 L563 500 Z M294 205 C187 205 116 263 116 349 C116 435 187 493 294 493 C401 493 472 435 472 349 C472 263 401 205 294 205 L294 205 Z M195 20 C227 18 271 22 324 22 C434 22 508 -17 508 -75 C508 -166 391 -226 215 -226 C123 -226 61 -178 61 -106 C61 -39 114 10 196 21 L195 20 L195 20 Z " />
<glyph glyph-name="Hcircumflex" unicode="&#x124;" horiz-adv-x="865" d="M448 891 C445 895 439 905 433 905 C427 905 420 895 417 891 C417 891 331 741 295 698 L300 693 C359 764 408 825 432 855 C470 808 565 693 565 693 L570 698 C570 698 481 823 448 891 L448 891 Z M825 15 L814 15 C776 15 750 41 750 80 L750 580 C750 619 776 645 814 645 L825 645 L825 660 L620 660 L620 645 L631 645 C669 645 695 619 695 580 L695 354 L171 354 L171 580 C171 619 197 645 235 645 L246 645 L246 660 L40 660 L40 645 L51 645 C89 645 115 619 115 580 L115 80 C115 41 89 15 51 15 L40 15 L40 0 L246 0 L246 15 L235 15 C197 15 171 41 171 80 L171 340 L695 340 L695 80 C695 41 669 15 631 15 L620 15 L620 0 L825 0 L825 15 L825 15 Z " />
<glyph glyph-name="Itilde" unicode="&#x128;" horiz-adv-x="286" d="M-66 755 C-66 795 -38 822 3 822 C83 822 189 759 269 759 C324 759 361 797 361 853 L352 853 C352 816 323 792 280 792 C200 792 94 855 14 855 C-39 855 -75 815 -75 755 L-66 755 L-66 755 Z M246 15 L235 15 C197 15 171 41 171 80 L171 580 C171 619 197 645 235 645 L246 645 L246 660 L40 660 L40 645 L51 645 C89 645 115 619 115 580 L115 80 C115 41 89 15 51 15 L40 15 L40 0 L246 0 L246 15 L246 15 Z " />
<glyph glyph-name="itilde" unicode="&#x129;" horiz-adv-x="290" d="M-64 595 C-64 635 -36 662 5 662 C85 662 191 599 271 599 C326 599 363 637 363 693 L354 693 C354 656 325 632 282 632 C202 632 96 695 16 695 C-37 695 -73 655 -73 595 L-64 595 L-64 595 Z M245 15 L234 15 C196 15 170 41 170 80 L170 500 L160 500 L45 467 L45 458 L56 455 C110 444 120 431 120 377 L120 80 C120 41 94 15 56 15 L45 15 L45 0 L245 0 L245 15 L245 15 Z " />
<glyph glyph-name="Imacron" unicode="&#x12a;" horiz-adv-x="286" d="M-55 770 L341 770 L341 798 L-55 798 L-55 770 L-55 770 Z M246 15 L235 15 C197 15 171 41 171 80 L171 580 C171 619 197 645 235 645 L246 645 L246 660 L40 660 L40 645 L51 645 C89 645 115 619 115 580 L115 80 C115 41 89 15 51 15 L40 15 L40 0 L246 0 L246 15 L246 15 Z " />
<glyph glyph-name="imacron" unicode="&#x12b;" horiz-adv-x="290" d="M-53 610 L343 610 L343 638 L-53 638 L-53 610 L-53 610 Z M245 15 L234 15 C196 15 170 41 170 80 L170 500 L160 500 L45 467 L45 458 L56 455 C110 444 120 431 120 377 L120 80 C120 41 94 15 56 15 L45 15 L45 0 L245 0 L245 15 L245 15 Z " />
<glyph glyph-name="Ibreve" unicode="&#x12c;" horiz-adv-x="286" d="M-21 872 C-10 810 56 768 143 768 C231 768 297 809 308 871 L299 873 C291 830 229 801 143 801 C57 801 -5 830 -13 873 L-21 872 L-21 872 Z M246 15 L235 15 C197 15 171 41 171 80 L171 580 C171 619 197 645 235 645 L246 645 L246 660 L40 660 L40 645 L51 645 C89 645 115 619 115 580 L115 80 C115 41 89 15 51 15 L40 15 L40 0 L246 0 L246 15 L246 15 Z " />
<glyph glyph-name="ibreve" unicode="&#x12d;" horiz-adv-x="290" d="M-19 712 C-8 650 58 608 145 608 C233 608 299 649 310 711 L301 713 C293 670 231 641 145 641 C59 641 -3 670 -11 713 L-19 712 L-19 712 Z M245 15 L234 15 C196 15 170 41 170 80 L170 500 L160 500 L45 467 L45 458 L56 455 C110 444 120 431 120 377 L120 80 C120 41 94 15 56 15 L45 15 L45 0 L245 0 L245 15 L245 15 Z " />
<glyph glyph-name="Idot" unicode="&#x130;" horiz-adv-x="286" d="M174 761 C174 800 112 800 112 761 C112 720 174 720 174 761 L174 761 Z M246 15 L235 15 C197 15 171 41 171 80 L171 580 C171 619 197 645 235 645 L246 645 L246 660 L40 660 L40 645 L51 645 C89 645 115 619 115 580 L115 80 C115 41 89 15 51 15 L40 15 L40 0 L246 0 L246 15 L246 15 Z " />
<glyph glyph-name="dotlessi" unicode="&#x131;" horiz-adv-x="290" d="M245 15 L234 15 C196 15 170 41 170 80 L170 500 L160 500 L45 467 L45 458 L56 455 C110 444 120 431 120 377 L120 80 C120 41 94 15 56 15 L45 15 L45 0 L245 0 L245 15 L245 15 Z " />
<glyph glyph-name="Jcircumflex" unicode="&#x134;" horiz-adv-x="456" d="M329 891 C326 895 320 905 313 905 C306 905 300 895 297 891 C297 891 211 739 176 698 L181 693 C240 764 289 825 313 855 C351 807 445 693 445 693 L450 698 C450 698 363 821 329 891 L329 891 Z M416 660 L210 660 L210 645 L221 645 C259 645 285 619 285 580 L285 200 C285 57 246 1 146 1 C94 1 54 21 47 50 C44 63 34 72 22 72 C6 72 -3 63 0 50 C9 14 62 -10 132 -10 C282 -10 341 62 341 247 L341 580 C341 619 367 645 405 645 L416 645 L416 660 L416 660 Z " />
<glyph glyph-name="Lacute" unicode="&#x139;" horiz-adv-x="653" d="M118 691 C118 691 197 780 228 820 C253 850 270 872 270 875 C270 881 250 895 241 895 C239 895 224 873 203 840 C172 800 113 695 113 695 L118 691 L118 691 Z M567 156 C561 159 549 164 549 164 L523 104 C501 50 451 14 397 14 L171 14 L171 580 C171 619 197 645 235 645 L246 645 L246 660 L40 660 L40 645 L51 645 C89 645 115 619 115 580 L115 80 C115 41 89 15 51 15 L40 15 L40 0 L540 0 C547 48 559 109 567 157 L567 156 L567 156 Z " />
<glyph glyph-name="Lcaron" unicode="&#x13d;" horiz-adv-x="653" d="M389 693 C379 693 357 631 344 586 L294 424 L301 421 L375 574 C403 630 421 677 421 681 C421 690 399 693 389 693 L389 693 Z M567 156 C561 159 549 164 549 164 L523 104 C501 50 451 14 397 14 L171 14 L171 580 C171 619 197 645 235 645 L246 645 L246 660 L40 660 L40 645 L51 645 C89 645 115 619 115 580 L115 80 C115 41 89 15 51 15 L40 15 L40 0 L540 0 C547 48 559 109 567 157 L567 156 L567 156 Z " />
<glyph glyph-name="lcaron" unicode="&#x13e;" horiz-adv-x="290" d="M313 723 C303 723 281 661 268 616 L218 454 L225 451 L299 604 C327 660 345 707 345 711 C345 720 323 723 313 723 L313 723 Z M245 15 L234 15 C196 15 170 41 170 80 L170 720 L160 720 L45 687 L45 678 L56 675 C110 664 120 651 120 597 L120 80 C120 41 94 15 56 15 L45 15 L45 0 L245 0 L245 15 L245 15 Z " />
<glyph glyph-name="Lslash" unicode="&#x141;" horiz-adv-x="653" d="M40 0 L540 0 C547 48 559 109 567 157 C561 160 549 165 549 165 L523 105 C501 51 451 15 397 15 L171 15 L171 310 L355 373 L355 389 L171 326 L171 581 C171 620 197 646 235 646 L246 646 L246 661 L40 661 L40 646 L51 646 C89 646 115 620 115 581 L115 306 L65 289 L65 273 L115 290 L115 81 C115 42 89 16 51 16 L40 16 L40 0 L40 0 Z " />
<glyph glyph-name="lslash" unicode="&#x142;" horiz-adv-x="290" d="M45 0 L245 0 L245 15 L234 15 C196 15 170 41 170 80 L170 362 L270 402 L270 418 L170 378 L170 720 L160 720 L45 687 L45 678 L56 675 C110 664 120 651 120 597 L120 358 L20 318 L20 302 L120 342 L120 80 C120 41 94 15 56 15 L45 15 L45 0 L45 0 Z " />
<glyph glyph-name="Nacute" unicode="&#x143;" horiz-adv-x="799" d="M369 691 C369 691 448 780 479 820 C504 850 521 872 521 875 C521 881 501 895 492 895 C490 895 475 873 454 840 C423 800 364 695 364 695 L369 691 L369 691 Z M43 645 L54 645 C92 645 118 619 118 580 L118 80 C118 41 92 15 54 15 L43 15 L43 0 L210 0 L210 15 L199 15 C161 15 135 41 135 80 L135 613 C313 405 492 198 669 -11 L683 -11 L683 580 C683 619 709 645 747 645 L758 645 L758 660 L591 660 L591 645 L602 645 C640 645 666 619 666 580 L666 77 L167 660 L42 660 L43 645 L43 645 Z " />
<glyph glyph-name="nacute" unicode="&#x144;" horiz-adv-x="717" d="M283 531 C283 531 362 620 393 660 C418 690 435 712 435 715 C435 721 415 735 406 735 C404 735 389 713 368 680 C337 640 278 535 278 535 L283 531 L283 531 Z M477 0 L677 0 L677 15 L666 15 C628 15 602 41 602 80 L602 336 C602 437 557 505 440 505 C362 505 255 476 170 432 L170 500 L160 500 L45 467 L45 458 L56 455 C110 444 120 431 120 377 L120 80 C120 41 94 15 56 15 L45 15 L45 0 L245 0 L245 15 L234 15 C196 15 170 41 170 80 L170 426 C225 453 316 471 401 471 C510 471 552 415 552 331 L552 80 C552 41 526 15 488 15 L477 15 L477 0 L477 0 Z " />
<glyph glyph-name="Ncaron" unicode="&#x147;" horiz-adv-x="799" d="M533 927 C533 927 439 813 401 765 C377 795 328 856 269 927 L264 922 C299 881 385 729 385 729 C388 725 394 715 401 715 C408 715 414 725 417 729 C451 799 538 922 538 922 L533 927 L533 927 Z M43 645 L54 645 C92 645 118 619 118 580 L118 80 C118 41 92 15 54 15 L43 15 L43 0 L210 0 L210 15 L199 15 C161 15 135 41 135 80 L135 613 C313 405 492 198 669 -11 L683 -11 L683 580 C683 619 709 645 747 645 L758 645 L758 660 L591 660 L591 645 L602 645 C640 645 666 619 666 580 L666 77 L167 660 L42 660 L43 645 L43 645 Z " />
<glyph glyph-name="ncaron" unicode="&#x148;" horiz-adv-x="717" d="M493 767 C493 767 399 653 361 605 C337 635 288 696 229 767 L224 762 C259 721 345 569 345 569 C348 565 354 555 361 555 C368 555 374 565 377 569 C411 639 498 762 498 762 L493 767 L493 767 Z M477 0 L677 0 L677 15 L666 15 C628 15 602 41 602 80 L602 336 C602 437 557 505 440 505 C362 505 255 476 170 432 L170 500 L160 500 L45 467 L45 458 L56 455 C110 444 120 431 120 377 L120 80 C120 41 94 15 56 15 L45 15 L45 0 L245 0 L245 15 L234 15 C196 15 170 41 170 80 L170 426 C225 453 316 471 401 471 C510 471 552 415 552 331 L552 80 C552 41 526 15 488 15 L477 15 L477 0 L477 0 Z " />
<glyph glyph-name="Omacron" unicode="&#x14c;" horiz-adv-x="856" d="M236 770 L632 770 L632 798 L236 798 L236 770 L236 770 Z M123 330 C123 503 229 651 434 651 C639 651 745 503 745 330 C745 157 639 9 434 9 C229 9 123 157 123 330 L123 330 Z M62 330 C62 149 188 -5 434 -5 C680 -5 806 149 806 330 C806 511 680 665 434 665 C188 665 62 511 62 330 L62 330 Z " />
<glyph glyph-name="omacron" unicode="&#x14d;" horiz-adv-x="685" d="M144 610 L541 610 L541 638 L144 638 L144 610 L144 610 Z M106 250 C106 396 201 494 343 494 C485 494 580 396 580 250 C580 104 485 6 343 6 C201 6 106 104 106 250 L106 250 Z M50 250 C50 97 167 -5 343 -5 C518 -5 635 97 635 250 C635 403 518 505 343 505 C167 505 50 403 50 250 L50 250 Z " />
<glyph glyph-name="Obreve" unicode="&#x14e;" horiz-adv-x="856" d="M270 872 C281 810 347 768 434 768 C522 768 588 809 599 871 L590 873 C582 830 520 801 434 801 C348 801 286 830 278 873 L270 872 L270 872 Z M123 330 C123 503 229 651 434 651 C639 651 745 503 745 330 C745 157 639 9 434 9 C229 9 123 157 123 330 L123 330 Z M62 330 C62 149 188 -5 434 -5 C680 -5 806 149 806 330 C806 511 680 665 434 665 C188 665 62 511 62 330 L62 330 Z " />
<glyph glyph-name="obreve" unicode="&#x14f;" horiz-adv-x="685" d="M178 712 C189 650 255 608 343 608 C431 608 496 649 507 711 L498 713 C490 670 428 641 343 641 C257 641 195 670 187 713 L178 712 L178 712 Z M106 250 C106 396 201 494 343 494 C485 494 580 396 580 250 C580 104 485 6 343 6 C201 6 106 104 106 250 L106 250 Z M50 250 C50 97 167 -5 343 -5 C518 -5 635 97 635 250 C635 403 518 505 343 505 C167 505 50 403 50 250 L50 250 Z " />
<glyph glyph-name="Racute" unicode="&#x154;" horiz-adv-x="737" d="M297 691 C297 691 376 780 407 820 C432 849 448 871 448 875 C448 881 428 895 420 895 C417 895 402 873 381 840 C350 800 291 695 291 695 L297 691 L297 691 Z M51 645 L62 645 C100 645 126 619 126 580 L126 80 C126 41 100 15 62 15 L51 15 L51 0 L257 0 L257 15 L246 15 C208 15 182 41 182 80 L182 317 L353 317 C381 288 455 210 554 106 C651 4 658 0 715 0 L736 0 L736 11 C708 11 710 11 630 95 C522 208 443 292 416 320 C540 334 619 399 619 491 C619 593 536 661 412 661 L49 661 L51 645 L51 645 Z M366 331 L180 332 L180 647 L412 647 C501 647 561 585 561 491 C561 395 483 331 366 331 L366 331 Z " />
<glyph glyph-name="Rcaron" unicode="&#x158;" horiz-adv-x="737" d="M506 927 C506 927 411 812 373 765 C349 795 300 856 241 927 L236 922 C272 879 358 729 358 729 C361 725 368 715 374 715 C380 715 386 725 389 729 C422 797 511 922 511 922 L506 927 L506 927 Z M51 645 L62 645 C100 645 126 619 126 580 L126 80 C126 41 100 15 62 15 L51 15 L51 0 L257 0 L257 15 L246 15 C208 15 182 41 182 80 L182 317 L353 317 C381 288 455 210 554 106 C651 4 658 0 715 0 L736 0 L736 11 C708 11 710 11 630 95 C522 208 443 292 416 320 C540 334 619 399 619 491 C619 593 536 661 412 661 L49 661 L51 645 L51 645 Z M366 331 L180 332 L180 647 L412 647 C501 647 561 585 561 491 C561 395 483 331 366 331 L366 331 Z " />
<glyph glyph-name="rcaron" unicode="&#x159;" horiz-adv-x="511" d="M382 767 C382 767 287 652 249 605 C225 635 176 696 117 767 L112 762 C148 719 234 569 234 569 C237 565 244 555 250 555 C256 555 262 565 265 569 C298 637 387 762 387 762 L382 767 L382 767 Z M45 458 L56 455 C110 444 120 431 120 377 L120 80 C120 41 94 15 56 15 L45 15 L45 0 L245 0 L245 15 L234 15 C196 15 170 41 170 80 L170 411 C203 445 269 468 339 468 C380 468 436 446 477 446 C491 446 501 456 501 470 C501 491 467 505 379 505 C298 505 216 470 170 418 L170 500 L160 500 L45 467 L45 458 L45 458 Z " />
<glyph glyph-name="Sacute" unicode="&#x15a;" horiz-adv-x="601" d="M233 691 C233 691 312 780 343 820 C368 850 385 872 385 875 C385 881 365 895 356 895 C354 895 339 873 318 840 C287 800 228 695 228 695 L233 691 L233 691 Z M522 472 L522 614 C469 645 374 665 284 665 C144 665 51 591 51 481 C51 402 144 333 284 308 C424 283 517 219 517 146 C517 64 441 9 328 9 C289 9 250 12 213 17 C150 28 93 81 69 152 C65 163 60 178 56 189 L43 189 L43 47 C96 16 210 -4 328 -4 C465 -4 556 65 556 169 C556 255 465 329 328 353 C185 378 90 439 90 504 C90 593 166 652 281 652 C319 652 359 647 397 639 L397 639 C433 631 465 600 479 561 C488 535 501 499 510 473 L522 472 L522 472 Z " />
<glyph glyph-name="sacute" unicode="&#x15b;" horiz-adv-x="519" d="M179 531 C179 531 258 620 289 660 C314 690 331 712 331 715 C331 721 311 735 302 735 C300 735 285 713 264 680 C233 640 174 535 174 535 L179 531 L179 531 Z M446 370 L446 461 L442 453 C442 455 445 458 446 461 C400 487 325 505 257 505 C142 505 65 454 65 378 C65 319 146 261 268 232 C363 210 427 164 427 118 C427 51 368 6 279 6 C270 6 186 9 186 13 C138 20 91 58 70 109 C67 117 62 127 59 135 L48 135 L48 34 C89 11 180 -5 276 -5 C392 -5 469 51 469 136 C469 192 403 245 304 268 C184 296 104 347 104 395 C104 454 165 494 257 494 C284 494 314 490 343 482 C380 473 412 439 425 398 C428 390 431 378 434 370 L446 370 L446 370 Z " />
<glyph glyph-name="Scircumflex" unicode="&#x15c;" horiz-adv-x="601" d="M297 891 C294 895 288 905 281 905 C274 905 268 895 265 891 C265 891 179 739 144 698 L149 693 C208 764 257 825 281 855 C319 807 413 693 413 693 L418 698 C418 698 331 821 297 891 L297 891 Z M522 472 L522 614 C469 645 374 665 284 665 C144 665 51 591 51 481 C51 402 144 333 284 308 C424 283 517 219 517 146 C517 64 441 9 328 9 C289 9 250 12 213 17 C150 28 93 81 69 152 C65 163 60 178 56 189 L43 189 L43 47 C96 16 210 -4 328 -4 C465 -4 556 65 556 169 C556 255 465 329 328 353 C185 378 90 439 90 504 C90 593 166 652 281 652 C319 652 359 647 397 639 L397 639 C433 631 465 600 479 561 C488 535 501 499 510 473 L522 472 L522 472 Z " />
<glyph glyph-name="Scedilla" unicode="&#x15e;" horiz-adv-x="601" d="M522 472 L522 614 C469 645 374 665 284 665 C144 665 51 591 51 481 C51 402 144 333 284 308 C424 283 517 219 517 146 C517 64 441 9 328 9 C289 9 250 12 213 17 C150 28 93 81 69 152 C65 163 60 178 56 189 L43 189 L43 47 C95 16 206 -4 322 -5 C317 -13 295 -46 265 -93 L268 -95 C292 -86 332 -80 368 -80 C427 -80 467 -102 467 -135 C467 -177 423 -205 358 -205 C300 -205 252 -199 238 -191 L234 -196 C258 -210 312 -220 368 -220 C446 -220 498 -186 498 -135 C498 -96 450 -70 379 -70 C342 -70 300 -76 274 -86 C308 -36 332 -11 339 -4 C470 0 556 68 556 169 C556 255 465 329 328 353 C185 378 90 439 90 504 C90 593 166 652 281 652 C319 652 359 647 397 639 L397 639 C433 631 465 600 479 561 C488 535 501 499 510 473 L522 472 L522 472 Z " />
<glyph glyph-name="scedilla" unicode="&#x15f;" horiz-adv-x="519" d="M446 370 L446 461 L442 453 C442 455 445 458 446 461 C400 487 325 505 257 505 C142 505 65 454 65 378 C65 319 146 261 268 232 C363 210 427 164 427 118 C427 51 368 6 279 6 C270 6 186 9 186 13 C138 20 91 58 70 109 C67 117 62 127 59 135 L48 135 L48 34 C88 11 176 -5 270 -6 C265 -14 243 -47 213 -94 L216 -96 C240 -87 280 -81 316 -81 C375 -81 415 -103 415 -136 C415 -178 371 -206 306 -206 C248 -206 200 -200 186 -192 L182 -197 C206 -211 260 -221 316 -221 C394 -221 446 -187 446 -136 C446 -97 398 -71 327 -71 C290 -71 248 -77 222 -87 C256 -37 280 -12 287 -5 C397 -2 469 53 469 135 C469 191 403 244 304 267 C184 295 104 346 104 394 C104 453 165 493 257 493 C284 493 314 489 343 481 C380 472 412 438 425 397 C428 389 431 377 434 369 L446 370 L446 370 Z " />
<glyph glyph-name="Scaron" unicode="&#x160;" horiz-adv-x="601" d="M413 927 C413 927 319 813 281 765 C257 795 208 856 149 927 L144 922 C179 881 265 729 265 729 C268 725 274 715 281 715 C288 715 294 725 297 729 C331 799 418 922 418 922 L413 927 L413 927 Z M522 472 L522 614 C469 645 374 665 284 665 C144 665 51 591 51 481 C51 402 144 333 284 308 C424 283 517 219 517 146 C517 64 441 9 328 9 C289 9 250 12 213 17 C150 28 93 81 69 152 C65 163 60 178 56 189 L43 189 L43 47 C96 16 210 -4 328 -4 C465 -4 556 65 556 169 C556 255 465 329 328 353 C185 378 90 439 90 504 C90 593 166 652 281 652 C319 652 359 647 397 639 L397 639 C433 631 465 600 479 561 C488 535 501 499 510 473 L522 472 L522 472 Z " />
<glyph glyph-name="scaron" unicode="&#x161;" horiz-adv-x="519" d="M389 767 C389 767 295 653 257 605 C233 635 184 696 125 767 L120 762 C155 721 241 569 241 569 C244 565 250 555 257 555 C264 555 270 565 273 569 C307 639 394 762 394 762 L389 767 L389 767 Z M446 370 L446 461 L442 453 C442 455 445 458 446 461 C400 487 325 505 257 505 C142 505 65 454 65 378 C65 319 146 261 268 232 C363 210 427 164 427 118 C427 51 368 6 279 6 C270 6 186 9 186 13 C138 20 91 58 70 109 C67 117 62 127 59 135 L48 135 L48 34 C89 11 180 -5 276 -5 C392 -5 469 51 469 136 C469 192 403 245 304 268 C184 296 104 347 104 395 C104 454 165 494 257 494 C284 494 314 490 343 482 C380 473 412 439 425 398 C428 390 431 378 434 370 L446 370 L446 370 Z " />
<glyph glyph-name="Tcaron" unicode="&#x164;" horiz-adv-x="716" d="M491 927 C491 927 397 813 359 765 C335 795 286 856 227 927 L222 922 C257 881 343 729 343 729 C346 725 352 715 359 715 C366 715 372 725 375 729 C409 799 496 922 496 922 L491 927 L491 927 Z M255 0 L461 0 L461 15 L450 15 C412 15 386 41 386 80 L386 646 L552 646 C600 646 646 614 665 566 L693 496 L705 496 C701 545 697 611 690 659 L28 659 L27 652 L26 652 C22 605 16 542 12 495 L24 495 L52 565 C72 613 118 645 166 645 L330 645 L330 79 C330 40 304 14 266 14 L255 14 L255 0 L255 0 Z " />
<glyph glyph-name="tcaron" unicode="&#x165;" horiz-adv-x="447" d="M416 500 L179 500 L179 640 L171 640 L133 496 L153 572 C141 526 90 493 25 488 L25 482 L129 482 L129 112 C129 22 157 -4 255 -4 C344 -4 392 16 427 45 L424 49 C402 30 364 18 280 18 C200 18 178 37 178 103 C178 217 179 482 179 482 L416 482 L416 500 L416 500 Z M559 724 C549 724 527 662 514 617 L464 455 L471 452 L545 605 C573 661 591 708 591 712 C591 721 569 724 559 724 L559 724 Z " />
<glyph glyph-name="Utilde" unicode="&#x168;" horiz-adv-x="784" d="M188 755 C188 795 216 822 257 822 C337 822 444 759 524 759 C579 759 615 797 615 853 L607 853 C607 816 578 792 535 792 C455 792 348 855 268 855 C215 855 180 815 180 755 L188 755 L188 755 Z M764 660 L572 660 L572 645 L587 645 C632 645 662 615 662 570 L662 188 C662 84 592 14 411 14 C239 14 172 89 172 202 L172 580 C172 619 198 645 236 645 L247 645 L247 660 L41 660 L41 645 L52 645 C90 645 116 619 116 580 L116 212 C116 82 196 -5 403 -5 C602 -5 679 70 679 182 L679 570 C679 615 708 645 751 645 L764 645 L764 660 L764 660 Z " />
<glyph glyph-name="utilde" unicode="&#x169;" horiz-adv-x="682" d="M122 595 C122 635 150 662 191 662 C271 662 377 599 457 599 C512 599 549 637 549 693 L540 693 C540 656 511 632 468 632 C388 632 282 695 202 695 C149 695 113 655 113 595 L122 595 L122 595 Z M15 485 L26 485 C64 485 90 459 90 420 L90 156 C90 59 157 -5 286 -5 C402 -5 477 22 522 62 L522 0 L532 0 L647 33 L647 42 L636 45 C582 56 572 69 572 123 L572 500 L447 500 L447 485 L458 485 C496 485 522 459 522 420 L522 70 C494 45 433 28 325 28 C203 28 140 81 140 161 L140 500 L15 500 L15 485 L15 485 Z " />
<glyph glyph-name="Umacron" unicode="&#x16a;" horiz-adv-x="784" d="M199 770 L596 770 L596 798 L199 798 L199 770 L199 770 Z M764 660 L572 660 L572 645 L587 645 C632 645 662 615 662 570 L662 188 C662 84 592 14 411 14 C239 14 172 89 172 202 L172 580 C172 619 198 645 236 645 L247 645 L247 660 L41 660 L41 645 L52 645 C90 645 116 619 116 580 L116 212 C116 82 196 -5 403 -5 C602 -5 679 70 679 182 L679 570 C679 615 708 645 751 645 L764 645 L764 660 L764 660 Z " />
<glyph glyph-name="umacron" unicode="&#x16b;" horiz-adv-x="682" d="M133 610 L529 610 L529 638 L133 638 L133 610 L133 610 Z M15 485 L26 485 C64 485 90 459 90 420 L90 156 C90 59 157 -5 286 -5 C402 -5 477 22 522 62 L522 0 L532 0 L647 33 L647 42 L636 45 C582 56 572 69 572 123 L572 500 L447 500 L447 485 L458 485 C496 485 522 459 522 420 L522 70 C494 45 433 28 325 28 C203 28 140 81 140 161 L140 500 L15 500 L15 485 L15 485 Z " />
<glyph glyph-name="Ubreve" unicode="&#x16c;" horiz-adv-x="784" d="M233 872 C244 810 310 768 398 768 C486 768 551 809 562 871 L553 873 C545 830 483 801 398 801 C312 801 250 830 242 873 L233 872 L233 872 Z M764 660 L572 660 L572 645 L587 645 C632 645 662 615 662 570 L662 188 C662 84 592 14 411 14 C239 14 172 89 172 202 L172 580 C172 619 198 645 236 645 L247 645 L247 660 L41 660 L41 645 L52 645 C90 645 116 619 116 580 L116 212 C116 82 196 -5 403 -5 C602 -5 679 70 679 182 L679 570 C679 615 708 645 751 645 L764 645 L764 660 L764 660 Z " />
<glyph glyph-name="ubreve" unicode="&#x16d;" horiz-adv-x="682" d="M167 712 C178 650 244 608 331 608 C419 608 485 649 496 711 L487 713 C479 670 417 641 331 641 C245 641 183 670 175 713 L167 712 L167 712 Z M15 485 L26 485 C64 485 90 459 90 420 L90 156 C90 59 157 -5 286 -5 C402 -5 477 22 522 62 L522 0 L532 0 L647 33 L647 42 L636 45 C582 56 572 69 572 123 L572 500 L447 500 L447 485 L458 485 C496 485 522 459 522 420 L522 70 C494 45 433 28 325 28 C203 28 140 81 140 161 L140 500 L15 500 L15 485 L15 485 Z " />
<glyph glyph-name="Uring" unicode="&#x16e;" horiz-adv-x="784" d="M317 788 C317 837 349 869 398 869 C446 869 478 837 478 788 C478 744 441 706 398 706 C354 706 317 744 317 788 L317 788 Z M303 788 C303 738 347 695 398 695 C449 695 492 738 492 788 C492 843 454 880 398 880 C341 880 303 843 303 788 L303 788 Z M764 660 L572 660 L572 645 L587 645 C632 645 662 615 662 570 L662 188 C662 84 592 14 411 14 C239 14 172 89 172 202 L172 580 C172 619 198 645 236 645 L247 645 L247 660 L41 660 L41 645 L52 645 C90 645 116 619 116 580 L116 212 C116 82 196 -5 403 -5 C602 -5 679 70 679 182 L679 570 C679 615 708 645 751 645 L764 645 L764 660 L764 660 Z " />
<glyph glyph-name="uring" unicode="&#x16f;" horiz-adv-x="682" d="M251 628 C251 677 283 709 331 709 C379 709 411 677 411 628 C411 584 374 546 331 546 C288 546 251 584 251 628 L251 628 Z M237 628 C237 578 280 535 331 535 C382 535 425 578 425 628 C425 683 387 720 331 720 C275 720 237 683 237 628 L237 628 Z M15 485 L26 485 C64 485 90 459 90 420 L90 156 C90 59 157 -5 286 -5 C402 -5 477 22 522 62 L522 0 L532 0 L647 33 L647 42 L636 45 C582 56 572 69 572 123 L572 500 L447 500 L447 485 L458 485 C496 485 522 459 522 420 L522 70 C494 45 433 28 325 28 C203 28 140 81 140 161 L140 500 L15 500 L15 485 L15 485 Z " />
<glyph glyph-name="Wcircumflex" unicode="&#x174;" horiz-adv-x="1118" d="M583 891 C580 895 574 905 567 905 C560 905 554 895 551 891 C551 891 465 739 430 698 L435 693 C494 764 543 825 567 855 C605 807 699 693 699 693 L704 698 C704 698 617 821 583 891 L583 891 Z M1113 660 L921 660 L921 645 L956 645 C992 645 1009 623 1001 589 L786 -15 L800 -15 L1016 586 C1031 622 1064 645 1100 645 L1112 645 L1113 660 L1113 660 Z M785 -15 L815 70 L573 670 L559 670 L321 -15 L335 -15 L542 580 L785 -15 L785 -15 Z M205 660 L0 660 L0 645 C37 645 64 628 82 590 L321 -15 L348 65 L144 587 C133 622 149 645 186 645 L205 645 L205 660 L205 660 Z " />
<glyph glyph-name="Ycircumflex" unicode="&#x176;" horiz-adv-x="698" d="M225 660 L23 660 L23 645 C57 645 86 627 113 590 L327 258 L328 73 C325 38 300 15 264 15 L253 15 L253 0 L458 0 L458 15 L447 15 C409 15 383 41 383 80 L383 275 L589 580 C618 624 655 645 698 645 L698 660 L516 660 L516 645 L531 645 C582 645 593 611 559 560 L559 560 L378 289 L182 589 C163 623 174 645 210 645 L225 645 L225 660 L225 660 Z M372 891 C369 895 363 905 356 905 C349 905 343 895 340 891 C340 891 254 739 219 698 L224 693 C283 764 332 825 356 855 C394 807 488 693 488 693 L493 698 C493 698 406 821 372 891 L372 891 Z " />
<glyph glyph-name="Ydieresis" unicode="&#x178;" horiz-adv-x="698" d="M480 761 C480 800 419 801 419 761 C419 720 480 721 480 761 L480 761 Z M293 761 C293 801 232 800 232 761 C232 721 293 720 293 761 L293 761 Z M225 660 L23 660 L23 645 C57 645 86 627 113 590 L327 258 L328 73 C325 38 300 15 264 15 L253 15 L253 0 L458 0 L458 15 L447 15 C409 15 383 41 383 80 L383 275 L589 580 C618 624 655 645 698 645 L698 660 L516 660 L516 645 L531 645 C582 645 593 611 559 560 L559 560 L378 289 L182 589 C163 623 174 645 210 645 L225 645 L225 660 L225 660 Z " />
<glyph glyph-name="Zacute" unicode="&#x179;" horiz-adv-x="688" d="M378 691 C378 691 457 780 488 820 C513 849 529 871 529 875 C529 881 509 895 501 895 C498 895 483 873 462 840 C431 800 372 695 372 695 L378 691 L378 691 Z M639 156 C633 159 621 164 621 164 L595 104 C573 50 523 14 469 14 L126 14 L625 660 L120 660 L118 653 L117 653 C107 615 93 564 83 526 L95 526 L122 566 C154 614 208 646 256 646 L551 646 L52 0 L612 0 C619 48 631 109 639 157 L639 156 L639 156 Z " />
<glyph glyph-name="zacute" unicode="&#x17a;" horiz-adv-x="580" d="M230 531 C230 531 309 620 340 660 C365 690 382 712 382 715 C382 721 362 735 353 735 C351 735 336 713 315 680 C284 640 225 535 225 535 L230 531 L230 531 Z M527 161 L501 101 C479 47 429 11 375 11 L124 11 L530 500 L71 500 C61 470 52 429 43 398 L55 398 L66 412 C102 458 159 487 207 488 L463 489 L56 0 L518 0 L519 6 L518 6 C526 50 537 109 545 153 C539 156 527 161 527 161 L527 161 Z " />
<glyph glyph-name="Zdot" unicode="&#x17b;" horiz-adv-x="688" d="M410 761 C410 801 349 800 349 761 C349 721 410 720 410 761 L410 761 Z M639 156 C633 159 621 164 621 164 L595 104 C573 50 523 14 469 14 L126 14 L625 660 L120 660 L118 653 L117 653 C107 615 93 564 83 526 L95 526 L122 566 C154 614 208 646 256 646 L551 646 L52 0 L612 0 C619 48 631 109 639 157 L639 156 L639 156 Z " />
<glyph glyph-name="zdot" unicode="&#x17c;" horiz-adv-x="580" d="M339 601 C339 640 277 640 277 601 C277 560 339 560 339 601 L339 601 Z M527 161 L501 101 C479 47 429 11 375 11 L124 11 L530 500 L71 500 C61 470 52 429 43 398 L55 398 L66 412 C102 458 159 487 207 488 L463 489 L56 0 L518 0 L519 6 L518 6 C526 50 537 109 545 153 C539 156 527 161 527 161 L527 161 Z " />
<glyph glyph-name="Zcaron" unicode="&#x17d;" horiz-adv-x="688" d="M512 927 C512 927 417 812 379 765 C355 795 306 856 247 927 L242 922 C278 879 364 729 364 729 C367 725 374 715 380 715 C386 715 392 725 395 729 C428 797 517 922 517 922 L512 927 L512 927 Z M639 156 C633 159 621 164 621 164 L595 104 C573 50 523 14 469 14 L126 14 L625 660 L120 660 L118 653 L117 653 C107 615 93 564 83 526 L95 526 L122 566 C154 614 208 646 256 646 L551 646 L52 0 L612 0 C619 48 631 109 639 157 L639 156 L639 156 Z " />
<glyph glyph-name="zcaron" unicode="&#x17e;" horiz-adv-x="580" d="M440 767 C440 767 346 653 308 605 C284 635 235 696 176 767 L171 762 C206 721 292 569 292 569 C295 565 301 555 308 555 C315 555 321 565 324 569 C358 639 445 762 445 762 L440 767 L440 767 Z M527 161 L501 101 C479 47 429 11 375 11 L124 11 L530 500 L71 500 C61 470 52 429 43 398 L55 398 L66 412 C102 458 159 487 207 488 L463 489 L56 0 L518 0 L519 6 L518 6 C526 50 537 109 545 153 C539 156 527 161 527 161 L527 161 Z " />
<glyph glyph-name="oogonek" unicode="&#x1eb;" horiz-adv-x="766" d="M812 -51 L807 -47 C783 -76 719 -95 648 -95 C536 -95 453 -59 395 -5 C607 -3 716 126 716 277 C716 429 605 558 390 558 C174 558 63 429 63 277 C63 128 170 0 378 -5 C454 -78 544 -127 644 -127 C707 -127 775 -97 813 -51 L812 -51 L812 -51 Z M119 277 C119 422 211 546 391 546 C570 546 662 422 662 277 C662 132 570 8 391 8 C211 8 119 132 119 277 L119 277 Z " />
<glyph glyph-name="Adotabove" unicode="&#x226;" horiz-adv-x="728" d="M388 761 C388 800 326 800 326 761 C326 720 388 720 388 761 L388 761 Z M3 0 L201 0 L201 15 L177 15 C132 15 112 43 126 86 L187 237 L499 237 L568 80 C585 41 570 15 531 15 L500 15 L500 0 L724 0 L724 15 C681 15 648 36 629 80 L629 80 L365 675 L351 675 L105 77 C88 40 53 15 15 15 L4 15 L3 0 L3 0 Z M494 250 L193 250 L338 608 L494 250 L494 250 Z " />
<glyph glyph-name="G_sc" unicode="&#x262;" horiz-adv-x="822" d="M647 360 L647 496 C583 533 481 558 392 558 C195 558 63 446 63 277 C63 108 195 -5 392 -5 C484 -5 588 20 652 57 L652 180 C652 219 678 245 716 245 L727 245 L727 260 L532 260 L532 245 L543 245 C581 245 607 219 607 180 L607 49 C546 24 465 8 392 8 C228 8 118 116 118 277 C118 438 228 546 392 546 C420 546 449 543 478 538 C540 524 596 469 620 398 L633 359 L647 360 L647 360 Z " />
<glyph glyph-name="I_sc" unicode="&#x26a;" horiz-adv-x="283" d="M243 15 L232 15 C194 15 168 41 168 80 L168 473 C168 512 194 538 232 538 L243 538 L243 553 L43 553 L43 538 L54 538 C92 538 118 512 118 473 L118 80 C118 41 92 15 54 15 L43 15 L43 0 L243 0 L243 15 L243 15 Z " />
<glyph glyph-name="N_sc" unicode="&#x274;" horiz-adv-x="707" d="M43 538 L54 538 C92 538 118 512 118 473 L118 80 C118 41 92 15 54 15 L43 15 L43 0 L208 0 L208 15 L197 15 C159 15 133 41 133 80 L133 512 C282 338 430 163 580 -10 L592 -10 L592 473 C592 512 618 538 656 538 L667 538 L667 553 L502 553 L502 538 L513 538 C551 538 577 512 577 473 L577 71 L163 553 L43 553 L43 538 L43 538 Z M133 533 L133 533 L133 533 Z " />
<glyph glyph-name="R_sc" unicode="&#x280;" horiz-adv-x="658" d="M53 538 L64 538 C102 538 128 512 128 473 L128 80 C128 41 102 15 64 15 L53 15 L53 0 L253 0 L253 15 L242 15 C204 15 178 41 178 80 L178 265 L289 265 C317 240 382 182 468 105 C583 3 590 -1 638 -1 L658 -1 L658 9 C631 9 633 9 537 95 C443 178 373 242 347 266 C458 278 530 333 530 411 C530 496 450 552 331 552 L55 552 L53 538 L53 538 Z M301 277 L180 277 L180 540 L331 540 C419 540 477 488 477 411 C477 331 407 277 301 277 L301 277 Z " />
<glyph glyph-name="Y_sc" unicode="&#x28f;" horiz-adv-x="603" d="M209 0 L409 0 L409 15 L398 15 C360 15 334 41 334 80 L334 234 L334 234 L500 481 C529 520 563 538 603 538 L603 553 L423 553 L423 538 L438 538 C486 538 499 508 472 462 C422 386 372 310 322 234 L327 241 L176 481 C157 516 168 539 204 539 L220 539 L220 554 L25 554 L25 539 C61 539 93 517 121 474 L284 218 L284 81 C284 42 258 16 220 16 L209 16 L209 0 L209 0 Z " />
<glyph glyph-name="B_sc" unicode="&#x299;" horiz-adv-x="564" d="M324 300 C313 301 301 301 289 301 L235 300 L178 300 L178 541 L329 541 C417 541 475 495 475 427 C475 356 416 307 324 300 L324 300 Z M53 538 L64 538 C102 538 128 512 128 473 L128 80 C128 41 102 15 64 15 L53 15 L53 0 L337 0 C461 0 544 64 544 160 C544 231 474 282 363 297 C463 311 526 360 526 428 C526 504 448 554 330 554 L54 554 L53 538 L53 538 Z M179 292 L275 292 C405 292 492 240 492 161 C492 73 428 14 333 14 L179 14 L179 292 L179 292 Z " />
<glyph glyph-name="H_sc" unicode="&#x29c;" horiz-adv-x="776" d="M736 15 L725 15 C687 15 661 41 661 80 L661 473 C661 512 687 538 725 538 L736 538 L736 553 L536 553 L536 538 L547 538 C585 538 611 512 611 473 L611 299 L166 299 L166 473 C166 512 192 538 230 538 L241 538 L241 553 L41 553 L41 538 L52 538 C90 538 116 512 116 473 L116 80 C116 41 90 15 52 15 L41 15 L41 0 L241 0 L241 15 L230 15 C192 15 166 41 166 80 L166 287 L611 287 L611 80 C611 41 585 15 547 15 L536 15 L536 0 L736 0 L736 15 L736 15 Z " />
<glyph glyph-name="L_sc" unicode="&#x29f;" horiz-adv-x="582" d="M478 163 L452 103 C429 49 379 13 325 13 L166 13 L166 473 C166 512 192 538 230 538 L241 538 L241 553 L41 553 L41 538 L52 538 C90 538 116 512 116 473 L116 80 C116 41 90 15 52 15 L41 15 L41 0 L468 0 L469 6 L470 6 C478 51 488 110 496 155 C490 158 478 163 478 163 L478 163 Z " />
<glyph glyph-name="circumflex" unicode="&#x2c6;" horiz-adv-x="460" d="M246 731 C243 735 236 745 230 745 C223 745 217 735 214 731 C214 731 128 579 93 538 L98 533 C157 604 206 665 230 695 C268 647 363 533 363 533 L368 538 C368 538 279 663 246 731 L246 731 Z " />
<glyph glyph-name="caron" unicode="&#x2c7;" horiz-adv-x="460" d="M363 767 C363 767 268 653 230 605 C206 635 157 696 98 767 L93 762 C128 721 214 569 214 569 C217 565 223 555 230 555 C236 555 243 565 246 569 C279 637 368 762 368 762 L363 767 L363 767 Z " />
<glyph glyph-name="firsttonechinese" unicode="&#x2c9;" horiz-adv-x="460" d="M32 610 L429 610 L429 638 L32 638 L32 610 L32 610 Z " />
<glyph glyph-name="breve" unicode="&#x2d8;" horiz-adv-x="460" d="M66 712 C77 650 143 608 230 608 C318 608 383 649 394 711 L386 713 C378 670 316 641 230 641 C145 641 83 670 75 713 L66 712 L66 712 Z " />
<glyph glyph-name="dotaccent" unicode="&#x2d9;" horiz-adv-x="460" d="M261 601 C261 640 200 641 200 601 C200 560 261 561 261 601 L261 601 Z " />
<glyph glyph-name="ring" unicode="&#x2da;" horiz-adv-x="460" d="M150 628 C150 677 182 709 230 709 C279 709 311 677 311 628 C311 584 274 546 230 546 C187 546 150 584 150 628 L150 628 Z M136 628 C136 578 179 535 230 535 C281 535 324 578 324 628 C324 683 286 720 230 720 C174 720 136 683 136 628 L136 628 Z " />
<glyph glyph-name="A_sc" unicode="&#x1d00;" horiz-adv-x="632" d="M4 0 L199 0 L199 15 L175 15 C129 15 110 44 125 88 L169 198 L427 198 L478 80 C495 41 480 15 441 15 L410 15 L410 0 L627 0 L627 15 C584 15 551 36 532 80 L532 80 L317 566 L304 566 L103 72 C86 37 52 14 16 14 L5 14 L4 0 L4 0 Z M422 209 L175 210 L294 504 L422 209 L422 209 Z " />
<glyph glyph-name="C_sc" unicode="&#x1d04;" horiz-adv-x="727" d="M667 360 L667 496 C603 533 497 558 403 558 C199 558 63 446 63 277 C63 108 199 -5 403 -5 C497 -5 603 20 667 57 L660 184 C651 182 642 173 650 182 C648 181 646 180 644 179 C643 171 642 162 640 156 C612 75 534 17 445 10 L445 10 C250 -5 117 101 117 278 C117 439 231 547 402 547 C430 547 459 545 488 541 C554 530 615 475 641 400 C645 389 650 373 654 362 L667 360 L667 360 Z M645 181 C637 176 631 174 648 190 C647 187 646 184 645 181 L645 181 Z " />
<glyph glyph-name="D_sc" unicode="&#x1d05;" horiz-adv-x="695" d="M53 538 L64 538 C102 538 128 512 128 473 L128 80 C128 41 102 15 64 15 L53 15 L53 0 L348 0 C526 0 645 111 645 277 C645 443 509 553 305 553 L53 553 L53 538 L53 538 Z M178 13 L178 541 L305 541 C479 541 595 435 595 277 C595 119 496 13 348 13 L178 13 L178 13 Z " />
<glyph glyph-name="E_sc" unicode="&#x1d07;" horiz-adv-x="582" d="M402 204 L402 376 L390 376 L386 365 C374 327 333 301 282 301 L166 301 L166 541 L308 541 C368 541 421 501 441 441 L452 406 L463 406 L463 553 L41 553 L41 538 L52 538 C90 538 116 512 116 473 L116 80 C116 41 90 15 52 15 L41 15 L41 0 L469 0 L470 6 L470 6 C477 49 487 105 495 148 L484 148 L467 113 C436 53 376 13 316 13 L166 13 L166 289 L282 289 C333 289 374 260 386 217 L390 204 L402 204 L402 204 Z " />
<glyph glyph-name="J_sc" unicode="&#x1d0a;" horiz-adv-x="369" d="M329 553 L129 553 L129 538 L140 538 C178 538 204 512 204 473 L204 168 C204 47 178 0 110 0 C77 0 49 20 42 50 C39 62 30 70 20 70 C5 70 -3 62 0 50 C9 14 48 -10 98 -10 C210 -10 254 52 254 210 L254 473 C254 512 280 538 318 538 L329 538 L329 553 L329 553 Z " />
<glyph glyph-name="K_sc" unicode="&#x1d0b;" horiz-adv-x="649" d="M253 553 L53 553 L53 538 L64 538 C102 538 128 512 128 473 L128 80 C128 41 102 15 64 15 L53 15 L53 0 L253 0 L253 15 L242 15 C204 15 178 41 178 80 L178 298 L186 287 L188 289 C207 272 252 233 313 180 C467 47 552 -5 618 -5 L638 -5 L638 5 C599 5 526 59 353 210 C292 263 247 302 228 319 C296 370 364 422 432 473 C484 512 544 538 582 538 L593 538 L593 553 L445 553 L445 538 L453 538 C481 538 464 512 412 473 L217 328 L217 328 L177 298 L177 473 C177 512 203 538 241 538 L252 538 L253 553 L253 553 Z " />
<glyph glyph-name="M_sc" unicode="&#x1d0d;" horiz-adv-x="827" d="M787 554 L691 554 L691 553 L668 553 L408 -5 L420 -5 L670 519 C676 373 683 226 689 81 C691 42 667 16 629 16 L618 16 L618 1 L817 1 L817 16 L806 16 C768 16 741 42 739 81 L739 81 L717 482 C718 517 740 540 776 540 L787 540 L787 554 L787 554 Z M39 1 L238 1 L238 16 L209 16 C164 16 134 45 133 89 L151 496 C237 329 323 162 409 -4 L434 50 C350 219 264 386 179 554 L65 554 L65 539 L76 539 C114 539 138 513 136 474 L136 474 L118 73 C113 38 87 15 52 15 L41 15 L39 1 L39 1 Z " />
<glyph glyph-name="O_sc" unicode="&#x1d0f;" horiz-adv-x="766" d="M118 277 C118 422 210 546 390 546 C569 546 661 422 661 277 C661 132 569 8 390 8 C210 8 118 132 118 277 L118 277 Z M63 277 C63 125 174 -5 390 -5 C605 -5 716 125 716 277 C716 429 605 558 390 558 C174 558 63 429 63 277 L63 277 Z " />
<glyph glyph-name="P_sc" unicode="&#x1d18;" horiz-adv-x="575" d="M253 15 L242 15 C204 15 178 41 178 80 L178 250 L310 250 C457 250 555 310 555 400 C555 492 470 553 343 553 L53 553 L53 538 L64 538 C102 538 128 512 128 473 L128 80 C128 41 102 15 64 15 L53 15 L53 0 L253 0 L253 15 L253 15 Z M178 263 L178 541 L343 541 C438 541 502 485 502 400 C502 318 425 263 310 263 L178 263 L178 263 Z " />
<glyph glyph-name="T_sc" unicode="&#x1d1b;" horiz-adv-x="628" d="M214 0 L414 0 L414 15 L403 15 C365 15 339 41 339 80 L339 541 L462 541 C510 541 556 509 575 461 L603 391 L615 391 C611 438 606 500 602 547 L603 547 L602 553 L29 553 L28 547 C24 500 19 438 15 391 L27 391 L55 461 C74 509 120 541 168 541 L289 541 L289 80 C289 41 263 15 225 15 L214 15 L214 0 L214 0 Z " />
<glyph glyph-name="U_sc" unicode="&#x1d1c;" horiz-adv-x="696" d="M676 553 L486 553 L486 538 L501 538 C546 538 576 508 576 463 L576 154 C576 69 517 12 367 12 C224 12 168 73 168 164 L168 473 C168 512 194 538 232 538 L243 538 L243 553 L43 553 L43 538 L54 538 C92 538 118 512 118 473 L118 174 C118 67 185 -5 359 -5 C526 -5 591 57 591 149 L591 463 C591 508 620 538 663 538 L676 538 L676 553 L676 553 Z " />
<glyph glyph-name="V_sc" unicode="&#x1d20;" horiz-adv-x="633" d="M632 553 L428 553 L428 538 L447 538 C504 538 528 500 506 443 L506 443 L333 -15 L346 -15 L536 482 C553 516 586 538 622 538 L633 538 L632 553 L632 553 Z M224 553 L16 553 L16 538 C55 538 86 517 106 473 L106 473 L334 -15 L357 46 C292 188 226 331 161 473 C143 512 157 538 196 538 L224 538 L224 553 L224 553 Z " />
<glyph glyph-name="W_sc" unicode="&#x1d21;" horiz-adv-x="933" d="M928 553 L738 553 L738 538 L773 538 C810 538 827 515 818 480 L673 55 L479 563 L466 563 L275 -15 L287 -15 L454 488 L649 -15 L661 -15 L832 479 C847 515 880 538 917 538 L928 538 L928 553 L928 553 Z M200 553 L1 553 L1 538 C39 538 68 518 85 475 L275 -15 L297 52 C245 192 192 333 140 473 C125 512 142 538 181 538 L200 538 L200 553 L200 553 Z " />
<glyph glyph-name="Z_sc" unicode="&#x1d22;" horiz-adv-x="600" d="M536 163 L510 103 C487 49 437 13 383 13 L120 13 L537 553 L124 553 L122 547 L121 547 C111 509 98 459 88 421 L100 421 L127 461 C159 509 213 541 261 541 L471 541 L54 0 L526 0 L527 6 L528 6 C536 51 546 110 554 155 C548 158 536 163 536 163 L536 163 Z " />
<glyph glyph-name="Wgrave" unicode="&#x1e80;" horiz-adv-x="1118" d="M485 875 C485 870 502 849 528 820 C560 780 641 691 641 691 L646 695 C646 695 585 799 553 840 C532 873 517 895 513 895 C505 895 485 881 485 875 L485 875 Z M1113 660 L921 660 L921 645 L956 645 C992 645 1009 623 1001 589 L786 -15 L800 -15 L1016 586 C1031 622 1064 645 1100 645 L1112 645 L1113 660 L1113 660 Z M785 -15 L815 70 L573 670 L559 670 L321 -15 L335 -15 L542 580 L785 -15 L785 -15 Z M205 660 L0 660 L0 645 C37 645 64 628 82 590 L321 -15 L348 65 L144 587 C133 622 149 645 186 645 L205 645 L205 660 L205 660 Z " />
<glyph glyph-name="Wacute" unicode="&#x1e82;" horiz-adv-x="1118" d="M504 691 C504 691 583 780 614 820 C639 850 656 872 656 875 C656 881 636 895 627 895 C625 895 610 873 589 840 C558 800 499 695 499 695 L504 691 L504 691 Z M1113 660 L921 660 L921 645 L956 645 C992 645 1009 623 1001 589 L786 -15 L800 -15 L1016 586 C1031 622 1064 645 1100 645 L1112 645 L1113 660 L1113 660 Z M785 -15 L815 70 L573 670 L559 670 L321 -15 L335 -15 L542 580 L785 -15 L785 -15 Z M205 660 L0 660 L0 645 C37 645 64 628 82 590 L321 -15 L348 65 L144 587 C133 622 149 645 186 645 L205 645 L205 660 L205 660 Z " />
<glyph glyph-name="Wdieresis" unicode="&#x1e84;" horiz-adv-x="1118" d="M691 761 C691 800 630 801 630 761 C630 720 691 721 691 761 L691 761 Z M504 761 C504 801 443 800 443 761 C443 721 504 720 504 761 L504 761 Z M1113 660 L921 660 L921 645 L956 645 C992 645 1009 623 1001 589 L786 -15 L800 -15 L1016 586 C1031 622 1064 645 1100 645 L1112 645 L1113 660 L1113 660 Z M785 -15 L815 70 L573 670 L559 670 L321 -15 L335 -15 L542 580 L785 -15 L785 -15 Z M205 660 L0 660 L0 645 C37 645 64 628 82 590 L321 -15 L348 65 L144 587 C133 622 149 645 186 645 L205 645 L205 660 L205 660 Z " />
<glyph glyph-name="Etilde" unicode="&#x1ebc;" horiz-adv-x="653" d="M113 755 C113 795 141 822 182 822 C262 822 369 759 449 759 C504 759 540 797 540 853 L532 853 C532 816 503 792 460 792 C380 792 273 855 193 855 C140 855 105 815 105 755 L113 755 L113 755 Z M473 260 L473 434 L461 434 L457 423 C445 385 404 359 353 359 L171 359 L171 646 L380 646 C440 646 493 606 513 546 L524 511 L535 511 L535 660 L40 660 L40 645 L51 645 C89 645 115 619 115 580 L115 80 C115 41 89 15 51 15 L40 15 L40 0 L541 0 L542 7 L541 7 C549 50 559 106 567 149 L556 149 L539 114 C508 54 448 14 388 14 L171 14 L171 345 L353 345 C404 345 445 316 457 273 L461 260 L473 260 L473 260 Z " />
<glyph glyph-name="Ygrave" unicode="&#x1ef2;" horiz-adv-x="698" d="M225 660 L23 660 L23 645 C57 645 86 627 113 590 L327 258 L328 73 C325 38 300 15 264 15 L253 15 L253 0 L458 0 L458 15 L447 15 C409 15 383 41 383 80 L383 275 L589 580 C618 624 655 645 698 645 L698 660 L516 660 L516 645 L531 645 C582 645 593 611 559 560 L559 560 L378 289 L182 589 C163 623 174 645 210 645 L225 645 L225 660 L225 660 Z M274 875 C274 870 291 849 317 820 C349 780 430 691 430 691 L435 695 C435 695 374 799 342 840 C321 873 306 895 302 895 C294 895 274 881 274 875 L274 875 Z " />
<glyph glyph-name="quoteleft" unicode="&#x2018;" horiz-adv-x="188" d="M69 512 L69 512 C75 505 84 501 95 501 C117 501 131 515 131 537 C131 562 110 579 83 571 C78 610 96 646 121 658 L117 666 C79 647 53 605 53 560 C53 540 59 521 68 511 L69 512 L69 512 Z " />
<glyph glyph-name="quoteright" unicode="&#x2019;" horiz-adv-x="188" d="M123 655 L123 655 C117 662 108 666 97 666 C75 666 61 652 61 630 C61 605 82 588 109 596 C114 557 96 521 71 509 L75 501 C113 520 139 562 139 607 C139 627 133 646 124 656 L123 655 L123 655 Z " />
<glyph glyph-name="quotedblleft" unicode="&#x201c;" horiz-adv-x="294" d="M175 512 L175 512 C181 505 190 501 201 501 C223 501 237 515 237 537 C237 562 216 579 189 571 C184 610 202 646 227 658 L223 666 C185 647 159 605 159 560 C159 540 165 521 174 511 L175 512 L175 512 Z M68 511 L68 511 C74 504 83 500 94 500 C116 500 130 514 130 536 C130 561 109 578 82 570 C77 609 95 645 120 657 L116 665 C78 646 52 604 52 559 C52 539 58 520 67 510 L68 511 L68 511 Z " />
<glyph glyph-name="quotedblright" unicode="&#x201d;" horiz-adv-x="294" d="M229 655 L229 655 C223 662 214 666 203 666 C181 666 167 652 167 630 C167 605 188 588 215 596 C220 557 202 521 177 509 L181 501 C219 520 245 562 245 607 C245 627 239 646 230 656 L229 655 L229 655 Z M124 656 L124 656 C118 663 109 667 98 667 C76 667 62 653 62 631 C62 606 83 589 110 597 C115 558 97 522 72 510 L76 502 C114 521 140 563 140 608 C140 628 134 647 125 657 L124 656 L124 656 Z " />
<glyph glyph-name="ellipsis" unicode="&#x2026;" horiz-adv-x="450" d="M375 0 C397 0 411 14 411 36 C411 58 397 72 375 72 C353 72 339 58 339 36 C339 14 353 0 375 0 L375 0 Z M225 0 C247 0 261 14 261 36 C261 58 247 72 225 72 C203 72 189 58 189 36 C189 14 203 0 225 0 L225 0 Z M75 0 C97 0 111 14 111 36 C111 58 97 72 75 72 C53 72 39 58 39 36 C39 14 53 0 75 0 L75 0 Z " />
<glyph glyph-name="perthousand" unicode="&#x2030;" horiz-adv-x="1289" d="M983 191 C983 292 1029 360 1099 360 C1178 360 1230 284 1230 171 C1230 75 1182 11 1110 11 C1034 11 983 83 983 191 L983 191 Z M934 182 C934 70 1003 -5 1106 -5 C1209 -5 1277 72 1277 188 C1277 300 1209 375 1106 375 C1003 375 934 298 934 182 L934 182 Z M79 542 C79 643 125 710 195 710 C274 710 326 635 326 522 C326 426 278 362 206 362 C130 362 79 434 79 542 L79 542 Z M30 533 C30 420 99 345 202 345 C305 345 373 423 373 539 C373 651 305 725 202 725 C99 725 30 648 30 533 L30 533 Z M581 191 C581 292 628 360 698 360 C780 360 835 284 835 171 C835 75 785 11 709 11 C632 11 581 83 581 191 L581 191 Z M532 181 C532 69 601 -5 705 -5 C811 -5 882 72 882 188 C882 300 811 375 705 375 C601 375 532 297 532 181 L532 181 Z M213 -8 L726 712 L705 728 L191 8 L213 -8 L213 -8 Z " />
<glyph glyph-name="guilsinglleft" unicode="&#x2039;" horiz-adv-x="389" d="M78 251 L342 459 L337 464 L20 254 L20 248 L338 37 L344 42 L78 251 L78 251 Z " />
<glyph glyph-name="guilsinglright" unicode="&#x203a;" horiz-adv-x="389" d="M51 37 L369 248 L369 254 L52 464 L47 459 L311 251 L45 42 L51 37 L51 37 Z " />
<glyph glyph-name="fraction" unicode="&#x2044;" horiz-adv-x="545" d="M41 -8 L554 712 L533 728 L19 8 L41 -8 L41 -8 Z " />
<glyph glyph-name="Euro" unicode="&#x20ac;" horiz-adv-x="853" d="M780 195 C776 184 771 168 767 157 C742 84 673 29 592 15 C559 11 525 9 491 9 C316 9 192 110 167 269 L547 269 L552 305 L163 305 C162 321 162 338 163 354 L552 354 L557 390 L167 390 C192 549 316 650 491 650 C503 650 619 645 618 640 C683 630 743 575 768 502 C772 491 777 475 781 464 L794 464 L794 602 L791 596 C791 598 793 600 794 602 C730 639 608 664 491 664 C282 664 135 557 106 390 L56 390 L51 354 L102 354 C101 338 101 321 102 305 L51 305 L46 269 L106 269 C135 102 282 -5 491 -5 C608 -5 730 20 794 57 L790 64 L790 64 L793 57 L793 195 L780 195 L780 195 Z " />
<glyph glyph-name="F_sc" unicode="&#xa730;" horiz-adv-x="497" d="M41 538 L52 538 C90 538 116 512 116 473 L116 80 C116 41 90 15 52 15 L41 15 L41 0 L251 0 L251 15 L231 15 C192 15 166 41 166 80 L166 285 L272 285 C323 285 364 256 376 213 L380 200 L392 200 L392 372 L380 372 L376 361 C364 323 323 297 272 297 L166 297 L166 541 L338 541 C398 541 451 501 471 441 L482 406 L493 406 L493 553 L41 553 L41 538 L41 538 Z " />
<glyph glyph-name="S_sc" unicode="&#xa731;" horiz-adv-x="511" d="M433 367 L433 507 L429 500 C430 502 432 504 433 506 C380 537 304 557 242 557 C128 557 52 495 52 402 C52 336 126 278 238 256 C354 234 431 179 431 120 C431 52 369 7 277 7 C273 7 225 9 225 10 C158 17 95 72 69 148 C65 159 60 174 56 185 L43 185 L43 45 C96 14 190 -6 277 -6 C390 -6 466 53 466 141 C466 211 390 273 276 295 C163 317 87 368 87 422 C87 496 148 545 240 545 C259 545 280 542 302 537 L302 537 C340 529 375 496 389 456 C398 429 411 393 420 366 L433 367 L433 367 Z " />
<glyph glyph-name="X_sc" unicode="&#xf078;" horiz-adv-x="641" d="M246 553 L46 553 L46 538 C83 538 118 516 151 473 L151 473 L310 269 L168 76 C139 39 96 15 59 15 L48 15 L48 0 L241 0 L241 15 L222 15 C174 15 165 47 200 95 L200 95 L318 259 L461 75 C486 39 479 15 442 15 L419 15 L419 0 L619 0 L619 15 C582 15 547 37 514 80 L514 80 L344 298 L484 473 C515 512 562 538 600 538 L611 538 L611 553 L419 553 L419 538 L452 538 C491 538 497 512 466 473 L466 473 L336 308 L203 478 C178 514 185 538 222 538 L245 538 L246 553 L246 553 Z " />
</font>
</svg>
