<?xml version="1.0" encoding="UTF-8"?>
<svg xmlns="http://www.w3.org/2000/svg" xmlns:xlink="http://www.w3.org/1999/xlink" version="1.2" >
<font id="Ammar Round">
<font-face  font-family="Ammar" units-per-em="1024" ascent="936" descent="-280" font-style="normal" font-weight="400" font-stretch="normal" cap-height="928" x-height="468" underline-position="-125" underline-thickness="50" />
<missing-glyph  horiz-adv-x="100" d="" />
<glyph glyph-name="NULL" d="" />
<glyph glyph-name="CR" unicode="&#xd;" horiz-adv-x="256" d="" />
<glyph glyph-name="space" unicode="&#x20;" horiz-adv-x="274" d="" />
<glyph glyph-name="exclam" unicode="&#x21;" horiz-adv-x="234" d="M125 -5 C164 -5 190 21 190 60 C190 99 164 125 125 125 C86 125 60 99 60 60 C60 21 86 -5 125 -5 L125 -5 Z M174.251 602.9 C176.891 640.284 155.075 665 119 665 C81.95 665 60.11 640.284 63.6755 602.9 C63.6843 602.808 64.0995 590.8 64.1014 590.707 C66.7156 466.175 119 200 119 200 C119 200 120.974 200 125 200 C128.277 200 130.585 197.279 131.079 200.518 C133.123 213.9 174 483 174 600 C174 600.084 174.245 602.816 174.251 602.9 L174.251 602.9 Z " />
<glyph glyph-name="quotedbl" unicode="&#x22;" horiz-adv-x="340" d="M195.859 603.535 L233.584 407.365 C234.351 403.373 238.435 400 242.5 400 C246.565 400 250.649 403.373 251.416 407.365 L289.141 603.535 C295.027 634.141 273.667 660 242.5 660 C211.333 660 189.973 634.141 195.859 603.535 L195.859 603.535 Z M50.8587 603.535 L88.5836 407.365 C89.3514 403.373 93.4347 400 97.5 400 C101.565 400 105.649 403.373 106.416 407.365 L144.141 603.535 C150.027 634.141 128.667 660 97.5 660 C66.3328 660 44.9729 634.141 50.8587 603.535 L50.8587 603.535 Z " />
<glyph glyph-name="numbersign" unicode="&#x23;" horiz-adv-x="672" d="M474.454 647.686 L459.721 547.501 C455.504 518.83 427.913 495 398.934 495 L328.136 495 C289.289 495 261.698 526.945 267.35 565.379 L279.454 647.686 C280.844 657.141 274.057 665 264.5 665 C254.943 665 245.844 657.141 244.454 647.686 L229.721 547.501 C225.504 518.83 197.913 495 168.934 495 L103.288 495 C83.9691 495 65.9636 479.161 63.5 460 C61.0364 440.839 74.9691 425 94.2881 425 L139.842 425 C178.699 425 206.291 393.045 200.626 354.602 L190.734 287.482 C186.511 258.823 158.919 235 129.951 235 L62.3553 235 C43.0364 235 24.7321 219.125 22 200 C19.2679 180.875 33.0364 165 52.3553 165 L101.55 165 C140.543 165 168.138 132.909 162.296 94.356 L150.622 17.3025 C149.191 7.85982 155.95 0 165.5 0 C175.05 0 184.191 7.85982 185.622 17.3025 L200.085 112.764 C204.405 141.271 231.999 165 260.832 165 L331.55 165 C370.543 165 398.138 132.909 392.296 94.356 L380.622 17.3025 C379.191 7.85982 385.95 0 395.5 0 C405.05 0 414.191 7.85982 415.622 17.3025 L430.085 112.764 C434.405 141.271 461.999 165 490.832 165 L559.712 165 C579.031 165 597.036 180.839 599.5 200 C601.964 219.161 588.031 235 568.712 235 L519.158 235 C480.301 235 452.709 266.955 458.374 305.398 L468.266 372.518 C472.489 401.177 500.081 425 529.049 425 L606.645 425 C625.964 425 644.268 440.875 647 460 C649.732 479.125 635.964 495 616.645 495 L558.136 495 C519.289 495 491.698 526.945 497.35 565.379 L509.454 647.686 C510.844 657.141 504.057 665 494.5 665 C484.943 665 475.844 657.141 474.454 647.686 L474.454 647.686 Z M299.049 425 L369.842 425 C408.699 425 436.291 393.045 430.626 354.602 L420.734 287.482 C416.511 258.823 388.919 235 359.951 235 L289.158 235 C250.301 235 222.709 266.955 228.374 305.398 L238.266 372.518 C242.489 401.177 270.081 425 299.049 425 L299.049 425 Z " />
<glyph glyph-name="dollar" unicode="&#x24;" horiz-adv-x="607" d="M41 191.329 L41 63.9545 C41 51.0271 48.511 37.4949 60.4422 32.5185 C94.1927 18.4415 143.672 7.5985 199.963 1.3615 C219.1 -0.758923 237 -19.2455 237 -38.5 L237 -60 C237 -68.2796 243.72 -75 252 -75 C260.28 -75 267 -68.2796 267 -60 L267 -12.0156 C267 -7.68888 271.497 -4.27508 275.82 -4.45229 C286.213 -4.87829 296.936 -4.97295 307.733 -4.99399 C312.416 -5.00311 317 -8.8174 317 -13.5 L317 -60 C317 -68.2796 323.72 -75 332 -75 C340.28 -75 347 -68.2796 347 -60 L347 -39.5 C347 -22.1222 367.512 -2.30526 384.61 0.801 C493.15 20.52 562 87.3 562 180 C562 256.125 496.156 323.828 393.275 356.313 C370.673 363.449 347 394.974 347 418.676 L347 626.448 C347 631.836 350.777 635.623 356.116 634.895 C371.295 632.824 386.373 629.677 400.835 626.48 C401.12 626.417 405.195 625.239 405.469 625.14 C437.489 613.496 466.325 584.075 479 548 C487.538 523.333 498.777 491.466 507.593 466.061 C508.703 462.861 512.113 462 515.5 462 C519.088 462 522 464.912 522 468.5 L522 595.362 C522 608.216 514.415 622.627 502.705 627.928 C471.262 642.162 429.089 653.321 383.259 659.866 C365.305 662.43 347 680.992 347 699.128 L347 721 C347 729.28 340.28 736 332 736 C323.72 736 317 729.28 317 721 L317 674.515 C317 669.917 312.328 666.274 307.733 666.446 C296.936 666.851 286.213 666.851 275.82 666.446 C271.505 666.278 267 669.697 267 674.016 L267 722 C267 730.28 260.28 737 252 737 C243.72 737 237 730.28 237 722 L237 700 C237 682.283 220.055 660.49 202.922 655.976 C104.75 630.11 44 561.8 44 470 C44 404.375 102.188 345.641 195.115 312.555 C216.348 304.995 237 274.468 237 251.93 L237 41.0801 C237 33.3525 230.684 27.6768 223 28.5 L212.156 29.6618 C211.852 29.6944 204.732 30.9747 204.435 31.0478 C145.219 45.6106 91.375 96.725 67 164 C63.7059 173.059 59.7336 184.83 56.2001 194.847 C55.1218 197.903 51.4557 200.413 48.2975 199.684 L47.5 199.5 C44.0041 198.693 41 194.917 41 191.329 L41 191.329 Z M267 399.382 L267 633.984 C267 638.511 271.298 642.27 275.82 642.446 C286.213 642.851 296.936 642.851 307.733 642.446 C312.528 642.266 317 638.283 317 633.485 L317 386.22 C317 381.191 312.631 377.966 307.74 379.132 C296.321 381.854 285.466 384.789 274.898 387.937 C270.589 389.22 267 394.885 267 399.382 L267 399.382 Z M198.422 416.182 C143.989 443.031 112 476.175 112 510 C112 563.625 144.67 604.999 198.78 626.26 C221.116 635.037 236 622.266 236 598.267 L236 441.14 C236 418.477 218.748 406.157 198.422 416.182 L198.422 416.182 Z M275.267 291.27 C286.064 289.151 296.787 286.7 307.18 284.176 C311.507 283.125 316 278.207 316 273.754 L316 31.5 C316 26.717 311.509 23.0002 306.727 23.0932 C295.909 23.3035 285.091 23.8452 274.273 24.4606 C269.578 24.7276 265.014 28.8123 265.032 33.5146 L265.968 284.369 C265.986 289.139 270.586 292.189 275.267 291.27 L275.267 291.27 Z M388.489 255.238 C451.566 225.108 489 185.075 489 143 C489 90.2 450.885 50.3319 388.131 32.9414 C361.215 25.4822 345 41.2986 345 69.2295 L345 225.878 C345 252.327 364.622 266.639 388.489 255.238 L388.489 255.238 Z " />
<glyph glyph-name="percent" unicode="&#x25;" horiz-adv-x="899" d="M119 548 C119 638 149 698 194 698 C256 698 298 624 298 512 C298 430 265 375 215 375 C157 375 119 444 119 548 L119 548 Z M30 531 C30 419 101 345 207 345 C312 345 382 424 382 543 C382 652 312 725 207 725 C101 725 30 647 30 531 L30 531 Z M606 197 C606 288 639 348 689 348 C757 348 803 273 803 161 C803 79 765 24 709 24 C647 24 606 93 606 197 L606 197 Z M518 180 C518 69 591 -5 701 -5 C813 -5 887 73 887 191 C887 301 813 375 701 375 C591 375 518 297 518 180 L518 180 Z M239.93 5.55034 L725.305 686.779 C732.863 697.387 730.486 712.273 720 720 C709.514 727.727 694.855 725.393 687.287 714.792 L200.948 33.5375 C193.249 22.7534 195.737 7.72755 206.5 0 C217.263 -7.72753 232.241 -5.24079 239.93 5.55034 L239.93 5.55034 Z " />
<glyph glyph-name="ampersand" unicode="&#x26;" horiz-adv-x="768" d="M670.841 300 L515.5 300 C511.36 300 508 296.64 508 292.5 L508 290.5 C508 287.464 510.464 285 513.5 285 L519 285 C557 285 583 259 583 220 L583 190 C583 163.6 574.832 139.242 559.059 118.049 C552.767 109.595 545.783 106.94 538.188 114.246 C484 166.376 401.204 262.186 344.072 332.556 C330.188 349.657 336.478 374.22 357.215 381.65 C450.813 415.188 509 476 509 546 C509 617 439 665 334 665 C230 665 160 599 160 500 C160 461.225 176.335 422.45 205.074 378.621 C214.311 364.535 209.244 343.022 194.37 335.116 C106.08 288.19 51 221.5 51 154 C51 59 142 -5 278 -5 C357.9 -5 426.962 8.005 480.889 31.5585 C491.395 36.1475 525.684 33.7618 535.748 28.27 C615.443 -15.2175 685.032 -13.5331 763.272 -0.172969 C767.322 0.518669 770 4.39097 770 8.5 C770 12.4879 765.412 15.1991 761.467 14.6129 C710.345 7.01462 659.992 13.3079 580.52 79.4196 C573.263 85.457 573.679 98.5105 579.098 106.241 C596.471 131.022 606 159.65 606 191 L606 221 C606 260 632 286 670 286 L675.5 286 C678.468 286 680.47 288.475 679.848 291.378 L679.5 293 C678.69 296.778 674.705 300 670.841 300 L670.841 300 Z M232 541 C232 605 272 647 331 647 C398 647 442 605 442 542 C442 479.95 404.43 426.57 342.801 397.213 C318.799 385.78 299.894 394.04 284.68 415.842 C251.057 464.027 232 503.875 232 541 L232 541 Z M465.368 55.4467 C426.92 42.225 380.85 35 329 35 C214 35 138 96 138 188 C138 238.75 167.859 287.203 216.859 321.301 C230.072 330.495 244.123 328.009 254.001 315.299 C283.457 277.397 319.2 235.45 360 187 C398.25 141.1 433.971 104.954 467.164 77.333 C475.759 70.1809 475.941 59.0829 465.368 55.4467 L465.368 55.4467 Z " />
<glyph glyph-name="quotesingle" unicode="&#x27;" horiz-adv-x="195" d="M50.8587 603.535 L88.5836 407.365 C89.3514 403.373 93.4347 400 97.5 400 C101.565 400 105.649 403.373 106.416 407.365 L144.141 603.535 C150.027 634.141 128.667 660 97.5 660 C66.3328 660 44.9729 634.141 50.8587 603.535 L50.8587 603.535 Z " />
<glyph glyph-name="parenleft" unicode="&#x28;" horiz-adv-x="285" d="M254.926 679.069 C137.951 537.199 60 404.55 60 270 C60 135.45 137.951 2.80125 254.926 -139.069 C257.55 -142.251 266.448 -147.775 269.5 -145 C272.494 -142.278 271.087 -135.303 268.53 -132.167 C185.136 -29.91 130 89.625 130 270 C130 450.375 185.136 569.91 268.53 672.167 C271.087 675.303 272.494 682.278 269.5 685 C266.448 687.775 257.55 682.251 254.926 679.069 L254.926 679.069 Z " />
<glyph glyph-name="parenright" unicode="&#x29;" horiz-adv-x="285" d="M19.0743 -139.069 C136.049 2.80125 214 135.45 214 270 C214 404.55 136.049 537.199 19.0743 679.069 C16.4501 682.251 7.5523 687.775 4.5 685 C1.50621 682.278 2.91309 675.303 5.47017 672.167 C88.8637 569.91 144 450.375 144 270 C144 89.625 88.8637 -29.91 5.47017 -132.167 C2.91309 -135.303 1.50621 -142.278 4.5 -145 C7.5523 -147.775 16.4501 -142.251 19.0743 -139.069 L19.0743 -139.069 Z " />
<glyph glyph-name="asterisk" unicode="&#x2a;" horiz-adv-x="300" d="M272 575 L272 575 L272 575 Z M250.765 449.698 C264.317 443.361 277.115 447.462 286 462 C294.885 476.538 292.027 490.425 280.061 498.916 C273.764 503.384 268.552 501.517 264.662 494.848 L247.548 465.511 C243.623 458.782 243.708 452.998 250.765 449.698 L250.765 449.698 Z M282.068 579.987 C294.064 588.228 297.077 601.462 289 616 C280.923 630.538 267.627 635.291 254.382 629.205 C247.282 625.943 246.381 620.545 250.212 613.735 L266.806 584.234 C270.533 577.609 275.802 575.683 282.068 579.987 L282.068 579.987 Z M134.597 475.967 L123 420 C119 399 129 385 150 385 C171 385 182 399 178 420 L165.89 477.521 C162.007 495.964 182.958 508.072 197 495.5 L219.3 475.534 C230.493 465.512 246.43 468.023 254 481 C261.555 493.951 255.842 508.977 241.592 513.638 L214.5 522.5 C196.98 528.231 196.946 551.872 214.45 557.653 L243.853 567.364 C258.016 572.042 263.813 587 256.5 600 C249.228 612.929 233.553 615.508 222.521 605.592 L198.049 583.594 C183.635 570.638 162.073 583.021 166 602 L178 660 C182 681 171 695 150 695 C129 695 119 681 123 660 L134.5 604 C138.268 585.654 117.428 573.715 103.507 586.244 L61 624.5 C45 638.5 27 636 17 618 C6 599 13 583.5 33 576.5 L126.96 545.879 C132.89 543.946 131.372 535.482 125.445 533.538 C95.4234 523.692 64.5385 513.846 35 504 C16 497 9 480 20 462 C30 443 46.5 441.75 62.5 455.75 L104.25 493.375 C117.883 505.661 138.32 493.937 134.597 475.967 L134.597 475.967 Z " />
<glyph glyph-name="plus" unicode="&#x2b;" horiz-adv-x="555" d="M253 428 L253 331.44 C253 297.527 225.473 270 191.56 270 L95 270 C83.9606 270 75 261.039 75 250 C75 238.961 83.9606 230 95 230 L191.56 230 C225.473 230 253 202.473 253 168.56 L253 72 C253 59.8567 262.857 50 275 50 C287.143 50 297 59.8567 297 72 L297 168.56 C297 202.473 324.527 230 358.44 230 L455 230 C466.039 230 475 238.961 475 250 C475 261.039 466.039 270 455 270 L358.44 270 C324.527 270 297 297.527 297 331.44 L297 428 C297 440.143 287.143 450 275 450 C262.857 450 253 440.143 253 428 L253 428 Z " />
<glyph glyph-name="comma" unicode="&#x2c;" horiz-adv-x="251" d="M125 125 C86 125 60 99 60 60 C60 21 86 -5 125 -5 C130 -5 135.694 -0.138889 141.505 6.68981 C143.049 8.50523 145.489 8.62905 145.889 6.27934 C155.808 -51.8812 127.137 -107.518 88.3705 -130.555 C85.5831 -132.211 82 -138.258 82 -141.5 C82 -145.276 83.9398 -148.069 87.2796 -146.306 C155.321 -110.399 200 -40.175 200 31 C200 78 174.5 125 124.5 125 L125 125 Z " />
<glyph glyph-name="hyphen" unicode="&#x2d;" horiz-adv-x="405" d="M55 200 L350 200 C369.319 200 385 215.681 385 235 C385 254.319 369.319 270 350 270 L55 270 C35.681 270 20 254.319 20 235 C20 215.681 35.681 200 55 200 L55 200 Z " />
<glyph glyph-name="period" unicode="&#x2e;" horiz-adv-x="250" d="M125 -5 C164 -5 190 21 190 60 C190 99 164 125 125 125 C86 125 60 99 60 60 C60 21 86 -5 125 -5 L125 -5 Z " />
<glyph glyph-name="slash" unicode="&#x2f;" horiz-adv-x="350" d="M20 -145 C30.3783 -145 43.2797 -135.954 46.8172 -126.198 L343.183 691.198 C346.72 700.954 340.378 710 330 710 C319.622 710 306.72 700.954 303.183 691.198 L6.8172 -126.198 C3.27965 -135.954 9.62171 -145 20 -145 L20 -145 Z " />
<glyph glyph-name="zero" unicode="0" horiz-adv-x="706" d="M150 250 C150 391 231 485 353 485 C475 485 556 391 556 250 C556 109 475 15 353 15 C231 15 150 109 150 250 L150 250 Z M50 250 C50 97 171 -5 353 -5 C535 -5 656 97 656 250 C656 403 535 505 353 505 C171 505 50 403 50 250 L50 250 Z " />
<glyph glyph-name="one" unicode="1" horiz-adv-x="350" d="M289.5 15 L284 15 C246 15 220 41 220 80 L220 420 C220 459 246 485 284 485 L289.5 485 C292.536 485 295 487.464 295 490.5 L295 492.5 C295 496.64 291.64 500 287.5 500 L62.5 500 C58.3602 500 55 496.64 55 492.5 L55 490.5 C55 487.464 57.4642 485 60.5 485 L66 485 C104 485 130 459 130 420 L130 80 C130 41 104 15 66 15 L60.5 15 C57.4642 15 55 12.5358 55 9.5 L55 7.5 C55 3.36022 58.3602 0 62.5 0 L287.5 0 C291.64 0 295 3.36022 295 7.5 L295 9.5 C295 12.5358 292.536 15 289.5 15 L289.5 15 Z " />
<glyph glyph-name="two" unicode="2" horiz-adv-x="581" d="M539.5 159.5 L539 154 C535 116 507 90 468 90 L312.74 90 C283.043 90 271.113 129.368 297.235 143.493 C444.199 222.959 532 282.875 532 353 C532 444 449 505 324 505 C209.925 505 110.109 449.864 72.7498 365.543 C71.251 362.16 72.3784 357.486 75.5 355.5 C78.2234 353.767 83.0655 356.82 84.5801 359.67 C109.948 407.412 185.9 439 279 439 C370 439 431 392 431 322 C431 210 269 150 25 20 C20.7007 17.7094 25 14.8714 25 10 C25 4.4803 29.4803 0 35 0 L495.823 0 C520.661 0 542.801 20.2589 545 45 L549 90 L554.402 157.524 C554.731 161.637 551.627 165 547.5 165 L545.523 165 C542.487 165 539.775 162.523 539.5 159.5 L539.5 159.5 Z " />
<glyph glyph-name="three" unicode="3" horiz-adv-x="563" d="M258 174 C354 174 418 119 418 36 C418 -93.675 268.752 -186.276 42.5507 -196.386 C37.6874 -196.603 25 -201.132 25 -206 C25 -211.046 41.7483 -214.446 46.7897 -214.225 C327.628 -201.873 513 -101.35 513 41 C513 120.05 458.09 178.87 369.764 200.265 C355.94 203.613 355.792 227.183 367.841 234.742 C437.162 278.227 478 327.975 478 375 C478 453 401 505 286 505 C202.15 505 95.485 456.518 16.0554 382.726 C13.4378 380.294 11.9735 375.026 14.5 372.5 C16.9028 370.097 19.9519 368.975 22.4568 371.272 C68.4494 413.432 155.2 441 241 441 C329 441 387 403 387 346 C387 289 334 232 250 195 L207.057 179.54 C203.392 178.221 200 173.395 200 169.5 C200 165.615 204.027 163.251 207.761 164.325 C223.737 168.92 245.222 174 258 174 L258 174 Z " />
<glyph glyph-name="four" unicode="4" horiz-adv-x="635" d="M5 9.5 C5 4.25628 9.25628 0 14.5 0 L310.56 0 C344.473 0 372 -27.527 372 -61.44 L372 -105 C372 -129.839 392.161 -150 417 -150 C441.839 -150 462 -129.839 462 -105 L462 -61.44 C462 -27.527 489.527 0 523.44 0 L605 0 C616.039 0 625 8.9606 625 20 C625 31.0394 616.039 40 605 40 L523.44 40 C489.527 40 462 67.527 462 101.44 L462 497.5 C462 501.64 458.64 505 454.5 505 C451.859 505 441.263 501.631 439.055 500.183 C330.114 428.719 5 19 5 19 C5 19 5 24.5443 5 9.5 L5 9.5 Z M98.4779 82.3382 C170.461 170.452 286.243 310.09 372.264 399.055 C373.052 399.87 378.267 403.047 377.838 401.998 C374.148 392.97 372 384.769 372 378 L372 101.44 C372 67.527 344.473 40 310.56 40 L115.539 40 C93.4321 40 84.4918 65.2181 98.4779 82.3382 L98.4779 82.3382 Z " />
<glyph glyph-name="five" unicode="5" horiz-adv-x="547" d="M503.5 575 L501.852 575 C498.817 575 495.037 572.353 494 569.5 L492 564 C479 526 445 500 406 500 L141.5 500 C117.436 500 94.6801 475.009 93.1775 450.992 C86.675 347.06 65 191 65 191 C65 191 70.973 191 76.5 191 L78.3823 191 C83.626 191 88.6822 195.32 89.5 200.5 C88.6822 195.32 92.374 191 97.6177 191 L185 191 C318 191 407 135 407 50 C407 -70.9 264.406 -154.726 47.8063 -160.695 C42.1224 -160.852 31 -165.814 31 -171.5 C31 -177.401 45.9239 -181.758 51.8223 -181.586 C320.184 -173.769 497 -71.15 497 79 C497 200 391 280 231 280 L120.164 280 C109.68 280 101.943 287.144 103.307 297.539 C106.839 324.454 110.622 353.876 113.732 382.728 C114.958 394.095 125.662 405 137.095 405 L423.902 405 C440.808 405 461.103 420.572 466.322 436.652 C481.303 482.818 495.188 526.477 508.442 567.163 C509.66 570.901 507.432 575 503.5 575 L503.5 575 Z " />
<glyph glyph-name="six" unicode="6" horiz-adv-x="666" d="M568.275 713.882 C262.483 695.554 60 529.975 60 295 C60 115 171 -5 338 -5 C512 -5 623 83 616 216 C616 344 516 430 367 430 C275.35 430 203.663 387.222 167.696 316.495 C166.899 314.928 165 316.742 165 318.5 L165 326 C165 541 336 691 593 700 C597.144 700.145 592.776 703.362 592.5 707.5 C592.217 711.746 572.523 714.137 568.275 713.882 L568.275 713.882 Z M352 405 C453 405 521 327 521 211 C527 96 458 20 348 20 C236 20 162 96 162 210 C165 327 241 405 352 405 L352 405 Z " />
<glyph glyph-name="seven" unicode="7" horiz-adv-x="538" d="M31.5 338.5 L32 344 C36 382 64 408 103 408 L371.816 408 C422.63 408 450.406 359.995 425.083 315.941 L187.918 -96.6513 C175.993 -117.396 189.073 -140 213 -140 L222.13 -140 C242.941 -140 268.16 -127.688 276.2 -108.493 C359.802 91.0975 443.45 291.5 528 491 C529.072 493.53 526.187 493.331 524.5 495.5 C522.975 497.461 517.783 500 515.299 500 L76.1736 500 C50.783 500 28.1996 479.295 26 454 L22 408 C22 408 16 336 16 333 L25.4773 333 C28.5132 333 31.2251 335.477 31.5 338.5 L31.5 338.5 Z " />
<glyph glyph-name="eight" unicode="8" horiz-adv-x="637" d="M439.961 371.969 C511.121 407.326 554 460.6 554 520 C554 608 460 666 319 666 C177 666 82 596 82 492 C82 437.55 126.921 380.378 200.48 335.643 C212.892 328.095 206.259 302.052 192.214 298.337 C106.727 275.726 55 226.35 55 162 C55 62 161 -4 321 -4 C481 -4 587 69 587 179 C587 224.9 532.09 279.109 441.922 327.501 C426.205 335.937 423.987 364.032 439.961 371.969 L439.961 371.969 Z M354.956 367.351 L325 379 C224 416 157 475 157 527 C157 599 220 647 314 647 C414 647 479.5 590 479.5 505 C479.5 448.125 449.641 399.672 400.641 369.689 C389.238 362.712 367.415 362.505 354.956 367.351 L354.956 367.351 Z M139 177 C139 238.05 179.214 282.843 245.397 300.299 C251.273 301.849 271.358 300.257 277 298 L292 292 C417 246 501 189 501 148 C501 68 431 15 325 15 C213 15 139 80 139 177 L139 177 Z " />
<glyph glyph-name="nine" unicode="9" horiz-adv-x="666" d="M97.7246 -213.882 C403.517 -195.554 606 -29.975 606 205 C606 385 495 505 328 505 C154 505 43 417 50 284 C50 156 150 70 299 70 C390.65 70 462.337 112.778 498.304 183.505 C499.101 185.072 501 183.258 501 181.5 L501 174 C501 -41 330 -191 73 -200 C68.8556 -200.145 73.2242 -203.362 73.5 -207.5 C73.7831 -211.746 93.4766 -214.137 97.7246 -213.882 L97.7246 -213.882 Z M314 95 C213 95 145 173 145 289 C139 404 208 480 318 480 C430 480 504 404 504 290 C501 173 425 95 314 95 L314 95 Z " />
<glyph glyph-name="colon" unicode="&#x3a;" horiz-adv-x="250" d="M125 395 C164 395 190 421 190 460 C190 499 164 525 125 525 C86 525 60 499 60 460 C60 421 86 395 125 395 L125 395 Z M125 -5 C164 -5 190 21 190 60 C190 99 164 125 125 125 C86 125 60 99 60 60 C60 21 86 -5 125 -5 L125 -5 Z " />
<glyph glyph-name="semicolon" unicode="&#x3b;" horiz-adv-x="251" d="M125 395 C164 395 190 421 190 460 C190 499 164 525 125 525 C86 525 60 499 60 460 C60 421 86 395 125 395 L125 395 Z M125 125 C86 125 60 99 60 60 C60 21 86 -5 125 -5 C130 -5 135.694 -0.138889 141.505 6.68981 C143.049 8.50523 145.489 8.62905 145.889 6.27934 C155.808 -51.8812 127.137 -107.518 88.3705 -130.555 C85.5831 -132.211 82 -138.258 82 -141.5 C82 -145.276 83.9398 -148.069 87.2796 -146.306 C155.321 -110.399 200 -40.175 200 31 C200 78 174.5 125 124.5 125 L125 125 Z " />
<glyph glyph-name="less" unicode="&#x3c;" horiz-adv-x="636" d="M540.034 491.835 L50 301 C47 301 43 297 40 297 L40 275 C40 263.694 55.4487 246.843 65.9574 242.672 C221.745 180.831 378.302 121.217 534.9 60.1856 C545.671 55.9878 561 60.94 561 72.5 C561 84.1104 550.82 98.8659 539.966 102.988 L238.253 217.562 C182.837 238.606 182.837 311.394 238.253 332.438 L539.966 447.012 C550.82 451.134 561 465.89 561 477.5 C561 489.073 550.818 496.035 540.034 491.835 L540.034 491.835 Z " />
<glyph glyph-name="equal" unicode="&#x3d;" horiz-adv-x="630" d="M84 200 C84 188.961 92.9606 180 104 180 L540 180 C551.039 180 560 188.961 560 200 C560 211.039 551.039 220 540 220 L104 220 C92.9606 220 84 211.039 84 200 L84 200 Z M84 300 C84 288.961 92.9606 280 104 280 L540 280 C551.039 280 560 288.961 560 300 C560 311.039 551.039 320 540 320 L104 320 C92.9606 320 84 311.039 84 300 L84 300 Z " />
<glyph glyph-name="greater" unicode="&#x3e;" horiz-adv-x="626" d="M586 275 L586 297 C583 297 579 301 576 301 L95.9108 491.694 C85.1839 495.955 75 489.042 75 477.5 C75 465.918 85.1819 451.059 95.9828 446.878 L391.983 332.297 C446.992 311.003 446.992 238.997 391.983 217.703 L95.9828 103.122 C85.1819 98.9414 75 84.0819 75 72.5 C75 60.9743 90.4572 56.1808 101.161 60.4539 C258.174 123.133 415.952 185.048 572.921 247.771 C583.397 251.957 586 263.719 586 275 L586 275 Z " />
<glyph glyph-name="question" unicode="&#x3f;" horiz-adv-x="467" d="M169 -5 C208 -5 234 21 234 60 C234 99 208 125 169 125 C130 125 104 99 104 60 C104 21 130 -5 169 -5 L169 -5 Z M150 665 C83 665 38 641 38 605 C38 582 54 566 77 566 C107 566 148 595 178 595 C318 595 411 532 411 437 C411 414 376 374 192 374 L157 374 C148 374 142 368 143 360 L162.232 210.951 C162.653 207.693 165.715 205 169 205 C172.284 205 175.35 207.693 175.773 210.95 L185.744 287.646 C186.979 297.145 195.921 305 205.5 305 L223 305 C399 305 432 383 432 427 C432 570 319 665 150 665 L150 665 Z " />
<glyph glyph-name="at" unicode="&#x40;" horiz-adv-x="1308" d="M1180.79 -10.5593 C1109.68 -146.641 907.925 -236 671 -236 C344 -236 126 -38 126 259 C126 556 337 754 654 754 C971 754 1183 590 1183 343 C1183 142 1104 8 986 8 C885 8 836 85 865 200 L924.692 438.769 C930.212 460.848 915.258 480 892.5 480 L890.262 480 C868.735 480 845.347 461.852 840 441 L837.195 430.062 C835.119 421.963 820.307 421.742 815.299 428.437 C786.565 466.859 731.95 490 661 490 C458 490 323 370 323 191 C323 81 409 8 539 8 C623.15 8 697.091 36.5863 745.661 84.213 C754.038 92.4274 777.791 91.5686 781.943 80.595 C806.267 16.2925 872.1 -22 969 -22 C1139 -22 1253 124 1253 344 C1253 606 1013 780 654 780 C295 780 56 572 56 260 C56 -52 302 -260 671 -260 C918.65 -260 1132.08 -161.135 1210.25 -10.6748 C1213.75 -3.94083 1208.58 0.752818 1201 0.5 C1194.16 0.272125 1183.96 -4.49707 1180.79 -10.5593 L1180.79 -10.5593 Z M817.049 349.196 L780 201 C759 115 681 58 587 58 C489 58 423 119 423 210 C423 364 518 466 660 466 C750.25 466 812.071 426.29 818.885 366.59 C819.13 364.446 817.572 351.289 817.049 349.196 L817.049 349.196 Z " />
<glyph glyph-name="A" unicode="A" horiz-adv-x="775" d="M505.566 0 L762.5 0 C766.64 0 770 3.36022 770 7.5 C770 11.4568 767.735 14.9606 763.782 15.1355 C724.923 16.855 695.9 35 675 73 L389.44 663.746 C386.737 669.339 377.712 675 371.5 675 C365.159 675 354.962 665.594 352.462 659.767 C269.641 466.796 186.821 272.923 104 80 C87 41 51 15 13 15 L7 15 C3.68818 15 1 12.3118 1 9 L1 7.5 C1 3.36022 4.36022 0 8.5 0 L205.5 0 C209.64 0 213 3.36022 213 7.5 C213 11.6398 209.64 15 205.5 15 L189 15 C141 15 123 47 143 95 L185.236 196.22 C193.266 215.465 221.084 234 241.937 234 L461.818 234 C475.734 234 497.078 219.003 503.093 206.453 C523.269 164.366 544.308 121.846 564 80 C583 41 570 15 531 15 L507.566 15 C503.427 15 499.547 11.6035 499 7.5 C498.453 3.39654 501.427 0 505.566 0 L505.566 0 Z M379.521 258.369 L302.691 258.657 C255.882 258.832 228.223 300.447 246.185 343.672 L281.579 428.847 C303.227 480.944 368.987 482.839 393.6 432.076 L435.036 346.613 C456.336 302.682 428.344 258.186 379.521 258.369 L379.521 258.369 Z " />
<glyph glyph-name="B" unicode="B" horiz-adv-x="692" d="M45.5 645 L51 645 C89 645 115 619 115 580 L115 80 C115 41 89 15 51 15 L45.5 15 C42.4642 15 40 12.5358 40 9.5 L40 7.5 C40 3.36022 43.3602 0 47.5 0 L429 0 C575 0 672 76 672 191 C672 260.7 614.923 314.505 520.419 341.361 C511.314 343.948 513.302 363.377 522.311 366.283 C602.676 392.212 651 441.3 651 504 C651 597 559 659 420 659 L47 659 C43.1362 659 40 655.864 40 652 L40 650.5 C40 647.464 42.4642 645 45.5 645 L45.5 645 Z M215 421.44 L215 572.56 C215 606.473 242.527 634 276.44 634 L420 634 C499 634 551 582 551 504 C551 418 482 360 379 360 L276.44 360 C242.527 360 215 387.527 215 421.44 L215 421.44 Z M276.44 339 L344 339 C478 339 567 279 567 190 C567 90 508 24 419 24 L276.44 24 C242.527 24 215 51.527 215 85.44 L215 277.56 C215 311.473 242.527 339 276.44 339 L276.44 339 Z " />
<glyph glyph-name="C" unicode="C" horiz-adv-x="805" d="M745 465.5 L745 599.735 C745 601.391 742.793 601.954 742 600.5 C743.701 603.618 743.442 606.919 740.315 608.604 C678.001 642.185 561.05 665 446 665 C208 665 50 531 50 330 C50 129 208 -5 446 -5 C546.3 -5 648.045 12.34 713.773 39.0364 C733.445 47.0262 744.294 67.9138 743.219 89.1188 L738.234 187.396 C738.09 190.226 737.077 191.924 734.44 190.886 C728.062 188.376 722.903 183.895 725.666 187.301 C726.096 187.83 725.609 188.805 725 188.5 C723.634 187.817 721.878 186.147 721.665 184.634 C720.765 178.247 719.778 171.333 718 166 C692 92 620 36 536 25 C506 22 475 20 444 20 C272 20 158 144 158 330 C158 516 272 640 444 640 C488 640 532 636 573 630 C635 619 693 565 717 495 C720.294 485.941 724.266 474.17 727.8 464.153 C728.824 461.251 732.775 458 735.852 458 L737.5 458 C741.64 458 745 461.36 745 465.5 L745 465.5 Z M716.409 184.381 C711.821 182.117 710.719 183.197 721.504 193.621 C722.399 194.487 722.894 192.681 722.5 191.5 L722.492 191.475 C721.812 189.437 718.336 185.331 716.409 184.381 L716.409 184.381 Z " />
<glyph glyph-name="D" unicode="D" horiz-adv-x="821" d="M45.5 645 L51 645 C89 645 115 619 115 580 L115 80 C115 41 89 15 51 15 L45.5 15 C42.4642 15 40 12.5358 40 9.5 L40 7.5 C40 3.36022 43.3602 0 47.5 0 L437 0 C637 0 771 132 771 330 C771 528 615 660 382 660 L47.5 660 C43.3602 660 40 656.64 40 652.5 L40 650.5 C40 647.464 42.4642 645 45.5 645 L45.5 645 Z M215 86.44 L215 573.56 C215 607.473 242.527 635 276.44 635 L382 635 C555 635 671 513 671 330 C671 147 577 25 437 25 L276.44 25 C242.527 25 215 52.527 215 86.44 L215 86.44 Z " />
<glyph glyph-name="E" unicode="E" horiz-adv-x="697" d="M517 261 L517 434 C517 437.312 514.312 440 511 440 L510.852 440 C507.817 440 504.037 437.353 503 434.5 L501 429 C489 391 448 365 397 365 L276.44 365 C242.527 365 215 392.527 215 426.44 L215 573.56 C215 607.473 242.527 635 276.44 635 L429 635 C489 635 542 595 562 535 L571.351 505.247 C572.219 502.484 575.604 500 578.5 500 C581.536 500 584 502.464 584 505.5 L584 598.56 C584 632.473 556.473 660 522.56 660 L47.5 660 C43.3602 660 40 656.64 40 652.5 L40 650.5 C40 647.464 42.4642 645 45.5 645 L51 645 C89 645 115 619 115 580 L115 80 C115 41 89 15 51 15 L45.5 15 C42.4642 15 40 12.5358 40 9.5 L40 7.5 C40 3.36022 43.3602 0 47.5 0 L579.917 0 C583.229 0 586.456 2.73324 587 6 L588 12 C594.65 53.8 604.91 110.04 612.778 153.284 C613.313 156.223 611.487 160 608.5 160 C605.769 160 601.79 157.509 600.597 155.053 L586 125 C555 65 495 25 435 25 L276.44 25 C242.527 25 215 52.527 215 86.44 L215 278.56 C215 312.473 242.527 340 276.44 340 L397 340 C448 340 489 311 501 268 L503.235 260.735 C504.166 257.709 507.835 255 511 255 C514.312 255 517 257.688 517 261 L517 261 Z " />
<glyph glyph-name="F" unicode="F" horiz-adv-x="612" d="M45.5 645 L51 645 C89 645 115 619 115 580 L115 80 C115 41 89 15 51 15 L45.5 15 C42.4642 15 40 12.5358 40 9.5 L40 7.5 C40 3.36022 43.3602 0 47.5 0 L292.5 0 C296.64 0 300 3.36022 300 7.5 C300 11.6398 296.64 15 292.5 15 L280 15 C241 15 215 41 215 80 L215 273.56 C215 307.473 242.527 335 276.44 335 L387 335 C438 335 479 306 491 263 L493.235 255.735 C494.166 252.709 497.835 250 501 250 C504.312 250 507 252.688 507 256 L507 429 C507 432.312 504.312 435 501 435 L500.852 435 C497.817 435 494.037 432.353 493 429.5 L491 424 C479 386 438 360 387 360 L276.44 360 C242.527 360 215 387.527 215 421.44 L215 573.56 C215 607.473 242.527 635 276.44 635 L459 635 C519 635 572 595 592 535 L601.351 505.247 C602.219 502.484 605.604 500 608.5 500 C611.536 500 614 502.464 614 505.5 L614 598.56 C614 632.473 586.473 660 552.56 660 L47.5 660 C43.3602 660 40 656.64 40 652.5 L40 650.5 C40 647.464 42.4642 645 45.5 645 L45.5 645 Z " />
<glyph glyph-name="G" unicode="G" horiz-adv-x="900" d="M725 464.5 L725 599.735 C725 601.391 722.793 601.954 722 600.5 C723.698 603.614 723.443 606.918 720.323 608.604 C658.202 642.185 545.2 665 436 665 C204 665 50 531 50 330 C50 129 204 -5 436 -5 C532.9 -5 632.69 12.34 698.522 39.6505 C717.844 47.666 730 69.4533 730 90.3714 L730 230 C730 269 756 295 794 295 L799.5 295 C802.536 295 805 297.464 805 300.5 L805 302.5 C805 306.64 801.64 310 797.5 310 L572.5 310 C568.36 310 565 306.64 565 302.5 L565 300.5 C565 297.464 567.464 295 570.5 295 L576 295 C614 295 640 269 640 230 L640 76.0832 C640 59.087 629.458 42.9674 612.881 39.2185 C559.845 27.225 497.2 20 436 20 C270 20 160 144 160 330 C160 516 270 640 436 640 C477 640 519 636 559 630 C619 617 674 564 699 495 C702.294 485.941 706.266 474.17 709.8 464.153 C710.824 461.251 714.775 458 717.852 458 L718.5 458 C722.088 458 725 460.912 725 464.5 L725 464.5 Z " />
<glyph glyph-name="H" unicode="H" horiz-adv-x="876" d="M830.5 15 L825 15 C787 15 761 41 761 80 L761 580 C761 619 787 645 825 645 L830.5 645 C833.536 645 836 647.464 836 650.5 L836 652.5 C836 656.64 832.64 660 828.5 660 L593.5 660 C589.36 660 586 656.64 586 652.5 L586 650.5 C586 647.464 588.464 645 591.5 645 L597 645 C635 645 661 619 661 580 L661 421.44 C661 387.527 633.473 360 599.56 360 L276.44 360 C242.527 360 215 387.527 215 421.44 L215 580 C215 619 241 645 279 645 L284.5 645 C287.536 645 290 647.464 290 650.5 L290 652.5 C290 656.64 286.64 660 282.5 660 L47.5 660 C43.3602 660 40 656.64 40 652.5 L40 650.5 C40 647.464 42.4642 645 45.5 645 L51 645 C89 645 115 619 115 580 L115 80 C115 41 89 15 51 15 L45.5 15 C42.4642 15 40 12.5358 40 9.5 L40 7.5 C40 3.36022 43.3602 0 47.5 0 L282.5 0 C286.64 0 290 3.36022 290 7.5 L290 9.5 C290 12.5358 287.536 15 284.5 15 L279 15 C241 15 215 41 215 80 L215 273.56 C215 307.473 242.527 335 276.44 335 L599.56 335 C633.473 335 661 307.473 661 273.56 L661 80 C661 41 635 15 597 15 L591.5 15 C588.464 15 586 12.5358 586 9.5 L586 7.5 C586 3.36022 589.36 0 593.5 0 L828.5 0 C832.64 0 836 3.36022 836 7.5 L836 9.5 C836 12.5358 833.536 15 830.5 15 L830.5 15 Z " />
<glyph glyph-name="I" unicode="I" horiz-adv-x="330" d="M284.5 15 L279 15 C241 15 215 41 215 80 L215 580 C215 619 241 645 279 645 L284.5 645 C287.536 645 290 647.464 290 650.5 L290 652.5 C290 656.64 286.64 660 282.5 660 L47.5 660 C43.3602 660 40 656.64 40 652.5 L40 650.5 C40 647.464 42.4642 645 45.5 645 L51 645 C89 645 115 619 115 580 L115 80 C115 41 89 15 51 15 L45.5 15 C42.4642 15 40 12.5358 40 9.5 L40 7.5 C40 3.36022 43.3602 0 47.5 0 L282.5 0 C286.64 0 290 3.36022 290 7.5 L290 9.5 C290 12.5358 287.536 15 284.5 15 L284.5 15 Z " />
<glyph glyph-name="J" unicode="J" horiz-adv-x="489" d="M441.5 660 L206.5 660 C202.36 660 199 656.64 199 652.5 L199 650.5 C199 647.464 201.464 645 204.5 645 L210 645 C248 645 274 619 274 580 L274 200 C274 63 245 10 170 10 C125 10 91 26 85 50 C79 74 61 90 40 90 C10 90 -6 74 0 50 C9 14 67 -10 146 -10 C310 -10 374 72 374 284 L374 580 C374 619 400 645 438 645 L443.5 645 C446.536 645 449 647.464 449 650.5 L449 652.5 C449 656.64 445.64 660 441.5 660 L441.5 660 Z " />
<glyph glyph-name="K" unicode="K" horiz-adv-x="772" d="M695.5 660 L536.5 660 C532.36 660 529 656.64 529 652.5 L529 649 C529 646.792 530.792 645 533 645 L537 645 C565 645 553 621 507 584 L303.524 424.425 C265.075 394.271 215 418.637 215 467.5 L215 580 C215 619 241 645 279 645 L284.5 645 C287.536 645 290 647.464 290 650.5 L290 652.5 C290 656.64 286.64 660 282.5 660 L47.5 660 C43.3602 660 40 656.64 40 652.5 L40 650.5 C40 647.464 42.4642 645 45.5 645 L51 645 C89 645 115 619 115 580 L115 80 C115 41 89 15 51 15 L45.5 15 C42.4642 15 40 12.5358 40 9.5 L40 7.5 C40 3.36022 43.3602 0 47.5 0 L282.5 0 C286.64 0 290 3.36022 290 7.5 L290 9.5 C290 12.5358 287.536 15 284.5 15 L279 15 C241 15 215 41 215 80 L215 342.252 C215 346.944 220.372 348.996 223.5 345.5 L232 336 L422 148 C532 38 618 -5 727 -5 L752 -5 C757.52 -5 762 -0.5197 762 5 C762 9.97734 759.033 14.9058 754.08 15.3949 C703.11 20.4275 635.85 74.15 500 210 C425.2 284.8 364.128 345.872 328.451 382.163 C319.846 390.916 320.269 405.359 329.983 412.863 C401.852 468.379 473 524.615 545 580 C595 619 654 645 692 645 L697.5 645 C700.536 645 703 647.464 703 650.5 L703 652.5 C703 656.64 699.64 660 695.5 660 L695.5 660 Z " />
<glyph glyph-name="L" unicode="L" horiz-adv-x="697" d="M594.416 169.036 L571 115 C548 61 498 25 444 25 L276.44 25 C242.527 25 215 52.527 215 86.44 L215 580 C215 619 241 645 279 645 L284.5 645 C287.536 645 290 647.464 290 650.5 L290 652.5 C290 656.64 286.64 660 282.5 660 L47.5 660 C43.3602 660 40 656.64 40 652.5 L40 650.5 C40 647.464 42.4642 645 45.5 645 L51 645 C89 645 115 619 115 580 L115 80 C115 41 89 15 51 15 L45.5 15 C42.4642 15 40 12.5358 40 9.5 L40 7.5 C40 3.36022 43.3602 0 47.5 0 L578.871 0 C582.183 0 585.575 2.75779 586.25 6 L587.5 12 C595.3 56.85 606.427 116.91 614.394 163.447 C614.706 165.271 612.921 168.018 611.24 168.793 C605.033 171.653 597 175 597 175 C597 175 595.862 172.375 594.416 169.036 L594.416 169.036 Z " />
<glyph glyph-name="M" unicode="M" horiz-adv-x="966" d="M714.631 0 L947.5 0 C951.64 0 955 3.36022 955 7.5 L955 9.5 C955 12.5358 952.536 15 949.5 15 L944 15 C908.9 15 883.306 36.8644 877.414 70.3977 C877.363 70.6894 876.485 85.3809 876.473 85.6768 C869.601 250.499 861.825 416.2 855 580 C853 619 877 645 914 645 L919.5 645 C922.536 645 925 647.464 925 650.5 L925 652.5 C925 656.64 921.64 660 917.5 660 L800.316 660 C780.611 660 752.784 642.193 744.528 624.301 L506.443 108.295 C505.329 105.879 502.368 105.719 501 108 L498 113 L229.24 627.028 C220.807 643.156 192.992 660 174.793 660 L67.5 660 C63.3602 660 60 656.64 60 652.5 L60 650.5 C60 647.464 62.4642 645 65.5 645 L71 645 C109 645 133 620 133 582 L114 81 C113 42 86 16 48 16 L42.5 16 C39.4642 16 37 13.5358 37 10.5 L37 8.5 C37 4.36022 40.3602 1 44.5 1 L243.5 1 C247.64 1 251 4.36022 251 8.5 C251 12.6398 247.64 16 243.5 16 L222 16 C174 16 143 48 145 96 L153.5 319 C155.88 381.442 238.176 400.531 267.801 345.512 L450.074 7.00589 C452.954 1.6571 462.425 -4 468.5 -4 C474.729 -4 483.698 1.66147 486.377 7.28436 L655.937 363.121 C683.495 420.954 770.838 402.618 772.812 338.584 L780.915 75.7523 C780.923 75.4954 780.833 70.7285 780.809 70.4727 C777.793 37.9137 754.125 17 720 17 L714.5 17 C711.51 17 708.564 14.5278 708.044 11.5837 L707.5 8.5 C706.685 3.87965 709.94 0 714.631 0 L714.631 0 Z " />
<glyph glyph-name="N" unicode="N" horiz-adv-x="812" d="M45.5 645 L51 645 C89 645 115 619 115 580 L115 80 C115 41 89 15 51 15 L45.5 15 C42.4642 15 40 12.5358 40 9.5 L40 7.5 C40 3.36022 43.3602 0 47.5 0 L212.5 0 C216.64 0 220 3.36022 220 7.5 L220 9.5 C220 12.5358 217.536 15 214.5 15 L209 15 C171 15 145 41 145 80 L145 444.168 C145 492.726 207.655 506.193 239.854 469.846 C384.506 306.564 529.59 143.282 674 -20 C677.15 -23.5617 680.745 -20 685.5 -20 C691.848 -20 697 -14.8477 697 -8.5 L697 580 C697 619 723 645 761 645 L766.5 645 C769.536 645 772 647.464 772 650.5 L772 652.5 C772 656.64 768.64 660 764.5 660 L599.5 660 C595.36 660 592 656.64 592 652.5 L592 650.5 C592 647.464 594.464 645 597.5 645 L603 645 C641 645 667 619 667 580 L667 299.86 C667 240.576 598.934 214.739 559.595 259.091 L222.334 639.329 C214.763 647.865 187.779 660 176.37 660 L47.5 660 C43.3602 660 40 656.64 40 652.5 L40 650.5 C40 647.464 42.4642 645 45.5 645 L45.5 645 Z M145 619 L145 619 L145 619 Z " />
<glyph glyph-name="O" unicode="O" horiz-adv-x="856" d="M160 330 C160 497 251 640 428 640 C605 640 696 497 696 330 C696 163 605 20 428 20 C251 20 160 163 160 330 L160 330 Z M50 330 C50 149 179 -5 428 -5 C677 -5 806 149 806 330 C806 511 677 665 428 665 C179 665 50 511 50 330 L50 330 Z " />
<glyph glyph-name="P" unicode="P" horiz-adv-x="690" d="M284.5 15 L279 15 C241 15 215 41 215 80 L215 233.56 C215 267.473 242.527 295 276.44 295 L385 295 C556 295 670 368 670 478 C670 587 573 660 428 660 L47.5 660 C43.3602 660 40 656.64 40 652.5 L40 650.5 C40 647.464 42.4642 645 45.5 645 L51 645 C89 645 115 619 115 580 L115 80 C115 41 89 15 51 15 L45.5 15 C42.4642 15 40 12.5358 40 9.5 L40 7.5 C40 3.36022 43.3602 0 47.5 0 L282.5 0 C286.64 0 290 3.36022 290 7.5 L290 9.5 C290 12.5358 287.536 15 284.5 15 L284.5 15 Z M215 381.44 L215 573.56 C215 607.473 242.527 635 276.44 635 L428 635 C510 635 565 572 565 478 C565 383 493 320 385 320 L276.44 320 C242.527 320 215 347.527 215 381.44 L215 381.44 Z " />
<glyph glyph-name="Q" unicode="Q" horiz-adv-x="856" d="M939 -48 C937.05 -46.4398 932.082 -46.1019 930.011 -47.4971 C909.304 -61.4438 836.275 -70 741 -70 C609.25 -70 520.85 -51.9375 465.974 -21.9537 C455.695 -16.3375 463.607 -4.14963 475.279 -3.16262 C693.187 15.265 806 160.9 806 330 C806 511 677 665 428 665 C179 665 50 511 50 330 C50 159.375 164.075 12.5156 385.737 -3.9893 C392.276 -4.47622 417.32 -18.051 422.307 -22.3088 C503.358 -91.5075 605.2 -136 731 -136 C814.85 -136 897.749 -104.154 940.77 -56.2188 C943.205 -53.5051 941.847 -50.2778 939 -48 L939 -48 Z M160 329 C160 496 251 639 428 639 C605 639 696 496 696 329 C696 162 605 19 428 19 C251 19 160 162 160 329 L160 329 Z " />
<glyph glyph-name="R" unicode="R" horiz-adv-x="772" d="M45.5 645 L51 645 C89 645 115 619 115 580 L115 80 C115 41 89 15 51 15 L45.5 15 C42.4642 15 40 12.5358 40 9.5 L40 7.5 C40 3.36022 43.3602 0 47.5 0 L282.5 0 C286.64 0 290 3.36022 290 7.5 L290 9.5 C290 12.5358 287.536 15 284.5 15 L279 15 C241 15 215 41 215 80 L215 252.56 C215 286.473 242.527 314 276.44 314 L335.865 314 C346.004 314 369.529 302.65 376.066 294.9 C410.327 254.282 466.3 188.45 536 106 C622 4 630 0 737 0 L762 0 C767.52 0 772 4.4803 772 10 C772 15.4423 768.643 19.9676 763.201 20.0439 C729.541 20.5156 724.8 25.95 673 87 C590.55 185.6 525.44 262.525 489.952 304.264 C483.263 312.132 488.495 325.978 498.479 328.617 C596.106 354.424 656 413.3 656 491 C656 593 562 661 420 661 L48 661 C43.5842 661 40 657.416 40 653 L40 650.5 C40 647.464 42.4642 645 45.5 645 L45.5 645 Z M379 340 L276.44 340 C242.527 340 215 367.527 215 401.44 L215 574.56 C215 608.473 242.527 636 276.44 636 L420 636 C499 636 551 578 551 491 C551 400 482 340 379 340 L379 340 Z " />
<glyph glyph-name="S" unicode="S" horiz-adv-x="607" d="M522 469.018 L522 589.782 C522 606.318 512.599 623.611 497.331 629.959 C446.068 651.272 369.95 665 296 665 C145 665 44 586 44 468 C44 387 133 316 266 291 C401 266 491 205 491 140 C491 68 420 20 313 20 C278 20 242 23 208 28 C147 41 91 93 66 162 C62.7059 171.059 58.7336 182.83 55.2001 192.847 C54.1762 195.749 50.2253 199 47.1477 199 L46.5 199 C42.9122 199 40 196.088 40 192.5 L40 71.2179 C40 53.9408 49.771 37.1967 65.9144 31.0412 C121.812 9.7275 215.1 -4 312 -4 C461 -4 561 70 561 182 C561 270 474 346 343 370 C204 396 112 451 112 509 C112 588 184 641 291 641 C326 641 365 636 402 627 C435 616 465 586 478 549 C486.538 524.333 497.777 492.466 506.593 467.061 C507.759 463.701 511.452 462.753 515 462.5 C518.854 462.225 522 465.154 522 469.018 L522 469.018 Z " />
<glyph glyph-name="T" unicode="T" horiz-adv-x="716" d="M240.5 0 L475.5 0 C479.64 0 483 3.36022 483 7.5 L483 9.5 C483 12.5358 480.536 15 477.5 15 L472 15 C434 15 408 41 408 80 L408 573.56 C408 607.473 435.527 635 469.44 635 L562 635 C610 635 656 603 675 555 L700.772 490.571 C701.914 487.716 705.925 485 709 485 C712.305 485 714.643 489.367 714.369 492.66 C710.39 540.625 704.795 601.513 701 648 L700.5 654 C700.225 657.3 697.291 660 693.979 660 L22.0208 660 C18.709 660 15.775 657.3 15.5 654 L15 648 C13.15 648 3.59937 518.801 1.38573 489.923 C1.13502 486.653 3.71977 485 7 485 C10.0749 485 14.0863 487.716 15.2283 490.571 L41 555 C60 603 106 635 154 635 L246.56 635 C280.473 635 308 607.473 308 573.56 L308 80 C308 41 282 15 244 15 L238.5 15 C235.464 15 233 12.5358 233 9.5 L233 7.5 C233 3.36022 236.36 0 240.5 0 L240.5 0 Z " />
<glyph glyph-name="U" unicode="U" horiz-adv-x="800" d="M748.5 660 L558.5 660 C554.36 660 551 656.64 551 652.5 C551 648.36 554.36 645 558.5 645 L566 645 C611 645 641 615 641 570 L641 202 C641 99 576 30 409 30 C262 30 205 99 205 203 L205 580 C205 619 231 645 269 645 L274.5 645 C277.536 645 280 647.464 280 650.5 L280 652.5 C280 656.64 276.64 660 272.5 660 L37.5 660 C33.3602 660 30 656.64 30 652.5 L30 650.5 C30 647.464 32.4642 645 35.5 645 L41 645 C79 645 105 619 105 580 L105 222 C105 86 186 -5 394 -5 C593 -5 671 74 671 192 L671 570 C671 615 700 645 743 645 L749.5 645 C753.088 645 756 647.912 756 651.5 L756 652.5 C756 656.64 752.64 660 748.5 660 L748.5 660 Z " />
<glyph glyph-name="V" unicode="V" horiz-adv-x="848" d="M795.5 660 L591.5 660 C587.36 660 584 656.64 584 652.5 C584 648.36 587.36 645 591.5 645 L603 645 C660 645 682 607 659 550 L432.731 -3.42968 C430.314 -9.34116 434.114 -15 440.5 -15 C446.866 -15 456.923 -5.63914 459.383 0.232708 C540.206 193.204 620.128 387.077 701 580 C717 619 754 645 792 645 L797.5 645 C800.536 645 803 647.464 803 650.5 L803 652.5 C803 656.64 799.64 660 795.5 660 L795.5 660 Z M293.5 660 L45.5 660 C41.3602 660 38 656.64 38 652.5 C38 648.682 42.6083 644.975 46.415 644.678 C80.455 642.026 107.65 622.925 128 585 L397.812 45.3755 C410.342 20.3161 442.916 21.5588 453.5 47.5 L468.423 84.0754 C472.829 94.8749 471.634 124.58 466.374 134.991 L237 589 C223 623 237 645 274 645 L293.5 645 C297.64 645 301 648.36 301 652.5 C301 656.64 297.64 660 293.5 660 L293.5 660 Z " />
<glyph glyph-name="W" unicode="W" horiz-adv-x="1240" d="M1171.2 660 L981.5 660 C977.36 660 974 656.64 974 652.5 C974 648.36 977.36 645 981.5 645 L1009 645 C1046 645 1062 621 1051 585 L936.088 270.724 C916.19 216.304 846.909 213.454 822.609 266.056 L641.242 658.652 C638.615 664.338 629.764 670 623.5 670 C617.034 670 608.895 664.345 606.639 658.285 L381.276 52.8979 C381.219 52.7458 380.944 52.8476 381 53 L397.57 98.0695 C400.765 106.761 400.028 134.946 396.382 143.458 L206 588 C194 623 209 646 245 646 L256.5 646 C260.64 646 264 649.36 264 653.5 C264 657.64 260.64 661 256.5 661 L17.5 661 C13.3602 661 10 657.64 10 653.5 C10 649.708 14.8276 645.963 18.6062 645.645 C53.2938 642.721 79.425 621.7 97 581 L349.043 -2.5247 C351.555 -8.33948 360.166 -14 366.5 -14 C372.967 -14 381.102 -8.34531 383.355 -2.28322 L525.565 380.312 C545.589 434.184 613.723 437.287 638.561 385.459 L824.598 -2.72765 C827.287 -8.33857 836.278 -14 842.5 -14 C848.969 -14 857.098 -8.34539 859.348 -2.28073 L1078 587 C1094 623 1127 647 1163 647 L1168.5 647 C1171.4 647 1174.76 649.484 1175.62 652.257 L1176 653.5 C1177.06 656.929 1174.79 660 1171.2 660 L1171.2 660 Z " />
<glyph glyph-name="X" unicode="X" horiz-adv-x="782" d="M281.982 660 L38.5 660 C34.3602 660 31 656.64 31 652.5 C31 648.709 35.7063 644.964 39.4842 644.645 C74.1 641.721 105.55 620.7 137 580 L310.968 352.899 C326.496 332.628 326.255 297.559 310.449 277.505 L154 79 C123 41 78 16 40 16 L34.5 16 C31.4642 16 29 13.5358 29 10.5 L29 8.5 C29 4.36022 32.3602 1 36.5 1 L239.5 1 C243.64 1 247 4.36022 247 8.5 C247 12.6398 243.64 16 239.5 16 L228 16 C181 16 173 47 206 93 L308.322 227.848 C334.236 262 379.921 262.121 406.015 228.105 L525 73 C548 38 540 15 504 15 L487.5 15 C483.36 15 480 11.6398 480 7.5 C480 3.36022 483.36 0 487.5 0 L730.5 0 C734.64 0 738 3.36022 738 7.5 C738 11.2913 733.294 15.0361 729.516 15.3552 C694.9 18.2794 663.45 39.3 632 80 L450.811 316.672 C436.104 335.883 435.643 370.46 449.833 390.056 L591 585 C619 621 662 645 698 645 L703.5 645 C706.536 645 709 647.464 709 650.5 L709 652.5 C709 656.64 705.64 660 701.5 660 L494.5 660 C490.36 660 487 656.64 487 652.5 C487 648.36 490.36 645 494.5 645 L522 645 C561 645 569 619 542 580 L451.864 448.062 C426.764 411.321 379.447 410.026 352.374 445.339 L243 588 C220 623 228 646 264 646 L280.982 646 C284.846 646 288.225 649.146 288.5 653 C288.775 656.854 285.846 660 281.982 660 L281.982 660 Z " />
<glyph glyph-name="Y" unicode="Y" horiz-adv-x="808" d="M290.483 660 L50.5 660 C46.3602 660 43 656.64 43 652.5 C43 648.696 47.2101 644.987 51.0013 644.679 C83.5 642.032 111.25 623 139 586 L344.231 286.704 C347.593 281.802 355 257.902 355 251.958 L355 79 C355 40 329 14 291 14 L285.5 14 C282.464 14 280 11.5358 280 8.5 L280 6.5 C280 2.36022 283.36 -1 287.5 -1 L522.5 -1 C526.64 -1 530 2.36022 530 6.5 L530 8.5 C530 11.5358 527.536 14 524.5 14 L519 14 C481 14 455 40 455 79 L455 280.8 C455 287.417 451.42 296.144 455.347 301.471 C464.294 313.605 643.45 556.575 661 579 C692.35 620.8 727.31 641.842 767.595 643.842 C771.524 644.037 774 647.565 774 651.5 C774 655.64 770.64 659 766.5 659 L587.5 659 C583.36 659 580 655.64 580 651.5 C580 647.36 583.36 644 587.5 644 L595 644 C645 644 654 610 617 559 L495.49 392.984 C469.075 356.893 421.498 357.305 395.711 393.847 L258 589 C238 623 248 645 285 645 L292 645 C295.855 645 298.791 648.138 298.534 651.984 L298.5 652.5 C298.225 656.631 294.623 660 290.483 660 L290.483 660 Z " />
<glyph glyph-name="Z" unicode="Z" horiz-adv-x="689" d="M609.416 170.036 L586 116 C563 62 513 26 459 26 L290.718 26 C237.032 26 209.5 79.6465 240.802 123.263 L556.198 562.737 C587.5 606.354 559.968 660 506.282 660 L102.25 660 C98.9382 660 95.1773 657.179 94.25 654 L92.5 648 L57.5879 520.786 C56.7427 517.706 58.8063 515 62 515 C64.745 515 69.8211 517.698 71.3568 519.973 L95 555 C127 603 181 635 229 635 L374.545 635 C428.182 635 455.72 581.459 424.525 537.826 L109.475 97.1736 C78.28 53.5414 105.818 0 159.455 0 L592.329 0 C595.917 0 599.693 3.00407 600.5 6.5 L602 13 C609.8 57.85 621.402 117.91 629.393 164.447 C629.706 166.272 627.922 169.018 626.24 169.793 C620.033 172.653 612 176 612 176 C612 176 610.862 173.375 609.416 170.036 L609.416 170.036 Z " />
<glyph glyph-name="bracketleft" unicode="&#x5b;" horiz-adv-x="255" d="M192.5 640 L235 640 C240.52 640 245 644.48 245 650 C245 655.52 240.52 660 235 660 L131.44 660 C97.527 660 70 632.473 70 598.56 L70 -58.56 C70 -92.473 97.527 -120 131.44 -120 L235 -120 C240.52 -120 245 -115.52 245 -110 C245 -104.48 240.52 -100 235 -100 L192.5 -100 C163.522 -100 140 -76.4784 140 -47.5 L140 587.5 C140 616.478 163.522 640 192.5 640 L192.5 640 Z " />
<glyph glyph-name="backslash" unicode="&#x5c;" horiz-adv-x="252" d="M236.5 -145 C244.628 -145 249.698 -137.996 247.161 -130.275 L-24.1605 695.275 C-26.6982 702.996 -36.3722 710 -44.5 710 C-52.6278 710 -57.6982 702.996 -55.1605 695.275 L216.161 -130.275 C218.698 -137.996 228.372 -145 236.5 -145 L236.5 -145 Z " />
<glyph glyph-name="bracketright" unicode="&#x5d;" horiz-adv-x="250" d="M110 587.5 L110 -47.5 C110 -76.4784 86.4784 -100 57.5 -100 L15 -100 C9.4803 -100 5 -104.48 5 -110 C5 -115.52 9.4803 -120 15 -120 L118.56 -120 C152.473 -120 180 -92.473 180 -58.56 L180 598.56 C180 632.473 152.473 660 118.56 660 L15 660 C9.4803 660 5 655.52 5 650 C5 644.48 9.4803 640 15 640 L57.5 640 C86.4784 640 110 616.478 110 587.5 L110 587.5 Z " />
<glyph glyph-name="asciicircum" unicode="&#x5e;" horiz-adv-x="460" d="M257.297 721.672 C251.6 730.42 240.8 745 230 745 C219 745 207 728 202 720 C202 720 128.898 590.943 95.0086 546.314 C92.9719 543.632 92.3702 538.104 95 536 C97.7502 533.8 102.692 535.173 104.978 537.852 C159.226 601.428 196.576 638.783 220.961 660.586 C227.709 666.619 237.81 666.201 244.116 659.707 C291.839 610.573 362 531 362 531 C362 531 364.026 532.801 366.5 535 C368.964 537.19 372.738 536.503 370.855 539.208 C367.2 544.458 295.496 647.675 262.058 713.392 C261.971 713.564 257.402 721.511 257.297 721.672 L257.297 721.672 Z " />
<glyph glyph-name="underscore" unicode="&#x5f;" horiz-adv-x="672" d="M5 -75 C5 -88.7993 16.2007 -100 30 -100 L642 -100 C655.799 -100 667 -88.7993 667 -75 C667 -61.2007 655.799 -50 642 -50 L30 -50 C16.2007 -50 5 -61.2007 5 -75 L5 -75 Z " />
<glyph glyph-name="grave" unicode="&#x60;" horiz-adv-x="460" d="M147 706 C147 700 163 681 186 656 C218 615 303 530 303 530 C303 530 304.917 531.533 308 534 C310.666 536.133 314.262 535.076 312.909 538.211 C310.681 543.375 267.939 642.058 236.919 685.468 C236.727 685.738 229.201 697.399 229.048 697.693 C214.527 725.543 203.688 744 199 744 C183 744 147 717 147 706 L147 706 Z " />
<glyph glyph-name="a" unicode="a" horiz-adv-x="597" d="M569.708 44.3426 C560.333 37.1667 547.833 33 527 33 C497 33 488 59 488 97 L488 355 C488 445 419 505 315 505 C193.45 505 100.8 473.21 67.7562 423.141 C54.7166 403.383 65.9609 395 89.6341 395 L119.524 395 C128.329 395 151.173 412.946 155.596 420.56 C177.262 457.859 228.825 481 294 481 C353 481 393 439 393 375 L393 282.056 C393 271.104 384.893 261.407 373.977 260.508 C336.35 257.41 290.45 252.65 259 245 C125 212 36 155 36 104 C36 39 100 -5 197 -5 C263.6 -5 329.39 12.82 379.79 42.628 C386.921 46.8455 397.839 41.8257 400.414 33.9514 C409.446 6.335 428.875 -10 466 -10 C518.725 -10 552.626 6.25688 579.576 30.8561 C583.048 34.0262 583.677 39.5338 580.5 43 L579.778 43.7875 C577.476 46.2984 572.413 46.4129 569.708 44.3426 L569.708 44.3426 Z M393 221.392 L393 87 L393 82.5 C393 80.1601 392.292 77.6895 390.122 76.8132 C352.347 61.5556 300.55 53 244 53 C172 53 124 84 124 130 C124 163 177 198 256 218 C294.25 227.35 339.364 234.171 374.76 238.464 C385.015 239.707 393 231.723 393 221.392 L393 221.392 Z " />
<glyph glyph-name="b" unicode="b" horiz-adv-x="697" d="M24.3414 665.816 L31 664 C85 653 95 640 95 586 L95 5 C95 2.24015 97.2402 0 100 0 C101.841 0 106.397 2.45381 107.499 3.92938 C118.616 18.8199 145.763 29 178 29 C209 29 239 17 274 7 C296 -1 321 -5 348 -5 C524 -5 642 97 642 250 C642 403 542 505 391 505 C328.95 505 260.398 491.995 209.907 471.512 C197.682 466.552 185 475.66 185 488.853 L185 711 C185 715.968 180.968 720 176 720 L175.998 720 C174.574 720 159.744 717.828 158.38 717.42 L24.311 677.29 C22.0314 676.608 20 673.88 20 671.5 C20 669.104 22.0295 666.446 24.3414 665.816 L24.3414 665.816 Z M348 20 C250 20 185 76 185 160 L185 432.029 C185 440.061 189.745 447.547 197.355 450.116 C224.312 459.22 270.85 465 321 465 C457 465 547 363 547 210 C547 96 467 20 348 20 L348 20 Z " />
<glyph glyph-name="c" unicode="c" horiz-adv-x="600" d="M545 69 C543.196 71.2555 538.877 72.312 536.346 70.92 C513.866 58.5563 450.85 50 375 50 C237 50 145 136 145 266 C145 394 231 480 359 480 C419 480 461 450 465 404 C467 378 485 360 510 360 C533.226 360 548.959 374.984 549.95 397.703 C549.978 398.327 549.519 404.067 549.427 404.685 C540.381 465.074 469.425 505 369 505 C178 505 50 395 50 231 C50 89 150 -5 300 -5 C397.5 -5 495 21.6175 545.23 60.9496 C548.104 63.2003 547.281 66.1493 545 69 L545 69 Z " />
<glyph glyph-name="d" unicode="d" horiz-adv-x="702" d="M431.368 665.809 L438 664 C492 653 502 640 502 586 L502 472.87 C502 462.746 491.345 455.923 482.948 461.578 C444.22 487.66 390.5 505 331 505 C165 505 55 391 55 221 C55 85 152 -5 297 -5 C365.85 -5 433.255 10.895 478.949 37.1579 C487.941 42.3261 501 36.3715 501 26 L501 9 C501 4.03227 505.032 0 510 0 L510.002 0 C511.426 0 526.256 2.17177 527.62 2.58014 L661.689 42.7096 C663.969 43.392 666 46.1204 666 48.5 C666 50.8963 663.97 53.5535 661.659 54.184 L655 56 C601 67 591 80 591 134 L591 711 C591 715.968 586.968 720 582 720 L581.998 720 C580.574 720 565.744 717.828 564.38 717.42 L430.338 677.298 C427.982 676.593 426.228 673.944 426.5 671.5 C426.757 669.19 429.126 666.42 431.368 665.809 L431.368 665.809 Z M491.67 63.3984 C465.734 55.3594 411.375 50 344 50 C225 50 146 132 146 256 C146 390 218 480 325 480 C393.25 480 453.078 457.031 487.066 425.162 C494.832 417.881 500.03 400.847 500.06 390.203 L500.967 78.1803 C500.988 71.1465 498.388 65.4809 491.67 63.3984 L491.67 63.3984 Z " />
<glyph glyph-name="e" unicode="e" horiz-adv-x="606" d="M551 69 C549.201 71.2486 544.856 72.3012 542.329 70.92 C519.71 58.5563 455.7 50 378 50 C241.5 50 148.641 131.922 144.977 258.25 C143.965 293.132 166.26 315 201.156 315 L499 315 C539.575 315 559.725 332.319 547.972 371.155 C523.122 453.272 442.375 505 331 505 C162 505 50 395 50 231 C50 89 151 -5 303 -5 C402.45 -5 500.949 21.6175 551.228 60.9496 C554.105 63.2 553.282 66.148 551 69 L551 69 Z M429 346 L198.15 334.332 C170.069 332.913 155.2 350.551 166.96 376.089 C196.485 440.204 253.575 479 327 479 C414 479 472 443 472 390 C472 364 455 346.5 429 345.5 L429 346 Z " />
<glyph glyph-name="f" unicode="f" horiz-adv-x="563" d="M315.5 15 L310 15 C272 15 246 41 246 80 L246 403.56 C246 437.473 273.527 465 307.44 465 L428.5 465 C438.159 465 446 472.841 446 482.5 C446 492.159 438.159 500 428.5 500 L262.5 500 C253.392 500 246 507.392 246 516.5 L246 533 C246 633 350 700 394 700 C439 700 471 684 473 660 C475 636 493 620 518 620 C542 620 558 636 558 660 C555 696 499 720 419 720 C264 720 161 653 161 553 C158 553 156 500 156 500 C156 500 144.682 500 129.481 500 L62.5 500 C52.8405 500 45 492.159 45 482.5 C45 472.841 52.8405 465 62.5 465 L100.5 465 C131.134 465 156 440.134 156 409.5 L156 80 C156 41 130 15 92 15 L86.5 15 C83.4642 15 81 12.5358 81 9.5 L81 7.5 C81 3.36022 84.3602 0 88.5 0 L313.5 0 C317.64 0 321 3.36022 321 7.5 L321 9.5 C321 12.5358 318.536 15 315.5 15 L315.5 15 Z " />
<glyph glyph-name="g" unicode="g" horiz-adv-x="571" d="M548.503 496.457 C513.519 491.02 478.608 485.852 444.114 479.925 C439.225 479.085 406.276 483.388 401.667 485.224 C368.305 498.513 328.375 506 283 506 C149 506 60 443 60 349 C60 292.9 91.3087 247.69 144.942 220.108 C151.507 216.732 148.392 200.489 141.223 198.725 C81.7537 184.099 45 147.675 45 99 C45 61.05 72.9056 31.2675 120.856 14.1446 C127.284 11.849 125.639 -2.10239 119.199 -4.36675 C57.57 -26.0375 20 -69.6 20 -124 C20 -194 95 -240 207 -240 C413 -240 551 -158 551 -35 C551 38 467 86 342 86 C306 86 224 83 224 83 C153 83 105 103 105 134 C105 168 144 191 202 191 L283 191 C417 191 507 254 507 349 C507 380.35 497.471 408.297 479.537 431.718 C475.218 437.358 478.262 446.65 485.354 447.059 L547.04 450.618 C560.243 451.379 571 462.775 571 476 C571 489.031 561.38 498.459 548.503 496.457 L548.503 496.457 Z M283 212 C200 212 145 267 145 350 C145 432 200 487 283 487 C366 487 422 432 422 350 C422 267 366 212 283 212 L283 212 Z M193.151 0.4585 C231.215 -2.61 253.35 1 317 1 C418 1 485 -31 485 -79 C485 -160 377 -214 216 -214 C134 -214 79 -173 79 -112 C79 -55.95 117.356 -13.8888 176.921 -1.249 C178.302 -0.955979 191.744 0.571928 193.151 0.4585 L193.151 0.4585 Z " />
<glyph glyph-name="h" unicode="h" horiz-adv-x="727" d="M454.5 0 L679.5 0 C683.64 0 687 3.36022 687 7.5 L687 9.5 C687 12.5358 684.536 15 681.5 15 L676 15 C638 15 612 41 612 80 L612 337 C612 438 569 505 460 505 C403.9 505 326.701 485.943 254.793 455.689 C234.606 447.195 210 459.609 210 481.511 L210 711 C210 715.968 205.968 720 201 720 L200.998 720 C199.574 720 184.744 717.828 183.38 717.42 L49.311 677.29 C47.0314 676.608 45 673.88 45 671.5 C45 669.104 47.0295 666.446 49.3414 665.816 L56 664 C110 653 120 640 120 586 L120 80 C120 41 94 15 56 15 L50.5 15 C47.4642 15 45 12.5358 45 9.5 L45 7.5 C45 3.36022 48.3602 0 52.5 0 L277.5 0 C281.64 0 285 3.36022 285 7.5 L285 9.5 C285 12.5358 282.536 15 279.5 15 L274 15 C236 15 210 41 210 80 L210 405.8 C210 416.717 217.007 426.751 227.571 429.502 C264.88 439.22 324.55 445 390 445 C485 445 522 398 522 328 L522 80 C522 41 496 15 458 15 L452.5 15 C449.464 15 447 12.5358 447 9.5 L447 7.5 C447 3.36022 450.36 0 454.5 0 L454.5 0 Z " />
<glyph glyph-name="i" unicode="i" horiz-adv-x="330" d="M160 570 C196 570 220 594 220 630 C220 666 196 690 160 690 C124 690 100 666 100 630 C100 594 124 570 160 570 L160 570 Z M279.5 15 L274 15 C236 15 210 41 210 80 L210 491 C210 495.968 205.968 500 201 500 L200.998 500 C199.574 500 184.744 497.828 183.38 497.42 L49.311 457.29 C47.0314 456.608 45 453.88 45 451.5 C45 449.104 47.0295 446.446 49.3414 445.816 L56 444 C110 433 120 420 120 366 L120 80 C120 41 94 15 56 15 L50.5 15 C47.4642 15 45 12.5358 45 9.5 L45 7.5 C45 3.36022 48.3602 0 52.5 0 L277.5 0 C281.64 0 285 3.36022 285 7.5 L285 9.5 C285 12.5358 282.536 15 279.5 15 L279.5 15 Z " />
<glyph glyph-name="j" unicode="j" horiz-adv-x="349" d="M179 570 C215 570 239 594 239 630 C239 666 215 690 179 690 C143 690 119 666 119 630 C119 594 143 570 179 570 L179 570 Z M68.3414 445.816 L75 444 C129 433 139 420 139 366 L139 3 C139 -115.95 100.024 -160.751 -15.0012 -219.455 C-18.4935 -221.238 -22.1749 -226.738 -20 -230 C-17.7967 -233.305 -5.90376 -230.959 -2.35652 -229.172 C172.012 -141.309 230 -88.05 230 27 C229 29 229 477 229 477 L229 491 C229 495.968 224.968 500 220 500 L219.998 500 C218.574 500 203.744 497.828 202.38 497.42 L68.311 457.29 C66.0314 456.608 64 453.88 64 451.5 C64 449.104 66.0295 446.446 68.3414 445.816 L68.3414 445.816 Z " />
<glyph glyph-name="k" unicode="k" horiz-adv-x="696" d="M682.5 15 L677 15 C640 15 589 39 549 75 L350.903 261.398 C320.796 289.728 324.333 333.853 358.569 357.025 L459 425 C515 461 575 485 611 485 L617 485 C620.312 485 623 487.688 623 491 L623 492.5 C623 496.64 619.64 500 615.5 500 L462.5 500 C458.36 500 455 496.64 455 492.5 L455 489 C455 486.792 456.792 485 459 485 L463 485 C488 485 474 462 425 427 L305.798 343.117 C262.103 312.369 209 339.934 209 393.363 L209 711 C209 715.968 204.968 720 200 720 L199.998 720 C198.574 720 183.744 717.828 182.38 717.42 L48.311 677.29 C46.0314 676.608 44 673.88 44 671.5 C44 669.104 46.0295 666.446 48.3414 665.816 L55 664 C109 653 119 640 119 586 L119 80 C119 41 93 15 55 15 L49.5 15 C46.4642 15 44 12.5358 44 9.5 L44 7.5 C44 3.36022 47.3602 0 51.5 0 L276.5 0 C280.64 0 284 3.36022 284 7.5 L284 9.5 C284 12.5358 281.536 15 278.5 15 L273 15 C235 15 209 41 209 80 L209 267.397 C209 270.294 212.249 271.596 214.25 269.5 L219.5 264 L427 80 C471 41 480 15 451 15 L446.5 15 C444.016 15 442 12.9839 442 10.5 L442 7.5 C442 3.36022 445.36 0 449.5 0 L680.5 0 C684.64 0 688 3.36022 688 7.5 L688 9.5 C688 12.5358 685.536 15 682.5 15 L682.5 15 Z " />
<glyph glyph-name="l" unicode="l" horiz-adv-x="330" d="M279.5 15 L274 15 C236 15 210 41 210 80 L210 711 C210 715.968 205.968 720 201 720 L200.998 720 C199.574 720 184.744 717.828 183.38 717.42 L49.311 677.29 C47.0314 676.608 45 673.88 45 671.5 C45 669.104 47.0295 666.446 49.3414 665.816 L56 664 C110 653 120 640 120 586 L120 80 C120 41 94 15 56 15 L50.5 15 C47.4642 15 45 12.5358 45 9.5 L45 7.5 C45 3.36022 48.3602 0 52.5 0 L277.5 0 C281.64 0 285 3.36022 285 7.5 L285 9.5 C285 12.5358 282.536 15 279.5 15 L279.5 15 Z " />
<glyph glyph-name="m" unicode="m" horiz-adv-x="1149" d="M877 0 L1101.5 0 C1105.64 0 1109 3.36022 1109 7.5 L1109 9.5 C1109 12.5358 1106.54 15 1103.5 15 L1098 15 C1060 15 1034 41 1034 80 L1034 337 C1034 438 965 505 874 505 C813.7 505 725.86 476.65 635.266 432.343 C623.524 426.6 597.139 433.203 589.48 443.795 C561.463 482.539 516.975 505 465 505 C395.875 505 314.5 483.563 239.633 450.066 C225.456 443.724 208 451.969 208 467.5 L208 491 C208 495.968 203.968 500 199 500 L198.998 500 C197.574 500 182.744 497.828 181.38 497.42 L47.311 457.29 C45.0314 456.608 43 453.88 43 451.5 C43 449.104 45.0295 446.446 47.3414 445.816 L54 444 C108 433 118 420 118 366 L118 80 C118 41 92 15 54 15 L48.5 15 C45.4642 15 43 12.5358 43 9.5 L43 7.5 C43 3.36022 46.3602 0 50.5 0 L275.5 0 C279.64 0 283 3.36022 283 7.5 L283 9.5 C283 12.5358 280.536 15 277.5 15 L272 15 C234 15 208 41 208 80 L208 405.038 C208 416.773 215.313 428.08 226.57 431.396 C265.205 442.775 323.6 450 395 450 C473 450 531 401 531 328 L531 80 C531 41 505 15 467 15 L461.5 15 C458.464 15 456 12.5358 456 9.5 L456 7.5 C456 3.36022 459.36 0 463.5 0 L688.5 0 C692.64 0 696 3.36022 696 7.5 L696 9.5 C696 12.5358 693.536 15 690.5 15 L685 15 C647 15 621 41 621 80 L621 337 C621 357.833 618.222 377.278 613.245 394.755 C611.682 400.243 616.175 408.113 621.373 410.47 C669.528 432.31 734.625 446 804 446 C884 446 944 399 944 329 L944 81 C944 42 918 16 880 16 L874.5 16 C871.464 16 869 13.5358 869 10.5 L869 8 C869 3.58424 872.584 0 877 0 L877 0 Z " />
<glyph glyph-name="n" unicode="n" horiz-adv-x="727" d="M454.5 0 L679.5 0 C683.64 0 687 3.36022 687 7.5 L687 9.5 C687 12.5358 684.536 15 681.5 15 L676 15 C638 15 612 41 612 80 L612 337 C612 438 569 505 460 505 C400.5 505 317.266 483.563 241.783 450.066 C227.615 443.779 210 452 210 467.5 L210 491 C210 495.968 205.968 500 201 500 L200.998 500 C199.574 500 184.744 497.828 183.38 497.42 L49.311 457.29 C47.0314 456.608 45 453.88 45 451.5 C45 449.104 47.0295 446.446 49.3414 445.816 L56 444 C110 433 120 420 120 366 L120 80 C120 41 94 15 56 15 L50.5 15 C47.4642 15 45 12.5358 45 9.5 L45 7.5 C45 3.36022 48.3602 0 52.5 0 L277.5 0 C281.64 0 285 3.36022 285 7.5 L285 9.5 C285 12.5358 282.536 15 279.5 15 L274 15 C236 15 210 41 210 80 L210 405.8 C210 416.717 217.007 426.751 227.571 429.502 C264.88 439.22 324.55 445 390 445 C485 445 522 398 522 328 L522 80 C522 41 496 15 458 15 L452.5 15 C449.464 15 447 12.5358 447 9.5 L447 7.5 C447 3.36022 450.36 0 454.5 0 L454.5 0 Z " />
<glyph glyph-name="o" unicode="o" horiz-adv-x="696" d="M150 250 C150 391 229 485 348 485 C467 485 546 391 546 250 C546 109 467 15 348 15 C229 15 150 109 150 250 L150 250 Z M50 250 C50 97 169 -5 348 -5 C527 -5 646 97 646 250 C646 403 527 505 348 505 C169 505 50 403 50 250 L50 250 Z " />
<glyph glyph-name="p" unicode="p" horiz-adv-x="740" d="M279.5 -215 L274 -215 C236 -215 210 -189 210 -150 L210 7.81323 C210 18.7288 219.998 26.352 229.96 21.8885 C269.625 4.115 320.2 -6 378 -6 C562 -6 685 102 685 264 C685 408 588 504 443 504 C364.8 504 286.6 480.157 234.193 442.298 C223.804 434.793 209 443.538 209 456.355 L209 490 C209 494.968 204.968 499 200 499 L199.998 499 C198.574 499 183.744 496.828 182.38 496.42 L48.311 456.29 C46.0314 455.608 44 452.88 44 450.5 C44 448.104 46.0295 445.446 48.3414 444.816 L55 443 C109 432 119 419 119 365 L119 -151 C119 -190 93 -216 55 -216 L49.5 -216 C46.4642 -216 44 -218.464 44 -221.5 L44 -223.5 C44 -227.64 47.3602 -231 51.5 -231 L275.984 -231 C280.4 -231 284.225 -227.407 284.5 -223 L284.657 -220.489 C284.846 -217.465 282.53 -215 279.5 -215 L279.5 -215 Z M209 134 L209 384.398 C209 396 214.75 408.733 224.965 414.233 C258.78 432.44 312.5 444 372 444 C506 444 595 344 595 195 C595 89 508 19 377 19 C282 19 215 65 209 134 L209 134 Z " />
<glyph glyph-name="q" unicode="q" horiz-adv-x="711" d="M660.5 -215 L655 -215 C617 -215 591 -189 591 -150 L591 495 C591 497.76 588.76 500 586 500 C584.099 500 579.033 496.598 577.92 495.057 C567.57 480.72 547.5 471 525 471 C468 471 412 505 335 505 C167 505 55 391 55 221 C55 85 147 -5 286 -5 C357.4 -5 428.078 12.34 476.538 40.8787 C486.883 46.9709 500 38.7854 500 26.78 L500 -150 C500 -189 474 -215 436 -215 L430.5 -215 C427.464 -215 425 -217.464 425 -220.5 L425 -222.5 C425 -226.64 428.36 -230 432.5 -230 L657.483 -230 C661.623 -230 665.225 -226.631 665.5 -222.5 L665.634 -220.488 C665.836 -217.465 663.529 -215 660.5 -215 L660.5 -215 Z M487.739 67.051 C459.44 56.5025 403 50 335 50 C223 50 148 132 148 256 C148 390 223 480 335 480 C435 480 501 424 501 340 L500.047 85.6193 C500.016 77.1577 495.667 70.0065 487.739 67.051 L487.739 67.051 Z " />
<glyph glyph-name="r" unicode="r" horiz-adv-x="526" d="M49.8238 445.684 L56 444 C110 433 120 420 120 366 L120 80 C120 41 94 15 56 15 L50.5 15 C47.4642 15 45 12.5358 45 9.5 L45 7.5 C45 3.36022 48.3602 0 52.5 0 L277.5 0 C281.64 0 285 3.36022 285 7.5 L285 9.5 C285 12.5358 282.536 15 279.5 15 L274 15 C236 15 210 41 210 80 L210 395.397 C210 404.129 214.147 413.491 221.845 417.614 C246.935 431.053 286.8 439 331 439 C374 439 430 404 473 404 C499 404 516 421 516 447 C516 482 484 506 403 506 C343.6 506 282.158 484.22 236.643 449.083 C227.279 441.854 210 446.775 210 458.604 L210 492 C210 496.968 205.968 501 201 501 L200.998 501 C199.574 501 184.744 498.828 183.38 498.42 L49.79 458.434 C47.2571 457.676 45 454.644 45 452 C45 449.337 47.255 446.385 49.8238 445.684 L49.8238 445.684 Z " />
<glyph glyph-name="s" unicode="s" horiz-adv-x="518" d="M439 361 C442.312 361 445 363.688 445 367 L445 439.13 C445 453.386 436.989 468.881 423.939 474.619 C381.135 493.44 322.4 505 268 505 C141 505 56 450 56 368 C56 309 135 249 253 218 C337 196 393 154 393 113 C393 54 340 15 261 15 C255 15 186 19 186 21 C137 28 90 67 68 118 C65.2727 125.273 60.8926 134.198 57.8648 141.772 C57.0705 143.758 54.8675 144 52.728 144 L51.5 144 C48.4642 144 46 141.536 46 138.5 L46 52.5232 C46 39.1942 53.2547 26.4828 65.6807 21.6602 C108.313 5.115 180.35 -5 256 -5 C383 -5 468 56 468 147 C468 204 408 258 317 282 C202 312 125 359 125 399 C125 451 182 485 268 485 C289 485 314 481 340 474 C387.775 460.35 418.439 417.706 431.991 365.532 C432.782 362.486 435.853 361 439 361 L439 361 Z " />
<glyph glyph-name="t" unicode="t" horiz-adv-x="448" d="M398.5 500 L270.44 500 C236.527 500 209 527.527 209 561.44 L209 632.5 C209 636.64 205.64 640 201.5 640 C197.698 640 192.538 636.604 191.035 633.111 L160.176 561.424 C160.134 561.327 159.958 561.403 160 561.5 L172.415 590.536 C172.435 590.583 169.032 590.658 169.006 590.615 C131.864 528.263 79.4413 484.328 29.6588 475.704 C27.0939 475.26 25 472.603 25 470 C25 467.24 27.2402 465 30 465 L72 465 C97.9426 465 119 443.943 119 418 L119 113 C119 21 148 -5 251 -5 C341.675 -5 390.522 14.0125 425.348 41.842 C427.542 43.5949 426.685 45.7537 425 48 C423.619 49.8412 419.765 50.2396 417.769 49.094 C403.09 40.67 369.7 35 295 35 C227 35 208 49 208 97 C208 207 209 465 209 465 C209 465 236.289 465 270.202 465 L398.5 465 C408.159 465 416 472.841 416 482.5 C416 492.159 408.159 500 398.5 500 L398.5 500 Z " />
<glyph glyph-name="u" unicode="u" horiz-adv-x="700" d="M20.5 485 L26 485 C64 485 90 459 90 420 L90 155 C90 59 152 -5 273 -5 C359.7 -5 424.002 13.785 470.206 43.9855 C480.28 50.5701 493 42.535 493 30.5 L493 9 C493 4.03227 497.032 0 502 0 L502.002 0 C503.426 0 518.256 2.17177 519.62 2.58014 L653.689 42.7096 C655.969 43.392 658 46.1204 658 48.5 C658 50.8963 655.97 53.5535 653.659 54.184 L647 56 C593 67 583 80 583 134 L583 438.56 C583 472.473 555.473 500 521.56 500 L425.5 500 C421.36 500 418 496.64 418 492.5 L418 490.5 C418 487.464 420.464 485 423.5 485 L429 485 C467 485 493 459 493 420 L493 86.5109 C493 79.1144 489.417 72.3524 482.594 69.4976 C459.367 59.78 415.55 54 345 54 C236 54 180 98 180 164 L180.817 438.377 C180.918 472.391 153.391 500 119.377 500 L23.5166 500 C19.3769 500 15.7754 496.631 15.5 492.5 L15.3659 490.488 C15.1644 487.465 17.4709 485 20.5 485 L20.5 485 Z " />
<glyph glyph-name="v" unicode="v" horiz-adv-x="732" d="M679.5 500 L522.5 500 C518.36 500 515 496.64 515 492.5 L515 490 C515 487.24 517.24 485 520 485 L525 485 C558 485 570 462 555 426 L448.161 201.041 C424.635 151.505 362.141 150.91 337.676 199.988 L228 420 C209 457 216 485 252 485 L257 485 C259.76 485 262 487.24 262 490 L262 492.5 C262 496.64 258.64 500 254.5 500 L24.5 500 C20.3602 500 17 496.64 17 492.5 L17 490.5 C17 487.464 19.4642 485 22.5 485 L28 485 C66 485 105 459 125 420 L343.559 -3.33575 C345.247 -6.60431 350.822 -10 354.5 -10 C358.19 -10 365.937 -2.28498 367.613 1.00194 C438.693 140.384 508.872 280.667 580 420 C600 459 638 485 676 485 L681.5 485 C684.536 485 687 487.464 687 490.5 L687 492.5 C687 496.64 683.64 500 679.5 500 L679.5 500 Z " />
<glyph glyph-name="w" unicode="w" horiz-adv-x="1114" d="M268.483 500 L38.5 500 C34.3602 500 31 496.64 31 492.5 C31 488.704 35.8728 484.96 39.6556 484.645 C74.7438 481.721 103.65 460.7 124 420 L342.559 -3.33575 C344.247 -6.60431 349.822 -10 353.5 -10 C357.108 -10 362.908 -6.60794 364.677 -3.46318 L503.023 242.486 C528.809 288.327 587.161 287.235 611.212 240.46 L736.57 -3.33012 C738.254 -6.60421 743.818 -10 747.5 -10 C751.19 -10 758.937 -2.28498 760.613 1.00194 C831.693 140.384 901.872 280.667 973 420 C993 459 1031 485 1069 485 L1074.5 485 C1077.54 485 1080 487.464 1080 490.5 L1080 492.5 C1080 496.64 1076.64 500 1072.5 500 L885.5 500 C881.36 500 878 496.64 878 492.5 C878 488.36 881.36 485 885.5 485 L911 485 C948 485 962 461 947 425 L840.213 200.813 C816.643 151.332 754.209 150.773 729.757 199.824 L620 420 C601 458 612 485 652 485 L667.5 485 C671.64 485 675 488.36 675 492.5 C675 496.64 671.64 500 667.5 500 L437.5 500 C433.36 500 430 496.64 430 492.5 C430 488.747 434.262 484.98 437.998 484.629 C470.455 481.582 497.65 459.775 518 420 C526.276 403.448 535.237 386.897 543.749 370.345 C546.12 365.734 546.116 354.744 543.621 350.198 L427.228 138.086 C413.446 112.97 380.014 116.359 366.999 141.881 C319.761 234.519 272.2 327.6 226 420 C206 459 219 485 258 485 L267.483 485 C271.623 485 275.225 488.369 275.5 492.5 C275.775 496.631 272.623 500 268.483 500 L268.483 500 Z " />
<glyph glyph-name="x" unicode="x" horiz-adv-x="676" d="M282 500 L50.5 500 C46.3602 500 43 496.64 43 492.5 C43 488.588 45.0862 485.05 48.9924 484.835 C86.895 482.748 123.85 460.85 159 420 L276.264 282.677 C295.255 260.439 294.905 223.866 275.492 201.995 L161 73 C127 38 81 15 45 15 L32.5 15 C28.3602 15 25 11.6398 25 7.5 C25 3.36022 28.3602 0 32.5 0 L245.5 0 C249.64 0 253 3.36022 253 7.5 C253 11.6398 249.64 15 245.5 15 L211 15 C172 15 168 41 202 80 L279.204 169.656 C304.728 199.297 347.147 199.19 372.521 169.421 L453 75 C482 39 482 15 451 15 L446.5 15 C444.016 15 442 12.9839 442 10.5 L442 7.5 C442 3.36022 445.36 0 449.5 0 L656.5 0 C660.64 0 664 3.36022 664 7.5 C664 11.2423 660.058 15.0115 656.333 15.3708 C624.744 18.4181 592.3 40.225 559 80 L383.438 285.151 C382.125 286.686 382.038 289.384 383.25 291 C383.408 291.211 387.93 296.5 388.114 296.689 L508 420 C546 459 597 485 635 485 L640.5 485 C643.536 485 646 487.464 646 490.5 L646 492.5 C646 496.64 642.64 500 638.5 500 L457.5 500 C453.36 500 450 496.64 450 492.5 C450 488.36 453.36 485 457.5 485 L471 485 C537 485 476 420 476 420 L415.008 353.925 C389.248 326.019 347.694 326.854 323.077 355.774 L265 424 C236 460 241 484 278 484 L284 484 C287.312 484 290 486.688 290 490 L290 492 C290 496.416 286.416 500 282 500 L282 500 Z " />
<glyph glyph-name="y" unicode="y" horiz-adv-x="673" d="M679.5 500 L522.5 500 C518.36 500 515 496.64 515 492.5 L515 490 C515 487.24 517.24 485 520 485 L525 485 C558 485 570 462 555 426 L448.161 201.041 C424.635 151.505 362.141 150.91 337.676 199.988 L228 420 C209 457 216 485 252 485 L257 485 C259.76 485 262 487.24 262 490 L262 492.5 C262 496.64 258.64 500 254.5 500 L24.5 500 C20.3602 500 17 496.64 17 492.5 L17 490.5 C17 487.464 19.4642 485 22.5 485 L28 485 C66 485 105 459 125 420 L336.179 11.3927 C337.925 8.01401 337.651 0.328287 335.678 -2.92321 C327.336 -16.6719 316.323 -37.0607 308.648 -59.0816 C308.533 -59.4109 304.245 -69.3777 304.084 -69.6871 C269.198 -136.882 237.978 -166.351 196.572 -170.487 C192.912 -170.852 189.31 -172.286 185.882 -170.954 C182.822 -169.766 121.3 -146 94 -146 C66 -146 48 -161 48 -184 C48 -212 81 -230 131 -230 C217 -230 273 -186 331 -72 C331.11 -71.783 332.774 -66.9164 332.858 -66.6877 C344.104 -35.9496 362 -10 362 -10 C362 -10 352.207 -29.2095 367.613 1.00194 C438.693 140.384 508.872 280.667 580 420 C600 459 638 485 676 485 L681.5 485 C684.536 485 687 487.464 687 490.5 L687 492.5 C687 496.64 683.64 500 679.5 500 L679.5 500 Z " />
<glyph glyph-name="z" unicode="z" horiz-adv-x="580" d="M516.416 164.036 L493 110 C470 56 420 20 366 20 L266 20 C222.019 20 199.849 64.636 226.424 99.6802 L455.255 401.435 C488.129 444.785 460.704 500 406.3 500 L76.2202 500 C73.4603 500 70.293 497.643 69.5 495 L68 490 L42.5495 394.796 C41.7233 391.706 43.8005 389 47 389 C49.6041 389 55.098 391.67 56.7069 393.718 L64 403 C100 449 157 478 205 479 L308 479.5 C353.042 479.719 375.857 433.911 348.546 398.093 L120.254 98.6937 C87.2228 55.3742 114.635 0 169.111 0 L501.846 0 C504.606 0 507.581 2.32255 508.25 5 L509.5 10 C517.5 56 529 116 537 162 C537.317 163.822 534.92 163.019 533.24 163.793 C527.033 166.653 519 170 519 170 C519 170 517.862 167.375 516.416 164.036 L516.416 164.036 Z " />
<glyph glyph-name="braceleft" unicode="&#x7b;" horiz-adv-x="314" d="M299 -112.5 C299 -108.36 295.64 -105 291.5 -105 L279 -105 C205 -105 156 -43 156 51 L156 153 C156 204.975 129.456 244.699 86.4742 262.625 C82.0748 264.46 82.0748 277.54 86.4742 279.375 C129.456 297.301 156 337.025 156 389 L156 490 C156 584 205 646 279 646 L291.5 646 C295.64 646 299 649.36 299 653.5 C299 657.64 295.64 661 291.5 661 L259 661 C155 661 86 593 86 490 L86 339 C86 300.05 56.2175 280.052 12.0853 278.15 C8.12743 277.98 5 274.461 5 270.5 C5 266.538 8.12697 263.02 12.0852 262.85 C56.2175 260.952 86 241.05 86 204 L86 52 C86 -51 155 -119 259 -119 L291.502 -119.813 C295.64 -119.916 299 -116.638 299 -112.5 L299 -112.5 Z " />
<glyph glyph-name="bar" unicode="&#x7c;" horiz-adv-x="190" d="M60 735 L60 -199 C60 -218.319 75.681 -234 95 -234 C114.319 -234 130 -218.319 130 -199 L130 735 C130 754.319 114.319 770 95 770 C75.681 770 60 754.319 60 735 L60 735 Z " />
<glyph glyph-name="braceright" unicode="&#x7d;" horiz-adv-x="314" d="M5 652.5 C5 648.36 8.36022 645 12.5 645 L25 645 C99 645 148 583 148 489 L148 387 C148 335.025 174.544 295.301 217.526 277.375 C221.925 275.54 221.925 262.46 217.526 260.625 C174.544 242.699 148 202.975 148 151 L148 50 C148 -44 99 -106 25 -106 L12.5 -106 C8.36022 -106 5 -109.36 5 -113.5 C5 -117.64 8.36022 -121 12.5 -121 L45 -121 C149 -121 218 -53 218 50 L218 201 C218 239.95 247.783 259.947 291.915 261.85 C295.873 262.02 299 265.539 299 269.5 C299 273.462 295.873 276.98 291.915 277.15 C247.782 279.047 218 298.95 218 336 L218 488 C218 591 149 659 45 659 L12.4977 659.813 C8.36047 659.916 5 656.638 5 652.5 L5 652.5 Z " />
<glyph glyph-name="asciitilde" unicode="&#x7e;" horiz-adv-x="460" d="M23.4333 317.892 C26.9731 349.465 51.925 370 88 370 C166 370 271 308 349 308 C409.45 308 450.888 353.63 452.922 422.645 C453.047 426.905 449.762 428 445.5 428 C441.844 428 437.961 423.53 437.534 419.899 C433.727 387.535 406.925 367 369 367 C290 367 186 430 107 430 C49.475 430 10.0119 384.37 8.07467 315.355 C7.95526 311.1 11.2441 310 15.5 310 C19.1785 310 23.0234 314.237 23.4333 317.892 L23.4333 317.892 Z " />
<glyph glyph-name="nbspace" unicode="&#xa0;" horiz-adv-x="326" d="" />
<glyph glyph-name="exclamdown" unicode="&#xa1;" horiz-adv-x="234" d="M109 505 C70 505 44 479 44 440 C44 401 70 375 109 375 C148 375 174 401 174 440 C174 479 148 505 109 505 L109 505 Z M59.7486 -102.9 C57.1094 -140.284 78.925 -165 115 -165 C152.05 -165 173.89 -140.284 170.325 -102.9 C170.313 -102.782 169.9 -82.27 169.899 -82.1512 C167.284 147.9 115 300 115 300 C115 300 113.64 300 109 300 C105.782 300 103.741 302.813 102.921 299.701 C100.877 291.95 60 134 60 -100 C60 -100.084 59.7545 -102.816 59.7486 -102.9 L59.7486 -102.9 Z " />
<glyph glyph-name="cent" unicode="&#xa2;" horiz-adv-x="600" d="M339 558.992 L339 539.5 C339 521.773 318.394 502.597 300.869 499.925 C148.397 476.68 50 374.375 50 231 C50 89 150 -5 300 -5 C310.706 -5 321.412 -5 332.118 -4.44148 C335.619 -4.25883 339 -7.01336 339 -10.5192 L339 -60 C339 -68.2796 345.72 -75 354 -75 C362.28 -75 369 -68.2796 369 -60 L369 -38 C369 -19.3843 389.337 1.4985 407.609 5.06025 C463.289 15.9141 512.347 34.9365 544.078 58.4035 C547.056 60.6058 548.314 65.108 546 68 C544.213 70.2343 539.752 71.2474 537.234 69.8884 C518.283 59.6598 469.378 51.0203 411.614 48.6104 C388.057 47.6276 370 64.9254 370 88.5031 L370 450.459 C370 468.237 379.942 478.278 397.222 474.101 C437.259 464.421 463.7 438.475 467 403 C469 377 487 359 512 359 C535.226 359 550.959 373.984 551.95 396.703 C551.978 397.327 551.519 403.067 551.427 403.685 C543.54 456.332 488.601 493.426 408.104 502.072 C390.946 503.915 371 521.744 371 539 L371 557.992 C371 566.824 363.827 574.224 355 574.5 C346.173 574.776 339 567.824 339 558.992 L339 558.992 Z M283.091 64.426 C198.727 94.8025 147 167.65 147 265 C147 364.825 199.408 439.467 283.448 467.588 C320.913 480.124 341 459.834 341 420.327 L341 110.414 C341 71.4103 319.788 51.2126 283.091 64.426 L283.091 64.426 Z " />
<glyph glyph-name="guillemotleft" unicode="&#xab;" horiz-adv-x="619" d="M372.953 268.538 C413.889 304.811 478.512 363.851 562.328 447.342 C564.821 449.826 567.989 457.011 565.5 459.5 C563.03 461.97 555.147 458.166 552.664 455.71 C445.117 349.368 369.75 298.375 321 274 C296.529 261.765 274.716 255.73 250.558 254.229 C247.873 254.062 246 251.69 246 249 C246 246.255 243.413 244.214 246.148 243.988 C249.579 243.704 311.466 238.463 320.601 228.934 C320.657 228.876 328.651 220.488 328.717 220.441 C423.684 153.303 562 34 562 34 C562 34 563.868 35.6809 567 38.5 C569.755 40.9791 574.375 40.6893 571.719 43.2738 C565.011 49.8011 439.963 171.429 368.618 236.115 C358.328 245.444 362.558 259.326 372.953 268.538 L372.953 268.538 Z M246 250 C246 248.912 244.631 248.426 244.273 249.454 C237.23 269.672 248.933 271.051 271.237 260.378 C272.746 259.656 273.422 257.447 271.775 257.148 C265.331 255.976 258.408 255.284 251.006 255.071 C248.327 254.994 246 252.68 246 250 L246 250 Z M142.953 268.538 C183.89 304.811 248.512 363.851 332.328 447.342 C334.821 449.826 337.989 457.011 335.5 459.5 C333.03 461.97 325.147 458.166 322.664 455.71 C215.118 349.368 139.75 298.375 91 274 C66.5294 261.765 44.7163 255.73 20.5583 254.229 C17.8734 254.062 16 251.69 16 249 C16 246.255 13.4126 244.214 16.1483 243.988 C19.5794 243.704 81.466 238.463 90.601 228.934 C90.657 228.876 98.6506 220.488 98.7166 220.441 C193.684 153.303 332 34 332 34 C332 34 333.868 35.6809 337 38.5 C339.755 40.9791 344.375 40.6893 341.719 43.2738 C335.011 49.8011 209.963 171.429 138.618 236.115 C128.328 245.444 132.558 259.326 142.953 268.538 L142.953 268.538 Z M16 250 C16 248.912 14.6308 248.426 14.2728 249.454 C7.2304 269.672 18.933 271.051 41.2368 260.378 C42.7465 259.656 43.4218 257.447 41.7751 257.148 C35.3314 255.976 28.4083 255.284 21.0059 255.071 C18.3266 254.994 16 252.68 16 250 L16 250 Z " />
<glyph glyph-name="acute" unicode="&#xb4;" horiz-adv-x="460" d="M154.154 530.159 C158.118 534.271 237.775 617 268 656 C291 682 306 701 306 706 C306 717 270 744 254 744 C250.25 744 239.469 725.543 224.952 697.693 C224.778 697.358 219.868 689.169 219.646 688.864 C188.679 646.371 144 538 144 538 C144 538 145.321 536.944 149 534 C151.75 531.8 151.71 527.624 154.154 530.159 L154.154 530.159 Z " />
<glyph glyph-name="guillemotright" unicode="&#xbb;" horiz-adv-x="619" d="M345.763 260.378 C368.067 271.051 379.77 269.672 372.727 249.454 C372.369 248.426 371 248.912 371 250 L371 250.877 C371 253.025 372.978 255.42 370.877 254.972 C369.893 254.762 362.979 253.503 349.505 256.232 C349.496 256.234 342.256 257.582 342.247 257.583 C328.458 260.028 314.25 265.833 295 275 C246.25 299.375 170.882 350.368 63.3363 456.71 C60.8526 459.166 52.9699 462.97 50.5 460.5 C48.0113 458.011 51.1789 450.826 53.6724 448.342 C137.488 364.851 202.11 305.811 243.047 269.538 C253.451 260.319 256.672 246.442 246.366 237.115 C172.911 170.633 42 44 42 44 C42 44 44.4248 41.8177 47 39.5 C49.7354 37.0381 49.4811 32.831 52.2697 35.2324 C59.0646 41.0838 192.751 156.025 285.283 221.441 C285.349 221.488 293.343 229.876 293.399 229.934 C302.795 239.735 368 245 368 245 C368 245 368 247.008 368 250 C368 252.677 365.766 254.991 363.09 255.071 C355.958 255.284 349.803 255.976 343.629 257.148 C341.989 257.459 344.257 259.657 345.763 260.378 L345.763 260.378 Z M570.763 260.378 C593.067 271.051 604.77 269.672 597.727 249.454 C597.369 248.426 596 248.912 596 250 L596 250.877 C596 253.025 597.978 255.42 595.877 254.972 C594.893 254.762 587.979 253.503 574.505 256.232 C574.496 256.234 567.256 257.582 567.247 257.583 C553.458 260.028 539.25 265.833 520 275 C471.25 299.375 395.882 350.368 288.336 456.71 C285.853 459.166 277.97 462.97 275.5 460.5 C273.011 458.011 276.179 450.826 278.672 448.342 C362.488 364.851 427.11 305.811 468.047 269.538 C478.451 260.319 481.672 246.442 471.366 237.115 C397.911 170.633 267 44 267 44 C267 44 269.425 41.8177 272 39.5 C274.735 37.0381 274.481 32.831 277.27 35.2324 C284.065 41.0838 417.751 156.025 510.283 221.441 C510.349 221.488 518.343 229.876 518.399 229.934 C527.795 239.735 593 245 593 245 C593 245 593 247.008 593 250 C593 252.677 590.766 254.991 588.09 255.071 C580.958 255.284 574.803 255.976 568.629 257.148 C566.989 257.459 569.257 259.657 570.763 260.378 L570.763 260.378 Z " />
<glyph glyph-name="onequarter" unicode="&#xbc;" horiz-adv-x="828" d="M282 631 C282 632 282 633 282 634 L283 634 L282 631 L282 631 Z M315.502 673.882 L244 672 L170.999 670.079 C169.344 670.035 168 668.655 168 667 C168 665.388 169.055 664.008 170.667 663.965 C184.635 663.594 194.54 660.182 200.381 651.518 C202.949 647.709 204 640.688 204 636.094 L204 456 C204 434.815 190.091 424.757 169.415 424.041 C167.818 423.986 167 422.599 167 421 C167 419.345 168.344 417.964 169.999 417.919 L204 417 L280 417 L314.501 417.885 C316.984 417.948 319 420.017 319 422.5 C319 424.838 316.711 426.995 314.378 427.132 C294.761 428.288 280.75 437.143 280.75 458.5 L281 634 C281.926 654.37 295.712 663.595 315.214 664.85 C317.533 664.999 320 667.176 320 669.5 C320 671.983 317.984 673.947 315.502 673.882 L315.502 673.882 Z M155.817 -1.83781 L710.183 629.838 C719.465 640.414 718.487 656.617 708 666 C697.513 675.383 681.465 674.414 672.183 663.838 L117.817 32.1622 C108.535 21.5857 109.513 5.38306 120 -4 C130.487 -13.3831 146.535 -12.4143 155.817 -1.83781 L155.817 -1.83781 Z M460 69 C460 64.5856 463.584 60.9104 467.998 60.8001 L480 60.5 L593 60.0935 C607.351 60.0419 619 48.3511 619 34 C619 19.6488 630.649 8 645 8 L670 8 C684.351 8 696 19.6488 696 34 C696 48.3512 707.649 60 722 60 L762 60 C771.383 60 779 67.6165 779 77 C779 86.3835 771.383 94 762 94 L737.5 94 C714.594 94 696.118 112.593 696.263 135.499 L697.25 291 L697.066 305.744 C697.029 308.64 694.643 311.112 691.75 311.25 C689.89 311.339 683.529 309.841 681.948 308.857 C620.205 270.428 460.5 76.5 460.5 76.5 C460.5 76.5 460 81.3082 460 69 L460 69 Z M525.612 109.035 C551.493 139.473 585.693 179.287 617.972 213.629 C619.52 215.275 622.943 214.716 622.5 212.5 L622.193 210.966 C622.064 210.32 621 199.575 621 198.916 L621 147.5 C621 117.418 596.582 93 566.5 93 L533.639 93 C524.527 93 519.71 102.093 525.612 109.035 L525.612 109.035 Z " />
<glyph glyph-name="onehalf" unicode="&#xbd;" horiz-adv-x="828" d="M718 86 L678.5 86 C668.1 86 664.688 100.384 673.622 105.707 C723.733 135.561 753 160.6 753 187 C753 231 710 261 645 261 C586.5 261 534.654 230.58 514.488 184.57 C513.264 181.776 514.962 179.692 517.5 178 C519.4 176.733 523.502 178.131 524.893 179.943 C535.9 194.28 567.4 204 607 204 C644 204 669 187 669 161 C669 108.35 602.456 83.2681 500.882 30.1428 C497.017 28.1216 493 21.4862 493 17.125 C493 12.2267 499.63 8.24993 504.529 8.24954 C653.135 8.23766 752 8 752 8 C752 8 752.783 15.831 754 28 L756 48 C757.85 48 762.267 107.894 763.71 121.627 C763.872 123.167 762.549 124 761 124 C759.417 124 758.017 123.151 757.947 121.57 C756.991 100.018 743.25 87 723 87 C722 86 719 87.5 719 85.5 L718 86 Z M284 630 C284 631 284 632 284 633 L285 633 L284 630 L284 630 Z M317.502 672.882 L246 671 L172.999 669.079 C171.344 669.035 170 667.655 170 666 C170 664.388 171.055 663.008 172.667 662.965 C186.635 662.594 196.54 659.182 202.381 650.518 C204.949 646.709 206 639.688 206 635.094 L206 455 C206 433.815 192.091 423.757 171.415 423.041 C169.818 422.986 169 421.599 169 420 C169 418.345 170.344 416.964 171.999 416.919 L206 416 L282 416 L316.501 416.885 C318.984 416.948 321 419.017 321 421.5 C321 423.838 318.711 425.995 316.378 426.132 C296.761 427.288 282.75 436.143 282.75 457.5 L283 633 C283.926 653.37 297.712 662.595 317.214 663.85 C319.533 663.999 322 666.176 322 668.5 C322 670.983 319.984 672.947 317.502 672.882 L317.502 672.882 Z M157.817 -2.83781 L712.183 628.838 C721.465 639.414 720.487 655.617 710 665 C699.513 674.383 683.465 673.414 674.183 662.838 L119.817 31.1622 C110.535 20.5857 111.513 4.38306 122 -5 C132.487 -14.3831 148.535 -13.4143 157.817 -2.83781 L157.817 -2.83781 Z M505.633 14.4973 C519.925 21.9064 533.742 28.9054 547.083 35.8225 C547.957 36.2753 549.672 35.5102 548.877 34.93 C534.01 24.0714 519.337 14.9349 505.931 11.4523 C503.869 10.9166 503.741 13.5168 505.633 14.4973 L505.633 14.4973 Z " />
<glyph glyph-name="threequarters" unicode="&#xbe;" horiz-adv-x="828" d="M133.23 340.38 C277.987 346.362 374 392.65 374 457 C374 485.875 354.943 508.624 323.004 521.318 C315.773 524.191 314.199 536.265 320.487 540.849 C348.665 561.389 365 583.375 365 604 C365 643 324 670 263 670 C223.025 670 166.889 640.531 119.618 596.422 C117.306 594.264 117.764 591.236 120 589 C121.991 587.009 126.402 587.23 128.621 588.962 C149.011 604.877 186.15 616 225 616 C263 616 289 601 289 579 C289 563.417 281.438 548.674 268.623 535.541 C267.296 534.181 262.401 532 260.5 532 C262.2 532 263.304 530.444 262.029 529.32 C250.838 519.457 236.375 509.324 219.184 503.248 C216.004 502.124 212 497.373 212 494 L212 492.22 C212 489.484 214.039 487.618 216.668 488.374 C225.29 490.852 234.077 493 240 493 C273 493 296 477 296 454 C296 400.375 230.407 361.96 131.661 357.292 C127.34 357.088 123.885 353.323 123.75 349 C123.61 344.53 128.762 340.196 133.23 340.38 L133.23 340.38 Z M157.817 -3.83781 L712.183 627.838 C721.465 638.414 720.487 654.617 710 664 C699.513 673.383 683.465 672.414 674.183 661.838 L119.817 30.1622 C110.535 19.5857 111.513 3.38306 122 -6 C132.487 -15.3831 148.535 -14.4143 157.817 -3.83781 L157.817 -3.83781 Z M459 65 C459 60.5856 462.584 56.9104 466.998 56.8001 L479 56.5 L592 56.0935 C606.351 56.0419 618 44.3511 618 30 C618 15.6488 629.649 4 644 4 L669 4 C683.351 4 695 15.6488 695 30 C695 44.3512 706.649 56 721 56 L761 56 C770.383 56 778 63.6165 778 73 C778 82.3835 770.383 90 761 90 L736.5 90 C713.594 90 695.118 108.593 695.263 131.499 L696.25 287 L696.066 301.744 C696.029 304.64 693.643 307.112 690.75 307.25 C688.89 307.339 682.529 305.841 680.948 304.857 C619.205 266.428 459.5 72.5 459.5 72.5 C459.5 72.5 459 77.3082 459 65 L459 65 Z M524.612 105.035 C550.493 135.473 584.693 175.287 616.972 209.629 C618.52 211.275 621.943 210.716 621.5 208.5 L621.193 206.966 C621.064 206.32 620 195.575 620 194.916 L620 143.5 C620 113.418 595.582 89 565.5 89 L532.639 89 C523.527 89 518.71 98.0928 524.612 105.035 L524.612 105.035 Z " />
<glyph glyph-name="questiondown" unicode="&#xbf;" horiz-adv-x="467" d="M298 505 C259 505 233 479 233 440 C233 401 259 375 298 375 C337 375 363 401 363 440 C363 479 337 505 298 505 L298 505 Z M317 -165 C384 -165 429 -141 429 -105 C429 -82 413 -66 390 -66 C360 -66 319 -95 289 -95 C149 -95 56 -32 56 63 C56 86 91 126 275 126 L310 126 C319 126 325 132 324 140 L304.768 289.049 C304.347 292.307 301.285 295 298 295 C294.716 295 291.65 292.307 291.227 289.05 L281.256 212.354 C280.021 202.855 271.079 195 261.5 195 L244 195 C68 195 35 117 35 73 C35 -70 148 -165 317 -165 L317 -165 Z " />
<glyph glyph-name="Agrave" unicode="&#xc0;" horiz-adv-x="775" d="M505.566 0 L762.5 0 C766.64 0 770 3.36022 770 7.5 C770 11.4568 767.735 14.9606 763.782 15.1355 C724.923 16.855 695.9 35 675 73 L389.44 663.746 C386.737 669.339 377.712 675 371.5 675 C365.159 675 354.962 665.594 352.462 659.767 C269.641 466.796 186.821 272.923 104 80 C87 41 51 15 13 15 L7 15 C3.68818 15 1 12.3118 1 9 L1 7.5 C1 3.36022 4.36022 0 8.5 0 L205.5 0 C209.64 0 213 3.36022 213 7.5 C213 11.6398 209.64 15 205.5 15 L189 15 C141 15 123 47 143 95 L185.236 196.22 C193.266 215.465 221.084 234 241.937 234 L461.818 234 C475.734 234 497.078 219.003 503.093 206.453 C523.269 164.366 544.308 121.846 564 80 C583 41 570 15 531 15 L507.566 15 C503.427 15 499.547 11.6035 499 7.5 C498.453 3.39654 501.427 0 505.566 0 L505.566 0 Z M289 866 C289 860 305 841 328 816 C360 775 445 690 445 690 C445 690 446.917 691.533 450 694 C452.666 696.133 456.262 695.076 454.909 698.211 C452.681 703.375 409.939 802.058 378.919 845.468 C378.727 845.738 371.201 857.399 371.048 857.693 C356.527 885.543 345.688 904 341 904 C325 904 289 877 289 866 L289 866 Z M379.521 258.369 L302.691 258.657 C255.882 258.832 228.223 300.447 246.185 343.672 L281.579 428.847 C303.227 480.944 368.987 482.839 393.6 432.076 L435.036 346.613 C456.336 302.682 428.344 258.186 379.521 258.369 L379.521 258.369 Z " />
<glyph glyph-name="Aacute" unicode="&#xc1;" horiz-adv-x="775" d="M309.154 690.159 C313.117 694.271 392.775 777 423 816 C446 842 461 861 461 866 C461 877 425 904 409 904 C405.25 904 394.469 885.543 379.952 857.693 C379.778 857.358 374.868 849.169 374.646 848.864 C343.679 806.371 299 698 299 698 C299 698 300.321 696.944 304 694 C306.75 691.8 306.71 687.624 309.154 690.159 L309.154 690.159 Z M505.566 0 L762.5 0 C766.64 0 770 3.36022 770 7.5 C770 11.4568 767.735 14.9606 763.782 15.1355 C724.923 16.855 695.9 35 675 73 L389.44 663.746 C386.737 669.339 377.712 675 371.5 675 C365.159 675 354.962 665.594 352.462 659.767 C269.641 466.796 186.821 272.923 104 80 C87 41 51 15 13 15 L7 15 C3.68818 15 1 12.3118 1 9 L1 7.5 C1 3.36022 4.36022 0 8.5 0 L205.5 0 C209.64 0 213 3.36022 213 7.5 C213 11.6398 209.64 15 205.5 15 L189 15 C141 15 123 47 143 95 L185.236 196.22 C193.266 215.465 221.084 234 241.937 234 L461.818 234 C475.734 234 497.078 219.003 503.093 206.453 C523.269 164.366 544.308 121.846 564 80 C583 41 570 15 531 15 L507.566 15 C503.427 15 499.547 11.6035 499 7.5 C498.453 3.39654 501.427 0 505.566 0 L505.566 0 Z M379.521 258.369 L302.691 258.657 C255.882 258.832 228.223 300.447 246.185 343.672 L281.579 428.847 C303.227 480.944 368.987 482.839 393.6 432.076 L435.036 346.613 C456.336 302.682 428.344 258.186 379.521 258.369 L379.521 258.369 Z " />
<glyph glyph-name="Acircumflex" unicode="&#xc2;" horiz-adv-x="775" d="M505.566 0 L762.5 0 C766.64 0 770 3.36022 770 7.5 C770 11.4568 767.735 14.9606 763.782 15.1355 C724.923 16.855 695.9 35 675 73 L389.44 663.746 C386.737 669.339 377.712 675 371.5 675 C365.159 675 354.962 665.594 352.462 659.767 C269.641 466.796 186.821 272.923 104 80 C87 41 51 15 13 15 L7 15 C3.68818 15 1 12.3118 1 9 L1 7.5 C1 3.36022 4.36022 0 8.5 0 L205.5 0 C209.64 0 213 3.36022 213 7.5 C213 11.6398 209.64 15 205.5 15 L189 15 C141 15 123 47 143 95 L185.236 196.22 C193.266 215.465 221.084 234 241.937 234 L461.818 234 C475.734 234 497.078 219.003 503.093 206.453 C523.269 164.366 544.308 121.846 564 80 C583 41 570 15 531 15 L507.566 15 C503.427 15 499.547 11.6035 499 7.5 C498.453 3.39654 501.427 0 505.566 0 L505.566 0 Z M399.298 881.672 C393.61 890.42 382.9 905 373 905 C361 905 349 888 344 880 C344 880 269.995 749.138 237.731 706.043 C235.841 703.52 235.144 698.094 237.5 696 C239.976 693.799 244.828 695.332 246.978 697.852 C301.226 761.428 338.576 798.783 362.961 820.586 C369.709 826.619 379.81 826.201 386.116 819.707 C433.839 770.573 504 691 504 691 C504 691 506.026 692.801 508.5 695 C510.964 697.19 514.738 696.503 512.855 699.208 C509.2 704.458 437.496 807.675 404.058 873.392 C403.972 873.561 399.401 881.513 399.298 881.672 L399.298 881.672 Z M380.521 257.369 L303.691 257.657 C256.882 257.832 229.223 299.447 247.185 342.672 L282.579 427.847 C304.227 479.944 369.987 481.839 394.6 431.076 L436.036 345.613 C457.336 301.682 429.344 257.186 380.521 257.369 L380.521 257.369 Z " />
<glyph glyph-name="Atilde" unicode="&#xc3;" horiz-adv-x="775" d="M163.433 762.892 C166.973 794.465 191.925 815 228 815 C306 815 410 753 488 753 C549.425 753 590.887 798.63 592.922 867.645 C593.047 871.905 589.762 873 585.5 873 C581.845 873 577.961 868.529 577.533 864.899 C573.721 832.535 546.85 812 508 812 C430 812 326 875 248 875 C189.5 875 150.012 829.37 148.075 760.355 C147.955 756.1 151.244 755 155.5 755 C159.179 755 163.023 759.237 163.433 762.892 L163.433 762.892 Z M505.566 0 L762.5 0 C766.64 0 770 3.36022 770 7.5 C770 11.4568 767.735 14.9606 763.782 15.1355 C724.923 16.855 695.9 35 675 73 L389.44 663.746 C386.737 669.339 377.712 675 371.5 675 C365.159 675 354.962 665.594 352.462 659.767 C269.641 466.796 186.821 272.923 104 80 C87 41 51 15 13 15 L7 15 C3.68818 15 1 12.3118 1 9 L1 7.5 C1 3.36022 4.36022 0 8.5 0 L205.5 0 C209.64 0 213 3.36022 213 7.5 C213 11.6398 209.64 15 205.5 15 L189 15 C141 15 123 47 143 95 L185.236 196.22 C193.266 215.465 221.084 234 241.937 234 L461.818 234 C475.734 234 497.078 219.003 503.093 206.453 C523.269 164.366 544.308 121.846 564 80 C583 41 570 15 531 15 L507.566 15 C503.427 15 499.547 11.6035 499 7.5 C498.453 3.39654 501.427 0 505.566 0 L505.566 0 Z M379.521 258.369 L302.691 258.657 C255.882 258.832 228.223 300.447 246.185 343.672 L281.579 428.847 C303.227 480.944 368.987 482.839 393.6 432.076 L435.036 346.613 C456.336 302.682 428.344 258.186 379.521 258.369 L379.521 258.369 Z " />
<glyph glyph-name="Adieresis" unicode="&#xc4;" horiz-adv-x="775" d="M474 730 C507 730 529 752 529 785 C529 818 507 840 474 840 C441 840 419 818 419 785 C419 752 441 730 474 730 L474 730 Z M267 730 C300 730 322 752 322 785 C322 818 300 840 267 840 C234 840 212 818 212 785 C212 752 234 730 267 730 L267 730 Z M505.566 0 L762.5 0 C766.64 0 770 3.36022 770 7.5 C770 11.4568 767.735 14.9606 763.782 15.1355 C724.923 16.855 695.9 35 675 73 L389.44 663.746 C386.737 669.339 377.712 675 371.5 675 C365.159 675 354.962 665.594 352.462 659.767 C269.641 466.796 186.821 272.923 104 80 C87 41 51 15 13 15 L7 15 C3.68818 15 1 12.3118 1 9 L1 7.5 C1 3.36022 4.36022 0 8.5 0 L205.5 0 C209.64 0 213 3.36022 213 7.5 C213 11.6398 209.64 15 205.5 15 L189 15 C141 15 123 47 143 95 L185.236 196.22 C193.266 215.465 221.084 234 241.937 234 L461.818 234 C475.734 234 497.078 219.003 503.093 206.453 C523.269 164.366 544.308 121.846 564 80 C583 41 570 15 531 15 L507.566 15 C503.427 15 499.547 11.6035 499 7.5 C498.453 3.39654 501.427 0 505.566 0 L505.566 0 Z M379.521 258.369 L302.691 258.657 C255.882 258.832 228.223 300.447 246.185 343.672 L281.579 428.847 C303.227 480.944 368.987 482.839 393.6 432.076 L435.036 346.613 C456.336 302.682 428.344 258.186 379.521 258.369 L379.521 258.369 Z " />
<glyph glyph-name="Aring" unicode="&#xc5;" horiz-adv-x="775" d="M300 788 C300 831 328 860 371 860 C413 860 441 831 441 788 C441 749 409 715 371 715 C333 715 300 749 300 788 L300 788 Z M275 788 C275 738 319 695 371 695 C422 695 466 738 466 788 C466 843 428 880 371 880 C313 880 275 843 275 788 L275 788 Z M505.566 0 L762.5 0 C766.64 0 770 3.36022 770 7.5 C770 11.4568 767.735 14.9606 763.782 15.1355 C724.923 16.855 695.9 35 675 73 L389.44 663.746 C386.737 669.339 377.712 675 371.5 675 C365.159 675 354.962 665.594 352.462 659.767 C269.641 466.796 186.821 272.923 104 80 C87 41 51 15 13 15 L7 15 C3.68818 15 1 12.3118 1 9 L1 7.5 C1 3.36022 4.36022 0 8.5 0 L205.5 0 C209.64 0 213 3.36022 213 7.5 C213 11.6398 209.64 15 205.5 15 L189 15 C141 15 123 47 143 95 L185.236 196.22 C193.266 215.465 221.084 234 241.937 234 L461.818 234 C475.734 234 497.078 219.003 503.093 206.453 C523.269 164.366 544.308 121.846 564 80 C583 41 570 15 531 15 L507.566 15 C503.427 15 499.547 11.6035 499 7.5 C498.453 3.39654 501.427 0 505.566 0 L505.566 0 Z M379.521 258.369 L302.691 258.657 C255.882 258.832 228.223 300.447 246.185 343.672 L281.579 428.847 C303.227 480.944 368.987 482.839 393.6 432.076 L435.036 346.613 C456.336 302.682 428.344 258.186 379.521 258.369 L379.521 258.369 Z " />
<glyph glyph-name="Ccedilla" unicode="&#xc7;" horiz-adv-x="805" d="M745 466.062 L745 599.735 C745 601.391 742.793 601.954 742 600.5 C743.701 603.618 743.442 606.919 740.315 608.604 C678.001 642.185 561.05 665 446 665 C208 665 50 531 50 330 C50 132 204 -1 437 -5 C440.079 -5.05285 435.401 -7.50429 433.732 -10.0918 C424.9 -23.7848 406.586 -51.8374 383.087 -88.7226 C382.017 -90.4016 382.344 -92.8957 384 -94 C385.283 -94.8553 389.094 -95.193 390.545 -94.6729 C413.59 -86.415 447.6 -81 478 -81 C532 -81 568 -103 568 -136 C568 -171 525 -195 460 -195 C414.5 -195 377.422 -191.172 361.494 -185.525 C359.261 -184.734 353.955 -185.63 352.5 -187.5 C350.477 -190.101 350.238 -192.863 353.092 -194.512 C380.197 -210.17 429.55 -221 478 -221 C565 -221 623 -187 623 -136 C623 -92 573 -63 499 -63 C468.4 -63 434.91 -67.335 410.198 -74.7767 C406.427 -75.9124 402.701 -72.4555 405.046 -69.2914 C428.783 -37.266 446.933 -19.6706 457.636 -10.4539 C459.403 -8.93259 469.067 -5.87416 471.397 -5.8108 C563.729 -3.30022 654.496 13.3163 714.498 37.8621 C733.003 45.4324 743.323 65.3542 742.31 85.3226 L737.234 185.396 C737.09 188.226 736.077 189.924 733.44 188.886 C727.062 186.376 721.903 181.895 724.666 185.301 C725.096 185.83 724.609 186.805 724 186.5 C722.634 185.817 720.878 184.147 720.665 182.634 C719.765 176.247 718.778 169.333 717 164 C691 90 619 34 535 23 C505 20 474 18 443 18 C271 18 157 142 157 328 C157 514 271 638 443 638 C487 638 531 634 572 628 C634 617 692 563 716 493 C719.294 483.941 723.266 472.17 726.8 462.153 C727.86 459.147 731.644 456.331 734.807 456.726 L737 457 C741.382 457.548 745 461.646 745 466.062 L745 466.062 Z M715.409 182.381 C710.821 180.117 709.719 181.197 720.504 191.621 C721.399 192.487 721.894 190.681 721.5 189.5 L721.492 189.475 C720.812 187.437 717.336 183.331 715.409 182.381 L715.409 182.381 Z " />
<glyph glyph-name="Egrave" unicode="&#xc8;" horiz-adv-x="697" d="M244 866 C244 860 260 841 283 816 C315 775 400 690 400 690 C400 690 401.917 691.533 405 694 C407.666 696.133 411.262 695.076 409.909 698.211 C407.681 703.375 364.939 802.058 333.919 845.468 C333.727 845.738 326.201 857.399 326.048 857.693 C311.527 885.543 300.688 904 296 904 C280 904 244 877 244 866 L244 866 Z M517 261 L517 434 C517 437.312 514.312 440 511 440 L510.852 440 C507.817 440 504.037 437.353 503 434.5 L501 429 C489 391 448 365 397 365 L276.44 365 C242.527 365 215 392.527 215 426.44 L215 573.56 C215 607.473 242.527 635 276.44 635 L429 635 C489 635 542 595 562 535 L571.351 505.247 C572.219 502.484 575.604 500 578.5 500 C581.536 500 584 502.464 584 505.5 L584 598.56 C584 632.473 556.473 660 522.56 660 L47.5 660 C43.3602 660 40 656.64 40 652.5 L40 650.5 C40 647.464 42.4642 645 45.5 645 L51 645 C89 645 115 619 115 580 L115 80 C115 41 89 15 51 15 L45.5 15 C42.4642 15 40 12.5358 40 9.5 L40 7.5 C40 3.36022 43.3602 0 47.5 0 L579.917 0 C583.229 0 586.456 2.73324 587 6 L588 12 C594.65 53.8 604.91 110.04 612.778 153.284 C613.313 156.223 611.487 160 608.5 160 C605.769 160 601.79 157.509 600.597 155.053 L586 125 C555 65 495 25 435 25 L276.44 25 C242.527 25 215 52.527 215 86.44 L215 278.56 C215 312.473 242.527 340 276.44 340 L397 340 C448 340 489 311 501 268 L503.235 260.735 C504.166 257.709 507.835 255 511 255 C514.312 255 517 257.688 517 261 L517 261 Z " />
<glyph glyph-name="Eacute" unicode="&#xc9;" horiz-adv-x="697" d="M313.154 690.159 C317.118 694.271 396.775 777 427 816 C450 842 465 861 465 866 C465 877 429 904 413 904 C409.25 904 398.469 885.543 383.952 857.693 C383.778 857.358 378.868 849.169 378.646 848.864 C347.679 806.371 303 698 303 698 C303 698 304.321 696.944 308 694 C310.75 691.8 310.71 687.624 313.154 690.159 L313.154 690.159 Z M517 261 L517 434 C517 437.312 514.312 440 511 440 L510.852 440 C507.817 440 504.037 437.353 503 434.5 L501 429 C489 391 448 365 397 365 L276.44 365 C242.527 365 215 392.527 215 426.44 L215 573.56 C215 607.473 242.527 635 276.44 635 L429 635 C489 635 542 595 562 535 L571.351 505.247 C572.219 502.484 575.604 500 578.5 500 C581.536 500 584 502.464 584 505.5 L584 598.56 C584 632.473 556.473 660 522.56 660 L47.5 660 C43.3602 660 40 656.64 40 652.5 L40 650.5 C40 647.464 42.4642 645 45.5 645 L51 645 C89 645 115 619 115 580 L115 80 C115 41 89 15 51 15 L45.5 15 C42.4642 15 40 12.5358 40 9.5 L40 7.5 C40 3.36022 43.3602 0 47.5 0 L579.917 0 C583.229 0 586.456 2.73324 587 6 L588 12 C594.65 53.8 604.91 110.04 612.778 153.284 C613.313 156.223 611.487 160 608.5 160 C605.769 160 601.79 157.509 600.597 155.053 L586 125 C555 65 495 25 435 25 L276.44 25 C242.527 25 215 52.527 215 86.44 L215 278.56 C215 312.473 242.527 340 276.44 340 L397 340 C448 340 489 311 501 268 L503.235 260.735 C504.166 257.709 507.835 255 511 255 C514.312 255 517 257.688 517 261 L517 261 Z " />
<glyph glyph-name="Ecircumflex" unicode="&#xca;" horiz-adv-x="697" d="M370.298 881.672 C364.61 890.42 353.9 905 344 905 C332 905 320 888 315 880 C315 880 240.995 749.138 208.731 706.043 C206.841 703.52 206.144 698.094 208.5 696 C210.976 693.799 215.828 695.332 217.978 697.852 C272.226 761.428 309.576 798.783 333.961 820.586 C340.709 826.619 350.81 826.201 357.116 819.707 C404.839 770.573 475 691 475 691 C475 691 477.026 692.801 479.5 695 C481.964 697.19 485.738 696.503 483.855 699.208 C480.2 704.458 408.496 807.675 375.058 873.392 C374.972 873.561 370.401 881.513 370.298 881.672 L370.298 881.672 Z M518 260 L518 433 C518 436.312 515.312 439 512 439 L511.852 439 C508.817 439 505.037 436.353 504 433.5 L502 428 C490 390 449 364 398 364 L277.44 364 C243.527 364 216 391.527 216 425.44 L216 572.56 C216 606.473 243.527 634 277.44 634 L430 634 C490 634 543 594 563 534 L572.351 504.247 C573.219 501.484 576.604 499 579.5 499 C582.536 499 585 501.464 585 504.5 L585 597.56 C585 631.473 557.473 659 523.56 659 L48.5 659 C44.3602 659 41 655.64 41 651.5 L41 649.5 C41 646.464 43.4642 644 46.5 644 L52 644 C90 644 116 618 116 579 L116 79 C116 40 90 14 52 14 L46.5 14 C43.4642 14 41 11.5358 41 8.5 L41 6.5 C41 2.36022 44.3602 -1 48.5 -1 L580.917 -1 C584.229 -1 587.456 1.73324 588 5 L589 11 C595.65 52.8 605.91 109.04 613.778 152.284 C614.313 155.223 612.487 159 609.5 159 C606.769 159 602.79 156.509 601.597 154.053 L587 124 C556 64 496 24 436 24 L277.44 24 C243.527 24 216 51.527 216 85.44 L216 277.56 C216 311.473 243.527 339 277.44 339 L398 339 C449 339 490 310 502 267 L504.235 259.735 C505.166 256.709 508.835 254 512 254 C515.312 254 518 256.688 518 260 L518 260 Z " />
<glyph glyph-name="Edieresis" unicode="&#xcb;" horiz-adv-x="697" d="M447 730 C480 730 502 752 502 785 C502 818 480 840 447 840 C414 840 392 818 392 785 C392 752 414 730 447 730 L447 730 Z M240 730 C273 730 295 752 295 785 C295 818 273 840 240 840 C207 840 185 818 185 785 C185 752 207 730 240 730 L240 730 Z M517 261 L517 434 C517 437.312 514.312 440 511 440 L510.852 440 C507.817 440 504.037 437.353 503 434.5 L501 429 C489 391 448 365 397 365 L276.44 365 C242.527 365 215 392.527 215 426.44 L215 573.56 C215 607.473 242.527 635 276.44 635 L429 635 C489 635 542 595 562 535 L571.351 505.247 C572.219 502.484 575.604 500 578.5 500 C581.536 500 584 502.464 584 505.5 L584 598.56 C584 632.473 556.473 660 522.56 660 L47.5 660 C43.3602 660 40 656.64 40 652.5 L40 650.5 C40 647.464 42.4642 645 45.5 645 L51 645 C89 645 115 619 115 580 L115 80 C115 41 89 15 51 15 L45.5 15 C42.4642 15 40 12.5358 40 9.5 L40 7.5 C40 3.36022 43.3602 0 47.5 0 L579.917 0 C583.229 0 586.456 2.73324 587 6 L588 12 C594.65 53.8 604.91 110.04 612.778 153.284 C613.313 156.223 611.487 160 608.5 160 C605.769 160 601.79 157.509 600.597 155.053 L586 125 C555 65 495 25 435 25 L276.44 25 C242.527 25 215 52.527 215 86.44 L215 278.56 C215 312.473 242.527 340 276.44 340 L397 340 C448 340 489 311 501 268 L503.235 260.735 C504.166 257.709 507.835 255 511 255 C514.312 255 517 257.688 517 261 L517 261 Z " />
<glyph glyph-name="Igrave" unicode="&#xcc;" horiz-adv-x="330" d="M82 866 C82 860 98 841 121 816 C153 776 237 690 237 690 C237 690 238.989 691.447 242.5 694 C245.473 696.162 249.399 694.85 247.907 698.209 C245.573 703.467 199.647 806.533 168.433 848.793 C168.199 849.11 163.22 857.344 163.037 857.693 C148.41 885.543 136.75 904 133 904 C118 904 82 877 82 866 L82 866 Z M284.5 15 L279 15 C241 15 215 41 215 80 L215 580 C215 619 241 645 279 645 L284.5 645 C287.536 645 290 647.464 290 650.5 L290 652.5 C290 656.64 286.64 660 282.5 660 L47.5 660 C43.3602 660 40 656.64 40 652.5 L40 650.5 C40 647.464 42.4642 645 45.5 645 L51 645 C89 645 115 619 115 580 L115 80 C115 41 89 15 51 15 L45.5 15 C42.4642 15 40 12.5358 40 9.5 L40 7.5 C40 3.36022 43.3602 0 47.5 0 L282.5 0 C286.64 0 290 3.36022 290 7.5 L290 9.5 C290 12.5358 287.536 15 284.5 15 L284.5 15 Z " />
<glyph glyph-name="Iacute" unicode="&#xcd;" horiz-adv-x="330" d="M105.152 690.159 C109.068 694.271 187.775 777 218 816 C241 842 256 861 256 866 C256 877 220 904 205 904 C202.188 904 190.586 885.543 175.963 857.693 C175.793 857.369 170.86 849.16 170.644 848.864 C139.63 806.371 94 698 94 698 C94 698 95.6702 696.785 99.5 694 C102.511 691.81 102.584 687.463 105.152 690.159 L105.152 690.159 Z M284.5 15 L279 15 C241 15 215 41 215 80 L215 580 C215 619 241 645 279 645 L284.5 645 C287.536 645 290 647.464 290 650.5 L290 652.5 C290 656.64 286.64 660 282.5 660 L47.5 660 C43.3602 660 40 656.64 40 652.5 L40 650.5 C40 647.464 42.4642 645 45.5 645 L51 645 C89 645 115 619 115 580 L115 80 C115 41 89 15 51 15 L45.5 15 C42.4642 15 40 12.5358 40 9.5 L40 7.5 C40 3.36022 43.3602 0 47.5 0 L282.5 0 C286.64 0 290 3.36022 290 7.5 L290 9.5 C290 12.5358 287.536 15 284.5 15 L284.5 15 Z " />
<glyph glyph-name="Icircumflex" unicode="&#xce;" horiz-adv-x="330" d="M192.297 881.672 C186.6 890.42 175.8 905 165 905 C153 905 141 888 136 880 C136 880 61.995 749.138 29.7306 706.043 C27.8415 703.52 27.1441 698.094 29.5 696 C31.9741 693.801 36.7899 695.379 38.9051 697.925 C92.3682 762.286 129.598 799.761 153.965 821.582 C160.695 827.61 170.821 827.187 177.132 820.723 C224.983 771.718 296 693 296 693 C296 693 297.998 694.776 300.5 697 C302.964 699.19 306.743 698.503 304.856 701.207 C301.224 706.41 229.972 808.723 196.557 874.394 C196.47 874.565 192.402 881.511 192.297 881.672 L192.297 881.672 Z M283.5 16 L278 16 C240 16 214 42 214 81 L214 581 C214 620 240 646 278 646 L283.5 646 C286.536 646 289 648.464 289 651.5 L289 653.5 C289 657.64 285.64 661 281.5 661 L46.5 661 C42.3602 661 39 657.64 39 653.5 L39 651.5 C39 648.464 41.4642 646 44.5 646 L50 646 C88 646 114 620 114 581 L114 81 C114 42 88 16 50 16 L44.5 16 C41.4642 16 39 13.5358 39 10.5 L39 8.5 C39 4.36022 42.3602 1 46.5 1 L281.5 1 C285.64 1 289 4.36022 289 8.5 L289 10.5 C289 13.5358 286.536 16 283.5 16 L283.5 16 Z " />
<glyph glyph-name="Idieresis" unicode="&#xcf;" horiz-adv-x="330" d="M269 730 C302 730 324 752 324 785 C324 818 302 840 269 840 C236 840 214 818 214 785 C214 752 236 730 269 730 L269 730 Z M61 730 C94 730 116 752 116 785 C116 818 94 840 61 840 C28 840 6 818 6 785 C6 752 28 730 61 730 L61 730 Z M284.5 15 L279 15 C241 15 215 41 215 80 L215 580 C215 619 241 645 279 645 L284.5 645 C287.536 645 290 647.464 290 650.5 L290 652.5 C290 656.64 286.64 660 282.5 660 L47.5 660 C43.3602 660 40 656.64 40 652.5 L40 650.5 C40 647.464 42.4642 645 45.5 645 L51 645 C89 645 115 619 115 580 L115 80 C115 41 89 15 51 15 L45.5 15 C42.4642 15 40 12.5358 40 9.5 L40 7.5 C40 3.36022 43.3602 0 47.5 0 L282.5 0 C286.64 0 290 3.36022 290 7.5 L290 9.5 C290 12.5358 287.536 15 284.5 15 L284.5 15 Z " />
<glyph glyph-name="Ntilde" unicode="&#xd1;" horiz-adv-x="812" d="M198.434 762.892 C201.979 794.465 227 815 264 815 C342 815 446 753 524 753 C585.425 753 626.887 798.63 628.922 867.645 C629.047 871.905 625.762 873 621.5 873 C617.845 873 613.961 868.529 613.533 864.899 C609.721 832.535 582.85 812 544 812 C466 812 361 875 283 875 C224.5 875 185.012 829.37 183.075 760.355 C182.955 756.1 186.244 755 190.5 755 C194.178 755 198.023 759.238 198.434 762.892 L198.434 762.892 Z M45.5 645 L51 645 C89 645 115 619 115 580 L115 80 C115 41 89 15 51 15 L45.5 15 C42.4642 15 40 12.5358 40 9.5 L40 7.5 C40 3.36022 43.3602 0 47.5 0 L212.5 0 C216.64 0 220 3.36022 220 7.5 L220 9.5 C220 12.5358 217.536 15 214.5 15 L209 15 C171 15 145 41 145 80 L145 444.168 C145 492.726 207.655 506.193 239.854 469.846 C384.506 306.564 529.59 143.282 674 -20 C677.15 -23.5617 680.745 -20 685.5 -20 C691.848 -20 697 -14.8477 697 -8.5 L697 580 C697 619 723 645 761 645 L766.5 645 C769.536 645 772 647.464 772 650.5 L772 652.5 C772 656.64 768.64 660 764.5 660 L599.5 660 C595.36 660 592 656.64 592 652.5 L592 650.5 C592 647.464 594.464 645 597.5 645 L603 645 C641 645 667 619 667 580 L667 299.86 C667 240.576 598.934 214.739 559.595 259.091 L222.334 639.329 C214.763 647.865 187.779 660 176.37 660 L47.5 660 C43.3602 660 40 656.64 40 652.5 L40 650.5 C40 647.464 42.4642 645 45.5 645 L45.5 645 Z M145 619 L145 619 L145 619 Z " />
<glyph glyph-name="Ograve" unicode="&#xd2;" horiz-adv-x="856" d="M160 330 C160 497 251 640 428 640 C605 640 696 497 696 330 C696 163 605 20 428 20 C251 20 160 163 160 330 L160 330 Z M50 330 C50 149 179 -5 428 -5 C677 -5 806 149 806 330 C806 511 677 665 428 665 C179 665 50 511 50 330 L50 330 Z M345 866 C345 860 361 841 384 816 C416 776 500 690 500 690 C500 690 501.989 691.447 505.5 694 C508.473 696.162 512.399 694.85 510.907 698.209 C508.573 703.467 462.647 806.533 431.433 848.793 C431.199 849.11 426.22 857.344 426.037 857.693 C411.41 885.543 399.75 904 396 904 C381 904 345 877 345 866 L345 866 Z " />
<glyph glyph-name="Oacute" unicode="&#xd3;" horiz-adv-x="856" d="M405.152 690.159 C409.068 694.271 487.775 777 518 816 C541 842 556 861 556 866 C556 877 520 904 505 904 C502.188 904 490.586 885.543 475.963 857.693 C475.793 857.369 470.86 849.16 470.644 848.864 C439.63 806.371 394 698 394 698 C394 698 395.67 696.785 399.5 694 C402.511 691.81 402.584 687.463 405.152 690.159 L405.152 690.159 Z M160 330 C160 497 251 640 428 640 C605 640 696 497 696 330 C696 163 605 20 428 20 C251 20 160 163 160 330 L160 330 Z M50 330 C50 149 179 -5 428 -5 C677 -5 806 149 806 330 C806 511 677 665 428 665 C179 665 50 511 50 330 L50 330 Z " />
<glyph glyph-name="Ocircumflex" unicode="&#xd4;" horiz-adv-x="856" d="M160 330 C160 497 251 640 428 640 C605 640 696 497 696 330 C696 163 605 20 428 20 C251 20 160 163 160 330 L160 330 Z M50 330 C50 149 179 -5 428 -5 C677 -5 806 149 806 330 C806 511 677 665 428 665 C179 665 50 511 50 330 L50 330 Z M455.297 881.672 C449.6 890.42 438.8 905 428 905 C416 905 404 888 399 880 C399 880 324.995 749.138 292.731 706.043 C290.841 703.52 290.144 698.094 292.5 696 C294.974 693.801 299.79 695.379 301.905 697.925 C355.368 762.286 392.598 799.761 416.965 821.582 C423.695 827.61 433.821 827.187 440.132 820.723 C487.983 771.718 559 693 559 693 C559 693 560.998 694.776 563.5 697 C565.964 699.19 569.743 698.503 567.856 701.207 C564.224 706.41 492.972 808.723 459.557 874.394 C459.47 874.565 455.402 881.511 455.297 881.672 L455.297 881.672 Z " />
<glyph glyph-name="Otilde" unicode="&#xd5;" horiz-adv-x="856" d="M220.434 762.892 C223.979 794.465 249 815 286 815 C364 815 468 753 546 753 C607.425 753 648.887 798.63 650.922 867.645 C651.047 871.905 647.762 873 643.5 873 C639.845 873 635.961 868.529 635.533 864.899 C631.721 832.535 604.85 812 566 812 C488 812 383 875 305 875 C246.5 875 207.012 829.37 205.075 760.355 C204.955 756.1 208.244 755 212.5 755 C216.178 755 220.023 759.238 220.434 762.892 L220.434 762.892 Z M160 330 C160 497 251 640 428 640 C605 640 696 497 696 330 C696 163 605 20 428 20 C251 20 160 163 160 330 L160 330 Z M50 330 C50 149 179 -5 428 -5 C677 -5 806 149 806 330 C806 511 677 665 428 665 C179 665 50 511 50 330 L50 330 Z " />
<glyph glyph-name="Odieresis" unicode="&#xd6;" horiz-adv-x="856" d="M532 730 C565 730 587 752 587 785 C587 818 565 840 532 840 C499 840 477 818 477 785 C477 752 499 730 532 730 L532 730 Z M324 730 C357 730 379 752 379 785 C379 818 357 840 324 840 C291 840 269 818 269 785 C269 752 291 730 324 730 L324 730 Z M160 330 C160 497 251 640 428 640 C605 640 696 497 696 330 C696 163 605 20 428 20 C251 20 160 163 160 330 L160 330 Z M50 330 C50 149 179 -5 428 -5 C677 -5 806 149 806 330 C806 511 677 665 428 665 C179 665 50 511 50 330 L50 330 Z " />
<glyph glyph-name="Oslash" unicode="&#xd8;" horiz-adv-x="856" d="M81.9626 -6.95771 L141.668 45.9883 C155.105 57.9047 190.235 57.6481 205.75 48.5992 C263.804 14.7381 338.075 -5 428 -5 C677 -5 806 149 806 330 C806 401.775 786.262 468.786 746.786 523.732 C735.234 539.811 735.362 571.597 750.135 584.778 L804.083 632.907 C813.42 641.238 814.279 655.617 806 665 C797.72 674.383 783.4 675.261 774.037 666.958 L714.332 614.012 C700.895 602.095 665.765 602.352 650.25 611.401 C592.196 645.262 517.925 665 428 665 C179 665 50 511 50 330 C50 258.225 69.7381 191.214 109.214 136.268 C120.766 120.189 120.638 88.4029 105.865 75.2224 L51.9175 27.093 C42.5797 18.7623 41.7206 4.38335 50 -5 C58.2795 -14.3835 72.5998 -15.2606 81.9626 -6.95771 L81.9626 -6.95771 Z M604.947 517.114 L220.079 175.699 C207.954 164.943 192.597 169.096 186.544 184.131 C168.848 228.092 160 278.025 160 330 C160 497 251 640 428 640 C503.075 640 563.176 614.136 607.181 571.393 C624.497 554.573 623.006 533.135 604.947 517.114 L604.947 517.114 Z M669.456 475.869 C687.152 431.908 696 381.975 696 330 C696 163 605 20 428 20 C352.925 20 292.824 45.8637 248.819 88.607 C231.503 105.427 232.994 126.865 251.053 142.886 L635.921 484.301 C648.046 495.057 663.403 490.904 669.456 475.869 L669.456 475.869 Z " />
<glyph glyph-name="Ugrave" unicode="&#xd9;" horiz-adv-x="776" d="M305 866 C305 860 321 841 344 816 C376 776 460 690 460 690 C460 690 461.989 691.447 465.5 694 C468.473 696.162 472.399 694.85 470.907 698.209 C468.573 703.467 422.647 806.533 391.433 848.793 C391.199 849.11 386.22 857.344 386.037 857.693 C371.41 885.543 359.75 904 356 904 C341 904 305 877 305 866 L305 866 Z M748.5 660 L558.5 660 C554.36 660 551 656.64 551 652.5 C551 648.36 554.36 645 558.5 645 L566 645 C611 645 641 615 641 570 L641 202 C641 99 576 30 409 30 C262 30 205 99 205 203 L205 580 C205 619 231 645 269 645 L274.5 645 C277.536 645 280 647.464 280 650.5 L280 652.5 C280 656.64 276.64 660 272.5 660 L37.5 660 C33.3602 660 30 656.64 30 652.5 L30 650.5 C30 647.464 32.4642 645 35.5 645 L41 645 C79 645 105 619 105 580 L105 222 C105 86 186 -5 394 -5 C593 -5 671 74 671 192 L671 570 C671 615 700 645 743 645 L749.5 645 C753.088 645 756 647.912 756 651.5 L756 652.5 C756 656.64 752.64 660 748.5 660 L748.5 660 Z " />
<glyph glyph-name="Uacute" unicode="&#xda;" horiz-adv-x="776" d="M388.152 690.159 C392.068 694.271 470.775 777 501 816 C524 842 539 861 539 866 C539 877 503 904 488 904 C485.188 904 473.586 885.543 458.963 857.693 C458.793 857.369 453.86 849.16 453.644 848.864 C422.63 806.371 377 698 377 698 C377 698 378.67 696.785 382.5 694 C385.511 691.81 385.584 687.463 388.152 690.159 L388.152 690.159 Z M748.5 660 L558.5 660 C554.36 660 551 656.64 551 652.5 C551 648.36 554.36 645 558.5 645 L566 645 C611 645 641 615 641 570 L641 202 C641 99 576 30 409 30 C262 30 205 99 205 203 L205 580 C205 619 231 645 269 645 L274.5 645 C277.536 645 280 647.464 280 650.5 L280 652.5 C280 656.64 276.64 660 272.5 660 L37.5 660 C33.3602 660 30 656.64 30 652.5 L30 650.5 C30 647.464 32.4642 645 35.5 645 L41 645 C79 645 105 619 105 580 L105 222 C105 86 186 -5 394 -5 C593 -5 671 74 671 192 L671 570 C671 615 700 645 743 645 L749.5 645 C753.088 645 756 647.912 756 651.5 L756 652.5 C756 656.64 752.64 660 748.5 660 L748.5 660 Z " />
<glyph glyph-name="Ucircumflex" unicode="&#xdb;" horiz-adv-x="776" d="M415.297 881.672 C409.6 890.42 398.8 905 388 905 C376 905 364 888 359 880 C359 880 284.995 749.138 252.731 706.043 C250.841 703.52 250.144 698.094 252.5 696 C254.974 693.801 259.79 695.379 261.905 697.925 C315.368 762.286 352.598 799.761 376.965 821.582 C383.695 827.61 393.821 827.187 400.132 820.723 C447.983 771.718 519 693 519 693 C519 693 520.998 694.776 523.5 697 C525.964 699.19 529.743 698.503 527.856 701.207 C524.224 706.41 452.972 808.723 419.557 874.394 C419.47 874.565 415.402 881.511 415.297 881.672 L415.297 881.672 Z M747.5 661 L557.5 661 C553.36 661 550 657.64 550 653.5 C550 649.36 553.36 646 557.5 646 L565 646 C610 646 640 616 640 571 L640 203 C640 100 575 31 408 31 C261 31 204 100 204 204 L204 581 C204 620 230 646 268 646 L273.5 646 C276.536 646 279 648.464 279 651.5 L279 653.5 C279 657.64 275.64 661 271.5 661 L36.5 661 C32.3602 661 29 657.64 29 653.5 L29 651.5 C29 648.464 31.4642 646 34.5 646 L40 646 C78 646 104 620 104 581 L104 223 C104 87 185 -4 393 -4 C592 -4 670 75 670 193 L670 571 C670 616 699 646 742 646 L748.5 646 C752.088 646 755 648.912 755 652.5 L755 653.5 C755 657.64 751.64 661 747.5 661 L747.5 661 Z " />
<glyph glyph-name="Udieresis" unicode="&#xdc;" horiz-adv-x="776" d="M492 730 C525 730 547 752 547 785 C547 818 525 840 492 840 C459 840 437 818 437 785 C437 752 459 730 492 730 L492 730 Z M284 730 C317 730 339 752 339 785 C339 818 317 840 284 840 C251 840 229 818 229 785 C229 752 251 730 284 730 L284 730 Z M748.5 660 L558.5 660 C554.36 660 551 656.64 551 652.5 C551 648.36 554.36 645 558.5 645 L566 645 C611 645 641 615 641 570 L641 202 C641 99 576 30 409 30 C262 30 205 99 205 203 L205 580 C205 619 231 645 269 645 L274.5 645 C277.536 645 280 647.464 280 650.5 L280 652.5 C280 656.64 276.64 660 272.5 660 L37.5 660 C33.3602 660 30 656.64 30 652.5 L30 650.5 C30 647.464 32.4642 645 35.5 645 L41 645 C79 645 105 619 105 580 L105 222 C105 86 186 -5 394 -5 C593 -5 671 74 671 192 L671 570 C671 615 700 645 743 645 L749.5 645 C753.088 645 756 647.912 756 651.5 L756 652.5 C756 656.64 752.64 660 748.5 660 L748.5 660 Z " />
<glyph glyph-name="Yacute" unicode="&#xdd;" horiz-adv-x="741" d="M371.152 690.159 C375.068 694.271 453.775 777 484 816 C507 842 522 861 522 866 C522 877 486 904 471 904 C468.188 904 456.586 885.543 441.963 857.693 C441.793 857.369 436.86 849.16 436.644 848.864 C405.63 806.371 360 698 360 698 C360 698 361.67 696.785 365.5 694 C368.511 691.81 368.584 687.463 371.152 690.159 L371.152 690.159 Z M257.483 660 L17.5 660 C13.3602 660 10 656.64 10 652.5 C10 648.696 14.2101 644.987 18.0013 644.679 C50.5 642.032 78.25 623 106 586 L311.231 286.704 C314.593 281.802 322 257.902 322 251.958 L322 79 C322 40 296 14 258 14 L252.5 14 C249.464 14 247 11.5358 247 8.5 L247 6.5 C247 2.36022 250.36 -1 254.5 -1 L489.5 -1 C493.64 -1 497 2.36022 497 6.5 L497 8.5 C497 11.5358 494.536 14 491.5 14 L486 14 C448 14 422 40 422 79 L422 280.8 C422 287.417 418.42 296.144 422.347 301.471 C431.294 313.605 610.45 556.575 628 579 C659.35 620.8 694.31 641.842 734.595 643.842 C738.524 644.037 741 647.565 741 651.5 C741 655.64 737.64 659 733.5 659 L554.5 659 C550.36 659 547 655.64 547 651.5 C547 647.36 550.36 644 554.5 644 L562 644 C612 644 621 610 584 559 L462.49 392.984 C436.075 356.893 388.498 357.305 362.711 393.847 L225 589 C205 623 215 645 252 645 L259 645 C262.855 645 265.791 648.138 265.534 651.984 L265.5 652.5 C265.225 656.631 261.623 660 257.483 660 L257.483 660 Z " />
<glyph glyph-name="agrave" unicode="&#xe0;" horiz-adv-x="597" d="M569.708 44.3426 C560.333 37.1667 547.833 33 527 33 C497 33 488 59 488 97 L488 355 C488 445 419 505 315 505 C193.45 505 100.8 473.21 67.7562 423.141 C54.7166 403.383 65.9609 395 89.6341 395 L119.524 395 C128.329 395 151.173 412.946 155.596 420.56 C177.262 457.859 228.825 481 294 481 C353 481 393 439 393 375 L393 282.056 C393 271.104 384.893 261.407 373.977 260.508 C336.35 257.41 290.45 252.65 259 245 C125 212 36 155 36 104 C36 39 100 -5 197 -5 C263.6 -5 329.39 12.82 379.79 42.628 C386.921 46.8455 397.839 41.8257 400.414 33.9514 C409.446 6.335 428.875 -10 466 -10 C518.725 -10 552.626 6.25688 579.576 30.8561 C583.048 34.0262 583.677 39.5338 580.5 43 L579.778 43.7875 C577.476 46.2984 572.413 46.4129 569.708 44.3426 L569.708 44.3426 Z M189 706 C189 700 205 681 228 656 C260 616 344 530 344 530 C344 530 345.989 531.447 349.5 534 C352.473 536.162 356.399 534.85 354.907 538.209 C352.573 543.467 306.647 646.533 275.433 688.793 C275.199 689.11 270.22 697.344 270.037 697.693 C255.41 725.543 243.75 744 240 744 C225 744 189 717 189 706 L189 706 Z M393 221.392 L393 87 L393 82.5 C393 80.1601 392.292 77.6895 390.122 76.8132 C352.347 61.5556 300.55 53 244 53 C172 53 124 84 124 130 C124 163 177 198 256 218 C294.25 227.35 339.364 234.171 374.76 238.464 C385.015 239.707 393 231.723 393 221.392 L393 221.392 Z " />
<glyph glyph-name="aacute" unicode="&#xe1;" horiz-adv-x="597" d="M242.152 530.159 C246.068 534.271 324.775 617 355 656 C378 682 393 701 393 706 C393 717 357 744 342 744 C339.188 744 327.586 725.543 312.963 697.693 C312.793 697.369 307.86 689.16 307.644 688.864 C276.63 646.371 231 538 231 538 C231 538 232.67 536.785 236.5 534 C239.511 531.81 239.584 527.463 242.152 530.159 L242.152 530.159 Z M569.708 44.3426 C560.333 37.1667 547.833 33 527 33 C497 33 488 59 488 97 L488 355 C488 445 419 505 315 505 C193.45 505 100.8 473.21 67.7562 423.141 C54.7166 403.383 65.9609 395 89.6341 395 L119.524 395 C128.329 395 151.173 412.946 155.596 420.56 C177.262 457.859 228.825 481 294 481 C353 481 393 439 393 375 L393 282.056 C393 271.104 384.893 261.407 373.977 260.508 C336.35 257.41 290.45 252.65 259 245 C125 212 36 155 36 104 C36 39 100 -5 197 -5 C263.6 -5 329.39 12.82 379.79 42.628 C386.921 46.8455 397.839 41.8257 400.414 33.9514 C409.446 6.335 428.875 -10 466 -10 C518.725 -10 552.626 6.25688 579.576 30.8561 C583.048 34.0262 583.677 39.5338 580.5 43 L579.778 43.7875 C577.476 46.2984 572.413 46.4129 569.708 44.3426 L569.708 44.3426 Z M393 221.392 L393 87 L393 82.5 C393 80.1601 392.292 77.6895 390.122 76.8132 C352.347 61.5556 300.55 53 244 53 C172 53 124 84 124 130 C124 163 177 198 256 218 C294.25 227.35 339.364 234.171 374.76 238.464 C385.015 239.707 393 231.723 393 221.392 L393 221.392 Z " />
<glyph glyph-name="acircumflex" unicode="&#xe2;" horiz-adv-x="597" d="M569.708 44.3426 C560.333 37.1667 547.833 33 527 33 C497 33 488 59 488 97 L488 355 C488 445 419 505 315 505 C193.45 505 100.8 473.21 67.7562 423.141 C54.7166 403.383 65.9609 395 89.6341 395 L119.524 395 C128.329 395 151.173 412.946 155.596 420.56 C177.262 457.859 228.825 481 294 481 C353 481 393 439 393 375 L393 282.056 C393 271.104 384.893 261.407 373.977 260.508 C336.35 257.41 290.45 252.65 259 245 C125 212 36 155 36 104 C36 39 100 -5 197 -5 C263.6 -5 329.39 12.82 379.79 42.628 C386.921 46.8455 397.839 41.8257 400.414 33.9514 C409.446 6.335 428.875 -10 466 -10 C518.725 -10 552.626 6.25688 579.576 30.8561 C583.048 34.0262 583.677 39.5338 580.5 43 L579.778 43.7875 C577.476 46.2984 572.413 46.4129 569.708 44.3426 L569.708 44.3426 Z M299.297 721.672 C293.6 730.42 282.8 745 272 745 C260 745 248 728 243 720 C243 720 168.995 589.138 136.731 546.043 C134.841 543.52 134.144 538.094 136.5 536 C138.974 533.801 143.79 535.379 145.905 537.925 C199.368 602.286 236.598 639.761 260.965 661.582 C267.695 667.61 277.821 667.187 284.132 660.723 C331.983 611.717 403 533 403 533 C403 533 404.998 534.776 407.5 537 C409.964 539.19 413.743 538.503 411.856 541.207 C408.224 546.41 336.972 648.723 303.557 714.394 C303.47 714.565 299.402 721.511 299.297 721.672 L299.297 721.672 Z M392 222.392 L392 88 L392 83.5 C392 81.1601 391.292 78.6895 389.122 77.8132 C351.347 62.5556 299.55 54 243 54 C171 54 123 85 123 131 C123 164 176 199 255 219 C293.25 228.35 338.364 235.171 373.76 239.464 C384.015 240.707 392 232.723 392 222.392 L392 222.392 Z " />
<glyph glyph-name="atilde" unicode="&#xe3;" horiz-adv-x="597" d="M64.4337 602.892 C67.9788 634.465 93 655 130 655 C208 655 312 593 390 593 C451.425 593 492.887 638.63 494.922 707.645 C495.047 711.905 491.762 713 487.5 713 C483.845 713 479.961 708.529 479.533 704.899 C475.721 672.535 448.85 652 410 652 C332 652 227 715 149 715 C90.5 715 51.0125 669.37 49.0747 600.355 C48.9552 596.1 52.244 595 56.5 595 C60.1779 595 64.0233 599.238 64.4337 602.892 L64.4337 602.892 Z M569.708 44.3426 C560.333 37.1667 547.833 33 527 33 C497 33 488 59 488 97 L488 355 C488 445 419 505 315 505 C193.45 505 100.8 473.21 67.7562 423.141 C54.7166 403.383 65.9609 395 89.6341 395 L119.524 395 C128.329 395 151.173 412.946 155.596 420.56 C177.262 457.859 228.825 481 294 481 C353 481 393 439 393 375 L393 282.056 C393 271.104 384.893 261.407 373.977 260.508 C336.35 257.41 290.45 252.65 259 245 C125 212 36 155 36 104 C36 39 100 -5 197 -5 C263.6 -5 329.39 12.82 379.79 42.628 C386.921 46.8455 397.839 41.8257 400.414 33.9514 C409.446 6.335 428.875 -10 466 -10 C518.725 -10 552.626 6.25688 579.576 30.8561 C583.048 34.0262 583.677 39.5338 580.5 43 L579.778 43.7875 C577.476 46.2984 572.413 46.4129 569.708 44.3426 L569.708 44.3426 Z M393 221.392 L393 87 L393 82.5 C393 80.1601 392.292 77.6895 390.122 76.8132 C352.347 61.5556 300.55 53 244 53 C172 53 124 84 124 130 C124 163 177 198 256 218 C294.25 227.35 339.364 234.171 374.76 238.464 C385.015 239.707 393 231.723 393 221.392 L393 221.392 Z " />
<glyph glyph-name="adieresis" unicode="&#xe4;" horiz-adv-x="597" d="M376 570 C409 570 431 592 431 625 C431 658 409 680 376 680 C343 680 321 658 321 625 C321 592 343 570 376 570 L376 570 Z M168 570 C201 570 223 592 223 625 C223 658 201 680 168 680 C135 680 113 658 113 625 C113 592 135 570 168 570 L168 570 Z M569.708 44.3426 C560.333 37.1667 547.833 33 527 33 C497 33 488 59 488 97 L488 355 C488 445 419 505 315 505 C193.45 505 100.8 473.21 67.7562 423.141 C54.7166 403.383 65.9609 395 89.6341 395 L119.524 395 C128.329 395 151.173 412.946 155.596 420.56 C177.262 457.859 228.825 481 294 481 C353 481 393 439 393 375 L393 282.056 C393 271.104 384.893 261.407 373.977 260.508 C336.35 257.41 290.45 252.65 259 245 C125 212 36 155 36 104 C36 39 100 -5 197 -5 C263.6 -5 329.39 12.82 379.79 42.628 C386.921 46.8455 397.839 41.8257 400.414 33.9514 C409.446 6.335 428.875 -10 466 -10 C518.725 -10 552.626 6.25688 579.576 30.8561 C583.048 34.0262 583.677 39.5338 580.5 43 L579.778 43.7875 C577.476 46.2984 572.413 46.4129 569.708 44.3426 L569.708 44.3426 Z M393 221.392 L393 87 L393 82.5 C393 80.1601 392.292 77.6895 390.122 76.8132 C352.347 61.5556 300.55 53 244 53 C172 53 124 84 124 130 C124 163 177 198 256 218 C294.25 227.35 339.364 234.171 374.76 238.464 C385.015 239.707 393 231.723 393 221.392 L393 221.392 Z " />
<glyph glyph-name="aring" unicode="&#xe5;" horiz-adv-x="597" d="M202 628 C202 671 230 700 272 700 C314 700 342 671 342 628 C342 589 310 555 272 555 C234 555 202 589 202 628 L202 628 Z M177 628 C177 578 221 535 272 535 C323 535 367 578 367 628 C367 683 329 720 272 720 C215 720 177 683 177 628 L177 628 Z M569.708 44.3426 C560.333 37.1667 547.833 33 527 33 C497 33 488 59 488 97 L488 355 C488 445 419 505 315 505 C193.45 505 100.8 473.21 67.7562 423.141 C54.7166 403.383 65.9609 395 89.6341 395 L119.524 395 C128.329 395 151.173 412.946 155.596 420.56 C177.262 457.859 228.825 481 294 481 C353 481 393 439 393 375 L393 282.056 C393 271.104 384.893 261.407 373.977 260.508 C336.35 257.41 290.45 252.65 259 245 C125 212 36 155 36 104 C36 39 100 -5 197 -5 C263.6 -5 329.39 12.82 379.79 42.628 C386.921 46.8455 397.839 41.8257 400.414 33.9514 C409.446 6.335 428.875 -10 466 -10 C518.725 -10 552.626 6.25688 579.576 30.8561 C583.048 34.0262 583.677 39.5338 580.5 43 L579.778 43.7875 C577.476 46.2984 572.413 46.4129 569.708 44.3426 L569.708 44.3426 Z M393 221.392 L393 87 L393 82.5 C393 80.1601 392.292 77.6895 390.122 76.8132 C352.347 61.5556 300.55 53 244 53 C172 53 124 84 124 130 C124 163 177 198 256 218 C294.25 227.35 339.364 234.171 374.76 238.464 C385.015 239.707 393 231.723 393 221.392 L393 221.392 Z " />
<glyph glyph-name="ccedilla" unicode="&#xe7;" horiz-adv-x="600" d="M259.062 -68.2918 C283.675 -35.2378 302.88 -17.6078 313.605 -9.25781 C315.251 -7.97685 322.961 -5.82327 325.044 -5.73019 C414.176 -1.74731 499.654 23.6248 545.466 60.0977 C548.318 62.368 547.277 65.1537 545 68 C543.196 70.2555 538.877 71.312 536.346 69.92 C513.866 57.5562 450.85 49 375 49 C237 49 145 135 145 265 C145 393 231 479 359 479 C419 479 461 449 465 403 C467 377 485 359 510 359 C533.226 359 548.959 373.984 549.95 396.703 C549.978 397.327 549.519 403.067 549.427 403.685 C540.381 464.074 469.425 504 369 504 C178 504 50 394 50 230 C50 94.475 141.26 2.67875 280.218 -5.5338 C283.256 -5.71334 289.382 -8.53436 287.732 -11.0918 C278.9 -24.7848 260.586 -52.8374 237.087 -89.7226 C236.017 -91.4016 236.344 -93.8957 238 -95 C239.283 -95.8553 243.094 -96.193 244.545 -95.6729 C267.59 -87.415 301.6 -82 332 -82 C386 -82 422 -104 422 -137 C422 -172 379 -196 314 -196 C268.5 -196 231.422 -192.172 215.494 -186.525 C213.261 -185.734 207.955 -186.63 206.5 -188.5 C204.477 -191.101 204.238 -193.863 207.092 -195.512 C234.197 -211.17 283.55 -222 332 -222 C419 -222 477 -188 477 -137 C477 -93 427 -64 353 -64 C322.4 -64 288.91 -67.6125 264.198 -74.8375 C260.426 -75.9406 256.715 -71.4445 259.062 -68.2918 L259.062 -68.2918 Z " />
<glyph glyph-name="egrave" unicode="&#xe8;" horiz-adv-x="606" d="M551 69 C549.201 71.2486 544.856 72.3012 542.329 70.92 C519.71 58.5563 455.7 50 378 50 C241.5 50 148.641 131.922 144.977 258.25 C143.965 293.132 166.26 315 201.156 315 L499 315 C539.575 315 559.725 332.319 547.972 371.155 C523.122 453.272 442.375 505 331 505 C162 505 50 395 50 231 C50 89 151 -5 303 -5 C402.45 -5 500.949 21.6175 551.228 60.9496 C554.105 63.2 553.282 66.148 551 69 L551 69 Z M248 706 C248 700 264 681 287 656 C319 616 403 530 403 530 C403 530 404.989 531.447 408.5 534 C411.473 536.162 415.399 534.85 413.907 538.209 C411.573 543.467 365.647 646.533 334.433 688.793 C334.199 689.11 329.22 697.344 329.037 697.693 C314.41 725.543 302.75 744 299 744 C284 744 248 717 248 706 L248 706 Z M429 346 L198.15 334.332 C170.069 332.913 155.2 350.551 166.96 376.089 C196.485 440.204 253.575 479 327 479 C414 479 472 443 472 390 C472 364 455 346.5 429 345.5 L429 346 Z " />
<glyph glyph-name="eacute" unicode="&#xe9;" horiz-adv-x="606" d="M301.152 530.159 C305.068 534.271 383.775 617 414 656 C437 682 452 701 452 706 C452 717 416 744 401 744 C398.188 744 386.586 725.543 371.963 697.693 C371.793 697.369 366.86 689.16 366.644 688.864 C335.63 646.371 290 538 290 538 C290 538 291.67 536.785 295.5 534 C298.511 531.81 298.584 527.463 301.152 530.159 L301.152 530.159 Z M551 69 C549.201 71.2486 544.856 72.3012 542.329 70.92 C519.71 58.5563 455.7 50 378 50 C241.5 50 148.641 131.922 144.977 258.25 C143.965 293.132 166.26 315 201.156 315 L499 315 C539.575 315 559.725 332.319 547.972 371.155 C523.122 453.272 442.375 505 331 505 C162 505 50 395 50 231 C50 89 151 -5 303 -5 C402.45 -5 500.949 21.6175 551.228 60.9496 C554.105 63.2 553.282 66.148 551 69 L551 69 Z M429 346 L198.15 334.332 C170.069 332.913 155.2 350.551 166.96 376.089 C196.485 440.204 253.575 479 327 479 C414 479 472 443 472 390 C472 364 455 346.5 429 345.5 L429 346 Z " />
<glyph glyph-name="ecircumflex" unicode="&#xea;" horiz-adv-x="606" d="M551 69 C549.201 71.2486 544.856 72.3012 542.329 70.92 C519.71 58.5563 455.7 50 378 50 C241.5 50 148.641 131.922 144.977 258.25 C143.965 293.132 166.26 315 201.156 315 L499 315 C539.575 315 559.725 332.319 547.972 371.155 C523.122 453.272 442.375 505 331 505 C162 505 50 395 50 231 C50 89 151 -5 303 -5 C402.45 -5 500.949 21.6175 551.228 60.9496 C554.105 63.2 553.282 66.148 551 69 L551 69 Z M358.297 721.672 C352.6 730.42 341.8 745 331 745 C319 745 307 728 302 720 C302 720 227.995 589.138 195.731 546.043 C193.841 543.52 193.144 538.094 195.5 536 C197.974 533.801 202.79 535.379 204.905 537.925 C258.368 602.286 295.598 639.761 319.965 661.582 C326.695 667.61 336.821 667.187 343.132 660.723 C390.983 611.717 462 533 462 533 C462 533 463.998 534.776 466.5 537 C468.964 539.19 472.743 538.503 470.856 541.207 C467.224 546.41 395.972 648.723 362.557 714.394 C362.47 714.565 358.402 721.511 358.297 721.672 L358.297 721.672 Z M428 347 L197.15 335.332 C169.069 333.913 154.2 351.551 165.96 377.089 C195.485 441.204 252.575 480 326 480 C413 480 471 444 471 391 C471 365 454 347.5 428 346.5 L428 347 Z " />
<glyph glyph-name="edieresis" unicode="&#xeb;" horiz-adv-x="606" d="M435 570 C468 570 490 592 490 625 C490 658 468 680 435 680 C402 680 380 658 380 625 C380 592 402 570 435 570 L435 570 Z M227 570 C260 570 282 592 282 625 C282 658 260 680 227 680 C194 680 172 658 172 625 C172 592 194 570 227 570 L227 570 Z M551 69 C549.201 71.2486 544.856 72.3012 542.329 70.92 C519.71 58.5563 455.7 50 378 50 C241.5 50 148.641 131.922 144.977 258.25 C143.965 293.132 166.26 315 201.156 315 L499 315 C539.575 315 559.725 332.319 547.972 371.155 C523.122 453.272 442.375 505 331 505 C162 505 50 395 50 231 C50 89 151 -5 303 -5 C402.45 -5 500.949 21.6175 551.228 60.9496 C554.105 63.2 553.282 66.148 551 69 L551 69 Z M429 346 L198.15 334.332 C170.069 332.913 155.2 350.551 166.96 376.089 C196.485 440.204 253.575 479 327 479 C414 479 472 443 472 390 C472 364 455 346.5 429 345.5 L429 346 Z " />
<glyph glyph-name="igrave" unicode="&#xec;" horiz-adv-x="330" d="M82 706 C82 700 98 681 121 656 C153 616 237 530 237 530 C237 530 238.989 531.447 242.5 534 C245.473 536.162 249.399 534.85 247.907 538.209 C245.573 543.467 199.647 646.533 168.433 688.793 C168.199 689.11 163.22 697.344 163.037 697.693 C148.41 725.543 136.75 744 133 744 C118 744 82 717 82 706 L82 706 Z M279.5 15 L274 15 C236 15 210 41 210 80 L210 491 C210 495.968 205.968 500 201 500 L200.998 500 C199.574 500 184.744 497.828 183.38 497.42 L49.311 457.29 C47.0314 456.608 45 453.88 45 451.5 C45 449.104 47.0295 446.446 49.3414 445.816 L56 444 C110 433 120 420 120 366 L120 80 C120 41 94 15 56 15 L50.5 15 C47.4642 15 45 12.5358 45 9.5 L45 7.5 C45 3.36022 48.3602 0 52.5 0 L277.5 0 C281.64 0 285 3.36022 285 7.5 L285 9.5 C285 12.5358 282.536 15 279.5 15 L279.5 15 Z " />
<glyph glyph-name="iacute" unicode="&#xed;" horiz-adv-x="330" d="M90.1517 530.159 C94.0681 534.271 172.775 617 203 656 C226 682 241 701 241 706 C241 717 205 744 190 744 C187.188 744 175.586 725.543 160.963 697.693 C160.793 697.369 155.86 689.16 155.644 688.864 C124.63 646.371 79 538 79 538 C79 538 80.6702 536.785 84.5 534 C87.511 531.81 87.5839 527.463 90.1517 530.159 L90.1517 530.159 Z M279.5 15 L274 15 C236 15 210 41 210 80 L210 491 C210 495.968 205.968 500 201 500 L200.998 500 C199.574 500 184.744 497.828 183.38 497.42 L49.311 457.29 C47.0314 456.608 45 453.88 45 451.5 C45 449.104 47.0295 446.446 49.3414 445.816 L56 444 C110 433 120 420 120 366 L120 80 C120 41 94 15 56 15 L50.5 15 C47.4642 15 45 12.5358 45 9.5 L45 7.5 C45 3.36022 48.3602 0 52.5 0 L277.5 0 C281.64 0 285 3.36022 285 7.5 L285 9.5 C285 12.5358 282.536 15 279.5 15 L279.5 15 Z " />
<glyph glyph-name="icircumflex" unicode="&#xee;" horiz-adv-x="330" d="M192.297 721.672 C186.6 730.42 175.8 745 165 745 C153 745 141 728 136 720 C136 720 61.995 589.138 29.7306 546.043 C27.8415 543.52 27.1441 538.094 29.5 536 C31.9741 533.801 36.7899 535.379 38.9051 537.925 C92.3682 602.286 129.598 639.761 153.965 661.582 C160.695 667.61 170.821 667.187 177.132 660.723 C224.983 611.717 296 533 296 533 C296 533 297.998 534.776 300.5 537 C302.964 539.19 306.743 538.503 304.856 541.207 C301.224 546.41 229.972 648.723 196.557 714.394 C196.47 714.565 192.402 721.511 192.297 721.672 L192.297 721.672 Z M278.5 16 L273 16 C235 16 209 42 209 81 L209 492 C209 496.968 204.968 501 200 501 L199.998 501 C198.574 501 183.744 498.828 182.38 498.42 L48.311 458.29 C46.0314 457.608 44 454.88 44 452.5 C44 450.104 46.0295 447.446 48.3414 446.816 L55 445 C109 434 119 421 119 367 L119 81 C119 42 93 16 55 16 L49.5 16 C46.4642 16 44 13.5358 44 10.5 L44 8.5 C44 4.36022 47.3602 1 51.5 1 L276.5 1 C280.64 1 284 4.36022 284 8.5 L284 10.5 C284 13.5358 281.536 16 278.5 16 L278.5 16 Z " />
<glyph glyph-name="idieresis" unicode="&#xef;" horiz-adv-x="330" d="M269 570 C302 570 324 592 324 625 C324 658 302 680 269 680 C236 680 214 658 214 625 C214 592 236 570 269 570 L269 570 Z M61 570 C94 570 116 592 116 625 C116 658 94 680 61 680 C28 680 6 658 6 625 C6 592 28 570 61 570 L61 570 Z M279.5 15 L274 15 C236 15 210 41 210 80 L210 491 C210 495.968 205.968 500 201 500 L200.998 500 C199.574 500 184.744 497.828 183.38 497.42 L49.311 457.29 C47.0314 456.608 45 453.88 45 451.5 C45 449.104 47.0295 446.446 49.3414 445.816 L56 444 C110 433 120 420 120 366 L120 80 C120 41 94 15 56 15 L50.5 15 C47.4642 15 45 12.5358 45 9.5 L45 7.5 C45 3.36022 48.3602 0 52.5 0 L277.5 0 C281.64 0 285 3.36022 285 7.5 L285 9.5 C285 12.5358 282.536 15 279.5 15 L279.5 15 Z " />
<glyph glyph-name="ntilde" unicode="&#xf1;" horiz-adv-x="727" d="M158.434 602.892 C161.979 634.465 187 655 224 655 C302 655 406 593 484 593 C545.425 593 586.887 638.63 588.922 707.645 C589.047 711.905 585.762 713 581.5 713 C577.845 713 573.961 708.529 573.533 704.899 C569.721 672.535 542.85 652 504 652 C426 652 321 715 243 715 C184.5 715 145.012 669.37 143.075 600.355 C142.955 596.1 146.244 595 150.5 595 C154.178 595 158.023 599.238 158.434 602.892 L158.434 602.892 Z M454.5 0 L679.5 0 C683.64 0 687 3.36022 687 7.5 L687 9.5 C687 12.5358 684.536 15 681.5 15 L676 15 C638 15 612 41 612 80 L612 337 C612 438 569 505 460 505 C400.5 505 317.266 483.563 241.783 450.066 C227.615 443.779 210 452 210 467.5 L210 491 C210 495.968 205.968 500 201 500 L200.998 500 C199.574 500 184.744 497.828 183.38 497.42 L49.311 457.29 C47.0314 456.608 45 453.88 45 451.5 C45 449.104 47.0295 446.446 49.3414 445.816 L56 444 C110 433 120 420 120 366 L120 80 C120 41 94 15 56 15 L50.5 15 C47.4642 15 45 12.5358 45 9.5 L45 7.5 C45 3.36022 48.3602 0 52.5 0 L277.5 0 C281.64 0 285 3.36022 285 7.5 L285 9.5 C285 12.5358 282.536 15 279.5 15 L274 15 C236 15 210 41 210 80 L210 405.8 C210 416.717 217.007 426.751 227.571 429.502 C264.88 439.22 324.55 445 390 445 C485 445 522 398 522 328 L522 80 C522 41 496 15 458 15 L452.5 15 C449.464 15 447 12.5358 447 9.5 L447 7.5 C447 3.36022 450.36 0 454.5 0 L454.5 0 Z " />
<glyph glyph-name="ograve" unicode="&#xf2;" horiz-adv-x="696" d="M150 250 C150 391 229 485 348 485 C467 485 546 391 546 250 C546 109 467 15 348 15 C229 15 150 109 150 250 L150 250 Z M50 250 C50 97 169 -5 348 -5 C527 -5 646 97 646 250 C646 403 527 505 348 505 C169 505 50 403 50 250 L50 250 Z M265 706 C265 700 281 681 304 656 C336 616 420 530 420 530 C420 530 421.989 531.447 425.5 534 C428.473 536.162 432.399 534.85 430.907 538.209 C428.573 543.467 382.647 646.533 351.433 688.793 C351.199 689.11 346.22 697.344 346.037 697.693 C331.41 725.543 319.75 744 316 744 C301 744 265 717 265 706 L265 706 Z " />
<glyph glyph-name="oacute" unicode="&#xf3;" horiz-adv-x="696" d="M318.152 530.159 C322.068 534.271 400.775 617 431 656 C454 682 469 701 469 706 C469 717 433 744 418 744 C415.188 744 403.586 725.543 388.963 697.693 C388.793 697.369 383.86 689.16 383.644 688.864 C352.63 646.371 307 538 307 538 C307 538 308.67 536.785 312.5 534 C315.511 531.81 315.584 527.463 318.152 530.159 L318.152 530.159 Z M150 250 C150 391 229 485 348 485 C467 485 546 391 546 250 C546 109 467 15 348 15 C229 15 150 109 150 250 L150 250 Z M50 250 C50 97 169 -5 348 -5 C527 -5 646 97 646 250 C646 403 527 505 348 505 C169 505 50 403 50 250 L50 250 Z " />
<glyph glyph-name="ocircumflex" unicode="&#xf4;" horiz-adv-x="696" d="M150 250 C150 391 229 485 348 485 C467 485 546 391 546 250 C546 109 467 15 348 15 C229 15 150 109 150 250 L150 250 Z M50 250 C50 97 169 -5 348 -5 C527 -5 646 97 646 250 C646 403 527 505 348 505 C169 505 50 403 50 250 L50 250 Z M375.297 721.672 C369.6 730.42 358.8 745 348 745 C336 745 324 728 319 720 C319 720 244.995 589.138 212.731 546.043 C210.841 543.52 210.144 538.094 212.5 536 C214.974 533.801 219.79 535.379 221.905 537.925 C275.368 602.286 312.598 639.761 336.965 661.582 C343.695 667.61 353.821 667.187 360.132 660.723 C407.983 611.717 479 533 479 533 C479 533 480.998 534.776 483.5 537 C485.964 539.19 489.743 538.503 487.856 541.207 C484.224 546.41 412.972 648.723 379.557 714.394 C379.47 714.565 375.402 721.511 375.297 721.672 L375.297 721.672 Z " />
<glyph glyph-name="otilde" unicode="&#xf5;" horiz-adv-x="696" d="M140.434 602.892 C143.979 634.465 169 655 206 655 C284 655 388 593 466 593 C527.425 593 568.887 638.63 570.922 707.645 C571.047 711.905 567.762 713 563.5 713 C559.845 713 555.961 708.529 555.533 704.899 C551.721 672.535 524.85 652 486 652 C408 652 303 715 225 715 C166.5 715 127.013 669.37 125.075 600.355 C124.955 596.1 128.244 595 132.5 595 C136.178 595 140.023 599.238 140.434 602.892 L140.434 602.892 Z M150 250 C150 391 229 485 348 485 C467 485 546 391 546 250 C546 109 467 15 348 15 C229 15 150 109 150 250 L150 250 Z M50 250 C50 97 169 -5 348 -5 C527 -5 646 97 646 250 C646 403 527 505 348 505 C169 505 50 403 50 250 L50 250 Z " />
<glyph glyph-name="odieresis" unicode="&#xf6;" horiz-adv-x="696" d="M452 570 C485 570 507 592 507 625 C507 658 485 680 452 680 C419 680 397 658 397 625 C397 592 419 570 452 570 L452 570 Z M244 570 C277 570 299 592 299 625 C299 658 277 680 244 680 C211 680 189 658 189 625 C189 592 211 570 244 570 L244 570 Z M150 250 C150 391 229 485 348 485 C467 485 546 391 546 250 C546 109 467 15 348 15 C229 15 150 109 150 250 L150 250 Z M50 250 C50 97 169 -5 348 -5 C527 -5 646 97 646 250 C646 403 527 505 348 505 C169 505 50 403 50 250 L50 250 Z " />
<glyph glyph-name="oslash" unicode="&#xf8;" horiz-adv-x="696" d="M71.2872 -6.32529 L119.627 35.1087 C130.663 44.5686 159.873 44.3353 172.488 37.1137 C219.898 9.97375 279.525 -5 348 -5 C527 -5 646 97 646 250 C646 308.575 628.304 359.663 596.842 400.457 C587.629 412.402 587.471 435.624 598.955 445.406 L644.683 484.36 C650.927 489.678 651.517 498.931 646 505 C640.483 511.069 630.94 511.663 624.713 506.325 L576.373 464.891 C565.337 455.431 536.127 455.665 523.512 462.886 C476.102 490.026 416.475 505 348 505 C169 505 50 403 50 250 C50 191.425 67.6962 140.337 99.1581 99.5432 C108.371 87.5979 108.529 64.3762 97.045 54.5939 L51.3167 15.6401 C45.0735 10.3218 44.4832 1.06851 50 -5 C55.5173 -11.0691 65.0596 -11.6632 71.2872 -6.32529 L71.2872 -6.32529 Z M480.199 382.61 L191.117 134.951 C182.537 127.6 171.725 130.937 167.815 141.538 C156.126 173.234 150 209.575 150 250 C150 391 229 485 348 485 C403.275 485 449.702 464.581 483.912 428.236 C497.852 413.425 495.645 395.842 480.199 382.61 L480.199 382.61 Z M527.185 357.462 C538.874 325.766 545 289.425 545 249 C545 108 466 14 347 14 C291.725 14 245.298 34.4187 211.088 70.7641 C197.148 85.5747 199.355 103.158 214.801 116.39 L503.883 364.049 C512.463 371.4 523.275 368.063 527.185 357.462 L527.185 357.462 Z " />
<glyph glyph-name="ugrave" unicode="&#xf9;" horiz-adv-x="692" d="M253 706 C253 700 269 681 292 656 C324 616 408 530 408 530 C408 530 409.989 531.447 413.5 534 C416.473 536.162 420.399 534.85 418.907 538.209 C416.573 543.467 370.647 646.533 339.433 688.793 C339.199 689.11 334.22 697.344 334.037 697.693 C319.41 725.543 307.75 744 304 744 C289 744 253 717 253 706 L253 706 Z M20.5 485 L26 485 C64 485 90 459 90 420 L90 155 C90 59 152 -5 273 -5 C359.7 -5 424.002 13.785 470.206 43.9855 C480.28 50.5701 493 42.535 493 30.5 L493 9 C493 4.03227 497.032 0 502 0 L502.002 0 C503.426 0 518.256 2.17177 519.62 2.58014 L653.689 42.7096 C655.969 43.392 658 46.1204 658 48.5 C658 50.8963 655.97 53.5535 653.659 54.184 L647 56 C593 67 583 80 583 134 L583 438.56 C583 472.473 555.473 500 521.56 500 L425.5 500 C421.36 500 418 496.64 418 492.5 L418 490.5 C418 487.464 420.464 485 423.5 485 L429 485 C467 485 493 459 493 420 L493 86.5109 C493 79.1144 489.417 72.3524 482.594 69.4976 C459.367 59.78 415.55 54 345 54 C236 54 180 98 180 164 L180.817 438.377 C180.918 472.391 153.391 500 119.377 500 L23.5166 500 C19.3769 500 15.7754 496.631 15.5 492.5 L15.3659 490.488 C15.1644 487.465 17.4709 485 20.5 485 L20.5 485 Z " />
<glyph glyph-name="uacute" unicode="&#xfa;" horiz-adv-x="692" d="M306.152 530.159 C310.068 534.271 388.775 617 419 656 C442 682 457 701 457 706 C457 717 421 744 406 744 C403.188 744 391.586 725.543 376.963 697.693 C376.793 697.369 371.86 689.16 371.644 688.864 C340.63 646.371 295 538 295 538 C295 538 296.67 536.785 300.5 534 C303.511 531.81 303.584 527.463 306.152 530.159 L306.152 530.159 Z M20.5 485 L26 485 C64 485 90 459 90 420 L90 155 C90 59 152 -5 273 -5 C359.7 -5 424.002 13.785 470.206 43.9855 C480.28 50.5701 493 42.535 493 30.5 L493 9 C493 4.03227 497.032 0 502 0 L502.002 0 C503.426 0 518.256 2.17177 519.62 2.58014 L653.689 42.7096 C655.969 43.392 658 46.1204 658 48.5 C658 50.8963 655.97 53.5535 653.659 54.184 L647 56 C593 67 583 80 583 134 L583 438.56 C583 472.473 555.473 500 521.56 500 L425.5 500 C421.36 500 418 496.64 418 492.5 L418 490.5 C418 487.464 420.464 485 423.5 485 L429 485 C467 485 493 459 493 420 L493 86.5109 C493 79.1144 489.417 72.3524 482.594 69.4976 C459.367 59.78 415.55 54 345 54 C236 54 180 98 180 164 L180.817 438.377 C180.918 472.391 153.391 500 119.377 500 L23.5166 500 C19.3769 500 15.7754 496.631 15.5 492.5 L15.3659 490.488 C15.1644 487.465 17.4709 485 20.5 485 L20.5 485 Z " />
<glyph glyph-name="ucircumflex" unicode="&#xfb;" horiz-adv-x="692" d="M363.297 721.672 C357.6 730.42 346.8 745 336 745 C324 745 312 728 307 720 C307 720 232.995 589.138 200.731 546.043 C198.841 543.52 198.144 538.094 200.5 536 C202.974 533.801 207.79 535.379 209.905 537.925 C263.368 602.286 300.598 639.761 324.965 661.582 C331.695 667.61 341.821 667.187 348.132 660.723 C395.983 611.717 467 533 467 533 C467 533 468.998 534.776 471.5 537 C473.964 539.19 477.743 538.503 475.856 541.207 C472.224 546.41 400.972 648.723 367.557 714.394 C367.47 714.565 363.402 721.511 363.297 721.672 L363.297 721.672 Z M19.5 486 L25 486 C63 486 89 460 89 421 L89 156 C89 60 151 -4 272 -4 C358.7 -4 423.003 14.785 469.206 44.9855 C479.28 51.5701 492 43.535 492 31.5 L492 10 C492 5.03227 496.032 1 501 1 L501.002 1 C502.426 1 517.256 3.17177 518.62 3.58014 L652.689 43.7096 C654.969 44.392 657 47.1204 657 49.5 C657 51.8963 654.97 54.5535 652.659 55.184 L646 57 C592 68 582 81 582 135 L582 439.56 C582 473.473 554.473 501 520.56 501 L424.5 501 C420.36 501 417 497.64 417 493.5 L417 491.5 C417 488.464 419.464 486 422.5 486 L428 486 C466 486 492 460 492 421 L492 87.5109 C492 80.1144 488.417 73.3524 481.594 70.4976 C458.368 60.78 414.55 55 344 55 C235 55 179 99 179 165 L179.817 439.377 C179.918 473.391 152.391 501 118.377 501 L22.5166 501 C18.3769 501 14.7754 497.631 14.5 493.5 L14.3659 491.488 C14.1644 488.465 16.4709 486 19.5 486 L19.5 486 Z " />
<glyph glyph-name="udieresis" unicode="&#xfc;" horiz-adv-x="692" d="M440 570 C473 570 495 592 495 625 C495 658 473 680 440 680 C407 680 385 658 385 625 C385 592 407 570 440 570 L440 570 Z M232 570 C265 570 287 592 287 625 C287 658 265 680 232 680 C199 680 177 658 177 625 C177 592 199 570 232 570 L232 570 Z M20.5 485 L26 485 C64 485 90 459 90 420 L90 155 C90 59 152 -5 273 -5 C359.7 -5 424.002 13.785 470.206 43.9855 C480.28 50.5701 493 42.535 493 30.5 L493 9 C493 4.03227 497.032 0 502 0 L502.002 0 C503.426 0 518.256 2.17177 519.62 2.58014 L653.689 42.7096 C655.969 43.392 658 46.1204 658 48.5 C658 50.8963 655.97 53.5535 653.659 54.184 L647 56 C593 67 583 80 583 134 L583 438.56 C583 472.473 555.473 500 521.56 500 L425.5 500 C421.36 500 418 496.64 418 492.5 L418 490.5 C418 487.464 420.464 485 423.5 485 L429 485 C467 485 493 459 493 420 L493 86.5109 C493 79.1144 489.417 72.3524 482.594 69.4976 C459.367 59.78 415.55 54 345 54 C236 54 180 98 180 164 L180.817 438.377 C180.918 472.391 153.391 500 119.377 500 L23.5166 500 C19.3769 500 15.7754 496.631 15.5 492.5 L15.3659 490.488 C15.1644 487.465 17.4709 485 20.5 485 L20.5 485 Z " />
<glyph glyph-name="ydieresis" unicode="&#xff;" horiz-adv-x="609" d="M432 570 C465 570 487 592 487 625 C487 658 465 680 432 680 C399 680 377 658 377 625 C377 592 399 570 432 570 L432 570 Z M224 570 C257 570 279 592 279 625 C279 658 257 680 224 680 C191 680 169 658 169 625 C169 592 191 570 224 570 L224 570 Z M655.5 500 L498.5 500 C494.36 500 491 496.64 491 492.5 L491 490 C491 487.24 493.24 485 496 485 L501 485 C534 485 546 462 531 426 L424.161 201.041 C400.635 151.505 338.141 150.91 313.676 199.988 L204 420 C185 457 192 485 228 485 L233 485 C235.76 485 238 487.24 238 490 L238 492.5 C238 496.64 234.64 500 230.5 500 L0.5 500 C-3.63978 500 -7 496.64 -7 492.5 L-7 490.5 C-7 487.464 -4.53584 485 -1.5 485 L4 485 C42 485 81 459 101 420 L312.179 11.3927 C313.925 8.01401 313.651 0.328287 311.678 -2.92321 C303.336 -16.6719 292.323 -37.0607 284.648 -59.0816 C284.533 -59.4109 280.245 -69.3777 280.084 -69.6871 C245.198 -136.882 213.978 -166.351 172.572 -170.487 C168.912 -170.852 165.31 -172.286 161.882 -170.954 C158.822 -169.766 97.3 -146 70 -146 C42 -146 24 -161 24 -184 C24 -212 57 -230 107 -230 C193 -230 249 -186 307 -72 C307.11 -71.783 308.774 -66.9164 308.858 -66.6877 C320.104 -35.9496 338 -10 338 -10 C338 -10 328.207 -29.2095 343.613 1.00194 C414.693 140.384 484.872 280.667 556 420 C576 459 614 485 652 485 L657.5 485 C660.536 485 663 487.464 663 490.5 L663 492.5 C663 496.64 659.64 500 655.5 500 L655.5 500 Z " />
<glyph glyph-name="Amacron" unicode="&#x100;" horiz-adv-x="775" d="M197 765 L544 765 C557.799 765 569 776.201 569 790 C569 803.799 557.799 815 544 815 L197 815 C183.201 815 172 803.799 172 790 C172 776.201 183.201 765 197 765 L197 765 Z M505.566 0 L762.5 0 C766.64 0 770 3.36022 770 7.5 C770 11.4568 767.735 14.9606 763.782 15.1355 C724.923 16.855 695.9 35 675 73 L389.44 663.746 C386.737 669.339 377.712 675 371.5 675 C365.159 675 354.962 665.594 352.462 659.767 C269.641 466.796 186.821 272.923 104 80 C87 41 51 15 13 15 L7 15 C3.68818 15 1 12.3118 1 9 L1 7.5 C1 3.36022 4.36022 0 8.5 0 L205.5 0 C209.64 0 213 3.36022 213 7.5 C213 11.6398 209.64 15 205.5 15 L189 15 C141 15 123 47 143 95 L185.236 196.22 C193.266 215.465 221.084 234 241.937 234 L461.818 234 C475.734 234 497.078 219.003 503.093 206.453 C523.269 164.366 544.308 121.846 564 80 C583 41 570 15 531 15 L507.566 15 C503.427 15 499.547 11.6035 499 7.5 C498.453 3.39654 501.427 0 505.566 0 L505.566 0 Z M379.521 258.369 L302.691 258.657 C255.882 258.832 228.223 300.447 246.185 343.672 L281.579 428.847 C303.227 480.944 368.987 482.839 393.6 432.076 L435.036 346.613 C456.336 302.682 428.344 258.186 379.521 258.369 L379.521 258.369 Z " />
<glyph glyph-name="amacron" unicode="&#x101;" horiz-adv-x="597" d="M99 605 L445 605 C458.799 605 470 616.201 470 630 C470 643.799 458.799 655 445 655 L99 655 C85.2007 655 74 643.799 74 630 C74 616.201 85.2007 605 99 605 L99 605 Z M569.708 44.3426 C560.333 37.1667 547.833 33 527 33 C497 33 488 59 488 97 L488 355 C488 445 419 505 315 505 C193.45 505 100.8 473.21 67.7562 423.141 C54.7166 403.383 65.9609 395 89.6341 395 L119.524 395 C128.329 395 151.173 412.946 155.596 420.56 C177.262 457.859 228.825 481 294 481 C353 481 393 439 393 375 L393 282.056 C393 271.104 384.893 261.407 373.977 260.508 C336.35 257.41 290.45 252.65 259 245 C125 212 36 155 36 104 C36 39 100 -5 197 -5 C263.6 -5 329.39 12.82 379.79 42.628 C386.921 46.8455 397.839 41.8257 400.414 33.9514 C409.446 6.335 428.875 -10 466 -10 C518.725 -10 552.626 6.25688 579.576 30.8561 C583.048 34.0262 583.677 39.5338 580.5 43 L579.778 43.7875 C577.476 46.2984 572.413 46.4129 569.708 44.3426 L569.708 44.3426 Z M393 221.392 L393 87 L393 82.5 C393 80.1601 392.292 77.6895 390.122 76.8132 C352.347 61.5556 300.55 53 244 53 C172 53 124 84 124 130 C124 163 177 198 256 218 C294.25 227.35 339.364 234.171 374.76 238.464 C385.015 239.707 393 231.723 393 221.392 L393 221.392 Z " />
<glyph glyph-name="Abreve" unicode="&#x102;" horiz-adv-x="775" d="M197.886 865.497 C223.507 794.581 292.025 748 371 748 C449 748 517.494 794.581 543.114 865.497 C544.646 869.738 541.778 872.074 537.5 873.5 C533.85 874.717 529.266 873.458 527.672 869.957 C510.555 832.367 448.9 808 371 808 C292.15 808 230.447 832.368 213.328 869.957 C211.734 873.457 207.149 874.716 203.5 873.5 C199.222 872.074 196.354 869.738 197.886 865.497 L197.886 865.497 Z M505.566 0 L762.5 0 C766.64 0 770 3.36022 770 7.5 C770 11.4568 767.735 14.9606 763.782 15.1355 C724.923 16.855 695.9 35 675 73 L389.44 663.746 C386.737 669.339 377.712 675 371.5 675 C365.159 675 354.962 665.594 352.462 659.767 C269.641 466.796 186.821 272.923 104 80 C87 41 51 15 13 15 L7 15 C3.68818 15 1 12.3118 1 9 L1 7.5 C1 3.36022 4.36022 0 8.5 0 L205.5 0 C209.64 0 213 3.36022 213 7.5 C213 11.6398 209.64 15 205.5 15 L189 15 C141 15 123 47 143 95 L185.236 196.22 C193.266 215.465 221.084 234 241.937 234 L461.818 234 C475.734 234 497.078 219.003 503.093 206.453 C523.269 164.366 544.308 121.846 564 80 C583 41 570 15 531 15 L507.566 15 C503.427 15 499.547 11.6035 499 7.5 C498.453 3.39654 501.427 0 505.566 0 L505.566 0 Z M379.521 258.369 L302.691 258.657 C255.882 258.832 228.223 300.447 246.185 343.672 L281.579 428.847 C303.227 480.944 368.987 482.839 393.6 432.076 L435.036 346.613 C456.336 302.682 428.344 258.186 379.521 258.369 L379.521 258.369 Z " />
<glyph glyph-name="abreve" unicode="&#x103;" horiz-adv-x="597" d="M98.8857 675.497 C124.507 604.581 193.025 558 272 558 C350.975 558 419.493 604.581 445.114 675.497 C446.646 679.738 443.778 682.074 439.5 683.5 C435.851 684.716 431.266 683.457 429.671 679.957 C412.552 642.367 350.85 618 272 618 C193.15 618 131.448 642.368 114.328 679.957 C112.734 683.457 108.149 684.716 104.5 683.5 C100.222 682.074 97.3536 679.738 98.8857 675.497 L98.8857 675.497 Z M569.708 44.3426 C560.333 37.1667 547.833 33 527 33 C497 33 488 59 488 97 L488 355 C488 445 419 505 315 505 C193.45 505 100.8 473.21 67.7562 423.141 C54.7166 403.383 65.9609 395 89.6341 395 L119.524 395 C128.329 395 151.173 412.946 155.596 420.56 C177.262 457.859 228.825 481 294 481 C353 481 393 439 393 375 L393 282.056 C393 271.104 384.893 261.407 373.977 260.508 C336.35 257.41 290.45 252.65 259 245 C125 212 36 155 36 104 C36 39 100 -5 197 -5 C263.6 -5 329.39 12.82 379.79 42.628 C386.921 46.8455 397.839 41.8257 400.414 33.9514 C409.446 6.335 428.875 -10 466 -10 C518.725 -10 552.626 6.25688 579.576 30.8561 C583.048 34.0262 583.677 39.5338 580.5 43 L579.778 43.7875 C577.476 46.2984 572.413 46.4129 569.708 44.3426 L569.708 44.3426 Z M393 221.392 L393 87 L393 82.5 C393 80.1601 392.292 77.6895 390.122 76.8132 C352.347 61.5556 300.55 53 244 53 C172 53 124 84 124 130 C124 163 177 198 256 218 C294.25 227.35 339.364 234.171 374.76 238.464 C385.015 239.707 393 231.723 393 221.392 L393 221.392 Z " />
<glyph glyph-name="Aogonek" unicode="&#x104;" horiz-adv-x="775" d="M505.566 0 L531.516 0 C540.669 0 545.585 -11.7796 538.296 -17.3149 C490.575 -53.5525 440 -108.25 440 -155 C440 -203 490 -235 565 -235 C596.45 -235 627.9 -223.877 645.104 -207.171 C647.27 -205.067 647.635 -201.635 645.5 -199.5 C644.058 -198.058 639.923 -198.065 638.219 -199.186 C628.56 -205.541 608.138 -210 584 -210 C531 -210 495 -184 495 -145 C495 -87.4 554.94 -25.75 590.256 -5.248 C594.22 -2.94658 607.557 0 612.141 0 L762.5 0 C766.64 0 770 3.36022 770 7.5 C770 11.4568 767.735 14.9606 763.782 15.1355 C724.923 16.855 695.9 35 675 73 L389.44 663.746 C386.737 669.339 377.712 675 371.5 675 C365.159 675 354.962 665.594 352.462 659.767 C269.641 466.796 186.821 272.923 104 80 C87 41 51 15 13 15 L7 15 C3.68818 15 1 12.3118 1 9 L1 7.5 C1 3.36022 4.36022 0 8.5 0 L205.5 0 C209.64 0 213 3.36022 213 7.5 C213 11.6398 209.64 15 205.5 15 L189 15 C141 15 123 47 143 95 L185.236 196.22 C193.266 215.465 221.084 234 241.937 234 L461.818 234 C475.734 234 497.078 219.003 503.093 206.453 C523.269 164.366 544.308 121.846 564 80 C583 41 570 15 531 15 L507.566 15 C503.427 15 499.547 11.6035 499 7.5 C498.453 3.39654 501.427 0 505.566 0 L505.566 0 Z M379.521 258.369 L302.691 258.657 C255.882 258.832 228.223 300.447 246.185 343.672 L281.579 428.847 C303.227 480.944 368.987 482.839 393.6 432.076 L435.036 346.613 C456.336 302.682 428.344 258.186 379.521 258.369 L379.521 258.369 Z " />
<glyph glyph-name="aogonek" unicode="&#x105;" horiz-adv-x="597" d="M535.6 32.9287 C498.979 30.585 487 53.525 487 97 L487 355 C487 445 418 505 314 505 C192.45 505 99.8 473.21 66.7562 423.141 C53.7166 403.383 64.9609 395 88.6341 395 L118.524 395 C127.329 395 150.173 412.946 154.596 420.56 C176.262 457.859 227.825 481 293 481 C352 481 392 439 392 375 L392 282.056 C392 271.104 383.893 261.407 372.977 260.508 C335.35 257.41 289.45 252.65 258 245 C124 212 35 155 35 104 C35 39 99 -5 196 -5 C262.6 -5 328.39 12.82 378.79 42.628 C385.921 46.8455 396.839 41.8257 399.414 33.9514 C408.446 6.335 427.875 -10 465 -10 C473.333 -10 480.972 -9.30556 488.495 -8.49537 C490.014 -8.33183 491.319 -9.64096 490.235 -10.7167 C454.42 -46.2475 424 -90.025 424 -130 C424 -193 474 -235 549 -235 C580.45 -235 611.9 -223.877 629.104 -207.171 C631.27 -205.067 631.635 -201.635 629.5 -199.5 C628.058 -198.058 623.923 -198.065 622.219 -199.186 C612.56 -205.541 592.138 -210 568 -210 C515 -210 479 -174 479 -120 C479 -76.525 506.38 -32.1944 535.022 -1.25428 C535.904 -0.301682 549.047 9.7785 550.166 10.4356 C560.147 16.2941 569.278 23.2806 577.558 30.8404 C580.278 33.3238 584 41.8022 584 45.4853 L584 51.1477 C584 54.3241 581.79 56.2163 578.885 54.9334 C570.675 51.3091 561.315 45.7984 551.145 38.7441 C548.643 37.0081 538.639 33.1232 535.6 32.9287 L535.6 32.9287 Z M392 221.392 L392 87 L392 82.5 C392 80.1601 391.292 77.6895 389.122 76.8132 C351.347 61.5556 299.55 53 243 53 C171 53 123 84 123 130 C123 163 176 198 255 218 C293.25 227.35 338.364 234.171 373.76 238.464 C384.015 239.707 392 231.723 392 221.392 L392 221.392 Z " />
<glyph glyph-name="Cacute" unicode="&#x106;" horiz-adv-x="805" d="M401.152 690.159 C405.068 694.271 483.775 777 514 816 C537 842 552 861 552 866 C552 877 516 904 501 904 C498.188 904 486.586 885.543 471.963 857.693 C471.793 857.369 466.86 849.16 466.644 848.864 C435.63 806.371 390 698 390 698 C390 698 391.67 696.785 395.5 694 C398.511 691.81 398.584 687.463 401.152 690.159 L401.152 690.159 Z M745 465.5 L745 599.735 C745 601.391 742.793 601.954 742 600.5 C743.701 603.618 743.442 606.919 740.315 608.604 C678.001 642.185 561.05 665 446 665 C208 665 50 531 50 330 C50 129 208 -5 446 -5 C546.3 -5 648.045 12.34 713.773 39.0364 C733.445 47.0262 744.294 67.9138 743.219 89.1188 L738.234 187.396 C738.09 190.226 737.077 191.924 734.44 190.886 C728.062 188.376 722.903 183.895 725.666 187.301 C726.096 187.83 725.609 188.805 725 188.5 C723.634 187.817 721.878 186.147 721.665 184.634 C720.765 178.247 719.778 171.333 718 166 C692 92 620 36 536 25 C506 22 475 20 444 20 C272 20 158 144 158 330 C158 516 272 640 444 640 C488 640 532 636 573 630 C635 619 693 565 717 495 C720.294 485.941 724.266 474.17 727.8 464.153 C728.824 461.251 732.775 458 735.852 458 L737.5 458 C741.64 458 745 461.36 745 465.5 L745 465.5 Z M716.409 184.381 C711.821 182.117 710.719 183.197 721.504 193.621 C722.399 194.487 722.894 192.681 722.5 191.5 L722.492 191.475 C721.812 189.437 718.336 185.331 716.409 184.381 L716.409 184.381 Z " />
<glyph glyph-name="cacute" unicode="&#x107;" horiz-adv-x="600" d="M294.152 530.159 C298.068 534.271 376.775 617 407 656 C430 682 445 701 445 706 C445 717 409 744 394 744 C391.188 744 379.586 725.543 364.963 697.693 C364.793 697.369 359.86 689.16 359.644 688.864 C328.63 646.371 283 538 283 538 C283 538 284.67 536.785 288.5 534 C291.511 531.81 291.584 527.463 294.152 530.159 L294.152 530.159 Z M545 69 C543.196 71.2555 538.877 72.312 536.346 70.92 C513.866 58.5563 450.85 50 375 50 C237 50 145 136 145 266 C145 394 231 480 359 480 C419 480 461 450 465 404 C467 378 485 360 510 360 C533.226 360 548.959 374.984 549.95 397.703 C549.978 398.327 549.519 404.067 549.427 404.685 C540.381 465.074 469.425 505 369 505 C178 505 50 395 50 231 C50 89 150 -5 300 -5 C397.5 -5 495 21.6175 545.23 60.9496 C548.104 63.2003 547.281 66.1493 545 69 L545 69 Z " />
<glyph glyph-name="Ccircumflex" unicode="&#x108;" horiz-adv-x="805" d="M473.297 881.672 C467.6 890.42 456.8 905 446 905 C434 905 422 888 417 880 C417 880 342.995 749.138 310.731 706.043 C308.841 703.52 308.144 698.094 310.5 696 C312.974 693.801 317.79 695.379 319.905 697.925 C373.368 762.286 410.598 799.761 434.965 821.582 C441.695 827.61 451.821 827.187 458.132 820.723 C505.983 771.718 577 693 577 693 C577 693 578.998 694.776 581.5 697 C583.964 699.19 587.743 698.503 585.856 701.207 C582.224 706.41 510.972 808.723 477.557 874.394 C477.47 874.565 473.402 881.511 473.297 881.672 L473.297 881.672 Z M744 466.5 L744 600.735 C744 602.391 741.793 602.954 741 601.5 C742.701 604.618 742.442 607.919 739.315 609.604 C677.001 643.185 560.05 666 445 666 C207 666 49 532 49 331 C49 130 207 -4 445 -4 C545.3 -4 647.045 13.34 712.773 40.0364 C732.445 48.0262 743.294 68.9138 742.219 90.1188 L737.234 188.396 C737.09 191.226 736.077 192.924 733.44 191.886 C727.062 189.376 721.903 184.895 724.666 188.301 C725.096 188.83 724.609 189.805 724 189.5 C722.634 188.817 720.878 187.147 720.665 185.634 C719.765 179.247 718.778 172.333 717 167 C691 93 619 37 535 26 C505 23 474 21 443 21 C271 21 157 145 157 331 C157 517 271 641 443 641 C487 641 531 637 572 631 C634 620 692 566 716 496 C719.294 486.941 723.266 475.17 726.8 465.153 C727.824 462.251 731.775 459 734.852 459 L736.5 459 C740.64 459 744 462.36 744 466.5 L744 466.5 Z M715.409 185.381 C710.821 183.117 709.719 184.197 720.504 194.621 C721.399 195.487 721.894 193.681 721.5 192.5 L721.492 192.475 C720.812 190.437 717.336 186.331 715.409 185.381 L715.409 185.381 Z " />
<glyph glyph-name="Cdot" unicode="&#x10a;" horiz-adv-x="805" d="M446 730 C479 730 501 752 501 785 C501 818 479 840 446 840 C413 840 391 818 391 785 C391 752 413 730 446 730 L446 730 Z M745 465.5 L745 599.735 C745 601.391 742.793 601.954 742 600.5 C743.701 603.618 743.442 606.919 740.315 608.604 C678.001 642.185 561.05 665 446 665 C208 665 50 531 50 330 C50 129 208 -5 446 -5 C546.3 -5 648.045 12.34 713.773 39.0364 C733.445 47.0262 744.294 67.9138 743.219 89.1188 L738.234 187.396 C738.09 190.226 737.077 191.924 734.44 190.886 C728.062 188.376 722.903 183.895 725.666 187.301 C726.096 187.83 725.609 188.805 725 188.5 C723.634 187.817 721.878 186.147 721.665 184.634 C720.765 178.247 719.778 171.333 718 166 C692 92 620 36 536 25 C506 22 475 20 444 20 C272 20 158 144 158 330 C158 516 272 640 444 640 C488 640 532 636 573 630 C635 619 693 565 717 495 C720.294 485.941 724.266 474.17 727.8 464.153 C728.824 461.251 732.775 458 735.852 458 L737.5 458 C741.64 458 745 461.36 745 465.5 L745 465.5 Z M716.409 184.381 C711.821 182.117 710.719 183.197 721.504 193.621 C722.399 194.487 722.894 192.681 722.5 191.5 L722.492 191.475 C721.812 189.437 718.336 185.331 716.409 184.381 L716.409 184.381 Z " />
<glyph glyph-name="cdot" unicode="&#x10b;" horiz-adv-x="600" d="M369 570 C402 570 424 592 424 625 C424 658 402 680 369 680 C336 680 314 658 314 625 C314 592 336 570 369 570 L369 570 Z M545 69 C543.196 71.2555 538.877 72.312 536.346 70.92 C513.866 58.5563 450.85 50 375 50 C237 50 145 136 145 266 C145 394 231 480 359 480 C419 480 461 450 465 404 C467 378 485 360 510 360 C533.226 360 548.959 374.984 549.95 397.703 C549.978 398.327 549.519 404.067 549.427 404.685 C540.381 465.074 469.425 505 369 505 C178 505 50 395 50 231 C50 89 150 -5 300 -5 C397.5 -5 495 21.6175 545.23 60.9496 C548.104 63.2003 547.281 66.1493 545 69 L545 69 Z " />
<glyph glyph-name="Ccaron" unicode="&#x10c;" horiz-adv-x="805" d="M576.846 927.83 C573.178 923.767 504.69 847.958 458.132 800.277 C451.821 793.813 441.695 793.39 434.965 799.417 C410.598 821.239 373.368 858.714 319.905 923.075 C317.79 925.621 312.974 927.199 310.5 925 C308.144 922.906 308.841 917.48 310.731 914.957 C342.995 871.862 417 741 417 741 C422 733 434 716 446 716 C456.8 716 467.6 730.58 473.297 739.328 C473.402 739.49 477.47 746.935 477.557 747.107 C511.851 814.53 586 921 586 921 C586 921 584.118 922.463 581.5 924.5 C579.024 926.426 578.948 930.158 576.846 927.83 L576.846 927.83 Z M746 466.5 L746 600.735 C746 602.391 743.793 602.954 743 601.5 C744.701 604.618 744.442 607.919 741.315 609.604 C679.001 643.185 562.05 666 447 666 C209 666 51 532 51 331 C51 130 209 -4 447 -4 C547.3 -4 649.045 13.34 714.773 40.0364 C734.445 48.0262 745.294 68.9138 744.219 90.1188 L739.234 188.396 C739.09 191.226 738.077 192.924 735.44 191.886 C729.062 189.376 723.903 184.895 726.666 188.301 C727.096 188.83 726.609 189.805 726 189.5 C724.634 188.817 722.878 187.147 722.665 185.634 C721.765 179.247 720.778 172.333 719 167 C693 93 621 37 537 26 C507 23 476 21 445 21 C273 21 159 145 159 331 C159 517 273 641 445 641 C489 641 533 637 574 631 C636 620 694 566 718 496 C721.294 486.941 725.266 475.17 728.8 465.153 C729.824 462.251 733.775 459 736.852 459 L738.5 459 C742.64 459 746 462.36 746 466.5 L746 466.5 Z M717.409 185.381 C712.821 183.117 711.719 184.197 722.504 194.621 C723.399 195.487 723.894 193.681 723.5 192.5 L723.492 192.475 C722.812 190.437 719.336 186.331 717.409 185.381 L717.409 185.381 Z " />
<glyph glyph-name="ccaron" unicode="&#x10d;" horiz-adv-x="600" d="M499.846 767.83 C496.178 763.767 427.69 687.958 381.132 640.277 C374.821 633.813 364.695 633.39 357.965 639.417 C333.598 661.239 296.368 698.714 242.905 763.075 C240.79 765.621 235.974 767.199 233.5 765 C231.144 762.906 231.841 757.48 233.731 754.957 C265.995 711.862 340 581 340 581 C345 573 357 556 369 556 C379.8 556 390.6 570.58 396.297 579.328 C396.402 579.49 400.47 586.935 400.557 587.107 C434.851 654.53 509 761 509 761 C509 761 507.118 762.463 504.5 764.5 C502.024 766.426 501.948 770.158 499.846 767.83 L499.846 767.83 Z M545 70 C543.196 72.2555 538.877 73.312 536.346 71.92 C513.866 59.5563 450.85 51 375 51 C237 51 145 137 145 267 C145 395 231 481 359 481 C419 481 461 451 465 405 C467 379 485 361 510 361 C533.226 361 548.959 375.984 549.95 398.703 C549.978 399.327 549.519 405.067 549.427 405.685 C540.381 466.074 469.425 506 369 506 C178 506 50 396 50 232 C50 90 150 -4 300 -4 C397.5 -4 495 22.6175 545.23 61.9496 C548.104 64.2003 547.281 67.1493 545 70 L545 70 Z " />
<glyph glyph-name="Dcaron" unicode="&#x10e;" horiz-adv-x="821" d="M523.846 927.83 C520.178 923.767 451.69 847.958 405.132 800.277 C398.821 793.813 388.695 793.39 381.965 799.417 C357.598 821.239 320.368 858.714 266.905 923.075 C264.79 925.621 259.974 927.199 257.5 925 C255.144 922.906 255.841 917.48 257.731 914.957 C289.995 871.862 364 741 364 741 C369 733 381 716 393 716 C403.8 716 414.6 730.58 420.297 739.328 C420.402 739.49 424.47 746.935 424.557 747.107 C458.851 814.53 533 921 533 921 C533 921 531.118 922.463 528.5 924.5 C526.024 926.426 525.948 930.158 523.846 927.83 L523.846 927.83 Z M46.5 646 L52 646 C90 646 116 620 116 581 L116 81 C116 42 90 16 52 16 L46.5 16 C43.4642 16 41 13.5358 41 10.5 L41 8.5 C41 4.36022 44.3602 1 48.5 1 L438 1 C638 1 772 133 772 331 C772 529 616 661 383 661 L48.5 661 C44.3602 661 41 657.64 41 653.5 L41 651.5 C41 648.464 43.4642 646 46.5 646 L46.5 646 Z M216 87.44 L216 574.56 C216 608.473 243.527 636 277.44 636 L383 636 C556 636 672 514 672 331 C672 148 578 26 438 26 L277.44 26 C243.527 26 216 53.527 216 87.44 L216 87.44 Z " />
<glyph glyph-name="dcaron" unicode="&#x10f;" horiz-adv-x="702" d="M737 752 C718 752 696 689 684 644 L640.674 486.099 C639.751 482.737 641.693 479.102 645 478 C648.232 476.923 652.504 478.5 654.259 481.42 L740 624 C772 676 793 725 793 732 C793 746 754 752 737 752 L737 752 Z M431.368 665.809 L438 664 C492 653 502 640 502 586 L502 472.87 C502 462.746 491.345 455.923 482.948 461.578 C444.22 487.66 390.5 505 331 505 C165 505 55 391 55 221 C55 85 152 -5 297 -5 C365.85 -5 433.255 10.895 478.949 37.1579 C487.941 42.3261 501 36.3715 501 26 L501 9 C501 4.03227 505.032 0 510 0 L510.002 0 C511.426 0 526.256 2.17177 527.62 2.58014 L661.689 42.7096 C663.969 43.392 666 46.1204 666 48.5 C666 50.8963 663.97 53.5535 661.659 54.184 L655 56 C601 67 591 80 591 134 L591 711 C591 715.968 586.968 720 582 720 L581.998 720 C580.574 720 565.744 717.828 564.38 717.42 L430.338 677.298 C427.982 676.593 426.228 673.944 426.5 671.5 C426.757 669.19 429.126 666.42 431.368 665.809 L431.368 665.809 Z M491.67 63.3984 C465.734 55.3594 411.375 50 344 50 C225 50 146 132 146 256 C146 390 218 480 325 480 C393.25 480 453.078 457.031 487.066 425.162 C494.832 417.881 500.03 400.847 500.06 390.203 L500.967 78.1803 C500.988 71.1465 498.388 65.4809 491.67 63.3984 L491.67 63.3984 Z " />
<glyph glyph-name="Emacron" unicode="&#x112;" horiz-adv-x="697" d="M170 765 L517 765 C530.799 765 542 776.201 542 790 C542 803.799 530.799 815 517 815 L170 815 C156.201 815 145 803.799 145 790 C145 776.201 156.201 765 170 765 L170 765 Z M517 261 L517 434 C517 437.312 514.312 440 511 440 L510.852 440 C507.817 440 504.037 437.353 503 434.5 L501 429 C489 391 448 365 397 365 L276.44 365 C242.527 365 215 392.527 215 426.44 L215 573.56 C215 607.473 242.527 635 276.44 635 L429 635 C489 635 542 595 562 535 L571.351 505.247 C572.219 502.484 575.604 500 578.5 500 C581.536 500 584 502.464 584 505.5 L584 598.56 C584 632.473 556.473 660 522.56 660 L47.5 660 C43.3602 660 40 656.64 40 652.5 L40 650.5 C40 647.464 42.4642 645 45.5 645 L51 645 C89 645 115 619 115 580 L115 80 C115 41 89 15 51 15 L45.5 15 C42.4642 15 40 12.5358 40 9.5 L40 7.5 C40 3.36022 43.3602 0 47.5 0 L579.917 0 C583.229 0 586.456 2.73324 587 6 L588 12 C594.65 53.8 604.91 110.04 612.778 153.284 C613.313 156.223 611.487 160 608.5 160 C605.769 160 601.79 157.509 600.597 155.053 L586 125 C555 65 495 25 435 25 L276.44 25 C242.527 25 215 52.527 215 86.44 L215 278.56 C215 312.473 242.527 340 276.44 340 L397 340 C448 340 489 311 501 268 L503.235 260.735 C504.166 257.709 507.835 255 511 255 C514.312 255 517 257.688 517 261 L517 261 Z " />
<glyph glyph-name="emacron" unicode="&#x113;" horiz-adv-x="606" d="M158 605 L504 605 C517.799 605 529 616.201 529 630 C529 643.799 517.799 655 504 655 L158 655 C144.201 655 133 643.799 133 630 C133 616.201 144.201 605 158 605 L158 605 Z M551 69 C549.201 71.2486 544.856 72.3012 542.329 70.92 C519.71 58.5563 455.7 50 378 50 C241.5 50 148.641 131.922 144.977 258.25 C143.965 293.132 166.26 315 201.156 315 L499 315 C539.575 315 559.725 332.319 547.972 371.155 C523.122 453.272 442.375 505 331 505 C162 505 50 395 50 231 C50 89 151 -5 303 -5 C402.45 -5 500.949 21.6175 551.228 60.9496 C554.105 63.2 553.282 66.148 551 69 L551 69 Z M429 346 L198.15 334.332 C170.069 332.913 155.2 350.551 166.96 376.089 C196.485 440.204 253.575 479 327 479 C414 479 472 443 472 390 C472 364 455 346.5 429 345.5 L429 346 Z " />
<glyph glyph-name="Ebreve" unicode="&#x114;" horiz-adv-x="697" d="M170.886 865.497 C196.507 794.581 265.025 748 344 748 C422 748 490.494 794.581 516.114 865.497 C517.646 869.738 514.778 872.074 510.5 873.5 C506.85 874.717 502.266 873.458 500.672 869.957 C483.555 832.367 421.9 808 344 808 C265.15 808 203.447 832.368 186.328 869.957 C184.734 873.457 180.149 874.716 176.5 873.5 C172.222 872.074 169.354 869.738 170.886 865.497 L170.886 865.497 Z M517 261 L517 434 C517 437.312 514.312 440 511 440 L510.852 440 C507.817 440 504.037 437.353 503 434.5 L501 429 C489 391 448 365 397 365 L276.44 365 C242.527 365 215 392.527 215 426.44 L215 573.56 C215 607.473 242.527 635 276.44 635 L429 635 C489 635 542 595 562 535 L571.351 505.247 C572.219 502.484 575.604 500 578.5 500 C581.536 500 584 502.464 584 505.5 L584 598.56 C584 632.473 556.473 660 522.56 660 L47.5 660 C43.3602 660 40 656.64 40 652.5 L40 650.5 C40 647.464 42.4642 645 45.5 645 L51 645 C89 645 115 619 115 580 L115 80 C115 41 89 15 51 15 L45.5 15 C42.4642 15 40 12.5358 40 9.5 L40 7.5 C40 3.36022 43.3602 0 47.5 0 L579.917 0 C583.229 0 586.456 2.73324 587 6 L588 12 C594.65 53.8 604.91 110.04 612.778 153.284 C613.313 156.223 611.487 160 608.5 160 C605.769 160 601.79 157.509 600.597 155.053 L586 125 C555 65 495 25 435 25 L276.44 25 C242.527 25 215 52.527 215 86.44 L215 278.56 C215 312.473 242.527 340 276.44 340 L397 340 C448 340 489 311 501 268 L503.235 260.735 C504.166 257.709 507.835 255 511 255 C514.312 255 517 257.688 517 261 L517 261 Z " />
<glyph glyph-name="ebreve" unicode="&#x115;" horiz-adv-x="606" d="M157.886 705.497 C183.507 634.581 252.025 588 331 588 C409.975 588 478.493 634.581 504.114 705.497 C505.646 709.738 502.778 712.074 498.5 713.5 C494.851 714.716 490.266 713.457 488.671 709.957 C471.552 672.367 409.85 648 331 648 C252.15 648 190.447 672.368 173.328 709.957 C171.734 713.457 167.149 714.716 163.5 713.5 C159.222 712.074 156.354 709.738 157.886 705.497 L157.886 705.497 Z M551 69 C549.201 71.2486 544.856 72.3012 542.329 70.92 C519.71 58.5563 455.7 50 378 50 C241.5 50 148.641 131.922 144.977 258.25 C143.965 293.132 166.26 315 201.156 315 L499 315 C539.575 315 559.725 332.319 547.972 371.155 C523.122 453.272 442.375 505 331 505 C162 505 50 395 50 231 C50 89 151 -5 303 -5 C402.45 -5 500.949 21.6175 551.228 60.9496 C554.105 63.2 553.282 66.148 551 69 L551 69 Z M429 346 L198.15 334.332 C170.069 332.913 155.2 350.551 166.96 376.089 C196.485 440.204 253.575 479 327 479 C414 479 472 443 472 390 C472 364 455 346.5 429 345.5 L429 346 Z " />
<glyph glyph-name="Edot" unicode="&#x116;" horiz-adv-x="697" d="M344 730 C377 730 399 752 399 785 C399 818 377 840 344 840 C311 840 289 818 289 785 C289 752 311 730 344 730 L344 730 Z M517 261 L517 434 C517 437.312 514.312 440 511 440 L510.852 440 C507.817 440 504.037 437.353 503 434.5 L501 429 C489 391 448 365 397 365 L276.44 365 C242.527 365 215 392.527 215 426.44 L215 573.56 C215 607.473 242.527 635 276.44 635 L429 635 C489 635 542 595 562 535 L571.351 505.247 C572.219 502.484 575.604 500 578.5 500 C581.536 500 584 502.464 584 505.5 L584 598.56 C584 632.473 556.473 660 522.56 660 L47.5 660 C43.3602 660 40 656.64 40 652.5 L40 650.5 C40 647.464 42.4642 645 45.5 645 L51 645 C89 645 115 619 115 580 L115 80 C115 41 89 15 51 15 L45.5 15 C42.4642 15 40 12.5358 40 9.5 L40 7.5 C40 3.36022 43.3602 0 47.5 0 L579.917 0 C583.229 0 586.456 2.73324 587 6 L588 12 C594.65 53.8 604.91 110.04 612.778 153.284 C613.313 156.223 611.487 160 608.5 160 C605.769 160 601.79 157.509 600.597 155.053 L586 125 C555 65 495 25 435 25 L276.44 25 C242.527 25 215 52.527 215 86.44 L215 278.56 C215 312.473 242.527 340 276.44 340 L397 340 C448 340 489 311 501 268 L503.235 260.735 C504.166 257.709 507.835 255 511 255 C514.312 255 517 257.688 517 261 L517 261 Z " />
<glyph glyph-name="edot" unicode="&#x117;" horiz-adv-x="606" d="M331 570 C364 570 386 592 386 625 C386 658 364 680 331 680 C298 680 276 658 276 625 C276 592 298 570 331 570 L331 570 Z M551 69 C549.201 71.2486 544.856 72.3012 542.329 70.92 C519.71 58.5563 455.7 50 378 50 C241.5 50 148.641 131.922 144.977 258.25 C143.965 293.132 166.26 315 201.156 315 L499 315 C539.575 315 559.725 332.319 547.972 371.155 C523.122 453.272 442.375 505 331 505 C162 505 50 395 50 231 C50 89 151 -5 303 -5 C402.45 -5 500.949 21.6175 551.228 60.9496 C554.105 63.2 553.282 66.148 551 69 L551 69 Z M429 346 L198.15 334.332 C170.069 332.913 155.2 350.551 166.96 376.089 C196.485 440.204 253.575 479 327 479 C414 479 472 443 472 390 C472 364 455 346.5 429 345.5 L429 346 Z " />
<glyph glyph-name="Eogonek" unicode="&#x118;" horiz-adv-x="697" d="M517 261 L517 434 C517 437.312 514.312 440 511 440 L510.852 440 C507.817 440 504.037 437.353 503 434.5 L501 429 C489 391 448 365 397 365 L276.44 365 C242.527 365 215 392.527 215 426.44 L215 573.56 C215 607.473 242.527 635 276.44 635 L429 635 C489 635 542 595 562 535 L571.351 505.247 C572.219 502.484 575.604 500 578.5 500 C581.536 500 584 502.464 584 505.5 L584 598.56 C584 632.473 556.473 660 522.56 660 L47.5 660 C43.3602 660 40 656.64 40 652.5 L40 650.5 C40 647.464 42.4642 645 45.5 645 L51 645 C89 645 115 619 115 580 L115 80 C115 41 89 15 51 15 L45.5 15 C42.4642 15 40 12.5358 40 9.5 L40 7.5 C40 3.36022 43.3602 0 47.5 0 L512.516 0 C521.669 0 526.585 -11.7796 519.296 -17.3149 C471.575 -53.5525 421 -108.25 421 -155 C421 -203 471 -235 546 -235 C577.45 -235 608.9 -223.877 626.104 -207.171 C628.27 -205.067 628.635 -201.635 626.5 -199.5 C625.058 -198.058 620.923 -198.065 619.219 -199.186 C609.56 -205.541 589.138 -210 565 -210 C512 -210 476 -184 476 -145 C476 -84.2 544.59 -18.8875 578.885 -2.21975 C580.865 -1.2573 585.304 3.91119 586 6 L586.403 7.21025 C586.545 7.6337 588.462 14.8888 588.532 15.3295 C595.188 56.751 605.117 111.178 612.778 153.284 C613.313 156.223 611.487 160 608.5 160 C605.769 160 601.79 157.509 600.597 155.053 L586 125 C555 65 495 25 435 25 L276.44 25 C242.527 25 215 52.527 215 86.44 L215 278.56 C215 312.473 242.527 340 276.44 340 L397 340 C448 340 489 311 501 268 L503.235 260.735 C504.166 257.709 507.835 255 511 255 C514.312 255 517 257.688 517 261 L517 261 Z " />
<glyph glyph-name="eogonek" unicode="&#x119;" horiz-adv-x="606" d="M416 6 C416 7.95 496.803 18.4556 550.894 60.6884 C553.769 62.9336 553.279 66.1511 551 69 C549.201 71.2486 544.856 72.3012 542.329 70.92 C519.71 58.5563 455.7 50 378 50 C241.5 50 148.641 131.922 144.977 258.25 C143.965 293.132 166.26 315 201.156 315 L499 315 C539.575 315 559.725 332.319 547.972 371.155 C523.122 453.272 442.375 505 331 505 C162 505 50 395 50 231 C50 89 151 -5 303 -5 C321.071 -5 339.143 -4.32526 356.66 -2.97577 C359.51 -2.75621 362.58 -5.88102 360.284 -7.58325 C311.052 -44.0775 256 -101.6 256 -151 C256 -201 306 -235 381 -235 C412.45 -235 443.9 -223.877 461.104 -207.171 C463.27 -205.067 463.635 -201.635 461.5 -199.5 C460.058 -198.058 455.923 -198.065 454.219 -199.186 C444.56 -205.541 424.138 -210 400 -210 C347 -210 311 -182 311 -141 C311 -76 384.5 -6 416.5 6 L416 6 Z M430 346 L199.15 334.332 C171.069 332.913 156.2 350.551 167.96 376.089 C197.485 440.204 254.575 479 328 479 C415 479 473 443 473 390 C473 364 456 346.5 430 345.5 L430 346 Z " />
<glyph glyph-name="Ecaron" unicode="&#x11a;" horiz-adv-x="697" d="M473.848 927.828 C470.224 923.721 402.549 847.099 356.116 799.293 C349.81 792.799 339.709 792.381 332.961 798.414 C308.576 820.217 271.226 857.572 216.978 921.148 C214.828 923.668 209.976 925.201 207.5 923 C205.144 920.906 205.841 915.48 207.731 912.957 C239.995 869.862 314 739 314 739 C319 731 331 714 343 714 C352.9 714 363.61 728.58 369.298 737.328 C369.402 737.488 373.471 744.937 373.557 745.107 C407.851 812.53 482 919 482 919 C482 919 480.801 920.349 478 923.5 C475.809 925.965 476.03 930.3 473.848 927.828 L473.848 927.828 Z M516 260 L516 433 C516 436.312 513.312 439 510 439 L509.852 439 C506.817 439 503.037 436.353 502 433.5 L500 428 C488 390 447 364 396 364 L275.44 364 C241.527 364 214 391.527 214 425.44 L214 572.56 C214 606.473 241.527 634 275.44 634 L428 634 C488 634 541 594 561 534 L570.351 504.247 C571.219 501.484 574.604 499 577.5 499 C580.536 499 583 501.464 583 504.5 L583 597.56 C583 631.473 555.473 659 521.56 659 L46.5 659 C42.3602 659 39 655.64 39 651.5 L39 649.5 C39 646.464 41.4642 644 44.5 644 L50 644 C88 644 114 618 114 579 L114 79 C114 40 88 14 50 14 L44.5 14 C41.4642 14 39 11.5358 39 8.5 L39 6.5 C39 2.36022 42.3602 -1 46.5 -1 L578.917 -1 C582.229 -1 585.456 1.73324 586 5 L587 11 C593.65 52.8 603.91 109.04 611.778 152.284 C612.313 155.223 610.487 159 607.5 159 C604.769 159 600.79 156.509 599.597 154.053 L585 124 C554 64 494 24 434 24 L275.44 24 C241.527 24 214 51.527 214 85.44 L214 277.56 C214 311.473 241.527 339 275.44 339 L396 339 C447 339 488 310 500 267 L502.235 259.735 C503.166 256.709 506.835 254 510 254 C513.312 254 516 256.688 516 260 L516 260 Z " />
<glyph glyph-name="ecaron" unicode="&#x11b;" horiz-adv-x="606" d="M461.846 767.83 C458.178 763.767 389.69 687.958 343.132 640.277 C336.821 633.813 326.695 633.39 319.965 639.417 C295.598 661.239 258.368 698.714 204.905 763.075 C202.79 765.621 197.974 767.199 195.5 765 C193.144 762.906 193.841 757.48 195.731 754.957 C227.995 711.862 302 581 302 581 C307 573 319 556 331 556 C341.8 556 352.6 570.58 358.297 579.328 C358.402 579.49 362.47 586.935 362.557 587.107 C396.851 654.53 471 761 471 761 C471 761 469.118 762.463 466.5 764.5 C464.024 766.426 463.948 770.158 461.846 767.83 L461.846 767.83 Z M551 70 C549.201 72.2486 544.856 73.3012 542.329 71.92 C519.71 59.5563 455.7 51 378 51 C241.5 51 148.641 132.922 144.977 259.25 C143.965 294.132 166.26 316 201.156 316 L499 316 C539.575 316 559.725 333.319 547.972 372.155 C523.122 454.272 442.375 506 331 506 C162 506 50 396 50 232 C50 90 151 -4 303 -4 C402.45 -4 500.949 22.6175 551.228 61.9496 C554.105 64.2 553.282 67.148 551 70 L551 70 Z M430 347 L199.15 335.332 C171.069 333.913 156.2 351.551 167.96 377.089 C197.485 441.204 254.575 480 328 480 C415 480 473 444 473 391 C473 365 456 347.5 430 346.5 L430 347 Z " />
<glyph glyph-name="Gcircumflex" unicode="&#x11c;" horiz-adv-x="900" d="M463.297 881.672 C457.6 890.42 446.8 905 436 905 C424 905 412 888 407 880 C407 880 332.995 749.138 300.731 706.043 C298.841 703.52 298.144 698.094 300.5 696 C302.974 693.801 307.79 695.379 309.905 697.925 C363.368 762.286 400.598 799.761 424.965 821.582 C431.695 827.61 441.821 827.187 448.132 820.723 C495.983 771.718 567 693 567 693 C567 693 568.998 694.776 571.5 697 C573.964 699.19 577.743 698.503 575.856 701.207 C572.224 706.41 500.972 808.723 467.557 874.394 C467.47 874.565 463.402 881.511 463.297 881.672 L463.297 881.672 Z M724 465.5 L724 600.735 C724 602.391 721.793 602.954 721 601.5 C722.698 604.614 722.443 607.918 719.323 609.604 C657.202 643.185 544.2 666 435 666 C203 666 49 532 49 331 C49 130 203 -4 435 -4 C531.9 -4 631.69 13.34 697.522 40.6505 C716.844 48.666 729 70.4533 729 91.3714 L729 231 C729 270 755 296 793 296 L798.5 296 C801.536 296 804 298.464 804 301.5 L804 303.5 C804 307.64 800.64 311 796.5 311 L571.5 311 C567.36 311 564 307.64 564 303.5 L564 301.5 C564 298.464 566.464 296 569.5 296 L575 296 C613 296 639 270 639 231 L639 77.0832 C639 60.087 628.458 43.9674 611.881 40.2185 C558.845 28.225 496.2 21 435 21 C269 21 159 145 159 331 C159 517 269 641 435 641 C476 641 518 637 558 631 C618 618 673 565 698 496 C701.294 486.941 705.266 475.17 708.8 465.153 C709.824 462.251 713.775 459 716.852 459 L717.5 459 C721.088 459 724 461.912 724 465.5 L724 465.5 Z " />
<glyph glyph-name="Gbreve" unicode="&#x11e;" horiz-adv-x="900" d="M262.886 865.497 C288.507 794.581 357.025 748 436 748 C514.975 748 583.493 794.581 609.114 865.497 C610.646 869.738 607.778 872.074 603.5 873.5 C599.851 874.716 595.266 873.457 593.671 869.957 C576.553 832.367 514.85 808 436 808 C357.15 808 295.448 832.368 278.329 869.957 C276.734 873.457 272.149 874.716 268.5 873.5 C264.222 872.074 261.354 869.738 262.886 865.497 L262.886 865.497 Z M725 464.5 L725 599.735 C725 601.391 722.793 601.954 722 600.5 C723.698 603.614 723.443 606.918 720.323 608.604 C658.202 642.185 545.2 665 436 665 C204 665 50 531 50 330 C50 129 204 -5 436 -5 C532.9 -5 632.69 12.34 698.522 39.6505 C717.844 47.666 730 69.4533 730 90.3714 L730 230 C730 269 756 295 794 295 L799.5 295 C802.536 295 805 297.464 805 300.5 L805 302.5 C805 306.64 801.64 310 797.5 310 L572.5 310 C568.36 310 565 306.64 565 302.5 L565 300.5 C565 297.464 567.464 295 570.5 295 L576 295 C614 295 640 269 640 230 L640 76.0832 C640 59.087 629.458 42.9674 612.881 39.2185 C559.845 27.225 497.2 20 436 20 C270 20 160 144 160 330 C160 516 270 640 436 640 C477 640 519 636 559 630 C619 617 674 564 699 495 C702.294 485.941 706.266 474.17 709.8 464.153 C710.824 461.251 714.775 458 717.852 458 L718.5 458 C722.088 458 725 460.912 725 464.5 L725 464.5 Z " />
<glyph glyph-name="gbreve" unicode="&#x11f;" horiz-adv-x="571" d="M109.886 705.497 C135.507 634.581 204.025 588 283 588 C361.975 588 430.493 634.581 456.114 705.497 C457.646 709.738 454.778 712.074 450.5 713.5 C446.851 714.716 442.266 713.457 440.671 709.957 C423.552 672.367 361.85 648 283 648 C204.15 648 142.447 672.368 125.329 709.957 C123.734 713.457 119.149 714.716 115.5 713.5 C111.222 712.074 108.354 709.738 109.886 705.497 L109.886 705.497 Z M548.503 496.457 C513.519 491.02 478.608 485.852 444.114 479.925 C439.225 479.085 406.276 483.388 401.667 485.224 C368.305 498.513 328.375 506 283 506 C149 506 60 443 60 349 C60 292.9 91.3087 247.69 144.942 220.108 C151.507 216.732 148.392 200.489 141.223 198.725 C81.7537 184.099 45 147.675 45 99 C45 61.05 72.9056 31.2675 120.856 14.1446 C127.284 11.849 125.639 -2.10239 119.199 -4.36675 C57.57 -26.0375 20 -69.6 20 -124 C20 -194 95 -240 207 -240 C413 -240 551 -158 551 -35 C551 38 467 86 342 86 C306 86 224 83 224 83 C153 83 105 103 105 134 C105 168 144 191 202 191 L283 191 C417 191 507 254 507 349 C507 380.35 497.471 408.297 479.537 431.718 C475.218 437.358 478.262 446.65 485.354 447.059 L547.04 450.618 C560.243 451.379 571 462.775 571 476 C571 489.031 561.38 498.459 548.503 496.457 L548.503 496.457 Z M283 212 C200 212 145 267 145 350 C145 432 200 487 283 487 C366 487 422 432 422 350 C422 267 366 212 283 212 L283 212 Z M193.151 0.4585 C231.215 -2.61 253.35 1 317 1 C418 1 485 -31 485 -79 C485 -160 377 -214 216 -214 C134 -214 79 -173 79 -112 C79 -55.95 117.356 -13.8888 176.921 -1.249 C178.302 -0.955979 191.744 0.571928 193.151 0.4585 L193.151 0.4585 Z " />
<glyph glyph-name="Gdot" unicode="&#x120;" horiz-adv-x="900" d="M436 730 C469 730 491 752 491 785 C491 818 469 840 436 840 C403 840 381 818 381 785 C381 752 403 730 436 730 L436 730 Z M725 464.5 L725 599.735 C725 601.391 722.793 601.954 722 600.5 C723.698 603.614 723.443 606.918 720.323 608.604 C658.202 642.185 545.2 665 436 665 C204 665 50 531 50 330 C50 129 204 -5 436 -5 C532.9 -5 632.69 12.34 698.522 39.6505 C717.844 47.666 730 69.4533 730 90.3714 L730 230 C730 269 756 295 794 295 L799.5 295 C802.536 295 805 297.464 805 300.5 L805 302.5 C805 306.64 801.64 310 797.5 310 L572.5 310 C568.36 310 565 306.64 565 302.5 L565 300.5 C565 297.464 567.464 295 570.5 295 L576 295 C614 295 640 269 640 230 L640 76.0832 C640 59.087 629.458 42.9674 612.881 39.2185 C559.845 27.225 497.2 20 436 20 C270 20 160 144 160 330 C160 516 270 640 436 640 C477 640 519 636 559 630 C619 617 674 564 699 495 C702.294 485.941 706.266 474.17 709.8 464.153 C710.824 461.251 714.775 458 717.852 458 L718.5 458 C722.088 458 725 460.912 725 464.5 L725 464.5 Z " />
<glyph glyph-name="gdot" unicode="&#x121;" horiz-adv-x="571" d="M283 570 C316 570 338 592 338 625 C338 658 316 680 283 680 C250 680 228 658 228 625 C228 592 250 570 283 570 L283 570 Z M548.503 496.457 C513.519 491.02 478.608 485.852 444.114 479.925 C439.225 479.085 406.276 483.388 401.667 485.224 C368.305 498.513 328.375 506 283 506 C149 506 60 443 60 349 C60 292.9 91.3087 247.69 144.942 220.108 C151.507 216.732 148.392 200.489 141.223 198.725 C81.7537 184.099 45 147.675 45 99 C45 61.05 72.9056 31.2675 120.856 14.1446 C127.284 11.849 125.639 -2.10239 119.199 -4.36675 C57.57 -26.0375 20 -69.6 20 -124 C20 -194 95 -240 207 -240 C413 -240 551 -158 551 -35 C551 38 467 86 342 86 C306 86 224 83 224 83 C153 83 105 103 105 134 C105 168 144 191 202 191 L283 191 C417 191 507 254 507 349 C507 380.35 497.471 408.297 479.537 431.718 C475.218 437.358 478.262 446.65 485.354 447.059 L547.04 450.618 C560.243 451.379 571 462.775 571 476 C571 489.031 561.38 498.459 548.503 496.457 L548.503 496.457 Z M283 212 C200 212 145 267 145 350 C145 432 200 487 283 487 C366 487 422 432 422 350 C422 267 366 212 283 212 L283 212 Z M193.151 0.4585 C231.215 -2.61 253.35 1 317 1 C418 1 485 -31 485 -79 C485 -160 377 -214 216 -214 C134 -214 79 -173 79 -112 C79 -55.95 117.356 -13.8888 176.921 -1.249 C178.302 -0.955979 191.744 0.571928 193.151 0.4585 L193.151 0.4585 Z " />
<glyph glyph-name="Hcircumflex" unicode="&#x124;" horiz-adv-x="876" d="M465.297 881.672 C459.6 890.42 448.8 905 438 905 C426 905 414 888 409 880 C409 880 334.995 749.138 302.731 706.043 C300.841 703.52 300.144 698.094 302.5 696 C304.974 693.801 309.79 695.379 311.905 697.925 C365.368 762.286 402.598 799.761 426.965 821.582 C433.695 827.61 443.821 827.187 450.132 820.723 C497.983 771.718 569 693 569 693 C569 693 570.998 694.776 573.5 697 C575.964 699.19 579.743 698.503 577.856 701.207 C574.224 706.41 502.972 808.723 469.557 874.394 C469.47 874.565 465.402 881.511 465.297 881.672 L465.297 881.672 Z M829.5 16 L824 16 C786 16 760 42 760 81 L760 581 C760 620 786 646 824 646 L829.5 646 C832.536 646 835 648.464 835 651.5 L835 653.5 C835 657.64 831.64 661 827.5 661 L592.5 661 C588.36 661 585 657.64 585 653.5 L585 651.5 C585 648.464 587.464 646 590.5 646 L596 646 C634 646 660 620 660 581 L660 422.44 C660 388.527 632.473 361 598.56 361 L275.44 361 C241.527 361 214 388.527 214 422.44 L214 581 C214 620 240 646 278 646 L283.5 646 C286.536 646 289 648.464 289 651.5 L289 653.5 C289 657.64 285.64 661 281.5 661 L46.5 661 C42.3602 661 39 657.64 39 653.5 L39 651.5 C39 648.464 41.4642 646 44.5 646 L50 646 C88 646 114 620 114 581 L114 81 C114 42 88 16 50 16 L44.5 16 C41.4642 16 39 13.5358 39 10.5 L39 8.5 C39 4.36022 42.3602 1 46.5 1 L281.5 1 C285.64 1 289 4.36022 289 8.5 L289 10.5 C289 13.5358 286.536 16 283.5 16 L278 16 C240 16 214 42 214 81 L214 274.56 C214 308.473 241.527 336 275.44 336 L598.56 336 C632.473 336 660 308.473 660 274.56 L660 81 C660 42 634 16 596 16 L590.5 16 C587.464 16 585 13.5358 585 10.5 L585 8.5 C585 4.36022 588.36 1 592.5 1 L827.5 1 C831.64 1 835 4.36022 835 8.5 L835 10.5 C835 13.5358 832.536 16 829.5 16 L829.5 16 Z " />
<glyph glyph-name="Itilde" unicode="&#x128;" horiz-adv-x="330" d="M-42.5663 762.892 C-39.0212 794.465 -14 815 23 815 C101 815 205 753 283 753 C344.425 753 385.887 798.63 387.922 867.645 C388.047 871.905 384.762 873 380.5 873 C376.845 873 372.961 868.529 372.533 864.899 C368.721 832.535 341.85 812 303 812 C225 812 120 875 42 875 C-16.5 875 -55.9875 829.37 -57.9253 760.355 C-58.0448 756.1 -54.756 755 -50.5 755 C-46.8221 755 -42.9767 759.238 -42.5663 762.892 L-42.5663 762.892 Z M284.5 15 L279 15 C241 15 215 41 215 80 L215 580 C215 619 241 645 279 645 L284.5 645 C287.536 645 290 647.464 290 650.5 L290 652.5 C290 656.64 286.64 660 282.5 660 L47.5 660 C43.3602 660 40 656.64 40 652.5 L40 650.5 C40 647.464 42.4642 645 45.5 645 L51 645 C89 645 115 619 115 580 L115 80 C115 41 89 15 51 15 L45.5 15 C42.4642 15 40 12.5358 40 9.5 L40 7.5 C40 3.36022 43.3602 0 47.5 0 L282.5 0 C286.64 0 290 3.36022 290 7.5 L290 9.5 C290 12.5358 287.536 15 284.5 15 L284.5 15 Z " />
<glyph glyph-name="itilde" unicode="&#x129;" horiz-adv-x="330" d="M-42.5663 602.892 C-39.0212 634.465 -14 655 23 655 C101 655 205 593 283 593 C344.425 593 385.887 638.63 387.922 707.645 C388.047 711.905 384.762 713 380.5 713 C376.845 713 372.961 708.529 372.533 704.899 C368.721 672.535 341.85 652 303 652 C225 652 120 715 42 715 C-16.5 715 -55.9875 669.37 -57.9253 600.355 C-58.0448 596.1 -54.756 595 -50.5 595 C-46.8221 595 -42.9767 599.238 -42.5663 602.892 L-42.5663 602.892 Z M279.5 15 L274 15 C236 15 210 41 210 80 L210 491 C210 495.968 205.968 500 201 500 L200.998 500 C199.574 500 184.744 497.828 183.38 497.42 L49.311 457.29 C47.0314 456.608 45 453.88 45 451.5 C45 449.104 47.0295 446.446 49.3414 445.816 L56 444 C110 433 120 420 120 366 L120 80 C120 41 94 15 56 15 L50.5 15 C47.4642 15 45 12.5358 45 9.5 L45 7.5 C45 3.36022 48.3602 0 52.5 0 L277.5 0 C281.64 0 285 3.36022 285 7.5 L285 9.5 C285 12.5358 282.536 15 279.5 15 L279.5 15 Z " />
<glyph glyph-name="Imacron" unicode="&#x12a;" horiz-adv-x="330" d="M-8 765 L338 765 C351.799 765 363 776.201 363 790 C363 803.799 351.799 815 338 815 L-8 815 C-21.7993 815 -33 803.799 -33 790 C-33 776.201 -21.7993 765 -8 765 L-8 765 Z M284.5 15 L279 15 C241 15 215 41 215 80 L215 580 C215 619 241 645 279 645 L284.5 645 C287.536 645 290 647.464 290 650.5 L290 652.5 C290 656.64 286.64 660 282.5 660 L47.5 660 C43.3602 660 40 656.64 40 652.5 L40 650.5 C40 647.464 42.4642 645 45.5 645 L51 645 C89 645 115 619 115 580 L115 80 C115 41 89 15 51 15 L45.5 15 C42.4642 15 40 12.5358 40 9.5 L40 7.5 C40 3.36022 43.3602 0 47.5 0 L282.5 0 C286.64 0 290 3.36022 290 7.5 L290 9.5 C290 12.5358 287.536 15 284.5 15 L284.5 15 Z " />
<glyph glyph-name="imacron" unicode="&#x12b;" horiz-adv-x="330" d="M-8 605 L338 605 C351.799 605 363 616.201 363 630 C363 643.799 351.799 655 338 655 L-8 655 C-21.7993 655 -33 643.799 -33 630 C-33 616.201 -21.7993 605 -8 605 L-8 605 Z M279.5 15 L274 15 C236 15 210 41 210 80 L210 491 C210 495.968 205.968 500 201 500 L200.998 500 C199.574 500 184.744 497.828 183.38 497.42 L49.311 457.29 C47.0314 456.608 45 453.88 45 451.5 C45 449.104 47.0295 446.446 49.3414 445.816 L56 444 C110 433 120 420 120 366 L120 80 C120 41 94 15 56 15 L50.5 15 C47.4642 15 45 12.5358 45 9.5 L45 7.5 C45 3.36022 48.3602 0 52.5 0 L277.5 0 C281.64 0 285 3.36022 285 7.5 L285 9.5 C285 12.5358 282.536 15 279.5 15 L279.5 15 Z " />
<glyph glyph-name="Ibreve" unicode="&#x12c;" horiz-adv-x="330" d="M-8.1143 865.497 C17.5069 794.581 86.025 748 165 748 C243.975 748 312.493 794.581 338.114 865.497 C339.646 869.738 336.778 872.074 332.5 873.5 C328.851 874.716 324.266 873.457 322.671 869.957 C305.553 832.367 243.85 808 165 808 C86.15 808 24.4475 832.368 7.3285 869.957 C5.73416 873.457 1.14934 874.716 -2.5 873.5 C-6.77766 872.074 -9.64643 869.738 -8.1143 865.497 L-8.1143 865.497 Z M284.5 15 L279 15 C241 15 215 41 215 80 L215 580 C215 619 241 645 279 645 L284.5 645 C287.536 645 290 647.464 290 650.5 L290 652.5 C290 656.64 286.64 660 282.5 660 L47.5 660 C43.3602 660 40 656.64 40 652.5 L40 650.5 C40 647.464 42.4642 645 45.5 645 L51 645 C89 645 115 619 115 580 L115 80 C115 41 89 15 51 15 L45.5 15 C42.4642 15 40 12.5358 40 9.5 L40 7.5 C40 3.36022 43.3602 0 47.5 0 L282.5 0 C286.64 0 290 3.36022 290 7.5 L290 9.5 C290 12.5358 287.536 15 284.5 15 L284.5 15 Z " />
<glyph glyph-name="ibreve" unicode="&#x12d;" horiz-adv-x="330" d="M-8.1143 705.497 C17.5069 634.581 86.025 588 165 588 C243.975 588 312.493 634.581 338.114 705.497 C339.646 709.738 336.778 712.074 332.5 713.5 C328.851 714.716 324.266 713.457 322.671 709.957 C305.553 672.367 243.85 648 165 648 C86.15 648 24.4475 672.368 7.3285 709.957 C5.73416 713.457 1.14934 714.716 -2.5 713.5 C-6.77766 712.074 -9.64643 709.738 -8.1143 705.497 L-8.1143 705.497 Z M279.5 15 L274 15 C236 15 210 41 210 80 L210 491 C210 495.968 205.968 500 201 500 L200.998 500 C199.574 500 184.744 497.828 183.38 497.42 L49.311 457.29 C47.0314 456.608 45 453.88 45 451.5 C45 449.104 47.0295 446.446 49.3414 445.816 L56 444 C110 433 120 420 120 366 L120 80 C120 41 94 15 56 15 L50.5 15 C47.4642 15 45 12.5358 45 9.5 L45 7.5 C45 3.36022 48.3602 0 52.5 0 L277.5 0 C281.64 0 285 3.36022 285 7.5 L285 9.5 C285 12.5358 282.536 15 279.5 15 L279.5 15 Z " />
<glyph glyph-name="Idot" unicode="&#x130;" horiz-adv-x="330" d="M165 730 C198 730 220 752 220 785 C220 818 198 840 165 840 C132 840 110 818 110 785 C110 752 132 730 165 730 L165 730 Z M284.5 15 L279 15 C241 15 215 41 215 80 L215 580 C215 619 241 645 279 645 L284.5 645 C287.536 645 290 647.464 290 650.5 L290 652.5 C290 656.64 286.64 660 282.5 660 L47.5 660 C43.3602 660 40 656.64 40 652.5 L40 650.5 C40 647.464 42.4642 645 45.5 645 L51 645 C89 645 115 619 115 580 L115 80 C115 41 89 15 51 15 L45.5 15 C42.4642 15 40 12.5358 40 9.5 L40 7.5 C40 3.36022 43.3602 0 47.5 0 L282.5 0 C286.64 0 290 3.36022 290 7.5 L290 9.5 C290 12.5358 287.536 15 284.5 15 L284.5 15 Z " />
<glyph glyph-name="dotlessi" unicode="&#x131;" horiz-adv-x="330" d="M279.5 15 L274 15 C236 15 210 41 210 80 L210 491 C210 495.968 205.968 500 201 500 L200.998 500 C199.574 500 184.744 497.828 183.38 497.42 L49.311 457.29 C47.0314 456.608 45 453.88 45 451.5 C45 449.104 47.0295 446.446 49.3414 445.816 L56 444 C110 433 120 420 120 366 L120 80 C120 41 94 15 56 15 L50.5 15 C47.4642 15 45 12.5358 45 9.5 L45 7.5 C45 3.36022 48.3602 0 52.5 0 L277.5 0 C281.64 0 285 3.36022 285 7.5 L285 9.5 C285 12.5358 282.536 15 279.5 15 L279.5 15 Z " />
<glyph glyph-name="Jcircumflex" unicode="&#x134;" horiz-adv-x="489" d="M351.297 881.672 C345.6 890.42 334.8 905 324 905 C312 905 300 888 295 880 C295 880 220.995 749.138 188.731 706.043 C186.841 703.52 186.144 698.094 188.5 696 C190.974 693.801 195.79 695.379 197.905 697.925 C251.368 762.286 288.598 799.761 312.965 821.582 C319.695 827.61 329.821 827.187 336.132 820.723 C383.983 771.718 455 693 455 693 C455 693 456.998 694.776 459.5 697 C461.964 699.19 465.743 698.503 463.856 701.207 C460.224 706.41 388.972 808.723 355.557 874.394 C355.47 874.565 351.402 881.511 351.297 881.672 L351.297 881.672 Z M440.5 661 L205.5 661 C201.36 661 198 657.64 198 653.5 L198 651.5 C198 648.464 200.464 646 203.5 646 L209 646 C247 646 273 620 273 581 L273 201 C273 64 244 11 169 11 C124 11 90 27 84 51 C78 75 60 91 39 91 C9 91 -7 75 -1 51 C8 15 66 -9 145 -9 C309 -9 373 73 373 285 L373 581 C373 620 399 646 437 646 L442.5 646 C445.536 646 448 648.464 448 651.5 L448 653.5 C448 657.64 444.64 661 440.5 661 L440.5 661 Z " />
<glyph glyph-name="Lacute" unicode="&#x139;" horiz-adv-x="697" d="M141.152 690.159 C145.068 694.271 223.775 777 254 816 C277 842 292 861 292 866 C292 877 256 904 241 904 C238.188 904 226.586 885.543 211.963 857.693 C211.793 857.369 206.86 849.16 206.644 848.864 C175.63 806.371 130 698 130 698 C130 698 131.67 696.785 135.5 694 C138.511 691.81 138.584 687.463 141.152 690.159 L141.152 690.159 Z M594.416 169.036 L571 115 C548 61 498 25 444 25 L276.44 25 C242.527 25 215 52.527 215 86.44 L215 580 C215 619 241 645 279 645 L284.5 645 C287.536 645 290 647.464 290 650.5 L290 652.5 C290 656.64 286.64 660 282.5 660 L47.5 660 C43.3602 660 40 656.64 40 652.5 L40 650.5 C40 647.464 42.4642 645 45.5 645 L51 645 C89 645 115 619 115 580 L115 80 C115 41 89 15 51 15 L45.5 15 C42.4642 15 40 12.5358 40 9.5 L40 7.5 C40 3.36022 43.3602 0 47.5 0 L578.871 0 C582.183 0 585.575 2.75779 586.25 6 L587.5 12 C595.3 56.85 606.427 116.91 614.394 163.447 C614.706 165.271 612.921 168.018 611.24 168.793 C605.033 171.653 597 175 597 175 C597 175 595.862 172.375 594.416 169.036 L594.416 169.036 Z " />
<glyph glyph-name="Lcaron" unicode="&#x13d;" horiz-adv-x="697" d="M434 692 C415 692 393 629 381 584 L337.674 426.099 C336.751 422.737 338.693 419.102 342 418 C345.232 416.923 349.504 418.5 351.259 421.42 L437 564 C469 616 490 665 490 672 C490 686 451 692 434 692 L434 692 Z M594.416 169.036 L571 115 C548 61 498 25 444 25 L276.44 25 C242.527 25 215 52.527 215 86.44 L215 580 C215 619 241 645 279 645 L284.5 645 C287.536 645 290 647.464 290 650.5 L290 652.5 C290 656.64 286.64 660 282.5 660 L47.5 660 C43.3602 660 40 656.64 40 652.5 L40 650.5 C40 647.464 42.4642 645 45.5 645 L51 645 C89 645 115 619 115 580 L115 80 C115 41 89 15 51 15 L45.5 15 C42.4642 15 40 12.5358 40 9.5 L40 7.5 C40 3.36022 43.3602 0 47.5 0 L578.871 0 C582.183 0 585.575 2.75779 586.25 6 L587.5 12 C595.3 56.85 606.427 116.91 614.394 163.447 C614.706 165.271 612.921 168.018 611.24 168.793 C605.033 171.653 597 175 597 175 C597 175 595.862 172.375 594.416 169.036 L594.416 169.036 Z " />
<glyph glyph-name="lcaron" unicode="&#x13e;" horiz-adv-x="330" d="M355 722 C336 722 314 659 302 614 L258.674 456.099 C257.751 452.737 259.693 449.102 263 448 C266.232 446.923 270.504 448.5 272.259 451.42 L358 594 C390 646 411 695 411 702 C411 716 372 722 355 722 L355 722 Z M279.5 15 L274 15 C236 15 210 41 210 80 L210 711 C210 715.968 205.968 720 201 720 L200.998 720 C199.574 720 184.744 717.828 183.38 717.42 L49.311 677.29 C47.0314 676.608 45 673.88 45 671.5 C45 669.104 47.0295 666.446 49.3414 665.816 L56 664 C110 653 120 640 120 586 L120 80 C120 41 94 15 56 15 L50.5 15 C47.4642 15 45 12.5358 45 9.5 L45 7.5 C45 3.36022 48.3602 0 52.5 0 L277.5 0 C281.64 0 285 3.36022 285 7.5 L285 9.5 C285 12.5358 282.536 15 279.5 15 L279.5 15 Z " />
<glyph glyph-name="Lslash" unicode="&#x141;" horiz-adv-x="697" d="M47.5 0 L578.871 0 C582.183 0 585.575 2.75779 586.25 6 L587.5 12 C595.3 56.85 606.427 116.91 614.394 163.447 C614.706 165.271 612.921 168.018 611.24 168.793 C605.033 171.653 597 175 597 175 C597 175 595.862 172.375 594.416 169.036 L571 115 C548 61 498 25 444 25 L276.44 25 C242.527 25 215 52.527 215 86.44 L215 264.311 C215 288.463 235.626 316.199 258.756 323.151 L383.635 360.683 C391.228 362.965 398 372.071 398 380 C398 387.929 391.228 392.965 383.635 390.683 L294.124 363.78 C252.298 351.21 215 378.946 215 422.62 L215 580 C215 619 241 645 279 645 L284.5 645 C287.536 645 290 647.464 290 650.5 L290 652.5 C290 656.64 286.64 660 282.5 660 L47.5 660 C43.3602 660 40 656.64 40 652.5 L40 650.5 C40 647.464 42.4642 645 45.5 645 L51 645 C89 645 115 619 115 580 L115 336.58 C115 322.505 103.003 306.472 89.5 302.5 L78.3905 299.232 C70.7701 296.991 64 287.943 64 280 C64 272.057 70.7701 266.991 78.3905 269.232 L89.5 272.5 C103.003 276.472 115 267.495 115 253.42 L115 80 C115 41 89 15 51 15 L45.5 15 C42.4642 15 40 12.5358 40 9.5 L40 7.5 C40 3.36022 43.3602 0 47.5 0 L47.5 0 Z " />
<glyph glyph-name="lslash" unicode="&#x142;" horiz-adv-x="330" d="M52.5 0 L277.5 0 C281.64 0 285 3.36022 285 7.5 L285 9.5 C285 12.5358 282.536 15 279.5 15 L274 15 C236 15 210 41 210 80 L210 316.995 C210 339.992 229.89 367.763 251.662 375.165 L295.798 390.171 C303.22 392.695 310 402.161 310 410 C310 417.839 303.22 422.695 295.798 420.171 L260 408 C233.87 399.116 210 416.212 210 443.811 L210 711 C210 715.968 205.968 720 201 720 L200.998 720 C199.574 720 184.744 717.828 183.38 717.42 L49.311 677.29 C47.0314 676.608 45 673.88 45 671.5 C45 669.104 47.0295 666.446 49.3414 665.816 L56 664 C110 653 120 640 120 586 L120 403.005 C120 380.008 100.11 352.237 78.3377 344.835 L34.2016 329.829 C26.78 327.305 20 317.839 20 310 C20 302.161 26.78 297.305 34.2016 299.829 L70 312 C96.1295 320.884 120 303.788 120 276.189 L120 80 C120 41 94 15 56 15 L50.5 15 C47.4642 15 45 12.5358 45 9.5 L45 7.5 C45 3.36022 48.3602 0 52.5 0 L52.5 0 Z " />
</font>
</svg>
