<?xml version="1.0" encoding="UTF-8"?>
<svg id="Layer_2" data-name="Layer 2" xmlns="http://www.w3.org/2000/svg" viewBox="0 0 1709 262.01">
  <defs>
    <style>
      .cls-1 {
        fill: #d93a3a;
      }

      .cls-2 {
        fill: #3db64e;
        fill-rule: evenodd;
      }

      .cls-3 {
        fill: #3ab54b;
        fill-rule: evenodd;
      }

      .cls-4 {
        fill: #e5eadb;
      }

    </style>
  </defs>
  <g id="Layer_1-2" data-name="Layer 1">
    <path class="cls-3" d="M753,56v11.99s11.48-8.02,11.48-8.02c17.59-9.29,45.07-8.39,61.02,4.02,2.25,1.75,7.47,8.97,8.07,9.07,3.27.51,3.34-2.48,4.78-3.72,33.47-28.95,87.47-18.59,94.53,29.28,4.07,27.6-.6,59.61.98,87.74l-2.36,1.64-44.5,1v-75.5c0-2.23-3.05-10.31-4.57-12.43-1.39-1.95-6.09-6.17-8.33-6.62-21.06-4.19-28.93,9.33-30.14,28.01-1.18,18.11-.69,41.76,0,60.09.07,1.92.72,3.61,1.05,5.44h-48c.27-1.85.99-3.52,1.05-5.44.49-16.18,2.24-65.58-3.03-78.07-6.83-16.18-30.45-13.5-37.21,1.83-.53,1.19-2.81,7.56-2.81,8.19v73c0,.35-1.45,1.68-2.26,1.31l-44.74-.81V55c.73-.27,1.2,1,1.5,1h43.5Z"/>
    <path class="cls-3" d="M1157,178v58h-45.5c-.11,0-1.5-1.39-1.5-1.5V56h45v10.99s13.02-8.48,13.02-8.48c54.77-19.17,99.46,22.36,89.69,78.69-8.24,47.47-62.23,69.92-100.71,40.79ZM1196.62,93.4c-45.16-20.78-58.93,65.49-7.12,59.6,26.65-3.03,29.93-49.1,7.12-59.6Z"/>
    <path class="cls-3" d="M1667.5,188c-.43.05-1.38,1.37-2.49,1v-10.99c-3.67-.53-4.92,3.09-7.69,4.81-22.06,13.7-55.63,9.22-74.85-7.79-30.56-27.06-28.92-86.39,5.2-109.86,20.91-14.39,54.5-16.59,74.32.83.39-1.17-.49-10,.01-10h47v132c-13.15,1.11-28.65-1.5-41.5,0ZM1629.74,91.24c-28.25,4.84-29.64,54.64-.96,61.48,44.58,10.64,47.28-69.41.96-61.48Z"/>
    <path class="cls-3" d="M1319,134c7.73,23.45,34.84,24.97,54.3,14.8,2.92-1.53,5.88-5.62,9.01-4.68,2.49,3.54,22.87,22.69,22.8,24.35-.13,3-6.18,7.5-8.79,9.34-38.6,27.2-109.77,12.63-122.57-37.05-15.99-62.05,44.94-103.09,100.78-81.78,19.19,7.32,40.48,31.13,40.48,52.52v22.5h-96ZM1371,110c-2.28-30.95-50.72-30.81-53,0h53Z"/>
    <path class="cls-3" d="M1544.87,64.13c.74,1.19-.21,3.31-.65,4.6-1.77,5.12-9.08,22.09-11.79,26.19-.55.83-1.09,1.61-2.05,2.01-14.24-7.55-36.92-13.85-52.38-7.43-8.72,3.62-6.52,10.58,1.55,13.45,26.42,9.4,71.88.99,70.45,45.52-1.56,48.37-76.82,46.75-109.51,35.54-1.91-.65-13.94-5.48-14.36-6.14-1.46-2.3,11.17-28.65,13.46-32.85,16.18,7.85,41.5,16.22,59.22,10.28,7.56-2.54,10.69-9.18,2.2-12.8-10.85-4.64-30.84-4.37-43.78-8.22-16.69-4.96-27.8-14.65-29.09-32.91-3.18-45.38,54.17-51.2,87.07-46.08,4.08.64,28.31,6.66,29.66,8.84Z"/>
    <path class="cls-4" d="M961,133c.04,30.84.01,61.7-.05,92.55-.22,1.02.72,3.45,1.55,3.45h115c.11,0,1.5-1.39,1.5-1.5v-104.5c0-.39,6.8-1.02,6.02-3.99.75-.59,1.98,2.03,1.98,2.49v125.5c0,.09-1.35-.28-1.73.21-.62.79-.1,3.18-.81,4.74-2.61,5.76-7.88,8.43-13.97,9.04-32.15,3.21-69.34-2.41-102.04.06-12.53-1.96-14.58-13.7-15.44-24.56v-104c.34-3.6-11.06-3.26-11.02-4.99l12.02-.49c.64-8.91-1.09-17.66-1.05-26.55.11-24.6-1.36-59.48,1.06-82.94.81-7.8,6.19-15.81,14.44-16.56,32.93-3.01,70.53,2.28,103.96.14,6.4.33,13.59,8.28,13.59,14.41v72.5c-1.59.26-7-2.31-7-3.5V23c-.98.32-2.17-1-2.5-1h-114c-.83,0-1.77,2.42-1.55,3.45.07,33.18.08,66.38.05,99.55,0,2.66,0,5.34,0,8Z"/>
    <path class="cls-2" d="M380,55l92,94V63h20v135l-92-94v85.5c0,.11-1.39,1.5-1.5,1.5h-18.5V55Z"/>
    <path class="cls-2" d="M313,191h-20.5c-3.93-4.01-11.78-29.68-15.16-30.84l-50.88-.23-1.57.69-14.39,30.38h-19c-.61,0-2.1-2.04-1.07-3.04l62.08-130.99,60.49,134.03ZM270,142c.31-2.54-.69-4.69-1.52-6.98-4.17-11.49-11.08-23.66-15.98-35-5.16,9.84-10.33,20.09-14.68,30.3-1.58,3.71-3.85,7.75-3.82,11.68h36Z"/>
    <path class="cls-2" d="M610.5,191c-1.61-.5-12.42-26.94-13.61-30.88-17.92.13-36.33-.85-53.99.51l-13.89,29.89-20.01.49c-1.48-1.46,4.06-13,5.11-15.38,16.54-37.33,35.24-80.08,54.01-115.99.74-1.42,1.37-3.68,3.36-3.64l59.51,135.01h-20.5ZM552,142h36c-2.83-14.01-11.78-26.63-15.91-40.41l-2.59-.61c-4.3,11.22-11.83,23.02-15.99,34.03-.86,2.28-1.77,4.47-1.51,6.99Z"/>
    <path class="cls-2" d="M123,64.5c.27-.88,1.59-1.33,2.5-1.5,4.34-.79,15.07-.23,20.04-.04,6.62.25,17.22.95,23.49,2.51,27.94,6.95,35.28,47.42,12.89,64.95-3.71,2.91-15.05,8.58-19.42,8.58h-18c-.11,0-1.5,1.39-1.5,1.5v50.5h-18.5c-.11,0-1.5-1.39-1.5-1.5v-125ZM143,121c16.1,1.84,36.77-3.59,32.55-24.06-1.4-6.81-10.2-14.94-17.05-14.94h-15.5v39Z"/>
    <path class="cls-1" d="M961,125c12.47-4.4,21.23-15.25,29.51-25l11.02,11.96c4.83,6.21,11.32-1.37,15.53-5.44,10.22-9.87,17.97-22.52,25.6-34.45l58.35,27.44c.38,1.78-10.44,12.67-12.49,14.52-24.6,22.22-65.45,25.54-97.01,22.95-10.19-.84-20.26-3.62-30.51-3.99,0-2.66,0-5.34,0-8Z"/>
    <path class="cls-3" d="M19,64v106.5c0,.11,1.39,1.5,1.5,1.5h35.5v19H0V63c1.08-.37,2.19,1,2.5,1h16.5Z"/>
    <rect class="cls-3" x="74" y="64" width="19" height="126"/>
  </g>
</svg>
